<?xml version="1.0" encoding="UTF-8"?>
<svg enable-background="new 0 0 399.175 336.387" viewBox="0 0 399.175 336.387" xmlns="http://www.w3.org/2000/svg">
 <path d="m154.73 37.566c24.025 0 43.524 19.805 43.524 44.208s-19.499 44.208-43.524 44.208-43.524-19.805-43.524-44.208 19.499-44.208 43.524-44.208" fill="#fff" fill-rule="evenodd"/>
 <path d="m289.393,60.966c-3.779-5.652-8.531-12.24-14.543-20.124-6.014-7.92-9.434-19.332-23.293-25.272-14.004-5.868-21.275-14.724-38.916-15.552-17.604-.792-31.752,9.216-43.38,14.436-11.556,5.292-27.36,26.28-35.028,38.916-7.632,12.708-14.832,20.736-17.784,37.8-2.88,17.1-7.92,28.224-3.312,46.152 0,0 7.38,32.436 13.644,45.576l3.924,8.244-5.364-7.201c-6.876-8.818-22.14-28.187-22.14-28.187-10.332-8.928-20.808-14.22-33.804-17.676-12.96-3.42-25.632-.108-37.296,2.952-11.628,3.096-22.14,8.1-32.076,15.3 6.372,9.216 17.496,16.633 33.948,22.645 16.56,5.939 47.808,8.352 64.152,13.068 16.164,4.68 26.712,9.504 32.22,14.76-3.096,5.111-2.052,11.52 3.132,19.908 5.184,8.207 18.144,23.471 27.756,29.555 9.54,6.012 18.972,8.172 28.98,6.625 1.908,10.115 7.2,18 16.02,23.939 8.82,5.832 30.133,10.584 36.576,11.195 6.301.504 6.625-2.051 1.117-7.811 12.672,2.52 19.26,2.988 19.764,1.836 .432-1.297-5.076-4.357-16.813-9.324 7.561-1.801 10.871-3.457 10.08-4.824-.828-1.439-5.797-2.736-14.904-3.744 2.016-2.736 2.664-4.5 2.232-5.58-.504-1.043-1.225.648-5.221-.756-4.139-1.512-14.363-3.852-19.008-8.568-4.68-4.859-7.416-11.699-8.604-20.52 7.668-.721 15.768-2.881 24.984-6.336 9.143-3.564 18.828-8.316 29.482-14.545 4.645,1.621 10.729,4.609 18.648,8.965 7.957,4.393 23.689,11.771 28.332,17.137 4.393,5.256 3.816,9.936-1.871,14.184l8.568-2.988c-5.508,4.572-8.316,7.451-8.568,8.928-.289,1.367 2.123,1.297 7.092-.359-6.947,8.279-10.008,12.707-9.324,13.428 .684.648 5.111-2.412 13.428-9.324 .973,4.141 2.088,4.752 3.348,2.232 1.297-2.701 4.752-10.008 4.105-17.893-.9-8.064-4.068-20.988-8.965-29.447-4.969-8.424-11.664-15.336-20.484-20.881 .756-1.225 1.297-4.068 1.477-8.963 .035-4.824-.037-11.342-.359-20.125-.217-9.072 1.727-22.536-1.117-33.192-3.023-10.62-8.316-20.592-16.416-30.204 1.836-16.129 3.709-32.257 5.581-48.385z" fill-rule="evenodd" stroke="#000" stroke-miterlimit="10" stroke-width=".036"/>
 <path d="m252.098,18.918c-13.465-9.468-26.064-14.652-38.34-15.552-12.35-.936-25.417,5.688-35.029,10.008-9.72,4.176-15.336,8.568-22.248,15.552-6.984,6.948-13.104,16.632-18.9,26.136-5.868,9.396-11.844,19.08-15.552,30.024s-5.94,25.992-6.696,34.992c-.792,8.676.144,9.576 1.692,17.82 1.476,8.424 3.816,22.032 6.876,31.787 2.952,9.576 6.48,17.893 10.728,25.344-1.764,1.297-3.672.938-5.724-1.078-2.16-2.125-2.7-5.617-6.768-11.053-4.176-5.58-11.556-15.264-17.856-21.42-6.408-6.228-12.888-11.556-20.016-15.012-7.236-3.564-15.624-4.968-22.824-5.724-7.236-.9-12.636-1.044-20.376,1.08-7.92,2.16-22.428,7.56-26.424,11.772-4.032,4.14.396,8.964 2.88,12.528 2.52,3.349 6.336,4.968 12.132,7.487 5.688,2.412 13.536,5.113 22.14,7.129 8.604,1.836 20.556,3.24 28.908,4.645 8.172,1.404 11.484.539 20.34,3.924 8.856,3.275 19.548,8.676 32.508,16.055-2.232,3.098-2.808,6.66-1.44,11.09 1.332,4.428 6.3,10.619 9.216,15.084 2.772,4.248 2.196,6.336 7.848,10.836 5.724,4.57 18.576,13.031 25.776,16.199 7.02,2.951 12.456,3.6 16.452,1.801 .504,4.318 1.908,8.566 4.608,12.742 2.664,4.141 4.284,8.461 11.089,12.133 6.66,3.492 22.822,7.885 28.906,9.289 5.941,1.223 6.66-.109 7.164-1.08 .541-.973-.826-2.521-3.959-4.645 4.824.396 7.451.072 7.885-.684 .359-.9-1.332-2.232-5.365-4.285 2.449-.9 3.348-2.051 2.844-3.6-.646-1.549-2.482-3.492-6.047-5.688 .648-1.836.863-3.313.359-4.285-.576-1.008-.504-.828-3.24-1.799-2.844-1.08-9.648-2.629-13.211-4.645-3.672-2.016-5.941-3.168-8.209-7.488-2.412-4.428-4.176-10.691-5.688-18.936 8.676-2.16 16.236-4.248 22.824-6.408 6.48-2.232 10.799-3.924 16.451-6.443 5.652-2.629 11.232-5.473 17.137-8.928 8.424,2.771 15.516,5.76 22.104,8.566 6.443,2.773 11.377,4.934 16.453,8.568 4.967,3.6 10.799,9.361 13.211,12.852 2.305,3.35 2.484,5.689.684,7.164 2.773-.322 4.32.037 4.645,1.08 .287.973-2.736,3.602-2.844,4.969-.217,1.26.432,2.053 1.799,2.52-.971,1.656-1.08,2.592-.719,3.205 .467.504 1.404.504 3.203,0 1.404.719 2.305-.109 2.844-2.484 .469-2.557.613-6.588 0-11.809-.756-5.363-1.08-12.852-4.283-19.26-3.348-6.443-11.053-14.4-15.336-18.576-4.393-4.211-7.703-6.299-10.367-6.408 1.115-.143 1.836-4.176 2.158-12.24 .289-8.244.217-25.811-.359-36.035-.684-10.296 0-8.892-3.924-24.66-4.141-15.984-13.32-50.04-20.34-69.264-7.165-19.187-14.149-33.876-21.78-44.892z" fill="#404040" fill-rule="evenodd" stroke="#000" stroke-miterlimit="10" stroke-width=".036"/>
 <path d="m218.941,80.73c3.887-6.12 3.383-9.756-1.512-11.196-5.041-1.476-23.437,7.308-27.973,2.628-4.644-4.788 6.3-29.556.756-30.96-5.796-1.404-26.676,20.916-34.308,22.392-7.56,1.188-7.272-18.072-10.8-14.184-3.672,3.96-14.544,34.524-10.836,37.656 3.744,2.772 28.692-20.988 33.192-19.764 4.248,1.368-10.476,23.904-7.092,27.612 3.528,3.456 23.616-10.008 27.612-5.976 3.636,4.176-8.82,28.62-4.86,30.564 4.032,1.692 13.464-4.716 28.729-19.764 2.34-6.336 4.715-12.672 7.092-19.008z" fill="#a1a1a1" fill-rule="evenodd"/>
 <path d="m29.113 143.19c-3.42 4.212-5.904 8.424-7.452 13.068-1.62 4.572-2.196 9.144-1.872 14.148-2.088 0-4.572-1.115-7.452-3.348-2.952-2.304-6.3-5.616-10.044-10.08 3.744-2.952 7.74-5.508 12.276-7.812 4.5-2.34 9.252-4.284 14.544-5.976z" fill-rule="evenodd" stroke="#000" stroke-miterlimit="10" stroke-width=".036"/>
 <path d="m42.181,180.09c-3.06-8.135-4.5-15.408-4.464-22.355 .036-7.02 1.692-13.176 4.824-19.008 2.664-.9 5.904-1.404 9.72-1.512 3.852-.144 8.064.108 13.032.756-2.952,3.996-4.644,9.792-5.22,17.532-.648,7.812.108,17.099 1.872,28.691-6.588-1.368-13.176-2.735-19.764-4.104z" fill-rule="evenodd" stroke="#000" stroke-miterlimit="10" stroke-width=".036"/>
 <path d="m86.965,147.69c-.576.036-1.044,2.232-1.548,6.3-.576,4.248-1.764,12.384-1.476,18.287 .216,5.617 1.224,10.836 3.024,15.66 1.368-.359 3.096-.359 5.328,0 2.16.252 4.68.9 7.704,1.801-2.232-8.244-3.456-15.012-3.384-20.447-.072-5.473 1.152-9.469 3.384-12.133-1.404-2.412-3.132-4.284-5.328-5.904-2.196-1.584-4.716-2.772-7.704-3.564z" fill-rule="evenodd" stroke="#000" stroke-miterlimit="10" stroke-width=".036"/>
 <path d="m150.32 219.94c0.54 12.564 4.104 21.457 11.232 27.217 7.056 5.615 17.136 7.74 30.78 6.516 2.772 7.668 6.48 12.6 11.269 14.797 4.787 2.195 17.639 2.807 17.172-1.764-0.721-4.861-18.973-19.008-20.736-26.064-1.836-6.984 13.607-11.232 10.08-15.373-3.637-4.176-29.052-5.219-31.392-9.504-2.34-4.463 20.376-15.264 17.172-16.559-3.492-1.262-15.696 1.654-37.296 8.891l-8.281 11.843z" fill="#a1a1a1" fill-rule="evenodd"/>
 <path d="m268.045,168.39c-7.775.252-14.004-1.872-18.684-6.912-4.752-5.148-7.957-15.912-9.613-22.968-1.764-6.984 3.529-15.048-.504-18.648-4.176-3.672-17.314,3.132-24.012-3.204-6.803-6.624-18.107-22.428-16.02-35.208 2.232-12.78 11.699-26.208 28.98-40.824 8.711-12.78 16.344-22.176 23.328-29.016 6.84-6.84 12.744-11.088 18-11.34 5.184-.216 11.195,4.716 13.176,9.937 1.836,5.112 1.26,11.736-1.873,20.412 10.045-5.94 17.424-9.18 22.537-9.864s7.523,1.332 7.775,5.904c11.664-8.892 19.225-11.844 23.111-9.144 3.816,2.808 2.053,17.748-.287,25.524-2.484,7.596-7.309,14.256-14.473,20.124-.863,4.68-1.475,10.368-1.836,17.208-.467,6.768 3.709,14.544-.539,23.472-4.393,8.856-12.564,18.504-25.057,29.34 4.355,14.112 4.537,23.94.541,29.88-4.031,5.867-12.165,7.595-24.55,5.327z" fill-rule="evenodd" stroke="#000" stroke-miterlimit="10" stroke-width=".036"/>
 <path d="m242.953,126.27c-1.549,1.944-1.549,5.544 0,11.196 1.439,5.58 5.256,17.64 9.107,22.284 3.889,4.5 8.316,6.192 13.824,4.932 2.699-4.392 5.328-7.776 8.027-10.152 2.701-2.52 5.508-5.796 7.992-4.284 2.305,1.476 4.213,5.976 5.869,13.356 1.332-.216 2.412-1.296 3.24-3.384 .791-2.124 1.475-4.464 1.619-9.108 .072-4.752-.432-11.016-1.367-19.08 3.563-2.88 7.234-6.984 11.447-12.168 4.141-5.436 10.98-12.6 13.283-19.116 2.16-6.552.145-13.032.072-19.296-.107-6.192-.504-12.06-.9-17.748 7.416-5.976 12.602-11.52 15.842-16.92 3.168-5.436 2.951-10.584 3.238-15.3 .217-4.752 2.232-12.564-1.871-12.888-4.248-.432-11.988,3.06-23.363,10.476 .359-4.176-.721-6.408-3.24-6.984-2.701-.504-7.236,1.296-12.061,3.744-4.969,2.376-14.436,10.152-16.596,10.26-2.125-.216 3.492-6.48 4.211-10.584 .686-4.14 1.477-9.72 0-13.68-1.584-3.996-4.57-9.864-9.395-9.684-5.041.18-13.285,4.5-19.873,11.016-6.623,6.516-12.924,15.372-19.332,27.396-9.035,6.948-16.055,13.788-21.203,20.952-5.184,7.056-9.145,14.004-9.648,21.528-.576,7.416 2.951,17.1 6.408,22.932 3.42,5.724 8.783,9.612 13.859,11.232 4.932,1.404 12.492-3.672 16.02-2.16 3.459,1.548 5.006,5.148 4.791,11.232z" fill="#616161" fill-rule="evenodd" stroke="#000" stroke-miterlimit="10" stroke-width=".036"/>
 <path d="m271.248,135.846c7.705-6.948 10.01-14.004 7.453-21.312-2.701-7.452-10.332-17.892-23.473-22.428-13.393-4.5-31.428-5.868-55.476-4.248 3.78,11.088 7.704,18.972 12.06,24.048 4.393,4.968 8.82,5.22 13.68,5.904 4.572.54 11.412-3.816 14.256-2.232 2.773,1.584.938,8.604 2.664,11.736 1.656,2.916 2.664,5.004 7.488,6.408 4.825,1.404 11.844,2.16 21.348,2.124z" fill-rule="evenodd" stroke="#000" stroke-miterlimit="10" stroke-width=".036"/>
 <path d="m288.31 106.51c2.412-6.516 7.164-4.392 11.736-10.116 4.572-5.76 9.287-8.748 16.199-19.116 2.809 10.08 2.449 19.188-1.08 27.9-3.635 8.712-15.658 19.692-20.123 23.652-4.535 3.744-6.732 3.42-6.732-0.972 0 0-2.413-14.796 0-21.348z" fill-rule="evenodd" stroke="#000" stroke-miterlimit="10" stroke-width=".036"/>
 <path d="m249.434,113.058c3.096-2.7 5.688-3.924 7.775-3.672 2.088.18 3.744,2.196 4.535,4.932 .613,2.7.289,6.336-.828,11.052-3.059.108-5.471-.792-7.379-2.844-1.943-2.052-3.312-5.256-4.103-9.468z" fill="#fff" fill-rule="evenodd" stroke="#000" stroke-miterlimit="10" stroke-width=".036"/>
 <path d="m251.484,116.766c1.801-1.008 3.205-1.656 4.5-1.656 1.26-.144 2.268-.144 2.881,1.26 .467,1.368.467,3.636 0,6.948-1.297-.288-2.484-.972-3.709-2.052-1.26-1.08-2.482-2.628-3.672-4.5z" fill-rule="evenodd" stroke="#000" stroke-miterlimit="10" stroke-width=".036"/>
 <path d="m256.129,118.014c1.313,0 2.377.968 2.377,2.16s-1.064,2.16-2.377,2.16-2.377-.968-2.377-2.16 1.064-2.16 2.377-2.16" fill="#fff" fill-rule="evenodd"/>
 <path d="m304.262,106.65c-3.277-2.736-5.904-3.996-8.029-3.78-2.268.216-3.996,2.268-4.643,5.04s-.361,6.444.863,11.412c3.096.18 5.58-.9 7.596-2.952 2.015-2.124 3.275-5.364 4.213-9.72z" fill="#fff" fill-rule="evenodd" stroke="#000" stroke-miterlimit="10" stroke-width=".036"/>
 <path d="m302.137,110.466c-1.871-1.116-3.313-1.584-4.607-1.692-1.332-.144-2.557-.144-2.988,1.26-.504,1.404-.504,3.744 0,7.164 1.295-.216 2.52-1.044 3.816-2.088 1.222-1.152 2.484-2.7 3.779-4.644z" fill-rule="evenodd" stroke="#000" stroke-miterlimit="10" stroke-width=".036"/>
 <path d="m297.408,111.858c1.352,0 2.449.984 2.449,2.196s-1.098,2.196-2.449,2.196-2.447-.984-2.447-2.196 1.096-2.196 2.447-2.196" fill="#fff" fill-rule="evenodd"/>
 <path d="m273.842,159.75c1.223-1.224 3.348-3.168 4.822-3.492 1.332-.36 2.594-.36 3.205,1.368 .504,1.656.359,7.524 0,8.568-.541.828-2.592-2.196-2.664-2.952-.072-.828 1.836-.756 2.123-1.584 .109-.972.541-3.708-1.043-3.492-1.691.252-7.523,4.5-8.604,4.824-1.079.144.936-2.088 2.161-3.24z" fill="#fff" fill-rule="evenodd" stroke="#000" stroke-miterlimit="10" stroke-width=".036"/>
 <path d="m287.232,137.934c1.621-1.944 4.932-3.78 9.936-5.652 5.041-1.944 14.258-4.68 19.873-5.436 5.473-.828 9.721-.36 12.889,1.008-6.588-.144-12.529.468-18.252,1.692-5.832,1.224-11.809,3.816-15.842,5.688-3.959,1.692-6.551,3.24-7.775,4.644-.252-.648-.54-1.295-.829-1.944z" fill-rule="evenodd" stroke="#000" stroke-miterlimit="10" stroke-width=".036"/>
 <path d="m290.58,139.518c1.729-1.476 4.824-2.664 9.434-3.564 4.57-1.08 13.066-2.088 18-2.052 4.859.072 8.459.936 11.088,2.592-5.76-1.008-10.945-1.332-16.129-.972-5.184.216-10.908,1.8-14.543,2.808-3.744.936-6.084,1.944-7.416,3.024l-.434-1.836z" fill-rule="evenodd" stroke="#000" stroke-miterlimit="10" stroke-width=".036"/>
 <path d="m242.664,44.623c-3.635-1.116-4.787-3.204-3.744-6.696 1.01-3.6 5.652-8.856 10.189-13.968 4.572-5.148 12.168-13.752 16.668-16.38 4.283-2.664 6.947-1.872 9.396.288 2.303,2.052 5.291,7.92 5.074,12.06-.432,4.104-3.131,6.048-6.695,12.348-3.564,6.228-8.352,14.292-14.508,24.732-.432-2.484-1.367-4.284-2.664-5.4-1.439-1.188-3.096-.468-5.4-1.584-2.302-1.189-5.076-2.989-8.316-5.4z" fill="#a1a1a1" fill-rule="evenodd"/>
 <path d="m323.449,24.174c.719-1.872 6.336-4.032 8.1-3.168 1.584.9 2.125,3.636 1.619,8.064-.574,4.284-2.23,12.42-5.111,17.46-3.023,4.968-11.34,12.132-12.6,12.06-1.297-.216 3.023-8.748 5.039-13.104 2.018-4.5 5.977-9.756 6.625-13.284 .469-3.6-4.465-6.228-3.672-8.028z" fill="#a1a1a1" fill-rule="evenodd"/>
 <path d="m213.396,68.814c6.66-.144 23.041,5.76 33.049,9.396 9.863,3.564 17.711,11.376 25.775,12.06 7.992.54 15.191-6.444 21.744-8.316 6.48-2.124 16.381-4.356 16.92-3.204 .289,1.188-10.188,6.984-14.508,10.728-4.355,3.816-4.932,11.088-11.016,11.556-6.301.18-14.941-7.02-25.777-9.936-10.871-2.952-30.131-5.508-38.916-7.524-8.818-2.016-12.563-2.196-13.715-4.572-1.151-2.592-.251-10.008 6.444-10.188z" fill="#a1a1a1" fill-rule="evenodd"/>
 <path d="m245.365,134.73c1.656-.468 7.309,3.42 11.555,4.284 4.141.72 9.072.72 13.141.288 3.889-.396 9.828-3.924 10.477-2.952 .504.828-6.408,6.048-6.984,8.028-.576,1.836 4.428,1.836 3.492,3.492-1.08,1.764-7.596,4.104-9.684,6.444-2.125,2.232-.648,5.904-2.953,6.444-2.52.288-8.352-1.188-11.268-4.284-2.844-3.276-4.715-10.836-5.904-14.508-1.333-3.78-3.528-6.696-1.872-7.236z" fill="#a1a1a1" fill-rule="evenodd"/>
 <path d="m258.252,139.158c-2.52-1.548-5.578-2.772-9.719-4.212-4.213-1.476-9.107-3.528-14.688-4.068-5.652-.54-17.568.828-18.541,1.044-.9.036 8.531-.396 12.889-.18 4.139.324 7.416.324 12.311,1.8 4.861,1.368 10.262,3.42 16.633,6.3l1.115-.684z" fill-rule="evenodd"/>
 <path d="m257.354,143.083c-2.557-1.368-5.76-2.52-9.9-3.744-4.213-1.332-9.252-3.168-14.832-3.42-5.76-.252-17.424,1.62-18.469,1.872-.936.108 8.533-.828 12.852-.72 4.105,0 7.488.036 12.385,1.224 4.969,1.116 10.369,2.952 16.885,5.508l1.079-.72z" fill-rule="evenodd"/>
 <path d="m203.68 201.37 53.855-24.842 137.92-28.187-3.313 12.42-48.889 29.015-9.936 3.709 65.844 14.508-3.311 93.996-43.885 34.381-135.86-38.916-2.881-83.664-9.537-12.42z" fill-rule="evenodd" stroke="#000" stroke-miterlimit="10" stroke-width=".036"/>
 <path d="m207.42 202.59 10.332 10.801 124.67-24.877 0.434-11.592-135.43 25.668z" fill="#916f6f" fill-rule="evenodd" stroke="#000" stroke-miterlimit="10" stroke-width=".036"/>
 <path d="m346.16 175.7 45.541-24.047-1.656 8.712-44.316 25.272 0.431-9.937z" fill="#916f6f" fill-rule="evenodd" stroke="#000" stroke-miterlimit="10" stroke-width=".036"/>
 <path d="m383.43 152.08-123.84 24.839-43.486 20.701 125.93-23.186 41.4-22.354z" fill="#916f6f" fill-rule="evenodd" stroke="#000" stroke-miterlimit="10" stroke-width=".036"/>
 <path d="m395.85 209.22-45.145 25.271-103.93-21.961 82.836-17.783 66.24 14.473z" fill="#404040" fill-rule="evenodd" stroke="#000" stroke-miterlimit="10" stroke-width=".036"/>
 <path d="m351.96 239.06v92.771l41.004-30.672 2.484-87.371-43.488 25.272z" fill="#916f6f" fill-rule="evenodd" stroke="#000" stroke-miterlimit="10" stroke-width=".036"/>
 <path d="m345.73 238.23-103.93-24.443-26.1 3.311 4.535 77.438 127.58 36.863-2.087-93.169z" fill="#916f6f" fill-rule="evenodd" stroke="#000" stroke-miterlimit="10" stroke-width=".036"/>
 <path d="m294.865,145.278c4.104-.18 8.244,1.26 12.707,4.176 4.428,3.024 10.512,8.352 13.68,13.464 3.133,4.968 4.754,14.365 4.572,16.128-.395,1.512-5.65-6.732-6.479-6.264-.938.504 2.23,8.891 1.332,9.322-.938.252-3.168-2.088-6.842-7.416 .828,5.617 1.117,8.461.576,8.533-.576-.037-2.195-7.309-3.6-8.352-1.512-1.01-4.211,3.203-4.752,2.088-.467-1.369 2.197-7.057 1.729-9.685-.756-2.556-2.988-3.996-5.328-5.868-2.305-2.052-5.041-3.888-8.352-5.904 .253-3.382.505-6.802.757-10.222z" fill-rule="evenodd" stroke="#000" stroke-miterlimit="10" stroke-width=".036"/>
 <path d="m295.262,146.61c4.895.504 9.287,2.196 13.463,4.932 4.141,2.736 8.748,8.208 11.195,11.556 2.27,3.276 2.736,6.48 2.664,7.812-.252,1.008-2.303-1.297-3.238-.791-1.01.467-1.693,3.994-2.449,4.176-.719.143-1.512-.865-2.088-3.025-.467,2.449-.973,3.781-1.512,3.996-.539.18-.973-2.375-1.729-2.664-.936-.359-2.951,1.512-3.42.756-.432-.898 1.008-3.779.576-5.867-.648-2.196-1.943-4.572-4.176-6.84-2.375-2.232-5.4-4.644-9.504-6.84 .073-2.377.145-4.789.218-7.201z" fill="#404040" fill-rule="evenodd" stroke="#000" stroke-miterlimit="10" stroke-width=".036"/>
 <path d="m157.993,148.266c-1.908,7.488-1.512,14.76 1.188,22.5 2.592,7.633 5.4,16.777 14.832,23.113 9.432,6.227 29.772,11.988 41.437,14.219 11.52,2.053 21.816-2.051 27.828-1.188 5.832.9 4.463,1.729 7.703,6.516 3.277,4.752 8.785,16.633 11.809,21.637 2.879,4.824 5.328,8.352 5.939,7.379 .576-1.15-.215-5.508-2.375-13.643 4.355,9.072 7.271,13.572 8.891,13.643 1.621.037 1.656-4.391.504-13.283 9.109,7.848 13.824,11.232 14.293,10.297 .396-1.01-3.457-6.229-11.699-15.949 8.604-.684 12.49-1.584 12.059-2.844-.539-1.332-5.58-2.771-15.119-4.717-.396-5.76-3.275-10.654-8.928-14.975-5.76-4.32-15.518-6.625-24.84-10.656-9.361-4.141-22.5-8.352-30.816-13.607-8.316-5.438-14.437-11.557-18.937-18.361-4.68-6.984-2.628-20.736-8.28-22.5-5.725-1.729-14.041,2.411-25.489,12.419z" fill-rule="evenodd" stroke="#000" stroke-miterlimit="10" stroke-width=".036"/>
 <path d="m161.341,147.222c-1.908,7.488-1.512,14.76 1.188,22.5 2.628,7.668 6.444,16.883 14.796,23.076 8.424,6.047 24.552,10.799 34.919,12.996 10.26,2.016 19.152-1.08 25.85-.541 6.479.541 9.287.072 12.887,3.6 3.492,3.42 6.012,13.43 8.244,16.992 2.195,3.385 3.672,3.996 4.717,3.781 .936-.324 1.26-2.088.971-5.438 3.672,5.51 6.229,8.244 7.525,8.496 1.295.145 1.332-2.195.252-7.307 4.607,2.16 7.02,2.951 7.092,2.375 .035-.576-2.125-2.592-6.625-5.904 3.025-.395 4.465-1.08 4.717-1.908 .107-.863-1.152-2.016-3.779-3.311-2.27-5.977-6.373-11.16-12.744-15.553-6.553-4.572-15.805-6.695-25.236-11.088-9.396-4.465-22.645-9.539-30.6-14.939-8.029-5.545-13.033-11.484-17.101-17.424-4.068-6.012-2.844-16.2-7.308-17.928-4.609-1.763-11.053.793-19.765,7.525z" fill="#404040" fill-rule="evenodd" stroke="#000" stroke-miterlimit="10" stroke-width=".036"/>
</svg>
