<?xml version='1.0' encoding='utf-8'?>
<svg xmlns="http://www.w3.org/2000/svg" data-name="Layer 1" viewBox="0 0 3595.5 2993.1"> <defs> <style>.cls-1{fill:#380f19;}.cls-2{fill:#fafae6;}.cls-3{fill:#b7ad9e;}.cls-4{fill:#f9ba64;}.cls-5{fill:#9c736b;}.cls-6{fill:#fbf3d0;}</style> </defs> <path class="cls-1" transform="translate(-452.27 -753.46)" d="m4043.4 2071.5c-5.93-61.38-17.93-121.64-38.73-179.94-9.09-25.49-22.78-50.65-25.38-76.85-4.18-42.14-8.51-84.1-21.28-124.28-11-34.63-26.51-67.45-56.65-91.38-10.2-8.1-26-11.53-30.05-25.13-10.48-35.29-36-54-68.7-64.14-12.17-3.79-14.43-9.68-14.17-20.55 0.38-16.27 0.58-32.67-1-48.82-1.87-19-7.74-38.49-21.43-51-39.93-36.6-91.92-16.45-116.36 22.07-30.44 48-26.56 102.13-22.68 155.43 1.83 25.13-0.94 29.91-26.24 28.36-53-3.25-98.69 30.33-109.31 81.59-1.91 9.22-7 12.62-13.84 15.74-36.46 16.73-75.83 16.72-113.87 13.39a666.31 666.31 0 0 1-170.19-37.28c-21.37-7.8-48-8.32-58.09-37-2.79-8-1-15.51-4.33-23.2-27-61.9-49.2-125.66-78.54-186.75-30.12-62.69-66.68-121.33-107-177.11-26.3-36.39-51.35-74.31-85-106.13-21-19.88-39.46-43.45-60.62-64.13-10.05-9.83-26.62-17.23-26.39-33.79a137.88 137.88 0 0 1 4.6-31.38c18-69.11 11.27-138.14-0.09-206.78-2.35-14.17-5.38-33-22.13-41.49a69.36 69.36 0 0 0-49.31-5.12c-69.52 18-131.59 49.1-181.72 102.22-14.52 15.38-27 30.66-57 20.07-61.43-21.67-126.49-30.36-191.84-35.29-55.46-4.18-110.63-2.49-165.76 2.83-52.05 5-102.89 16.14-153.35 30.29-13.65 3.83-31.43 19.28-47.17-0.88-10.75-13.77-25.3-24.06-38.21-35.81-48.16-43.86-104.64-70.58-167.4-83.63-26.57-5.52-51.12 1-60.13 27.42-10.73 31.45-13.51 64-15.58 96.25-3.43 53.39 1.65 106.76 11.75 159.39 1.39 7.22 0 11.52-4.56 16.24-28 29.21-58.68 55.68-85.43 86.28-22.5 25.75-43.06 52.91-63.59 80.08a1084.3 1084.3 0 0 0-89.21 137.68c-18.11 33.48-34.83 67.75-51.17 102.15-12.14 25.56-23.28 51.63-33.72 77.92-9.72 24.48-21.07 49-26 74.53-5.68 29.64-22.62 46.26-48.91 53.54-45.6 12.61-90.9 27.1-138 33.39s-94.37 9.37-140.94-5.36c-9-2.85-13.42-6.19-14.41-16.47-1.28-13.21-2.08-28.08-10.45-38.54-27.55-34.46-64.55-48.8-108-42.89-16.23 2.2-21.17-3-21.31-17.8-0.22-21.65 4.38-43 2.69-64.78-3.62-46.72-5.77-93.24-47-126.42-37.62-30.24-87.33-18.73-106.58 24.54-10.84 24.35-9 49.35-9.31 74.3-0.19 12.52-5 17.93-16 22.09-31 11.76-60.32 25.81-67.81 63.17-1.19 5.93-7 8.07-11.58 10.91-37.9 23.22-61.24 57.27-75.74 98.77-13.22 37.86-19.14 76.65-20.55 116.47-2 56.08 3.87 111.38 19.7 165.08 23.37 79.32 59.06 152.61 109 219.2 41.8 55.78 90.54 104.51 144 148.5 24.58 20.23 52.17 37 79.24 53.95 31.57 19.8 63.56 39.14 99.1 51.3 10.31 3.58 14.11 11.45 13.31 20.52-2.86 31.63-7.71 63.09-10.18 94.74-4.21 53.92-7.48 108.36-1.92 162 5.67 54.68 12.2 109.56 26.4 163.3 16.81 63.66 39.11 125.36 63.19 186.31 14.11 35.71 33.24 69.67 52.48 103.05 23.21 40.26 46.16 81.2 74.32 117.94 31.46 41 60.57 84.08 96.24 122 28.66 30.44 55.22 62.86 83.65 93.52 18.51 20 38.82 38.6 57.19 58.38 20.48 22.05 44.48 40.13 64.07 62.82 22 25.51 44.43 50.72 63.29 72.21-21.14 4.6-53.7 5.64-56.94 46.77a7.15 7.15 0 0 1-0.49 2.24l3 3.86s317.23-1.66 315.77-4.94c-3.12-7 2.55-13 7.15-17.94 53.18-57.55 108-113.65 157.3-174.7 9.89-12.24 24.51-19 42.16-15.17 49.51 10.63 100 13.63 150.28 17.93 83.27 7.13 166.62 3.64 249.78-2.08a865.67 865.67 0 0 0 111.34-15c23.51-4.75 35.53 8.16 47.1 22.47 23.71 29.31 51.17 55.51 74.29 84.87 27.49 34.9 61.45 64.09 88.73 102.17-40 2.66 314.27 2.37 314.27 2.37l0.58-6a15.33 15.33 0 0 1-0.73-4.9c-0.21-21.73-14.59-29.36-32.33-36.24-11.06-4.29-23.08-4.21-34.93-8.24 30.64-33.91 64-62.16 95.88-91.56 48.73-44.91 96.83-90.36 141.92-138.81 40.65-43.66 79.15-89.21 114-137.91 35.06-48.95 70.82-97.21 100.58-149.79 28.72-50.73 52.95-103.29 74.27-157.48 5.25-13.34 7.09-30.51 28-35.56 25.1-6 49-17.46 73.11-27.19 35.35-14.26 68.57-32.55 101.75-51.41 43.33-24.64 82.32-54.53 120-86.61 30.85-26.25 57.7-56.34 82.83-87.83 23.19-29 47.74-57.8 65.77-90a1119.1 1119.1 0 0 0 69.34-147.49c23.81-62.34 38-126.71 47.89-192.11a915.91 915.91 0 0 0 6.02-225.53zm-355.16-629.37c7.85-15.14 18.41-23.91 35.88-18 16.62 5.62 20.19 17.74 16.44 34.29-2.06 9.08-2.69 19.55-0.23 28.35 5.51 19.67-5.09 27.43-20.63 32.58s-27.86 16-45.76 25.59c0.34-37.27-2.14-71.13 14.3-102.81zm-13 170.28c20.91-36.75 52.31-56.36 92.94-56.87 8.74 1.18 15.64-1.87 22.08 2.38 8.36 5.51 23.92 6.15 24.35 15.9 0.47 10.55-14.87 8.21-23.05 11.74-43.82 18.9-70.64 51.75-80.16 98.06-3.29 16-9.88 15.29-21 8.54-23.21-14.11-30.81-52.26-15.18-79.75zm-537.67 95.08c10.3 1.42 15.54 14.33 21.41 23.34 44.1 67.72 85.92 136.6 123.33 208.51a1925.9 1925.9 0 0 1 94.84 213.45c47.73 127.38 78.16 258.93 93.33 395 6 53.9-15.12 72.13-54.4 93.35-79.34 42.88-161 80-246.29 108.71-40.89 13.78-83.08 23.64-124.57 35.66-9.73 2.82-14 0.81-14.15-9.87-0.18-12.09-1.48-24.17-2.29-36.25h1.44c-2.64-59.24-4.89-118.51-8-177.72-3.16-59.91-6.46-119.83-11.07-179.64-3.32-43.16-8.32-86.23-13.57-129.21q-11.51-93.85-24.6-187.48c-4.11-29.44-7-59.59-15.86-87.68-10-31.54 7.51-48.07 26.46-65.67 27.19-25.27 50.24-53.86 73.11-83.11 25.14-32.17 41.79-69.66 68-100.78 5.54-6.6 1.29-22.19 12.86-20.61zm-2.44 1120.5c-2-9.68 5.33-13.1 12.88-15.45 76.39-23.75 150.73-52.72 222.54-88 8.36-4.1 10.69-0.79 13.39 5.68 8.14 19.54 16.27 39.09 24.8 58.46 5.09 11.56-2.53 17.18-10.43 21-40.26 19.62-80.42 39.5-121.41 57.5-38.42 16.86-77.91 31.26-116.75 47.18-18.64 7.64-22.21 5.66-22.58-14.88-0.12-6.83 0-13.68 0-20.37-6.06-16.93 1.08-34.12-2.44-51.12zm-100.36 5.09c-1.22-7.57 3.8-9.5 9-11.33s10.41-3.21 15.69-4.53c29.55-7.38 29.55-7.36 33.14 22.12 0 28.43-0.47 56.87 0.22 85.28 0.31 12.39-4.71 17.56-16.22 21.33-34 11.12-32.88 11.54-38.41-24.07-4.59-29.61 1.33-59.38-3.42-88.8zm-101.59 83.54c-2.24-7.3 2.2-9.58 8.3-11a201.51 201.51 0 0 0 21.61-6.26c31.18-11.27 31.15-11.36 31.34 21.52 0 5.47-0.32 11 0.05 16.42 2 30.42-4.52 38-34.39 45.09-17.85 4.25-26.51 4.57-25.51-19.14 0.64-15.08 3.3-31.26-1.4-46.63zm-39 51.3c4.9 31.05 0.24 36.79-31.06 43.9-92.56 21-185.09 42.15-278.87 57.19-60.72 9.74-121.72 16.95-183.25 18.87h-2.06c-37.35 2.69-37.35 2.69-35.26-35.43 2.18-39.79 2.33-38.22 44.73-42.2 88.4-8.31 176.37-20.06 263.6-37.21q103.41-20.32 204.74-48.93c12.2-3.41 18.13-0.59 17.61 13.22-0.38 10.16-1.85 20.12-0.2 30.59zm-65.28-82.86c-45.33 11.29-90.36 24.06-136.07 33.55-81.17 16.87-163.14 28.89-245.68 37.55-72.89 7.65-146 9.16-219 11.15-38.58 1-77.26-2.41-115.91-2.68-58.52-0.43-116.77-5.06-174.69-12.43-75.66-9.63-151.25-20.17-225.84-36.62-38-8.38-76.29-15.69-113-29.25-2.83 1.64-5.5 1.12-8.1-0.56l-6.3-1.18c-25.22-2.15-48-13.48-72.31-19.12-24.3-7.18-48.57-14.45-72.9-21.49-9.86-2.85-15.9-7.46-10.8-18.75 4.7-10.39-5.83-21.17 0.76-31.53-1.84-14.7-0.3-29.22 2.39-43.67-2.44-15.79 1.19-31.57-1.32-47.7-2.64-17 6.16-23 21-15 11.38 6.17 27.91 7.08 31.72 23.67 17.67-18.63-7.09-25.38-11.84-37.41-1.49-3.79-9.29-19.55-22.08-7.37-2.89 2.75-9.75-1-11.33-6a22.49 22.49 0 0 1 2.59-19.56c1.21-1.9 6.15 0.37 4.31-3.06-19-35.55-3.65-72.73-4.62-109-0.77-28.79 4-57.72 4.18-86.85 0.1-16.46 4.86-33.09 3-50-1-0.22-2.93-0.31-3-0.7-0.41-2.52 1.43-2.14 3-1.95l4.08-9.05c-5.56-4.08-3.3-6.78 1.59-9 0-2.17 0.09-4.34 0.13-6.5-6.21-3.63-4.48-6.78 0.59-9.73 1.93-6.61-0.79-14.1 3.86-20.19-5.65-1.58-5.58-4.38-1.72-8-0.64-25.59 3.95-50.48 10-75.18q2.26-19.77 4.52-39.52c9.63-71.31 19.14-142.64 29-213.93 2.17-15.74 10.17-19.27 21.07-9.59 24.36 21.64 52 38.51 79.21 56.14 53.94 35 110 66.5 167.18 95.72 41 21 84.44 37.25 125.72 57.78 26.63 13.24 53.14 26.53 80.67 37.75l2.52-2.57c0.42 1.07 0.83 2.15 1.25 3.22l0.16 0.27c3.16 1.06 7.21 0.61 8.46 4.93 13.2 10.26 22.82 0.34 33.1-5.86 17-34.7 46.31-60.74 65.81-93.68 2.29-3.86 5.26-3.56 8.63-2.26 8.39 3.23 25 36.64 23.27 46.63-3.47 3.88-6.61 6.89-7 13.47-3.65 61.94-20.67 121.69-31.27 182.5-15.34 88-32.8 175.62-49.41 263.39-2.53 13.38-6 26.61-8 40.05-2.78 18.48-6.85 36.14 12.17 51.45 9.42 7.58 18.74 17.34 27 27.13 6 1.7 5.49 6.3 4.94 10.94l3.6 3.3c7.21 0 8.56 6.12 11.3 10.8 6.83-3.28 7.86 1.55 8.9 6.37 27.81 24.41 55.62 48.75 81.83 75 13.92 13.93 31.72 24 53.56 16.94l74.82-66.8 7.93-4.22c11.71-8.88 17.58-24 32.13-29.85l54.42-56c14.28-13.95 6-30.77 3.81-45.43-7.6-51.21-16.69-102.29-26.8-153-11.53-57.79-23.9-115.44-34.95-173.36-9.15-48-19.4-95.84-28.82-143.81-1-5.22 0.2-10.88 0.38-16.34-12.05-18.4-1.17-51.51 19.92-60.67 3.69-1.6 5.91-0.71 8.26 2.82 14.2 21.3 28.7 42.4 43.1 63.56l1.38 1c4.18 1.88 5.67 5.34 5.68 9.66 14.69 28.3 28.44 34.41 58.44 21.77 38.68-16.28 76.6-34.37 114.69-52 40.27-18.66 81.19-36.16 120.33-57 59.36-31.57 117.73-65.07 172.15-104.88 15-10.94 30.78-20.87 44.72-33 12.16-10.56 14.82-6.87 16.65 6.71 6 44.42 12.45 88.78 19.08 133.12 4.25 28.41 10.75 56.55 9.71 85.56 6.86 8.17 3.69 18.2 5.07 27.39 10.39 60 14.62 120.7 19.5 181.27 4.7 58.23 7.12 116.63 11.14 174.92a102.09 102.09 0 0 1-2 27.87c7.51 24.15 2.09 49.43 6.41 73.86l-3.21 53.84c5.52 15.87 3.21 32.52 4.87 48.77 0.06 9.44 0.17 18.87 0.15 28.31 0 6.42-0.87 11.3-9.14 13.21-22.09 5.09-43.91 11.39-65.84 17.2-24.78 12.69-52.99 13.74-78.88 22.76zm-718.77 216c-10.55-0.33-15.09-3.6-13.46-14.59 2.79-18.9-0.15-37.95 1.59-57.13 1.46-16.11 8.58-15.14 19.39-15 29.45 0.28 58.91 0.1 88.37 0.1v-0.51q45.21 0 90.42 0c19.76 0 25.86 6.08 25.15 25.77-0.56 15.69-1.76 31.37-2.2 47.07-0.23 8.49-1.4 13.23-12.35 13.63-65.66 2.36-131.27 2.75-196.93 0.7zm73.29 64.81c-27.09-0.41-54.18-1-81.24-2.15-5.85-0.26-9.3-5.84-9.57-11.51-0.46-9.28 7.23-6 11.85-6.3 16.22-1.14 32.44-3.74 50.93-0.13 7.3 0 16.77 0.18 26.23-0.07 6-0.15 11.56 0.45 12 7.69 0.36 6.74-2.37 12.59-10.22 12.51zm65.24-20.82c11.48 0.67 23.09-0.72 34.64-1.23v1.74c10.18 0 20.37-0.3 30.53 0.14 4.63 0.2 12.27-3.83 12.5 5.39 0.15 6.42-2.59 11.94-10.59 12.21-13.47 0.44-27 2.14-40.38 1.1-8.83-0.68-17.16-2.12-26.06 0.3-7 1.9-14.09 0.93-14-9.15 0.03-8.89 4.68-10.96 13.34-10.46zm-195-71.61c0.56 12.07-1.22 17.2-16.9 16.14-60.75-4.12-121.52-7.67-181.71-17.29-34.11-5.45-68.17-11.35-102-18.08-52.87-10.49-105.62-21.65-158.32-33-15.94-3.43-31.35-9.66-47.38-12.26-19.93-3.23-31.74-10.71-26.08-33.19 0.82-3.26 0.7-6.77 0.86-8.58-0.33-2.29-0.49-3-0.52-3.65-1.44-42.48-1.53-42.16 37.7-31.14 83.22 23.39 167.85 40.09 253.11 54.19 73.05 12.08 146.54 19.35 220.25 25 18.26 1.39 25.48 7.72 20.52 27.25-2.81 10.84-0.1 23.07 0.45 34.65zm-574.68-88.6c-5.79 7.27-19.06-3.18-29.27-4.83-32.82-5.29-37.21-11.05-34.89-43.2 0.53-7.31 2.91-14.63 2.53-21.84-1.49-27.52-1.78-27.5 24.32-17.5a17.17 17.17 0 0 0 1.89 0.79c27.48 7 51.1 16.7 38.7 52.9-0.74 11.53 2.58 26.28-3.28 33.68zm807.15-990.08c5-6.43 18-9.15 27.48-9.21 88.91-0.52 175.11-17.35 261.4-37.41 99.45-23.11 195.44-55.84 289.23-95 45.89-19.17 90.27-42.39 133.67-67.12 6.77-3.86 15-9.77 27.31-3.87-15.18 19.13-28.86 38.47-44.69 55.85-25.75 28.29-52.57 55.66-82.55 79.64-46.29 37-92.47 73.93-143.11 105.43-50.21 31.23-101.54 60.28-154.19 86.72-51.77 26-106 47-158.27 72.11-16.17 7.77-23.3 0.32-29.53-10.29-31.63-53.92-71.2-101.91-110.54-150.12a20.72 20.72 0 0 1-4-9.06c-1.58-8.28-19.01-8.96-12.24-17.67zm24.79 497.62c10.81 60.65 22.93 121 35.08 181.39 5.85 29-8.88 46.1-27 64-24.24 23.88-52 43.91-74 70.26-8.53 10.21-19.61 18.41-30.12 26.79-6.58 5.25-11.38-0.93-16-4.67-13.93-11.28-25.42-25.1-39.06-36.85-22.61-19.49-41.87-43-65-61.74-22.86-18.58-26.38-37.86-20.21-66.28 12.78-58.93 22.07-118.66 34.06-177.84 12.51-61.66 23.19-123.7 34.67-185.57 5.35-28.82 10.81-57.62 16-86.47 1.29-7.17 2.07-15 12.2-10.75 28 11.72 55.79 8.09 83.13 0 18.89 96.2 39.11 191.69 56.22 287.73zm-24.94-414.39c9.85 11.66 8.29 20.3-1.24 29.94-14.77 14.94-29.41 30-44.25 44.88-12.25 12.27-40.18 12.17-57.73 0.95-18.09-11.57-30.15-29.19-45.4-43.58-9.66-9.11-12.06-17.64-2.16-30.93 17.78-23.87 38.16-45.83 53.57-71.58 5.26-8.79 15.93-5.46 25.71-4.93 11.67-5.51 16.82 2.83 23.2 11.79 15.43 21.66 31.18 43.18 48.3 63.46zm-203.4-12.53a1032.4 1032.4 0 0 0-73.83 99.49c-12 18.49-23.14 22.28-41.79 13.2-71.39-34.76-143.72-67.7-214.17-104.25-49.52-25.7-98.37-53.56-144.21-85.23-44.71-30.88-88-64.56-126.56-103.32-27.77-27.92-54.5-56.92-77.78-88.84-8.34-7.31-16.5-14.75-22-31.18 13.88 10.6 26.87 12 35.09 22.07q55.81 27.15 112.11 53.25c46.25 21.44 93.25 40.74 141.5 56.81 77.88 25.93 156.63 49.38 237.15 65.41 47.2 9.39 95.55 12.86 143.13 20.58 28.4 4.6 57.73 1.5 87.52 10.64-19.03 24.9-37 48.43-56.14 71.37zm472.95-1169.2c45.08-40.9 94.42-74.47 154.9-88.51 14.84-3.44 19.37 1.93 21.73 17.34 9.39 61.32 6.29 122.18-1.9 187.16l-45.75-35.36c-20.45-6.44-35.49-22-53.55-32.53-13.12-7.66 0-22.36 2.83-29.14 5.46-13.1 2.33-24.13 1.92-36.1-11.37 13.44-28.45 20.47-38.72 35.47-5.09 7.44-41.92 2.07-46.18-6-2.83-5.3 1.61-9.51 4.72-12.33zm-870.14-81.1c1.56-10 8.29-9 15.4-8 30 4.24 56 18.26 82.18 32.35a330.69 330.69 0 0 1 65.59 46.63c6.78 6.16 20.91 10.79 14.38 22.49-7.15 12.81-30.6 14.45-41.68 5.4-13.57-11.11-26.83-22.6-40.22-33.93-2.6 0.2-5.68 1.4-7.72 0.42-6.75-3.25-12.87-1.28-16.51 3.7-5 6.8 0 12.89 4.73 18 6.94 7.43 14.72 14.14 21.1 22 8.38 10.33 8.62 20.78-5.54 25.85-17.24 6.17-27 26.14-47.73 25.3-6.08 16.53-22.83 21.77-34.91 31.61-7.92 6.46-9.82-4.93-10.37-9.51-7.28-60.82-8.19-121.61 1.3-182.31zm-253.3 590.45c0.28-0.11 0.82 0.44 1.24 0.68 0 0.44 0.12 1-0.1 1.3s-1 0.73-1.26 0.59c-1.72-0.87-1.68-1.86 0.12-2.57zm-36.71 76.87c12.47-26.53 26.86-52.15 40.42-78.17-0.45-7.94 6.31-11.28 10.41-16.32l7.14-9.17c0.25-3.56 2.36-4 5.26-3.14l1-7.77c5.88-21.51 18.77-39.42 30.61-57.69 16.06-24.77 32.15-49.7 50.45-72.79 21.08-26.6 44.1-51.73 67.18-76.66 19.5-21 38.72-42.26 60.61-61.24 36.64-31.78 74.39-61.43 114.9-88.38 58.77-39.09 122.35-66.08 189.52-85.18 92.23-26.21 186.45-39.13 282.42-32.82 53.32 3.5 106.7 11 158.15 24.66 81.27 21.62 158.73 51.72 229.58 100.48 59 40.63 112 86.7 161.83 137.25a914.22 914.22 0 0 1 135.86 175.57c17.71 29.84 39.79 57.44 52.13 90.44 0.38 2.57 0.77 5.13 1.15 7.7 8.37 1.19 4.54 7.38 4.88 11.87 15.3 8 13.53 25.46 20.67 38 13.75 24.18 25 49.71 35 78.08-28.55-3.45-50.74-18.88-73.08-31.46-66-37.19-128-80.73-190.24-123.87-35.72-24.74-73.9-46.07-111.69-67.86-57.67-33.27-118.14-59.14-184-66.54-111.41-12.51-190.53 44.29-223.19 152.16-7.94 26.22-7.29 26.42-34.75 19.29-18 3.32-35.89 1-53.79-0.83-5.28 3.64-11.22 3-17.12 2.68-2.35 3.88-5.52 3.73-9 1.88-11.1 3.4-8.66-6.93-9.73-11.08-15.61-60.69-46.37-111.38-102.18-141.76-48.56-26.44-101.63-31-155.64-17.91-90.39 21.87-168.67 68.48-245.7 118.5-66.77 43.36-131.32 90.09-200.4 130.07-25.33 14.65-50.59 28.5-79.85 41 7.69-28.94 19.47-54.05 31.19-78.99zm1063.9-100.25c30.19 0.94 60 30.33 58.43 58-2.55 46.14-29.64 67.15-65.75 66.14-32.9-0.92-59.82-28.62-57.38-64.33-2.29-37.17 28.85-60.94 64.7-59.81zm-442.48 55.68c-2.21 48.41-30.84 69.91-61.74 68.54-40.22-1.77-62-23.63-62-73.34 0-26.82 34.1-52.38 66.34-50.89 28.25 1.3 58.21 30.38 57.4 55.69zm-673.17 171.94c10.17-25.15 18.29-19.28 35.71-9.31 97.9 56 202.32 94.12 314.78 107.6 70.58 8.46 138.81-2.3 203.68-31.28 15.81-7.06 30.4-17.51 44.23-28.14 10.45-8 20.66-15.63 33.44-19.26 0.59-9.92 8-15.33 14.36-21.33 29.48-27.88 58.11-56.76 88.9-83.11 19.83-17 39.62-35.65 67.22-40.41 14.72-5.35 30.06-7.65 45.56-9.08 18-3.63 35.87-3.23 53.34 3.07 28.79 5.47 53.38 19.16 78 35 17.37 11.17 26.36 29.12 43.2 40.84 19.55 13.6 34.89 33.4 54.89 47.68 10.22 7.3 17.45 18.78 26 28.36 9.26 0.16 14.12 7.7 20.38 12.58 29.36 22.88 61.77 39.47 97.21 51 94.8 30.76 187.62 15.57 280-11 72.93-21 141.6-52 207-90.42 10.74-6.31 16.79-6.88 18.21 8.12 1 10.16 7.94 18.39 9.93 29.25 5.42 29.65-3.42 45.09-31.71 59.79-27.46 14.25-51.74 34.26-78.82 49.78-73.11 41.93-149.92 75.24-228.83 104.59-52.19 19.42-105.89 32.94-159.32 47.79-117.46 32.67-237.52 47.65-359 50.62-62.46 1.52-124.9-5.15-186.75-12.53-111.87-13.34-220.89-40.54-328-76-62.82-20.81-124.45-44.44-183.75-73.46-58.47-28.62-114.59-61.89-168.58-98.38-26.5-17.96-25.52-37.15-11.28-72.36zm-651.64-167.59c3.27-8.22 4-18.85 13.75-20.49 10.67-1.79 22.73-0.25 30 9.43 23.23 31.11 25.21 67 21.15 103.74-1.19 10.82-7.14 8.83-13.91 4.24-10.72-7.28-21.1-15.53-32.77-20.83-15.46-7-22.6-16.73-17.7-33.89 3.93-13.84-6.3-27.62-0.52-42.2zm43.62 143.78c18.42 20.08 27.63 42.86 26.63 69.71-0.62 16.51-11.17 28.09-24 36-9.65 5.93-18 10-22.55-10.48-11.53-52.15-48.62-83.61-97.57-101.9-3-1.12-6-2.2-9.6-3.5 37.53-30.23 95.14-24.67 127.09 10.17zm193.48 784.41c-1.19 17.06-9.5 16.67-22 10.58-47.64-23.23-93-50.25-135.27-82.2-51.6-39-96.82-84-137.77-134.42-48.73-60-83.64-126.16-106.36-199.42-22.2-71.82-29.88-145.1-18.57-219.52 5.44-35.77 12.77-72.15 39.38-99.54 26.08-26.84 62.77-26.72 91.13-1.46 15.49 13.78 23.32 31.93 27.36 51.63 2.25 10.94-2.87 20.66-11.95 26.51-8.51 5.48-17.14 1.25-24.56-4.24-4.38-3.24-9-6.56-12.34-10.75-9.88-12.29-23.35-18.92-37.66-14.77-12.43 3.6-7.34 18.63-10.18 28.55 30.36 45.85 63.59 58 111.3 43.31 11.51-3.53 17.47-11.34 22.58-19.07 9.6-14.52 20.25-15.78 34.14-8.47 40.83-9.08 66.69-32.4 71.73-75.46 0.48-4.13 0.77-8 5.16-10.32 16.67-8.88 60.68-2.93 69.51 8.16 11.7 14.68 11.43 28.65 0.5 42.86-19.94 25.92-47.25 41.1-78.33 47.81-18.05 3.9-34.66 10.27-51.29 17.42-6.15 7.26-12.53 13.36-22.83 15.32-30.58 5.82-36.29 20.77-18.56 46.42 15 9.17 27.49-2.57 40.42-6 52.51-13.93 106.27-25.05 148.21-64.3 26.13-24.46 26.43-22.51 59.59-7.13 26.16 12.14 55.16 11.32 83.39 11.42 45.48 0.16 89.39-13 134.41-16.88 3.39-0.29 7.56-5.63 10.57 0.16 1.89 3.62-1.2 6.14-3.24 8.91-42.26 57.35-75.56 120.15-107 183.61-26.49 53.49-51.12 108-71.8 164.42-10.16 27.73-18.44 56.52-31.77 83.17-9.74 34.8-20.65 69.33-28.83 104.5-6.13 26.46-17.17 51.78-19.07 79.19zm24.9 214.72c5.6-46.76 10.45-93.63 17-140.27 11.87-85.19 33.21-168.32 60.65-249.62 16.49-48.84 33.27-97.75 57.55-143.84 14.51-27.56 25.59-57.06 38.81-85.45 16.61-35.64 35.56-70 54.79-104.15 22.67-40.29 48.15-79 70.89-119.26 7.43-13.14 17-32.25 26.07-33.95 14.06-2.64 15.13 20 22.07 31.28 30.77 49.81 62.53 98.71 102.91 141.42 15.85 16.76 31.52 33.84 48.82 49 7.62 6.68 5.94 12.6 5.13 19.89-3.68 33.2-8.7 66.51-14.78 99-11 58.55-19 117.6-26.44 176.39-7.56 60-14.87 120.38-17.94 181.11-1.69 33.45-4 67.23-10 100.61-2.9 16.07 0.2 33.35-0.43 50.27-1.73 46.76-5.08 93.4-7.1 140.12q-1.66 38.53-1.84 77.12c0 11.59-4 13.88-14.94 11.14-91.41-22.86-179.44-55-264.66-95.1a1280 1280 0 0 1-121.88-65.9c-15.73-9.6-28.98-18.45-24.68-39.81zm412.95 370.62c-7.09-2.34-13.4-4.54-19.79-6.51-36.57-11.25-38-11.33-35.33-46.78 2.07-27.72 2.28-55.41 3.12-83.12 0.15-5.08 0.86-7.9 6.53-7 1.35 0.22 2.68 0.6 4 0.71 41.92 3.55 48.6 9.48 46.3 50.29-1.67 30.15 2.46 60.6-4.83 92.41zm-99-51.65c0.46 15.18-10.23 11.42-16.65 8.68-65.25-27.85-131.4-53.73-194.41-86.61-11.94-6.23-23.39-13.74-35.94-18.23-14.71-5.3-16.29-12.32-8.75-25 9.08-15.28 14.4-32.34 18.84-49.43 2.76-10.63 6.42-13.33 16.82-8 65 33.68 132.72 61 202.17 83.59 26.2 8.54 17.75 27.72 17.8 44.45s-0.39 33.72 0.12 50.55zm-310.34-230c1.9 0.78 4.08 1 5.08 2.18 9.51 11.4 34.18 12.71 32.81 26.43-2.32 23.18-14.27 45.41-22.17 68-11.68-32.01-15.17-63.77-15.72-96.61zm2456.6 279.28c-15.48 44.71-32.74 89.15-53.66 131.53a999.1 999.1 0 0 1-78.92 133.47c-24.42 34.66-50.39 68-76.34 101.46-3.66 5.91-4.17 14.22-12.6 16.49l-1.93 0.55-2-0.46-5.75 1.77-0.44 0.59c5.42 16.34-10.41 23-17.23 31.67-35.47 45.23-75.16 86.84-117.21 126.15-4.77 4.47-9.24 7.68-15.46 8.72-18.54 31.49-50.51 49.76-74.7 75.7-2.75 2.94-7.28 4.39-9.62 7.54-20.16 27.25-45.22 41.94-80.88 41.51-35.87-0.43-71.54 9.4-107.82 5.08-31.24 7.84-63.4 6.73-95.15 9.57-5.4 0.48-9.51-2.41-13.5-7.35q-41.45-51.3-87.78-98.31c-7.87-8-15.72-17.56 4.32-21.46 28.54-5.56 56.9-12.1 85.38-18 42.84-8.85 85-20.43 126.88-32.82 5.78-1.71 11.12-5.21 16.35-8.4 9.64-5.88 15.92-13.87 10.58-25.59s-14.42-15-27.08-11.65q-91 24.09-183.76 40.15c-39.4 6.85-79.23 11.11-118.73 17.43q-99.74 16-200.41 23.77c-57.37 4.4-114.66 1.27-172.09-3.59-76.14-6.45-151.28-20-227-29.12-36-4.32-72.3-11.7-108.18-20-44.83-10.34-90.09-19.05-134.56-31.16-15.1-4.12-26.78 2.72-31.34 16-5 14.67 5.8 22.51 18.66 26.91 65.43 22.41 132.92 36.68 200.46 50.81 13 2.72 32 0.34 36.72 11.76 4 9.58-14.11 17.75-21.34 27.43-20.75 27.8-48.58 49.48-67.67 78.8-6.31 9.69-16.52 14.78-28.5 12.95-28.23-4.31-56.34-8.31-84.66-0.51-4.56 1.25-7.2-2.9-9.29-6.55-34.37-2.78-69.07-5.74-103.19-5.79-34.64 0-54.36-17.84-75.6-39.06-27.89-27.85-56.92-54.54-85.56-81.64-3-2.86-6.26-5.33-6.55-9.89-33.71-22-54.91-56.22-81.8-84.8-24.35-25.89-45.44-54.86-67.78-82.63-2-2.48-2.6-6.08-3.84-9.16-2.8 0-4.46-1.1-4.22-4.16-21.91-30.51-48.08-57.49-69.1-89-29.81-44.69-57.68-90.35-82.24-138-26.45-51.26-46.47-105.27-63.35-160.41-3.78-12.35-7.42-24.74-11.13-37.12-3.55-1.82-4.2-5-4.16-8.6 0.12-11.49-12.53-26.71-5-32.15 11-7.89 22.95 6.88 34 12.36a2602.8 2602.8 0 0 0 436.8 170c119 34.43 239.29 62.45 361.4 82.77 70.81 11.78 142.41 16.86 213.89 22.58 11.9 1 18 4.38 16.36 16.87 4.74 36.06 11.72 43.26 50 43.7 77.82 0.9 155.66 0.7 233.48 0.54a72.79 72.79 0 0 0 33-8c2.71-12.87 8.74-25 6.78-38.91-1.27-9 6.29-10 13.09-12.23 24.48-8.21 50.22-7.07 75.13-8.65 108.81-6.9 215.1-28.47 321.22-51.32 120.06-25.85 237.18-62 353.07-102.33 102.34-35.62 201.3-79.1 298.37-127.06 2.78-1.37 5.4-4.39 10.37-1.65a112.35 112.35 0 0 1-10.6 34.05c1.29 23.91-9.18 45.46-16.59 66.85zm60.15-253.21c-11.29 19.9-6.88 42.53-14.55 62.59-1.94 5.08-4.24 10.12-10.19 11.79-5.21-1.65-7.47-6.14-9.32-10.36-3.8-8.65-6.67-17.72-10.31-26.45-15-36.05-15.14-36.19 17.84-55.5 6.24-3.65 14.83-12.4 19.56-7.51 5.61 5.76 10.21 19.73 6.97 25.44zm22.21-324.92c-12.51-65.72-34.23-128.92-53.37-192.82-14.53-44.94-32.62-88.44-51-131.94-25.67-60.62-54.94-119.49-84.68-178.05-18.23-35.91-42.07-69-63.25-103.41-3.86-6.26-7.07-12.92-11.51-21.12 29.3-7.24 54.58 5.93 80.43 10.11 45.79 7.41 91.19 7 136.48-0.07 16.24-2.54 31.85-10.6 47.08-17.6 7.73-3.56 12.07-2.82 17.52 3.35 39.41 44.61 92.57 63.12 148.17 75.8 19.77 4.5 39.37 12.31 60.43 9.52 7.28-13.75 13-27.47-0.79-40.81-39.42-10.79-74.42-32.88-114.33-43.29-20.43-5.34-38.64-19-52.95-37.14-20.74-26.34-15.93-44.7 15.55-55.21 12.1-4 23.66-4.17 35.67-3.43 10.08 0.62 14 5.24 15.84 16.49 6.25 39 33.54 69.65 75.35 68.49 10.4-0.29 17.76 0.81 22.55 11.83 2.45 5.67 9.75 9.24 14.86 13.76 37.44 19.61 70.9 13 103.13-13.13 16.95-13.72 18.31-30.37 16.61-49.19-14.54-7.33-26.94-6.28-38.4 6.94-6.49 7.48-15.6 12.34-25.42 15.87-21.15 7.61-36.27-3.65-32.31-25.88 8.77-49.16 41.67-73.79 91.64-66.69a23.27 23.27 0 0 1 7.9 2.11c26.35 14.49 38.12 39.56 47.65 66.21 19.53 30.88 20.46 66.4 21.9 100.75 1.89 45.34 0.49 90.88-10.42 135.61-11.23 46-29 89.32-49.35 132-21.71 45.44-51 86-84.07 122.59-33.24 36.78-69.29 71.5-110.21 101.24-32.92 23.93-67.27 45.19-101.56 66.67-18.3 11.46-38.54 19.83-58 29.42-9.58 4.71-15.07 1.87-17.14-8.98zm177.49 447.3c-37.19 24.83-76.07 46.15-115.39 67.09-13.57 7.22-19.77 6.33-21.83-9.85-4.87-38.4-19.24-75.44-18.85-114.43 0.24-24.29 5.14-48.54 8-72.8l0.15-82.07c-4-2.33-5.36-4.9-0.76-8q0.32-8.33 0.62-16.65c-4.07-2.24-4-5-1-8.1q-4.08-40-8.15-79.91c-0.33-3.32-1.06-7.25 2.43-9.09s6.26 0.94 8.88 3.19c41.55 35.54 78.18 75.33 106.48 122.4 4.68 7.77 7.08 16.18 8.34 25 13.21 10 16.69 25.8 21.31 40 11.8 36.24 22.68 72.8 26.56 111.09 1.49 15.31-2.94 22.88-16.79 32.13zm318.77-662.61c-1.43 26 0.59 52.27-5.93 77.86 6.52 16.17-4.77 30.85-3.92 46.54-0.53 42.79-12.11 83.37-24.75 123.73 3.14 4.55 2 8.22-2.3 11.24l-2.36 6.05c2.56 10.06-1.43 18-8.2 24.95q-2.07 4.07-4.15 8.13c0.06 4.2-0.8 8.47-5.79 8.39-4.19-0.07-4.25-4-3.73-7.35l0.74-0.74-0.85 0.6c-9.17 0.19-6.67-7.6-8.5-12.42l-19.5-33.32c-17.36 1.88-24.27 15.62-32.13 28.29l2 7.67c32.82 20.51 47 81.85 25.38 116.33-24.53 39.09-50.73 77.13-76.28 115.57-1.43 2.14-3.57 3.81-8 8.43-16.27-51.77-38.41-98.35-64.7-142.95-19.95-29.85-44-57.22-68.52-82.33-16.44-16.81-33.45-36-54.7-48.86-5.12-3.1-8.87-8.36-13.61-12.17-6.28-5-5-7.48 1.57-11.59 27.38-17.15 54.56-34.64 81.28-52.79 14.37-9.76 26.25-23 42.06-30.88l35.35-31.86c-1.09-1.6-3.15-4.56-3.15-4.62 42.16-30 71.5-71.6 101.21-112.73 3.87-5.35 7.6-4.2 12.1-4.11 4-20.37 16.17-36.91 26.23-54.31a352.12 352.12 0 0 0 30.64-68.39c1.75-5.44 6.82-9.82 10.36-14.68-0.64-20.72 11.12-38.11 16.14-58 11.51 23.77 17.5 48.42 15.65 74.8l-0.64-0.13a3 3 0 0 1 2.13 2.2c7.59 40.86 11.15 82.07 8.87 123.45z"/> <path class="cls-2" transform="translate(-452.27 -753.46)" d="M1455.63,2326.68c-.64-25.59,4-50.49,10-75.18,12.17-1.63,22.21,5.16,33.26,8.09,74.4,19.73,149,38.78,223.53,57.92,72,18.49,144.08,36.51,215.93,55.51,13.08,3.46,18.2-2.52,21.17-12.54,5.29-17.81-8.15-23.29-20.68-27.05-30.72-9.24-61.69-17.67-92.74-25.73-125.17-32.5-251.39-60.85-375.95-95.72,9.62-71.32,19.13-142.64,29-213.93,2.17-15.74,10.17-19.27,21.07-9.59,24.36,21.64,52,38.51,79.22,56.14,53.94,35,110,66.49,167.17,95.71,41,21,84.45,37.26,125.73,57.79,26.62,13.24,53.13,26.53,80.67,37.74l1.79.88,2-.22.15.27c.53,5.59,2.55,8.6,8.47,4.93,13.2,10.26,22.82.34,33.1-5.87,5,6.51,11.43,4.58,16.22,1.13,17.48-12.58,36-24.31,51-39.53,9.62-9.83,18.59-12.16,30.51-10.9-3.47,3.88-6.6,6.89-7,13.46-3.65,62-20.67,121.69-31.27,182.51-15.34,88-32.79,175.62-49.41,263.39-2.53,13.37-6,26.6-8,40.05-2.77,18.48-6.85,36.14,12.18,51.45,9.42,7.58,18.73,17.34,27,27.13-.16,4.46-.72,9.11,5,10.94l3.59,3.3c.81,6.69.65,14.41,11.3,10.8,6.84-3.28,7.86,1.55,8.9,6.37-5.95,5.09-2.75,8.75,1.07,13.65,8.09,10.36,22.86,16.14,27.78,26.14,16.7,34,45.85,55.45,72.46,79.39,19.36,17.42,33.82,15.28,54.67-1.09,30.74-24.15,56.2-53.41,82.31-82.11q27.49-30.24,55.51-60c11.14-11.81,15.88-25,10.9-40.95,14.27-13.94,6-30.76,3.8-45.42-7.59-51.21-16.68-102.3-26.8-153-11.53-57.79-23.89-115.45-34.94-173.37-9.16-48-19.4-95.83-28.82-143.8-1-5.22.19-10.88.37-16.34,12.95-21.57,16.45-21,36.91-9,10.31,6.05,17.76,22.49,34.38,14.66l1.38,1c-4.07,6.72.3,8.49,5.68,9.66,14.68,28.3,28.44,34.4,58.43,21.77,38.68-16.28,76.6-34.37,114.7-52,40.27-18.66,81.18-36.16,120.33-57,59.35-31.57,117.72-65.07,172.15-104.88,14.95-10.94,30.77-20.87,44.71-33,12.16-10.56,14.83-6.87,16.65,6.7,6,44.43,12.45,88.79,19.08,133.12,4.25,28.42,10.76,56.56,9.71,85.57-23.35,1.79-45.19,10.27-67.64,15.84-115.73,28.76-231.37,57.87-346.73,88.09-23.46,6.14-48.48,8.31-69.85,21.17-7.12,4.28-17.29,9-11.8,20.52,4.35,9.1,10.41,13.26,22.87,11.27,36.58-5.83,72.18-15.88,107.75-25.14,114.15-29.72,229.47-55,342.36-89.6,10.75-3.29,20.65-6.15,28.11-14.76,10.39,60,14.62,120.7,19.51,181.27,4.69,58.22,7.12,116.63,11.14,174.92a102.15,102.15,0,0,1-2,27.87c-3.28,2.37-7,4.34-9.77,7.19-20.89,21.41-41.2,43.4-62.45,64.44-48.42,47.91-104.36,85.8-162.47,120.79-12.81,7.71-10.75,19.2-4.16,30.42,6.48,11,13.39,11.95,25.06,5,39.24-23.34,77.62-47.89,114.92-74.19,30.71-21.66,57.1-48.2,83.81-74.28,7-6.82,12.93-9,21.46-5.52q-1.6,26.92-3.2,53.83c-25,9.28-42.34,29.51-62.74,45.18-32.13,24.7-64.48,49.6-86.12,85.09-45.34,11.3-90.37,24.06-136.07,33.56-81.18,16.87-163.14,28.89-245.69,37.55-72.88,7.65-146,9.16-219,11.15-38.58,1-77.27-2.41-115.92-2.69-58.52-.42-116.77-5.05-174.69-12.42-75.65-9.64-151.24-20.18-225.83-36.63-38-8.38-76.29-15.69-113-29.24-1.3-1.79-2.32-4.71-4-5.1-2.59-.63-4.14,1.71-4.13,4.54l-6.31-1.19c2.61-8.38-.9-14.31-7.14-19.7-29.91-25.81-58.45-53.42-90-77.11-17.77-13.36-28.48-38.32-55.77-37.74-2.43-15.8,1.2-31.57-1.31-47.7-2.64-17,10.7-137.42,9.73-173.69-.78-28.79,4-57.72,4.18-86.85.1-16.46,4.85-33.09,3-50l1-1.33-1-1.33q2-4.51,4.09-9c2.63-2.64,3.87-5.52,1.58-9,0-2.16.09-4.33.14-6.49,1.57-3.16,3.73-6.28.59-9.73,1.93-6.61-.79-14.11,3.86-20.2C1460.55,2331.2,1457.87,2329,1455.63,2326.68Z"/> <path class="cls-3" transform="translate(-452.27 -753.46)" d="M3430.77,2886.57c1.33,23.93-9.15,45.47-16.56,66.87-15.48,44.71-32.73,89.15-53.65,131.53a999.8,999.8,0,0,1-78.93,133.47c-24.41,34.66-50.39,68-76.34,101.45-11.74-.26-12.39,8-12.59,16.49l-1.94.56-2-.47c-2.51-1.32-4.39-.63-5.75,1.77l-.43.59c-10.91,2.73-15.06,13.44-23.05,19.55q-65.26,49.93-130.8,99.53c-9.54,7.25-26.12,13.63-27.09,21.88-1.56,13.18,18.82,12,26.88,21,1.37,1.53,2.77,3,4.16,4.55-18.55,31.49-50.52,49.76-74.71,75.69-2.75,2.95-7.28,4.39-9.61,7.55-20.16,27.24-45.23,41.94-80.89,41.51-35.86-.43-71.54,9.39-107.81,5.08-.46-5.27-3-9.47-8.05-10.84-9.39-2.53-8.9-8.49-3.72-13.46,17-16.3,25.06-38.26,37.69-57.3,38.9-58.62,86.74-110.69,124.89-170,5.5-8.55,13.28-15.41,7.05-23.89-5.89-8-16.42-3.63-24.78-.51-28,10.47-57.31,17.95-86.13,24.19-83,18-165.08,40.88-249.37,53-16.08,2.32-32.9,1.79-48.16,5.27-28,6.36-56.1,10.24-84.4,12.76q-58.9,5.25-117.84,10.46c-40.73,3.54-81.84,5.67-122,4.4-72.11-2.28-144.25-9.55-216-18.66-57.33-7.28-114.66-14.44-171.45-25.2-37.88-7.18-75.11-17.21-112.54-26.35-33-8.06-65.71-17.26-98.71-25-29.77-7-58.25-19.11-88.86-22.24-5.71-.59-13-2.68-16.45,4.6-3.14,6.69,1.42,11.41,5.42,16.37,20.89,26,41.76,52,62.25,78.25,33.41,42.88,68.78,84.19,98.78,129.79,23.81,36.2,25.14,35.32.71,55.39-34.37-2.79-69.07-5.75-103.18-5.79-34.65,0-54.36-17.84-75.61-39.06-27.88-27.85-56.92-54.55-85.55-81.64-3-2.86-6.26-5.34-6.56-9.9,7.55-5.36,13.18-14,24.59-12.44,5,.69,12,2.15,14.22-4.58,2.46-7.32-3.82-11-8.74-14.48-17.16-12-34.72-23.94-50.78-36.88-36.76-29.6-75.62-57-108.06-91.89-6.44-6.93-13-16.17-24.65-16.31l0,0-4.22-4.16c-21.92-30.51-48.08-57.5-69.11-89-29.8-44.68-57.67-90.34-82.24-137.94-26.45-51.27-46.46-105.27-63.35-160.41-3.78-12.35-7.42-24.75-11.12-37.12,4.47-19.41,16.31-12.31,26.95-7.1,78.58,38.56,159.64,71.17,241.41,102.28,95.84,36.46,193.7,66.89,292.75,92.51,71,18.37,143.46,31.75,215.94,44.68,91.64,16.35,183.72,25.06,276.27,31.45,4.74,36.06,11.71,43.25,50,43.7,77.82.9,155.65.7,233.48.54a72.92,72.92,0,0,0,33-8c9.43-.83,16.88-7.31,16.6-15.1-1-26.55,16.8-25,34.21-25.34,56.72-1,113-7.17,168.9-16.2,54.42-8.79,109.08-15.62,163-28.16,46.46-10.8,93.38-20.12,139.55-32.15,85.22-22.2,169.37-47.89,252-78.89,84.26-31.64,168.66-62.76,250.06-101.38C3401.33,2891,3414.94,2884.43,3430.77,2886.57Z"/> <path class="cls-4" transform="translate(-452.27 -753.46)" d="m3030.2 2739.4c-2.64-59.25-4.9-118.51-8-177.73-3.16-59.9-6.46-119.82-11.07-179.63-3.32-43.16-8.32-86.23-13.58-129.21q-11.49-93.81-24.58-187.44c-4.11-29.44-7-59.59-15.87-87.69-10-31.54 7.52-48.07 26.46-65.67 27.2-25.26 50.24-53.85 73.11-83.1 25.15-32.17 41.79-69.66 68-100.79 5.55-6.59 1.3-22.19 12.86-20.6 10.31 1.42 15.55 14.33 21.41 23.33 44.11 67.73 85.92 136.61 123.33 208.51a1929.5 1929.5 0 0 1 94.85 213.45c47.73 127.38 78.16 258.94 93.33 395 6 53.9-15.12 72.12-54.4 93.35-79.35 42.87-161 80-246.3 108.71-40.88 13.77-83.07 23.64-124.56 35.66-9.73 2.82-14 0.8-14.16-9.87-0.18-12.1-1.47-24.17-2.28-36.26zm73.48-240.11a56.36 56.36 0 0 0-57.09 56.45c-0.21 27.93 23.46 50.86 52.88 51.23 30.3 0.37 55-22.25 55.8-51 0.83-31.82-21.61-56.46-51.59-56.68z"/> <path class="cls-4" transform="translate(-452.27 -753.46)" d="m954.06 2585.2c5.59-46.77 10.44-93.64 16.94-140.28 11.87-85.18 33.22-168.31 60.66-249.62 16.48-48.83 33.26-97.74 57.54-143.83 14.52-27.56 25.59-57.06 38.82-85.45 16.6-35.64 35.56-70 54.78-104.16 22.68-40.29 48.15-79 70.9-119.25 7.42-13.14 17-32.25 26.06-33.95 14.07-2.64 15.13 20 22.07 31.28 30.77 49.81 62.53 98.71 102.91 141.42 15.85 16.76 31.53 33.83 48.83 49 7.61 6.68 5.94 12.6 5.13 19.89-3.68 33.19-8.7 66.51-14.78 99-11 58.55-19 117.6-26.45 176.38-7.56 60-14.86 120.39-17.93 181.12-1.69 33.45-4 67.22-10 100.61-2.9 16.07 0.19 33.35-0.43 50.27-1.73 46.75-5.08 93.4-7.1 140.12q-1.68 38.53-1.85 77.12c0 11.59-4 13.88-14.93 11.13-91.42-22.86-179.45-55-264.67-95.09a1278.6 1278.6 0 0 1-121.82-65.9c-15.74-9.6-28.98-18.45-24.68-39.81zm406.43-29.34c-1.14-10.89 1.23-18.31-2.89-25.61-11.26-20-26-32.34-50.79-31.58-23.09 0.7-39.49 11.61-49.91 30.24-11.88 21.22-8.37 46.6 8.09 62.24 9 8.51 47.37 18.88 55.77 16.1 27.35-9.04 40.81-28.9 39.73-51.39z"/> <path class="cls-3" transform="translate(-452.27 -753.46)" d="m2447 1630.5c9.26 0.16 14.13 7.7 20.39 12.58 29.35 22.88 61.77 39.47 97.2 51 94.81 30.76 187.63 15.57 280-11 72.94-21 141.61-52 207-90.42 10.74-6.31 16.78-6.89 18.21 8.11 1 10.17 7.94 18.39 9.93 29.26 5.42 29.65-3.42 45.09-31.72 59.78-27.46 14.26-51.74 34.27-78.81 49.79-73.12 41.93-149.92 75.24-228.83 104.59-52.2 19.42-105.9 32.93-159.33 47.79-117.46 32.66-237.51 47.65-359 50.61-62.45 1.53-124.89-5.15-186.74-12.52-111.87-13.34-220.9-40.54-328-76-62.82-20.81-124.46-44.44-183.75-73.46-58.48-28.62-114.59-61.89-168.58-98.38-26.43-17.86-25.45-37.05-11.21-72.26 10.17-25.15 18.3-19.29 35.72-9.31 97.9 56 202.32 94.11 314.78 107.6 70.57 8.46 138.81-2.3 203.67-31.28 15.81-7.06 30.41-17.51 44.23-28.14 10.46-8 20.67-15.63 33.45-19.26 2.29 14.89-3.68 29.42-0.64 44.65 12.25 61.24 50.61 101 105.7 124.27 59.69 25.22 123 30.93 186.86 20.95 54.36-8.49 104.12-27.52 141.88-70.64 29.84-34.23 37.67-74.88 37.59-118.31z"/> <path class="cls-3" transform="translate(-452.27 -753.46)" d="m2237.5 1439c-18 3.31-35.89 1-53.8-0.84-1.52-7.33-4.36-14.67-4.36-22-0.05-46.61-6-92.65-12.6-138.62-8.77-60.76-40.07-106.75-93.25-136.86-70.17-39.72-145.27-33.24-219.54-17.51-65.4 13.84-125 43.73-181.6 78.93-71.49 44.49-138.81 94.35-194.48 158.39a21.32 21.32 0 0 1-18.32 7.5c5.89-21.51 18.78-39.42 30.61-57.69 16.06-24.77 32.16-49.7 50.46-72.79 21.08-26.6 44.1-51.73 67.18-76.66 19.49-21 38.72-42.26 60.6-61.24 36.64-31.78 74.4-61.43 114.91-88.38 58.77-39.09 122.35-66.08 189.51-85.18 92.24-26.22 186.45-39.13 282.43-32.82 53.32 3.5 106.69 11 158.14 24.66 81.27 21.61 158.74 51.72 229.59 100.48 59 40.63 112 86.7 161.82 137.25a913.51 913.51 0 0 1 135.86 175.57c17.71 29.84 39.79 57.44 52.13 90.44-19.54-6.42-24.32-26.19-35.56-40-70.33-86.14-160.18-147.45-255.43-201.85-82.54-47.13-170.9-73.24-266.61-66.75-74.05 5-133.14 38.51-165.09 106.83-32.26 68.96-30.73 144.67-32.6 219.14z"/> <path class="cls-3" transform="translate(-452.27 -753.46)" d="m3443.2 2182.5c-14.53-44.95-32.62-88.44-51-131.94-25.67-60.63-55-119.49-84.68-178.05-18.24-35.92-42.07-69-63.26-103.41-3.85-6.26-7.06-12.92-11.5-21.12 29.29-7.24 54.58 5.93 80.42 10.11a431.27 431.27 0 0 0 136.49-0.07c16.24-2.55 31.84-10.6 47.07-17.6 7.73-3.56 12.07-2.82 17.53 3.35 39.4 44.61 92.56 63.12 148.16 75.79 19.77 4.51 39.38 12.32 60.44 9.53 4.65 13.75 17.7 7.31 26.43 9.92 29.76 8.89 51.05 40.45 48.49 70.65-2.6 30.55-18.21 54.84-31.83 80.66-23.29 44.19-57.72 78-98.23 105.38-37.3 25.2-81.16 38-120.84 58.79-22 11.49-46.51 11.13-68.51 20.23-11.53 4.76-22.38 9.86-35.18 7.78z"/> <path class="cls-3" transform="translate(-452.27 -753.46)" d="m714.29 1829.4c15 9.18 27.49-2.56 40.41-6 52.51-13.93 106.28-25.05 148.21-64.3 26.14-24.46 26.44-22.52 59.6-7.13 26.15 12.14 55.16 11.31 83.39 11.41 45.47 0.16 89.38-13 134.4-16.87 3.4-0.29 7.56-5.64 10.58 0.16 1.88 3.62-1.21 6.14-3.25 8.91-42.25 57.34-75.56 120.15-107 183.6-26.48 53.5-51.12 108-71.79 164.43-10.17 27.73-18.44 56.52-31.78 83.16-26.72-11.4-56.74-13.83-81.66-30.12-2.8-1.84-5.69-5.1-8.54-5.09-24.74 0.07-46.82-13.73-65.69-23.87-32.49-17.46-65.3-35.55-92.64-65.5-40-43.87-71.82-89.3-86.78-146.39-8.78-33.46-1-46.69 27.26-66.32 14.43-9.98 33.99-5.27 45.28-20.08z"/> <path class="cls-2" transform="translate(-452.27 -753.46)" d="m1459.6 1367.9a21.32 21.32 0 0 0 18.32-7.5c55.67-64 123-113.9 194.48-158.39 56.56-35.2 116.2-65.09 181.6-78.93 74.27-15.73 149.37-22.21 219.54 17.51 53.18 30.11 84.48 76.1 93.25 136.86 6.64 46 12.55 92 12.6 138.62 0 7.34 2.84 14.68 4.36 22-5.27 3.65-11.21 3.05-17.12 2.69-4.11-4.67-6.78-2.37-9 1.87-11.09 3.41-8.65-6.92-9.72-11.08-15.62-60.68-46.37-111.37-102.18-141.75-48.57-26.44-101.64-31-155.64-17.91-90.39 21.86-168.68 68.47-245.71 118.5-66.77 43.36-131.31 90.09-200.4 130.06-25.32 14.66-50.58 28.5-79.84 41 7.83-28.9 19.61-54 31.33-79 12.46-26.53 26.86-52.15 40.41-78.17 11.41-0.38 12.25-7.49 10.41-16.32l7.15-9.17a4.2 4.2 0 0 0 5.25-3.14z"/> <path class="cls-2" transform="translate(-452.27 -753.46)" d="m2237.5 1439c1.87-74.42 0.34-150.13 32.6-219.11 32-68.32 91-101.81 165.09-106.83 95.71-6.49 184.07 19.62 266.61 66.75 95.25 54.4 185.1 115.71 255.43 201.85 11.24 13.77 16 33.54 35.56 40 0.39 2.57 0.77 5.13 1.16 7.7-6.24 7.19-1.45 9.84 4.88 11.87 15.29 8 13.53 25.46 20.67 38 13.75 24.17 25 49.7 35 78.08-28.55-3.45-50.75-18.88-73.08-31.47-66-37.19-128-80.72-190.24-123.86-35.72-24.75-73.91-46.07-111.69-67.86-57.68-33.27-118.15-59.14-184-66.54-111.4-12.51-190.53 44.29-223.18 152.16-8 26.14-7.35 26.34-34.81 19.26z"/> <path class="cls-5" transform="translate(-452.27 -753.46)" d="m3443.2 2182.5c12.78 2.08 23.65-3 35.15-7.78 22-9.1 46.55-8.74 68.51-20.23 39.68-20.77 83.54-33.59 120.84-58.79 40.51-27.37 74.94-61.19 98.23-105.38 13.62-25.82 29.23-50.11 31.83-80.66 2.56-30.2-18.73-61.76-48.49-70.65-8.73-2.61-21.78 3.83-26.43-9.92 7.28-13.75 12.95-27.47-0.79-40.81 10.91-6.54 14.93-16.11 12.53-28.5 37.45 19.61 70.9 13 103.14-13.13 17-13.72 18.31-30.37 16.6-49.19 4.07-6.47 11.33-6.46 16-4 11.67 6.19 23.29 3 35 2.52 19.52 30.88 20.46 66.4 21.89 100.74 1.9 45.34 0.5 90.89-10.41 135.62-11.23 46-29 89.32-49.36 132-21.7 45.44-51 86-84.07 122.59-33.24 36.77-69.28 71.5-110.2 101.24-32.93 23.93-67.28 45.19-101.57 66.67-18.29 11.46-38.54 19.82-58 29.42-9.56 4.71-15.05 1.88-17.12-9-12.42-65.67-34.13-128.86-53.28-192.76z"/> <path class="cls-5" transform="translate(-452.27 -753.46)" d="m1648 3636.3c24.43-20.07 23.1-19.19-0.71-55.39-30-45.6-65.37-86.91-98.78-129.79-20.49-26.28-41.36-52.28-62.25-78.25-4-5-8.56-9.68-5.42-16.37 3.41-7.28 10.74-5.19 16.45-4.6 30.61 3.13 59.09 15.29 88.86 22.24 33 7.71 65.71 16.91 98.71 25 37.43 9.14 74.66 19.17 112.54 26.35 56.79 10.76 114.12 17.92 171.45 25.2 71.79 9.11 143.93 16.38 216 18.66 40.18 1.27 81.29-0.86 122-4.4q58.86-5.11 117.84-10.46c28.3-2.52 56.43-6.4 84.4-12.76 15.26-3.48 32.08-2.95 48.16-5.27 84.29-12.14 166.33-35.05 249.37-53 28.82-6.24 58.1-13.72 86.13-24.19 8.36-3.12 18.89-7.53 24.78 0.51 6.23 8.48-1.55 15.34-7.05 23.89-38.15 59.29-86 111.36-124.89 170-12.63 19-20.69 41-37.69 57.3-5.18 5-5.67 10.93 3.72 13.46 5.08 1.37 7.59 5.57 8.05 10.84-31.24 7.83-63.4 6.72-95.15 9.57-5.4 0.48-9.51-2.41-13.51-7.36q-41.45-51.28-87.77-98.3c-7.88-8-15.73-17.56 4.32-21.46 28.54-5.56 56.89-12.1 85.37-18 42.84-8.85 85-20.43 126.88-32.82 5.78-1.71 11.12-5.21 16.35-8.4 9.64-5.88 15.92-13.87 10.59-25.6s-14.42-15-27.09-11.64q-91 24.09-183.76 40.15c-39.39 6.85-79.23 11.11-118.72 17.43q-99.75 16-200.41 23.77c-57.38 4.39-114.66 1.27-172.09-3.59-76.14-6.45-151.29-20-227-29.12-36-4.32-72.3-11.7-108.18-20-44.84-10.35-90.09-19.05-134.57-31.17-15.09-4.11-26.77 2.73-31.33 16-5 14.66 5.8 22.51 18.65 26.91 65.44 22.41 132.93 36.68 200.47 50.81 13 2.72 32 0.33 36.72 11.76 4 9.58-14.12 17.75-21.34 27.43-20.75 27.8-48.59 49.47-67.67 78.8-6.32 9.69-16.53 14.78-28.51 12.95-28.22-4.32-56.33-8.31-84.66-0.51-4.56 1.22-7.2-2.89-9.26-6.58z"/> <path class="cls-4" transform="translate(-452.27 -753.46)" d="m2254.6 2204.6c19 96.25 39.22 191.74 56.34 287.78 10.81 60.65 22.92 121 35.08 181.39 5.84 29-8.88 46.09-27.06 64-24.23 23.88-52 43.91-74 70.26-8.52 10.21-19.61 18.41-30.12 26.79-6.57 5.24-11.37-0.93-16-4.67-13.94-11.28-25.42-25.1-39.07-36.86-22.61-19.48-41.86-43-65-61.74-22.85-18.57-26.37-37.85-20.21-66.28 12.78-58.93 22.07-118.65 34.07-177.83 12.5-61.67 23.18-123.7 34.66-185.57 5.35-28.82 10.81-57.63 16-86.48 1.28-7.16 2.06-15 12.19-10.74 27.96 11.72 55.79 8.09 83.12-0.05z"/> <path class="cls-5" transform="translate(-452.27 -753.46)" d="m714.29 1829.4c-11.27 14.81-30.85 10.1-45.26 20.09-28.3 19.63-36 32.86-27.26 66.32 15 57.09 46.73 102.52 86.78 146.39 27.34 29.95 60.15 48 92.64 65.5 18.87 10.14 40.95 23.94 65.69 23.87 2.85 0 5.74 3.25 8.54 5.09 24.92 16.29 54.94 18.72 81.66 30.12-9.74 34.81-20.64 69.34-28.83 104.51-6.15 26.46-17.2 51.78-19.1 79.19-1.18 17.06-9.5 16.67-22 10.58-47.64-23.23-93-50.25-135.26-82.21-51.6-39-96.82-84-137.78-134.42-48.72-60-83.64-126.15-106.36-199.42 6.41-6.36 7.21-12.56 4.27-21.93-15.2-48.47-20.92-97.28-11.11-148.48 4-20.92 17.76-36.41 21.28-55.33 3.68-19.84 11.44-23.41 28.17-17.84 30.37 45.85 63.6 58 111.31 43.31 11.5-3.53 17.47-11.34 22.58-19.08 9.59-14.52 20.25-15.77 34.14-8.46-6.17 16.92-5.74 30.09 17.27 30.47-6.15 7.26-12.53 13.35-22.82 15.32-30.58 5.82-36.28 20.77-18.55 46.41z"/> <path class="cls-2" transform="translate(-452.27 -753.46)" d="m2447 1630.5c0.1 43.43-7.73 84.08-37.64 118.24-37.76 43.12-87.52 62.15-141.88 70.64-63.9 10-127.17 4.27-186.86-20.95-55.09-23.29-93.45-63-105.7-124.27-3-15.23 2.93-29.76 0.64-44.65 0.59-9.92 8-15.33 14.35-21.33 29.48-27.88 58.12-56.76 88.91-83.11 19.82-17 39.61-35.65 67.21-40.41 5.59 8.89-2.86 18 0.44 26.94-2.25 10.62-5.07 20.75-1.91 32.19 11.21 40.62 64.6 51.33 102.42 28.38 30.35-18.42 33.55-40.75 11.84-70.07-4.49-6.07-12.59-9.46-19-14.09q2.56-4.68 5.14-9.36c28.79 5.47 53.37 19.16 77.95 35 17.36 11.17 26.35 29.12 43.19 40.83 19.55 13.6 34.89 33.41 54.9 47.69 10.17 7.27 17.4 18.74 26 28.33zm-237.55 68.89c53.36-2.75 83.32-34.95 94.24-71.54 4.62-15.46-5-25-17.79-29.07-12.31-3.89-21.86 0.18-25.3 15.64-3.14 14.1-12.74 25.42-24.54 34.11-27.7 20.4-68.93 5-78.27-30.6-3.95-15.08-14.22-24.47-30.36-19.18-13.91 4.57-20.53 17.22-15.59 30.89 15.16 42.11 46.16 70.56 97.59 69.75z"/> <path class="cls-2" transform="translate(-452.27 -753.46)" d="m1417.4 1787.4q55.8 27.15 112.11 53.25c46.24 21.44 93.24 40.74 141.49 56.81 77.89 25.93 156.63 49.38 237.16 65.41 47.2 9.39 95.55 12.85 143.12 20.57 28.4 4.61 57.73 1.5 87.52 10.65-19.07 24.84-37 48.43-56.18 71.37a1032.4 1032.4 0 0 0-73.83 99.53c-12 18.49-23.15 22.28-41.79 13.2-71.39-34.77-143.72-67.7-214.18-104.26-49.52-25.69-98.36-53.55-144.21-85.22-44.7-30.88-88-64.56-126.55-103.33-27.78-27.91-54.5-56.91-77.79-88.83 0.11-9.23 6.77-8.98 13.13-9.15z"/> <path class="cls-2" transform="translate(-452.27 -753.46)" d="m3025.2 1782.2c-15.17 19.13-28.86 38.46-44.69 55.85-25.74 28.29-52.56 55.66-82.54 79.64-46.3 37-92.48 73.92-143.12 105.43-50.21 31.23-101.54 60.27-154.19 86.71-51.77 26-106 47-158.27 72.11-16.17 7.78-23.3 0.33-29.52-10.28-31.64-53.93-71.21-101.92-110.55-150.12a21 21 0 0 1-4-9.06c-1.52-8.28-18.94-9-12.17-17.67 5-6.44 18-9.15 27.48-9.21 88.91-0.52 175.1-17.36 261.4-37.41 99.45-23.11 195.44-55.84 289.23-95 45.88-19.16 90.26-42.38 133.66-67.11 6.75-3.87 15-9.78 27.28-3.88z"/> <path class="cls-4" transform="translate(-452.27 -753.46)" d="m2363.7 3052.5c2.18-39.79 2.32-38.21 44.72-42.19 88.4-8.31 176.37-20.07 263.6-37.21q103.41-20.32 204.74-48.93c12.2-3.42 18.14-0.59 17.61 13.21-0.38 10.13-1.82 20.1-0.17 30.57 4.89 31.05 0.23 36.79-31.07 43.89-92.56 21-185.09 42.16-278.86 57.2-60.72 9.74-121.72 16.95-183.26 18.87h-2.05c-37.35 2.72-37.35 2.72-35.26-35.41z"/> <path class="cls-4" transform="translate(-452.27 -753.46)" d="m1522.1 2967.2c-0.33-2.28-0.5-3-0.52-3.64-1.45-42.48-1.54-42.17 37.7-31.14 83.22 23.38 167.84 40.08 253.11 54.19 73 12.08 146.53 19.35 220.24 25 18.26 1.39 25.48 7.71 20.53 27.25-2.75 10.8 0 23 0.51 34.61 0.57 12.07-1.21 17.2-16.89 16.13-60.76-4.11-121.52-7.67-181.72-17.28-34.11-5.45-68.17-11.36-102-18.08-52.87-10.49-105.61-21.65-158.31-33-15.94-3.43-31.35-9.66-47.38-12.26-19.93-3.23-31.75-10.71-26.09-33.19 0.73-3.27 0.65-6.77 0.82-8.59z"/> <path class="cls-3" transform="translate(-452.27 -753.46)" d="m3871.5 2442q1 3.83 2 7.67c-8.67 1.7-18 2.57-23.7 10.29-26.84 36.48-63.95 61.1-99.89 87.09-19.94-29.85-44-57.22-68.52-82.34-16.43-16.8-33.45-36-54.7-48.85-5.11-3.1-8.86-8.36-13.6-12.17-6.28-5-5-7.49 1.56-11.59 27.38-17.15 54.57-34.64 81.29-52.79 14.36-9.76 26.25-23 42.06-30.88 52.25 36.75 99.9 78.13 133.5 133.57z"/> <path class="cls-5" transform="translate(-452.27 -753.46)" d="m3642.9 2639.4c13.21 10 16.69 25.8 21.32 40 11.79 36.24 22.68 72.8 26.56 111.09 1.55 15.31-2.88 22.88-16.74 32.13-37.18 24.82-76.07 46.15-115.39 67.09-13.57 7.22-19.77 6.33-21.82-9.85-4.87-38.4-19.25-75.44-18.86-114.43 0.24-24.29 5.14-48.54 8-72.8 26.6 3.4 44.74-15.18 66-25.48 17.42-8.42 30.48-24.87 50.93-27.75z"/> <path class="cls-2" transform="translate(-452.27 -753.46)" d="m3986.9 2237.9c6.51 16.17-4.77 30.84-3.93 46.54-12.87 12.83-18.93 30.07-27.76 45.31-15.19 26.23-29.59 52.61-52.2 73.4-2.73-3-5.66-5.77-8.16-8.91-35.45-44.48-75.38-84.32-121.58-117.68-1.09-1.61-3.18-4.6-3.14-4.63 42.16-30 71.5-71.6 101.21-112.72 3.87-5.36 7.59-4.2 12.09-4.11 36.47 25.13 70.72 53.02 103.47 82.8z"/> <path class="cls-4" transform="translate(-452.27 -753.46)" d="m3137.6 2879.2c-6-17 1.09-34.2-2.42-51.19-2-9.67 5.32-13.1 12.87-15.44 76.39-23.75 150.73-52.73 222.55-88 8.35-4.1 10.68-0.79 13.38 5.68 8.15 19.53 16.28 39.08 24.81 58.46 5.09 11.56-2.54 17.18-10.44 21-40.25 19.62-80.42 39.5-121.4 57.49-38.42 16.87-77.91 31.27-116.75 47.19-18.64 7.64-22.21 5.66-22.58-14.88-0.13-6.78-0.02-13.62-0.02-20.31z"/> <path class="cls-4" transform="translate(-452.27 -753.46)" d="m1267.9 2853.6c0 16.85-0.39 33.71 0.11 50.54 0.46 15.18-10.23 11.41-16.64 8.68-65.26-27.85-131.4-53.73-194.42-86.61-11.94-6.23-23.39-13.74-35.94-18.23-14.72-5.3-16.29-12.33-8.75-25 9.07-15.28 14.39-32.34 18.84-49.44 2.76-10.62 6.42-13.32 16.81-7.94 65 33.67 132.72 61 202.18 83.59 26.2 8.49 17.75 27.67 17.81 44.41z"/> <path class="cls-5" transform="translate(-452.27 -753.46)" d="m3430.8 2886.6c-15.83-2.14-29.44 4.39-43.12 10.88-81.4 38.62-165.8 69.74-250.06 101.38-82.59 31-166.74 56.69-252 78.89-46.17 12-93.09 21.35-139.55 32.15-53.95 12.54-108.61 19.37-163 28.16-55.92 9-112.18 15.21-168.9 16.2-17.41 0.31-35.17-1.21-34.21 25.34 0.28 7.79-7.17 14.27-16.6 15.1 2.7-12.87 8.74-25 6.77-38.91-1.27-9 6.3-10 13.1-12.23 24.47-8.21 50.22-7.07 75.12-8.65 108.81-6.9 215.1-28.48 321.23-51.32 120.06-25.85 237.18-62 353.07-102.33 102.33-35.62 201.3-79.1 298.37-127.06 2.78-1.37 5.39-4.4 10.37-1.65a113 113 0 0 1-10.59 34.05z"/> <path class="cls-3" transform="translate(-452.27 -753.46)" d="m2946 2243c-7.46 8.61-17.36 11.47-28.11 14.76-112.89 34.57-228.21 59.88-342.36 89.6-35.57 9.26-71.17 19.31-107.75 25.14-12.46 2-18.52-2.17-22.87-11.27-5.49-11.5 4.68-16.24 11.8-20.52 21.37-12.86 46.39-15 69.85-21.17 115.36-30.22 231-59.33 346.73-88.09 22.45-5.57 44.29-14 67.64-15.84 6.81 8.21 3.64 18.24 5.07 27.39z"/> <path class="cls-3" transform="translate(-452.27 -753.46)" d="m1470.2 2212c124.56 34.87 250.78 63.22 375.95 95.72 31.05 8.06 62 16.49 92.74 25.73 12.53 3.76 26 9.24 20.68 27.05-3 10-8.09 16-21.17 12.54-71.85-19-143.95-37-215.93-55.51-74.55-19.14-149.13-38.19-223.53-57.92-11.05-2.93-21.09-9.72-33.26-8.09q2.25-19.79 4.52-39.52z"/> <path class="cls-5" transform="translate(-452.27 -753.46)" d="m3749.8 2547c35.94-26 73.05-50.61 99.89-87.09 5.68-7.72 15-8.59 23.7-10.29 32.82 20.51 47 81.84 25.38 116.33-24.52 39.09-50.73 77.12-76.28 115.57-1.43 2.14-3.57 3.81-8 8.43-16.25-51.74-38.39-98.32-64.69-142.95z"/> <path class="cls-4" transform="translate(-452.27 -753.46)" d="M2206,3013.94q45.21,0,90.42,0c19.77,0,25.87,6.08,25.16,25.76-.57,15.7-1.77,31.38-2.2,47.08-.23,8.49-1.41,13.23-12.36,13.63-65.64,2.37-131.26,2.76-196.91.71-10.56-.33-15.09-3.6-13.47-14.59,2.79-18.9-.15-37.95,1.59-57.13,1.47-16.11,8.58-15.15,19.4-15,29.45.28,58.91.1,88.36.1C2206,3014.28,2206,3014.11,2206,3013.94Z"/> <path class="cls-5" transform="translate(-452.27 -753.46)" d="m2046.9 3158.5c-92.55-6.39-184.63-15.1-276.27-31.45-72.48-12.93-144.91-26.31-215.94-44.68-99-25.62-196.91-56.05-292.75-92.51-81.77-31.11-162.83-63.72-241.41-102.28-10.64-5.21-22.48-12.31-26.95 7.1-3.56-1.82-4.21-5-4.17-8.6 0.12-11.49-12.52-26.71-4.95-32.15 11-7.9 22.95 6.87 34 12.36a2604.4 2604.4 0 0 0 436.8 170c119 34.42 239.29 62.45 361.4 82.76 70.81 11.78 142.41 16.86 213.89 22.59 11.89 0.94 17.93 4.39 16.35 16.86z"/> <path class="cls-4" transform="translate(-452.27 -753.46)" d="m2214.5 2002.8c11.66-5.51 16.82 2.82 23.2 11.79 15.41 21.66 31.16 43.18 48.3 63.46 9.84 11.66 8.28 20.3-1.25 29.94-14.77 14.94-29.4 30-44.24 44.88-12.26 12.27-40.19 12.17-57.74 0.94-18.09-11.56-30.14-29.18-45.39-43.57-9.66-9.11-12.06-17.64-2.17-30.93 17.78-23.87 38.16-45.84 53.57-71.58 5.27-8.79 15.94-5.46 25.72-4.93z"/> <path class="cls-1" transform="translate(-452.27 -753.46)" d="m3986.9 2237.9c-32.75-29.78-67-57.67-103.47-82.8 4-20.37 16.18-36.91 26.23-54.31a351.79 351.79 0 0 0 30.64-68.39c1.76-5.45 6.83-9.82 10.37-14.68 12.55 1.91 19.49 14.42 31.78 16.81l-0.63-0.13c2-0.56 2.46 0.45 2.13 2.2 7.6 40.81 11.16 82 8.88 123.44-1.43 25.96 0.58 52.26-5.93 77.86z"/> <path class="cls-3" transform="translate(-452.27 -753.46)" d="m2981 2701c-8.53-3.45-14.48-1.3-21.46 5.52-26.71 26.08-53.1 52.62-83.81 74.28-37.3 26.3-75.68 50.85-114.92 74.19-11.67 6.94-18.58 6-25.06-5-6.59-11.22-8.65-22.71 4.16-30.42 58.11-35 114-72.88 162.47-120.79 21.25-21 41.56-43 62.45-64.44 2.79-2.85 6.49-4.82 9.77-7.19 7.47 24.1 2.05 49.38 6.4 73.85z"/> <path class="cls-3" transform="translate(-452.27 -753.46)" d="m3642.9 2639.4c-20.45 2.88-33.51 19.33-50.93 27.75-21.31 10.3-39.45 28.88-66 25.48l0.15-82.07c3.83-3.07 2.88-5.68-0.76-8l0.63-16.64c3.41-3.17 2.77-5.83-1-8.1q-4.08-40-8.15-79.91c-0.34-3.32-1.06-7.25 2.42-9.09s6.26 0.94 8.89 3.19c41.54 35.53 78.17 75.33 106.48 122.4 4.61 7.73 7.01 16.14 8.27 24.99z"/> <path class="cls-3" transform="translate(-452.27 -753.46)" d="m570.37 1721.4c-16.73-5.57-24.49-2-28.17 17.84-3.52 18.92-17.28 34.41-21.28 55.33-9.81 51.2-4.09 100 11.11 148.48 2.94 9.37 2.14 15.57-4.27 21.93-22.19-71.81-29.88-145.09-18.56-219.51 5.44-35.77 12.76-72.15 39.38-99.54 26.07-26.84 62.77-26.72 91.13-1.46 15.48 13.78 23.31 31.93 27.36 51.62 2.24 11-2.88 20.66-12 26.52-8.52 5.48-17.15 1.25-24.57-4.24-4.38-3.24-9-6.56-12.33-10.75-9.88-12.29-23.35-18.92-37.66-14.78-12.39 3.61-7.3 18.64-10.14 28.56z"/> <path class="cls-2" transform="translate(-452.27 -753.46)" d="m2635.7 879.13c-11.37 13.45-28.46 20.48-38.72 35.47-5.1 7.45-41.92 2.08-46.18-6-2.82-5.33 1.6-9.53 4.71-12.36 45.09-40.89 94.43-74.47 154.91-88.5 14.84-3.44 19.37 1.93 21.73 17.34 9.38 61.32 6.29 122.18-1.9 187.16l-45.75-35.36a379.54 379.54 0 0 0 16.36-123.68c-0.19-6-1.36-17.19-11.16-11.08-18.47 11.55-40.37 18.4-54 37.01z"/> <path class="cls-6" transform="translate(-452.27 -753.46)" d="m1729.4 975.35c-6.08 16.53-22.84 21.77-34.91 31.61-7.92 6.46-9.83-4.93-10.37-9.51-7.29-60.78-8.19-121.58 1.3-182.27 1.56-10 8.28-9 15.39-8 30 4.24 56 18.26 82.19 32.35a330.21 330.21 0 0 1 65.58 46.63c6.79 6.16 20.91 10.79 14.38 22.49-7.14 12.8-30.6 14.45-41.67 5.39-13.58-11.1-26.83-22.6-40.23-33.92-9.22-18.36-29.49-22.39-44.23-33.59-4.74-3.6-11.8-9.91-18.08-5.09-5.33 4.09-4.62 12.48-4.59 19.17 0.15 38.87 4.59 77.22 15.24 114.74z"/> <path class="cls-2" transform="translate(-452.27 -753.46)" d="m2394.6 1442c-2.28-37.16 28.86-60.92 64.7-59.8 30.2 1 60 30.34 58.44 58-2.55 46.14-29.64 67.15-65.76 66.14-32.9-0.89-59.81-28.59-57.38-64.34z"/> <path class="cls-2" transform="translate(-452.27 -753.46)" d="m2016.9 1437.9c-2.2 48.4-30.84 69.91-61.74 68.54-40.22-1.77-62-23.63-62-73.34 0-26.82 34.09-52.38 66.33-50.89 28.27 1.3 58.22 30.37 57.41 55.69z"/> <path class="cls-3" transform="translate(-452.27 -753.46)" d="m3734.6 1759.8c2.4 12.39-1.62 22-12.53 28.5-39.43-10.8-74.43-32.88-114.33-43.3-20.44-5.33-38.64-19-52.95-37.14-20.74-26.33-15.93-44.69 15.55-55.2 12.09-4 23.65-4.17 35.66-3.43 10.08 0.61 14 5.23 15.84 16.49 6.26 39 33.55 69.64 75.36 68.49 10.39-0.29 17.76 0.81 22.54 11.83 2.46 5.67 9.75 9.24 14.86 13.76z"/> <path class="cls-3" transform="translate(-452.27 -753.46)" d="m608.6 1575.8c37.51-30.19 95.12-24.63 127.07 10.2 18.43 20.09 27.64 42.87 26.63 69.72-0.61 16.51-11.17 28.09-24 36-9.66 5.93-18 10-22.55-10.49-11.54-52.14-48.62-83.6-97.57-101.89-2.99-1.17-6.02-2.24-9.58-3.54z"/> <path class="cls-3" transform="translate(-452.27 -753.46)" d="m755.67 1767.7c-23-0.38-23.44-13.55-17.27-30.47 40.82-9.08 66.68-32.4 71.72-75.46 0.48-4.13 0.77-8 5.16-10.33 16.68-8.87 60.69-2.92 69.52 8.16 11.69 14.69 11.42 28.66 0.49 42.87-19.93 25.92-47.24 41.1-78.32 47.81-18.05 3.9-34.66 10.27-51.3 17.42z"/> <path class="cls-3" transform="translate(-452.27 -753.46)" d="m3768.2 1555.6c8.74 1.18 15.65-1.87 22.09 2.37 8.35 5.51 23.92 6.16 24.35 15.91 0.46 10.55-14.87 8.21-23.06 11.74-43.82 18.89-70.64 51.75-80.15 98.06-3.29 16-9.89 15.29-21 8.54-23.21-14.12-30.82-52.27-15.18-79.75 20.92-36.76 52.33-56.36 92.95-56.87z"/> <path class="cls-3" transform="translate(-452.27 -753.46)" d="m3905.4 1696c-11.74 0.52-23.36 3.67-35-2.52-4.71-2.5-12-2.51-16 4-14.54-7.33-26.93-6.29-38.4 6.94-6.48 7.47-15.6 12.34-25.42 15.87-21.15 7.61-36.26-3.66-32.3-25.88 8.77-49.17 41.67-73.79 91.63-66.7a23.64 23.64 0 0 1 7.91 2.12c26.27 14.46 38.05 39.53 47.58 66.17z"/> <path class="cls-5" transform="translate(-452.27 -753.46)" d="M3773.28,2276.56c46.2,33.36,86.13,73.2,121.58,117.68,2.5,3.14,5.43,6,8.16,8.9.19,3.52.39,7,.58,10.56-17.36,1.87-24.28,15.62-32.13,28.29-33.6-55.43-81.25-96.81-133.53-133.57Z"/> <path class="cls-2" transform="translate(-452.27 -753.46)" d="m1367 2955.8c-7.09-2.33-13.41-4.53-19.8-6.5-36.56-11.25-38-11.33-35.32-46.78 2.07-27.73 2.28-55.42 3.11-83.12 0.16-5.08 0.86-7.9 6.53-7 1.35 0.22 2.68 0.59 4 0.71 41.91 3.55 48.6 9.47 46.3 50.29-1.66 30.15 2.48 60.6-4.82 92.4z"/> <path class="cls-2" transform="translate(-452.27 -753.46)" d="M2393.16,2731c5,15.95.24,29.14-10.9,40.95q-28,29.74-55.51,60c-26.11,28.7-51.57,58-82.31,82.11-20.85,16.37-35.31,18.51-54.67,1.09-26.61-23.94-55.76-45.44-72.46-79.39-4.92-10-19.69-15.78-27.78-26.14-3.82-4.9-7-8.56-1.07-13.65,27.81,24.41,55.62,48.75,81.84,75,13.91,13.94,31.71,24,53.55,16.95.91,8.3,4.53,13.74,13.38,9,18.88-10.09,38.35-19.84,50.34-38.73,7.73-12.19,17-22.56,27.23-32.84,10.42-10.51,29.78-17.13,23.94-38.32Z"/> <path class="cls-2" transform="translate(-452.27 -753.46)" d="m3092.6 2839.3c0 28.43-0.48 56.88 0.22 85.29 0.3 12.39-4.71 17.56-16.23 21.33-34 11.11-32.87 11.54-38.4-24.07-4.6-29.61 1.33-59.38-3.42-88.8-1.22-7.57 3.8-9.5 9-11.33s10.41-3.21 15.69-4.53c29.51-7.38 29.51-7.36 33.14 22.11z"/> <path class="cls-3" transform="translate(-452.27 -753.46)" d="m1431.5 2750c27.29-0.58 38 24.38 55.77 37.74 31.5 23.69 60 51.3 90 77.11 6.24 5.39 9.75 11.32 7.14 19.7-25.22-2.14-48-13.47-72.3-19.12 2.57-10.82-5.83-17.44-12.08-21.63-24.06-16.11-44.33-37.59-70.86-50.13-1.89-14.67-0.36-29.18 2.33-43.67z"/> <path class="cls-5" transform="translate(-452.27 -753.46)" d="m2635.7 879.13c13.63-18.61 35.53-25.46 54-37 9.8-6.11 11 5.1 11.16 11.08a379.54 379.54 0 0 1-16.36 123.68c-20.46-6.44-35.5-22-53.55-32.54-13.12-7.65 0-22.35 2.82-29.14 5.47-13.07 2.33-24.11 1.93-36.08z"/> <path class="cls-5" transform="translate(-452.27 -753.46)" d="m1223.6 3323.3c11.66 0.14 18.21 9.38 24.65 16.31 32.44 34.91 71.3 62.29 108.06 91.89 16.06 12.94 33.62 24.88 50.78 36.88 4.92 3.45 11.2 7.16 8.74 14.48-2.26 6.73-9.22 5.27-14.22 4.58-11.41-1.57-17 7.08-24.59 12.44-33.71-22-54.91-56.21-81.8-84.8-24.35-25.89-45.44-54.85-67.78-82.62-1.99-2.5-2.59-6.08-3.84-9.16z"/> <path class="cls-5" transform="translate(-452.27 -753.46)" d="m3032.7 3505.4c-1.39-1.52-2.79-3-4.16-4.55-8.06-9-28.44-7.86-26.88-21 1-8.25 17.55-14.63 27.09-21.88q65.44-49.72 130.8-99.53c8-6.11 12.14-16.82 23.05-19.55 5.41 16.34-10.41 23-17.24 31.67-35.46 45.24-75.15 86.85-117.2 126.16-4.77 4.43-9.25 7.64-15.46 8.68z"/> <path class="cls-3" transform="translate(-452.27 -753.46)" d="m2828.9 2885.1c21.64-35.49 54-60.39 86.12-85.09 20.4-15.67 37.7-35.9 62.74-45.18 5.51 15.87 3.2 32.53 4.87 48.78-4 0.33-9.92-0.94-11.74 1.23-13.72 16.38-35.15 21.63-50.27 35.71-6.32 5.89-12.85 12-12.83 21.78-24.8 12.71-53 13.76-78.89 22.77z"/> <path class="cls-5" transform="translate(-452.27 -753.46)" d="m1729.4 975.35c-10.65-37.52-15.09-75.87-15.24-114.77 0-6.69-0.74-15.08 4.59-19.17 6.28-4.82 13.34 1.49 18.08 5.09 14.74 11.2 35 15.23 44.23 33.59-2.6 0.2-5.67 1.39-7.71 0.42-6.76-3.25-12.88-1.28-16.52 3.69-5 6.81 0 12.9 4.73 18 6.94 7.44 14.73 14.15 21.11 22 8.37 10.33 8.61 20.78-5.54 25.85-17.24 6.17-26.97 26.14-47.73 25.3z"/> <path class="cls-3" transform="translate(-452.27 -753.46)" d="m692.55 1484.5c4-13.85-6.28-27.62-0.49-42.2 3.26-8.22 3.94-18.86 13.74-20.5 10.67-1.78 22.74-0.25 30 9.44 23.24 31.11 25.22 67 21.16 103.74-1.2 10.82-7.14 8.83-13.92 4.24-10.72-7.28-21.09-15.53-32.76-20.83-15.5-7.03-22.63-16.73-17.73-33.89z"/> <path class="cls-3" transform="translate(-452.27 -753.46)" d="m3674 1545c0.35-37.27-2.14-71.13 14.3-102.82 7.86-15.13 18.41-23.9 35.88-18 16.62 5.62 20.19 17.74 16.44 34.29-2 9.07-2.68 19.55-0.22 28.35 5.5 19.67-5.1 27.43-20.63 32.57s-27.9 16-45.77 25.61z"/> <path class="cls-4" transform="translate(-452.27 -753.46)" d="m1482.2 2951.2c-0.71 11.53 2.62 26.28-3.28 33.68s-19-3.19-29.26-4.83c-32.82-5.29-37.22-11.05-34.9-43.2 0.53-7.31 2.92-14.63 2.53-21.84-1.48-27.52-1.77-27.5 24.32-17.5a17.25 17.25 0 0 0 1.9 0.78c27.44 7 51.09 16.74 38.69 52.91z"/> <path class="cls-3" transform="translate(-452.27 -753.46)" d="M3903.6,2413.7c-.19-3.52-.39-7-.58-10.56,22.61-20.78,37-47.16,52.2-73.39,8.83-15.24,14.89-32.48,27.76-45.31-.52,42.79-12.1,83.36-24.74,123.73-4.24,3-4.9,6.8-2.3,11.23l-2.37,6.06c-13,5-12.86,14.2-8.19,24.95l-4.15,8.12-9.53,1,.75-.73-.85.6c1.16-6.88,1.66-13.31-8.51-12.43Z"/> <path class="cls-4" transform="translate(-452.27 -753.46)" d="m2994.4 2920.8c0 5.48-0.31 11 0.05 16.43 2 30.42-4.52 38-34.38 45.09-17.86 4.25-26.52 4.57-25.51-19.15 0.64-15 3.29-31.23-1.41-46.59-2.23-7.29 2.21-9.57 8.3-11a199.45 199.45 0 0 0 21.62-6.27c31.18-11.29 31.15-11.35 31.33 21.49z"/> <path class="cls-3" transform="translate(-452.27 -753.46)" d="m2116.2 2186.5c-11.92-1.26-20.89 1.07-30.51 10.9-14.92 15.22-33.49 27-51 39.53-4.79 3.45-11.26 5.38-16.22-1.13 17-34.7 46.31-60.74 65.8-93.67 2.29-3.86 5.26-3.56 8.63-2.26 8.42 3.23 25.06 36.63 23.3 46.63z"/> <path class="cls-4" transform="translate(-452.27 -753.46)" d="m3449.6 2774.6c-5.21-1.65-7.47-6.14-9.33-10.36-3.8-8.66-6.67-17.72-10.3-26.46-15-36-15.15-36.18 17.84-55.49 6.23-3.66 14.82-12.4 19.55-7.51 5.58 5.76 10.21 19.73 7 25.44-11.28 19.89-6.88 42.53-14.54 62.59-1.97 5.08-4.28 10.12-10.22 11.79z"/> <path class="cls-2" transform="translate(-452.27 -753.46)" d="m2338.7 2787c5.84 21.19-13.52 27.81-23.94 38.32-10.18 10.28-19.5 20.65-27.23 32.84-12 18.89-31.46 28.64-50.34 38.73-8.85 4.73-12.47-0.71-13.38-9l74.82-66.8c7.35 7.44 6.38-0.76 7.93-4.22 11.71-8.87 17.59-24.05 32.14-29.87z"/> <path class="cls-2" transform="translate(-452.27 -753.46)" d="m1429.1 2793.7c26.53 12.54 46.8 34 70.86 50.13 6.25 4.19 14.65 10.81 12.08 21.63-24.3-7.17-48.57-14.44-72.91-21.48-9.86-2.85-15.89-7.46-10.79-18.75 4.68-10.39-5.84-21.17 0.76-31.53z"/> <path class="cls-3" transform="translate(-452.27 -753.46)" d="m2378.1 2204.7c-16.62 7.83-24.07-8.61-34.38-14.66-20.46-12-24-12.62-36.91 9-12.05-18.4-1.16-51.51 19.92-60.67 3.69-1.6 5.91-0.71 8.27 2.82 14.2 21.25 28.7 42.34 43.1 63.51z"/> <path class="cls-4" transform="translate(-452.27 -753.46)" d="m973.39 2770.8c-11.68-32-15.17-63.78-15.72-96.64 1.89 0.77 4.08 1 5.07 2.17 9.51 11.4 34.18 12.72 32.81 26.43-2.32 23.24-14.26 45.42-22.16 68.04z"/> <path class="cls-6" transform="translate(-452.27 -753.46)" d="m2155.4 3145.8c7.29 0 16.76 0.18 26.22-0.07 6-0.16 11.57 0.45 12 7.68 0.4 6.71-2.33 12.59-10.18 12.48-27.09-0.41-54.18-1-81.24-2.16-5.86-0.25-9.3-5.83-9.58-11.5-0.45-9.29 7.23-6 11.86-6.3 16.21-1.15 32.42-3.74 50.92-0.13z"/> <path class="cls-6" transform="translate(-452.27 -753.46)" d="M2283.3,3145.61c10.18,0,20.37-.3,30.53.13,4.63.2,12.27-3.82,12.5,5.4.16,6.41-2.58,11.94-10.59,12.21-13.47.44-27,2.14-40.37,1.1-8.84-.68-17.17-2.13-26.06.3-7,1.9-14.1.93-14-9.15.07-8.93,4.73-11,13.38-10.5,11.48.67,23.08-.73,34.64-1.24C2283.31,3144.45,2283.3,3145,2283.3,3145.61Z"/> <path class="cls-2" transform="translate(-452.27 -753.46)" d="m2907.8 2862.3c0-9.78 6.51-15.89 12.83-21.78 15.12-14.08 36.55-19.33 50.27-35.71 1.82-2.17 7.73-0.9 11.74-1.23 0.05 9.44 0.17 18.87 0.15 28.31 0 6.42-0.87 11.3-9.14 13.21-22.1 5.09-43.92 11.38-65.85 17.2z"/> <path class="cls-6" transform="translate(-452.27 -753.46)" d="m3982.5 2034.5c-12.29-2.39-19.23-14.9-31.78-16.81-0.65-20.72 11.12-38.11 16.14-58 11.51 23.78 17.5 48.43 15.64 74.81z"/> <path class="cls-6" transform="translate(-452.27 -753.46)" d="m2146.4 1511.6c-3.3-8.93 5.15-18-0.44-26.94 14.73-5.36 30.06-7.65 45.57-9.08-0.15 2.21-0.31 4.42-0.46 6.64-17.59 5.68-33.73 13.57-44.67 29.38z"/> <path class="cls-3" transform="translate(-452.27 -753.46)" d="M2191.12,1482.19c.15-2.22.31-4.43.46-6.64,18.05-3.63,35.86-3.23,53.34,3.07q-2.58,4.68-5.14,9.36Z"/> <path class="cls-3" transform="translate(-452.27 -753.46)" d="m1417.4 1787.4c-6.36 0.17-13-0.08-13.13 9.11-8.33-7.32-16.5-14.75-22-31.19 13.91 10.61 26.9 11.98 35.13 22.08z"/> <path class="cls-5" transform="translate(-452.27 -753.46)" d="m3945.4 2450.4c-4.67-10.75-4.76-20 8.19-24.95 2.56 10.06-1.43 17.96-8.19 24.95z"/> <path class="cls-5" transform="translate(-452.27 -753.46)" d="m3192.7 3336.4c0.2-8.54 0.85-16.75 12.59-16.49-3.66 5.91-4.17 14.23-12.59 16.49z"/> <path class="cls-2" transform="translate(-452.27 -753.46)" d="m2079.6 2789.6c-10.65 3.61-10.49-4.11-11.3-10.8 7.22-0.01 8.57 6.12 11.3 10.8z"/> <path class="cls-3" transform="translate(-452.27 -753.46)" d="m1446.2 1388c1.84 8.83 1 15.94-10.41 16.32-0.45-7.94 6.32-11.27 10.41-16.32z"/> <path class="cls-5" transform="translate(-452.27 -753.46)" d="m3923.1 2447c10.17-0.88 9.67 5.55 8.51 12.43-9.18 0.2-6.67-7.59-8.51-12.43z"/> <path class="cls-3" transform="translate(-452.27 -753.46)" d="m2998.9 1441.1c-6.33-2-11.12-4.68-4.88-11.87 8.36 1.18 4.53 7.38 4.88 11.87z"/> <path class="cls-6" transform="translate(-452.27 -753.46)" d="m2064.7 2775.5c-5.67-1.83-5.11-6.48-5-10.94 6 1.7 5.54 6.3 5 10.94z"/> <path class="cls-5" transform="translate(-452.27 -753.46)" d="m1453.5 2354.9c3.14 3.45 1 6.57-0.59 9.73-6.21-3.6-4.48-6.78 0.59-9.73z"/> <path class="cls-5" transform="translate(-452.27 -753.46)" d="m1452.8 2371.1c2.29 3.51 1 6.39-1.58 9-5.57-4.09-3.3-6.75 1.58-9z"/> <path class="cls-3" transform="translate(-452.27 -753.46)" d="m1985.4 2241.7c-5.92 3.67-7.94 0.66-8.47-4.93 3.17 1.06 7.21 0.61 8.47 4.93z"/> <path class="cls-5" transform="translate(-452.27 -753.46)" d="m3931.7 2459.6 9.53-1c0.05 4.21-0.8 8.48-5.8 8.4-4.19-0.12-4.24-3.97-3.73-7.4z"/> <path class="cls-5" transform="translate(-452.27 -753.46)" d="m3525.3 2602.5c3.64 2.36 4.59 5 0.76 8-3.94-2.29-5.35-4.86-0.76-8z"/> <path class="cls-5" transform="translate(-452.27 -753.46)" d="m3955.9 2419.4c-2.6-4.43-1.94-8.2 2.3-11.23 3.13 4.54 2 8.21-2.3 11.23z"/> <path class="cls-5" transform="translate(-452.27 -753.46)" d="m3525 2577.8c3.78 2.27 4.42 4.93 1 8.1-4.11-2.24-4.08-4.98-1-8.1z"/> <path class="cls-3" transform="translate(-452.27 -753.46)" d="m1590.6 2885.8c0-2.83 1.54-5.17 4.13-4.54 1.64 0.39 2.66 3.31 4 5.1-2.86 1.66-5.54 1.12-8.13-0.56z"/> <path class="cls-3" transform="translate(-452.27 -753.46)" d="m2157.6 1442.7c2.27-4.24 4.94-6.54 9-1.87-2.29 3.88-5.47 3.73-9 1.87z"/> <path class="cls-6" transform="translate(-452.27 -753.46)" d="m2306.6 2816.8c-1.55 3.46-0.58 11.66-7.93 4.22z"/> <path class="cls-3" transform="translate(-452.27 -753.46)" d="m2385.1 2215.4c-5.38-1.17-9.75-2.94-5.68-9.66 4.17 1.88 5.66 5.31 5.68 9.66z"/> <path class="cls-5" transform="translate(-452.27 -753.46)" d="m1219.4 3319.1 4.22 4.16c-2.8 0.03-4.47-1.1-4.22-4.16z"/> <path class="cls-5" transform="translate(-452.27 -753.46)" d="m3183 3338.2c1.36-2.4 3.24-3.09 5.75-1.77q-2.82 0.9-5.75 1.77z"/> <path class="cls-6" transform="translate(-452.27 -753.46)" d="m3984 2036.6c0.33-1.75-0.09-2.76-2.13-2.2a2.94 2.94 0 0 1 2.13 2.2z"/> <path class="cls-3" transform="translate(-452.27 -753.46)" d="m1433.4 1406.3c0 0.44 0.12 1-0.1 1.3s-1 0.73-1.26 0.59c-1.73-0.88-1.68-1.86 0.12-2.57 0.28-0.11 0.82 0.44 1.24 0.68z"/> <path class="cls-5" transform="translate(-452.27 -753.46)" d="m1447.1 2389.2 1 1.33-1 1.33c-1-0.23-2.94-0.32-3-0.71-0.42-2.51 1.42-2.11 3-1.95z"/> <path class="cls-3" transform="translate(-452.27 -753.46)" d="m1976.8 2236.5-2 0.22-1.79-0.88 2.52-2.56c0.43 1.07 0.85 2.14 1.27 3.22z"/> <path class="cls-3" transform="translate(-452.27 -753.46)" d="m1458.6 1375.7a4.2 4.2 0 0 1-5.25 3.14c0.25-3.57 2.35-4.02 5.25-3.14z"/> <path class="cls-1" transform="translate(-452.27 -753.46)" d="m3103.7 2499.3c30 0.22 52.42 24.86 51.59 56.64-0.76 28.79-25.5 51.41-55.8 51-29.42-0.37-53.09-23.3-52.88-51.23a56.36 56.36 0 0 1 57.09-56.41zm-4.15 68.91c8.49-2.31 14.83-6.69 14.71-16.59-0.09-7.62-3.79-13.7-11.62-14.28-10.62-0.79-13.66 7.09-14.2 15.89-0.45 7.61 3.18 12.8 11.11 14.98z"/> <path class="cls-1" transform="translate(-452.27 -753.46)" d="m1360.5 2555.8c1.08 22.49-11.22 47.31-39.73 51.39-27.17 3.89-46.82-7.59-55.77-16.1-16.46-15.64-20-41-8.09-62.24 10.42-18.63 26.82-29.54 49.91-30.24 24.79-0.76 39.53 11.6 50.79 31.58 4.12 7.3 1.75 14.76 2.89 25.61zm-38.34-2.31c-1.35-8.67-5.39-15.25-15-16.2-11.23-1.12-13.51 7.19-14.22 15.52-0.73 8.5 3.48 14.9 12.45 15.22 9.24 0.32 14.74-5.35 16.77-14.54z"/> <path class="cls-1" transform="translate(-452.27 -753.46)" d="m2209.4 1699.4c-51.46 0.81-82.39-27.64-97.61-69.75-4.94-13.67 1.68-26.32 15.59-30.89 16.14-5.29 26.41 4.1 30.36 19.18 9.34 35.61 50.57 51 78.27 30.6 11.8-8.69 21.4-20 24.54-34.11 3.44-15.46 13-19.53 25.3-15.64 12.82 4 22.41 13.61 17.79 29.07-10.92 36.59-40.88 68.79-94.24 71.54z"/> <path class="cls-1" transform="translate(-452.27 -753.46)" d="m2191.1 1482.2 48.66 5.79c6.43 4.63 14.53 8 19 14.09 21.71 29.32 18.51 51.65-11.84 70.07-37.82 22.95-91.21 12.24-102.42-28.38-3.16-11.44-0.34-21.57 1.91-32.19 10.96-15.81 27.1-23.7 44.69-29.38z"/> <path class="cls-6" transform="translate(-452.27 -753.46)" d="m3099.6 2568.2c-7.93-2.22-11.58-7.37-11.11-15 0.54-8.8 3.58-16.68 14.2-15.89 7.83 0.58 11.53 6.66 11.62 14.28 0.12 9.92-6.22 14.3-14.71 16.61z"/> <path class="cls-6" transform="translate(-452.27 -753.46)" d="m1322.2 2553.5c-2 9.19-7.53 14.86-16.74 14.54-9-0.32-13.18-6.72-12.45-15.22 0.71-8.33 3-16.64 14.22-15.52 9.58 0.95 13.62 7.53 14.97 16.2z"/> <path class="cls-6" transform="translate(-452.27 -753.46)" d="m1159.2 3746.1a22 22 0 0 1-8.49 0z"/> <path class="cls-6" transform="translate(-452.27 -753.46)" d="m1318.6 3746.1a11.79 11.79 0 0 1-3.75 0z"/> </svg>