<?xml version="1.0" encoding="UTF-8"?>
<svg viewBox="0 0 474 485.35999" xmlns="http://www.w3.org/2000/svg">
 <g transform="translate(0 -567)">
  <path d="m230.46 1049.2-212.81-1.4634-10.055-8.5084-0.08606-15.244 10.038-10.546 14.813-3.0491h19.41l12.746-2.4864s-14.66-14.731-16.703-16.764-12.24-15.851-12.24-15.851l-9.3631-23.157s-7.5437-32.295-7.5437-34.327-0.65427-18.229-0.65427-18.229l6.3535-15.914-0.17791-25.727 8.4368-15.628 7.4095-8.1278c5.038-3.3011 6.5499-6.1467 2.9125-12.882-4.9901-7.9049-12.711-14.752-13.799-24.168l-2.4251-15.851 1.6115-18.394 2.3191-9.3236 1.0307-15.14-4.6914-11.904-8.3227-11.582s-3.266-15.396-3.266-18.271-1.4142-16.143-1.4142-16.143l6.3228-15.36 20.823 3.7725 19.809 8.3539 15.174 4.0441s10.378-10.917 12.784-12.62c2.8895-2.046 15.775-6.453 15.775-5.6149l7.8488-0.67305 9.9956 0.71753 9.9388-25.022 8.6685-11.858 7.9462-11.858 9.0298-2.5154 12.642 9.7023 9.7522 31.622 5.1515 24.712 9.1706 16.974 6.0943 25.705 13.535 9.1497 17.698 6.8275s7.2238-2.8748 7.9462-7.9056-0.72236-43.121-0.72236-43.121v-30.185l-2.3248-23.177-17.81-1.0108-7.6767-7.7666-3.7337-9.0108 3.0435-8.9006-3.2396-8.1348 4.7945-13.026 15.248-7.7395 14.164 1.6722 6.3116 5.5834 0.078 11.376-0.0611 11.416-0.0966 9.691 12.313 43.147 2.4182 35.409 8.5125 32.341c-0.37814 14.558-0.89534 43.428-1.6177 46.302s-5.581 21.244-7.6003 27.558c-2.5284 7.9056 2.9217 40.411 2.9217 43.286s4.6954 33.778 4.6954 38.809 11.558 24.435 11.558 24.435l1.4447 11.679-8.2064 14-2.0095 6.6343 21.31-2.3486 30.599-22.901-5.0736-31.306-4.1123-19.238-4.3282-24.408 0.87241-43.37 3.745-37.413c1.6975-11.817 0.61473-19.792 8.8058-35.332 25.784-26.801 31.549-22.251 48.695-33.039 12.026-2.1879 22.579-7.9322 33.549-7.476 12.515 2.6402 35.131 1.9954 46.635 9.6321 9.1861 9.069 8.1473 15.819 11.377 23.537 3.2809 7.2674 4.4514 14.75 5.0676 24.663-0.95175 8.537-4.022 16.121-8.5029 24.658l-12.638 11.05-11.919 12.936-7.9462 19.944s1.9866 22.998 3.4314 26.591 10.474 26.591 12.642 29.466 3.4313 11.499 4.1537 19.225c0.40142 4.2936-7.2238 35.934-7.2238 35.934l-23.658 22.998-23.116 27.669s-28.353 14.553-31.965 15.272-36.841 12.936-36.841 12.936l-22.272 1.8891-29.378-10.693-14.086 0.89829-13.098 30.279 1.7907 14.016-12.908 11.39z" fill="#fdfdfd" stroke="#000" stroke-width="2.9482"/>
  <path d="m177.31 949.49c-5.0885-0.24076-10.122-0.47563-11.185-0.52194-1.7601-0.0765-1.9655-0.30173-2.2984-2.5188-0.2657-1.7694-0.9488-2.9302-2.4997-4.2481-3.5235-2.9941-8.6114-4.1204-21.57-4.7751-14.626-0.73895-16.211-1.2718-29.784-10.011-15.274-9.8339-18.692-10.747-45.773-12.226-6.2375-0.34058-14.037-0.62182-17.332-0.62502l-5.9913-7e-3 -2.7333 3.0194c-4.5292 5.0031-6.6713 10.336-7.3405 18.275-0.37675 4.4697-1.413 8.5812-2.1628 8.5812-0.75856 0-1.1485-3.979-1.1485-11.72 0-6.9302-0.18875-8.3416-1.7907-13.388-2.3256-7.3267-2.5156-15.646-0.49457-21.648l1.2963-3.8496 4.5235-1.8937 4.5235-1.8937 0.18993-4.1092c0.10445-2.2601-0.10284-5.1642-0.46063-6.4536s-0.48458-3.4494-0.28182-4.7998c0.32079-2.1366 0.76803-2.6976 3.445-4.3218 1.692-1.0266 4.9006-2.332 7.1302-2.9009 3.7353-0.95309 6.9886-3.0686 6.9886-4.5443 0-0.31559-0.75226-1.3749-1.6718-2.354-1.5601-1.6614-2.1132-1.811-8.282-2.2402l-6.6103-0.45988 4.0267-9.3114c8.2978-19.188 10.056-22.882 13.049-27.421 3.9776-6.0316 4.0082-8.0855 0.13576-9.0999-0.93534-0.24497-2.0165 0.0577-3.0766 0.86171-1.4884 1.1287-5.3299 1.7555-5.3299 0.86965 0-0.20343 0.9433-1.5958 2.0962-3.0941 1.8232-2.3695 1.9792-2.8278 1.1972-3.5189-0.58339-0.51562-1.4766-0.62147-2.5439-0.30154-2.5652 0.76903-8.4429 0.61694-9.2469-0.23927-0.39716-0.42294-0.6404-1.7794-0.54048-3.0144 0.14151-1.7491-0.35681-3.1255-2.2545-6.2273-2.3961-3.9165-2.9364-6.1992-1.8858-7.9664 0.53824-0.90542 0.77758-0.66446 9.4986 9.563 3.6749 4.3097 7.3531 5.8218 12.819 5.27 2.3598-0.23818 5.0291-0.88757 5.9319-1.4429 1.4129-0.86924 1.6401-1.411 1.6317-3.8921-0.0094-2.8435-0.06578-2.9242-4.1856-6.0048-5.724-4.2801-5.7994-4.4181-3.282-5.9999 1.7713-1.1129 2.1053-1.6757 2.1053-3.5466 0-2.917-1.1097-3.5058-7.5155-3.9872l-5.0932-0.38276 0.31477-2.2865c0.1731-1.2576 0.76497-8.1503 1.3153-15.317 0.85676-11.159 1.249-13.754 2.7301-18.068 3.2432-9.4453 8.7651-16.33 17.334-21.611l2.8176-1.7367 8.8216 3.6036c12.857 5.2521 20.767 10.17 25.026 15.56 2.5761 3.2604 3.5033 2.5449 7.8185-6.0339 4.6282-9.201 6.3565-15.173 7.5067-25.938 0.47836-4.4772 1.0123-8.2923 1.1867-8.4779s5.9117-2.1769 12.75-4.425c15.111-4.9681 22.248-6.1493 32.13-5.3177 3.6112 0.30392 6.7672 0.56712 7.0134 0.58493s0.44769 2.0036 0.44769 4.4129v4.3805l2.3996 1.0225c1.7 0.72439 4.3538 1.0253 9.1025 1.0322 8.6893 0.0126 9.2733 0.40846 5.6346 3.8193-2.5281 2.3698-2.8114 2.9099-2.8114 5.3588 0 2.1943 0.44452 3.326 2.2883 5.8257 3.3552 4.5488 3.4418 5.1507 0.90288 6.2804-1.1788 0.52449-2.6284 0.95363-3.2215 0.95363-1.7605 0-2.9542 1.8097-2.9542 4.4786 0 3.6234 1.8058 4.4602 7.7595 3.5959 8.2186-1.193 8.4065-1.1439 18.265 4.7715 10.005 6.0037 15.967 8.641 24.931 11.028 3.3261 0.88576 7.4543 2.2205 9.1738 2.9662s3.282 1.19 3.4721 0.98749c0.78491-0.8359 2.0968-8.2704 2.6672-15.115 1.5285-18.341-0.14113-50.456-3.8665-74.371-1.1187-7.1813-1.506-12.568-1.7539-24.391l-0.31808-15.174 1.2379 1.1895c0.68085 0.65424 2.3226 3.4779 3.6483 6.2747l2.4104 5.0852-0.0962 8.2634c-0.053 4.5449-0.29452 14.699-0.53687 22.565-0.37315 12.112-0.27882 15.47 0.61605 21.93 0.58121 4.1953 2.1391 16.066 3.462 26.379s3.1812 23.757 4.1295 29.875 2.1516 14.284 2.6739 18.147l0.94965 7.0228-2.0485 6.0079c-1.1267 3.3044-3.1781 8.7253-4.5586 12.047-2.0733 4.9877-2.6352 7.2258-3.2288 12.86-1.0581 10.043-1.5e-4 18.458 5.0159 39.898 7.5127 32.112 8.2325 36.483 8.5737 52.056l0.29796 13.599 3.4776 3.7622c1.9127 2.0692 4.7532 4.5309 6.3122 5.4704 2.8017 1.6884 2.8346 1.7459 2.8352 4.9532 0 3.0956-0.14362 3.3882-3.133 6.3593-1.7235 1.713-4.5369 4.1143-6.2519 5.3363l-3.1183 2.2218-0.0154 3.6261-0.0154 3.6262-2.2384 0.38947c-1.2311 0.21415-3.0441 0.53505-4.029 0.71293s-7.8342 1.9929-15.221 4.0332l-13.43 3.7097-13.43 0.69699c-14.165 0.73521-24.179 0.74037-39.395 0.0203h4e-5zm-50.139-153.11c0-2.9573-0.57328-3.8659-2.4393-3.8659-2.8603 0-6.2688-1.8468-8.2472-4.4685l-1.8742-2.4836 2.5097-1.3635c1.3803-0.74994 4.3173-2.6435 6.5266-4.208 3.7186-2.6332 4.3754-2.8706 8.8442-3.1968l4.8273-0.35239v2.0117c0 1.1065-0.80579 3.9043-1.7907 6.2174s-1.7907 5.2611-1.7907 6.5512v2.3455l3.7306-0.60654c3.504-0.5698 3.9772-0.86231 7.7922-4.8172 3.4881-3.6161 4.5544-5.3044 7.5515-11.958 1.9194-4.2609 4.2409-8.7955 5.1587-10.077 1.5643-2.184 1.6134-2.4353 0.78338-4.0125-0.48698-0.92533-2.7559-2.8868-5.0421-4.3588-4.5148-2.907-11.752-5.0657-23.027-6.8693-3.294-0.52684-9.1253-1.9801-12.958-3.2294-10.77-3.5102-9.6549-3.688-9.6549 1.5396 0 2.4674-0.24794 4.6493-0.55095 4.8487s-0.73255 1.289-0.95449 2.4212c-0.51957 2.6508-5.0131 10.401-7.4582 12.865-3.5752 3.6014-7.5711 13.95-6.8866 17.836 0.21189 1.2028 0.47528 2.187 0.5853 2.187s4.7312 1.449 10.269 3.22 13.024 3.7369 16.635 4.3686l7.0134 1.2296c0.24622 0.0441 0.44768-0.75389 0.44768-1.7741z" stroke="#000" stroke-width="1.1518"/>
  <path d="m301.16 995.59c-2.6263-0.77119-9.0727-2.8587-14.325-4.6389s-11.296-3.5322-13.43-3.8932c-8.3987-1.4212-14.721-0.38789-18.064 2.9526l-1.7858 1.7843 0.38822-2.3075c0.21352-1.2692 1.4932-4.9877 2.8438-8.2634 2.2332-5.4164 4.9736-14.002 6.5671-20.576 0.59868-2.4696 0.23579-15.818-0.48436-17.817-0.57437-1.594 2.4921-1.1056 6.4636 1.0294 3.4666 1.8635 4.0029 1.9623 10.439 1.9214 7.022-0.0449 11.169-0.86313 16.953-3.3458 4.5154-1.9383 5.9266-3.4252 5.9266-6.2446 0-2.8486 0.86476-3.8302 3.3744-3.8302 1.407 0 2.2372 0.44861 3.0143 1.6288 0.58986 0.89579 1.7283 2.504 2.53 3.5739l1.4576 1.9451-1.6511 1.2808c-3.3384 2.5898-5.6729 8.6671-4.7589 12.389 0.26918 1.0962 0.78801 1.4324 2.2215 1.4399 3.4052 0.0177 4.6232 2.2276 2.9985 5.4404-1.5143 2.9944-0.82742 4.0827 2.5836 4.0939 1.5697 7e-3 3.5067 0.36272 4.3046 0.79455 1.743 0.94346 2.5277 3.58 1.6059 5.3952-1.024 2.0165-5.9465 6.3845-7.7329 6.862-3.0732 0.82144-1.3824 4.1013 2.1141 4.1013 0.7678 0 3.5386 0.95778 6.1574 2.1284 4.0903 1.8285 4.788 2.366 4.9502 3.8139 0.17736 1.5827 0.0393 1.6854-2.2638 1.6854-2.4541 0-2.5846 0.0806-10.395 6.4258-2.0975 1.704-6.6833 1.7919-12.003 0.22989z" fill="#881719" stroke="#881719" stroke-width="1.1518"/>
  <path d="m331.31 990.5c-2.5666-1.1501-3.3225-1.8111-3.4647-3.0293-0.175-1.4997-0.0136-1.5749 4.3026-2.0057 3.9117-0.39034 4.5296-0.62351 4.8385-1.8259 1.1068-4.3095 2.9063-7.2046 5.78-9.2989 1.66-1.2097 3.6899-3.2804 4.5108-4.6016 1.3134-2.1136 1.4071-2.6219 0.78032-4.2334-0.39175-1.0072-1.3105-2.1216-2.0416-2.4763-0.86592-0.42016-1.9226-2.2144-3.031-5.1465-0.93591-2.4758-2.4738-5.9411-3.4175-7.7008-1.4673-2.736-1.9778-3.1995-3.5241-3.1995-2.3103 0-4.8832 1.419-6.4714 3.5691l-1.2465 1.6875v-1.6466c0-0.90563 0.67148-2.7003 1.4922-3.9883 1.8236-2.8616 1.8782-4.7558 0.22735-7.8839-1.0623-2.0128-1.6542-2.4523-3.6949-2.7438-3.337-0.47664-8.1791 0.19894-9.8895 1.3798-1.3497 0.93185-1.5033 0.8797-3.1337-1.0634-0.94289-1.1239-1.7144-2.2564-1.7144-2.5169s1.8859-2.9691 4.1909-6.0193c4.1106-5.4395 6.5207-7.4713 8.8622-7.4713 2.8016 0 3.0629-0.50666 3.0629-5.9388v-5.1672l1.343 2.0464c2.0644 3.1458 8.0566 3.6389 13.099 1.0782 2.0466-1.0393 2.1771-1.0294 3.8552 0.29183 0.95532 0.75219 2.9056 2.9272 4.334 4.8336 3.3109 4.4186 5.427 5.7207 10.152 6.2466 2.0917 0.23283 4.1618 0.74022 4.6001 1.1277 1.5069 1.3318 2.0044 4.8769 1.0772 7.6754-1.174 3.5436-1.1318 3.7828 1.1671 6.6108l2.0239 2.4896 2.0865-2.3524c1.1476-1.2938 3.0849-4.2534 4.305-6.577s2.4447-3.9824 2.721-3.6863 0.58447 2.2518 0.68457 4.346c0.22043 4.6118 1.2554 5.1826 4.1167 2.2707 3.0276-3.0812 4.9191-2.4054 2.9448 1.052-0.66749 1.1689-1.9755 2.2573-3.2519 2.7059-2.7877 0.97973-2.9214 3.1475-0.31598 5.1231 2.2648 1.7174 4.2358 1.409 10.536-1.6485 3.2929-1.5981 5.3437-2.1871 7.6154-2.1871 1.7099 0 3.2811 0.18346 3.4916 0.40766s-2.4978 2.6518-6.0186 5.3946c-7.6842 5.9863-8.4292 7.4408-8.9277 17.429l-0.31872 6.3863-5.666 0.15406c-3.6353 0.0989-6.2924 0.49899-7.4136 1.1165-2.8044 1.5444-7.2868 1.8749-8.9187 0.65761-2.0642-1.5397-3.471-1.3584-3.0702 0.39578 0.42523 1.8613 1.9024 3.655 3.01 3.655 0.7273 0 0.74428 0.16886 0.10018 0.99539-1.5667 2.0104-4.6196 3.0757-12.204 4.2584-4.2678 0.66561-8.6007 1.3564-9.6289 1.535-1.3633 0.23691-2.8681 1.5128-5.5591 4.7136-2.0294 2.4138-4.0085 4.3568-4.398 4.3177s-2.1855-0.73303-3.9911-1.5422z" stroke="#000" stroke-width="1.1518"/>
  <path d="m409.31 937.35c-1.5644-0.93232-1.4328-10.33 0.18108-12.932 0.65063-1.0488 1.4399-2.336 1.754-2.8604s1.0312-2.615 1.5936-4.6459c0.93614-3.3803 0.94208-3.7781 0.0703-4.7065s-1.0814-0.92404-2.4803 0.0523c-0.84039 0.58643-1.528 1.3322-1.528 1.6574 0 0.84786-3.9977 2.7516-4.7451 2.2597-0.37318-0.24559-0.65547-3.4203-0.69752-7.8439-0.0388-4.0872-0.24545-8.2894-0.45915-9.3382-0.38564-1.8929-0.41873-1.907-4.4744-1.9068-3.9984 2e-4 -4.1285 0.0529-6.0723 2.4473-1.0925 1.3459-2.1575 3.2766-2.3666 4.2904-0.41138 1.9947-0.97857 2.298-1.9549 1.0452-1.3534-1.7366-1.4204-3.9883-0.15487-5.2079 2.1912-2.1119 1.5985-3.8775-1.9165-5.7089-5.548-2.8906-10.148-3.5308-29.935-4.1663-20.847-0.66962-18.523-1.1842-21.835 4.8371-0.98554 1.7918-1.9618 4.5778-2.1694 6.191-0.33988 2.6408-0.63579 3.0869-2.9688 4.4755l-2.5913 1.5424 0.35947-3.6625c0.43776-4.4602-0.76532-19.914-1.9581-25.153-1.1245-4.9386-3.9073-13.288-4.5197-13.56-0.26191-0.11659-0.4762-0.79592-0.4762-1.5097 0-1.1161 0.26269-1.2419 1.8756-0.8983 2.2306 0.47509 3.0908 1.557 4.6096 5.7981 1.3031 3.639 3.0596 4.6643 3.0742 1.7946 0.0121-2.3631 0.38522-2.8663 3.5988-4.8529 3.1249-1.9318 13.629-5.523 16.154-5.523s4.989-4.1192 4.5471-7.6281c-0.27524-2.1851-0.10624-2.7244 1.1955-3.8148 1.9678-1.6483 2.323-1.6086 4.2802 0.47802 1.9061 2.0323 3.1793 5.5086 4.5397 12.395 0.89368 4.5242 1.0926 4.9263 2.4374 4.9263 0.95506 0 1.6851-0.51618 2.0992-1.4841 0.82219-1.9217 3.0173-3.2373 7.099-4.2547 5.0953-1.27 6.8777-2.2764 8.938-5.0466 1.0485-1.4098 2.3303-2.5632 2.8484-2.5632s2.1744 0.82754 3.6804 1.839c2.0587 1.3826 3.7752 1.9394 6.9164 2.2436 11.137 1.0786 14.654 2.1654 17.319 5.3509 1.9814 2.3682 5.276 2.1022 6.5539-0.52947 2.0512-4.2241 5.0416-2.6931 5.0678 2.5945 5e-3 1.134 0.47227 1.8712 1.5004 2.37 1.1623 0.56396 1.4922 1.198 1.4922 2.8676 0 1.179 0.30369 3.0713 0.67488 4.2053 0.73876 2.2568 1.7204 2.3619 5.7202 0.61252 2.4251-1.0607 4.871-0.24546 6.066 2.0218 0.82533 1.5659 0.70496 1.8461-3.1019 7.2208-5.3285 7.523-5.9767 11.573-2.2131 13.828 0.99402 0.5956 1.8073 1.3814 1.8073 1.7462s-0.94125 1.7729-2.0917 3.129c-1.6108 1.8988-3.0859 2.8019-6.4166 3.9285-5.7368 1.9406-6.8802 2.8095-7.6375 5.8047-0.80186 3.1711 0.0693 4.6093 2.4811 4.0956 1.8537-0.39482 3.1396 0.79585 2.5692 2.379-0.20468 0.56797-2.6939 2.8609-5.5315 5.0953s-6.2046 5.2203-7.482 6.6354c-2.026 2.2442-2.28 2.852-1.9893 4.7596 0.27913 1.8319 0.11699 2.2919-0.99855 2.8332-0.84807 0.41153-1.6973 0.42844-2.3382 0.0468z" fill="#881719" stroke="#881719" stroke-width="1.1518"/>
  <path d="m424.76 856.36c-0.51591-0.54936-0.93798-1.7804-0.93798-2.7355 0-0.97319-1.5348-4.5162-3.4911-8.0591-1.9201-3.4773-3.979-7.7526-4.5753-9.5007s-1.2451-3.3825-1.4417-3.6323-1.5624-7e-3 -3.035 0.54449c-1.8444 0.68782-4.2561 0.93734-7.751 0.80202-12.175-0.47136-17.561-0.2276-19.518 0.88364-2.3068 1.3094-4.1178 1.394-4.5437 0.21211-0.17284-0.47971-0.50066-2.196-0.7285-3.8139-0.38615-2.7422-0.53493-2.9416-2.1942-2.9416-0.97898 0-2.4929 0.53301-3.3644 1.1846-4.2075 3.1459-6.8493 3.7663-24.69 5.7984-9.6152 1.0951-19.957 2.6371-22.982 3.4266l-5.5001 1.4354-0.83584-2.2676c-1.9769-5.3631-2.3645-9.0212-1.9529-18.434 0.33009-7.549 0.23455-9.7928-0.51308-12.049-0.50529-1.5252-0.91871-2.9-0.91871-3.0552s1.2758 1.1732 2.8352 2.952c2.5436 2.9016 3.0087 3.1825 4.5211 2.73 1.7632-0.52751 3.0347-2.7012 6.8764-11.755l1.8205-4.2906h3.0345c3.8129 0 4.2421 0.93537 2.1628 4.7137-1.6761 3.0458-2.2207 8.3385-0.80716 7.8442 0.41038-0.14354 0.83703-1.097 0.94817-2.1188 0.4643-4.2696 3.2954-5.4714 14.123-5.9953 9.9065-0.47936 11.497-1.0849 12.658-4.8187l0.80806-2.5997 2.0977 2.1068c1.1537 1.1587 3.4425 2.6146 5.0861 3.2353s4.27 2.3219 5.8364 3.7805c2.5924 2.4139 3.0833 2.6278 5.4703 2.383 4.6981-0.48195 6.4243-1.5726 13.25-8.3718 3.924-3.9089 4.3031-3.8734 7.0001 0.65549 2.0748 3.484 3.3325 3.7684 6.2359 1.41 1.7576-1.4276 2.5117-1.5891 7.4213-1.5891 5.4313 0 5.4649 0.01 5.4649 1.5891 0 1.4109 0.25113 1.5903 2.2383 1.5989 4.2554 0.0184 3.9505 0.85728-1.6263 4.4725-2.9383 1.9048-5.4949 3.9305-5.6813 4.5016s-0.0431 2.4303 0.31837 4.1317 0.58153 6.955 0.48888 11.675l-0.16843 8.5812 3.7288 6.7721c2.8953 5.2582 3.7907 7.4962 4.0059 10.011 0.15242 1.7817 0.39879 4.6695 0.54746 6.4176 0.28223 3.3184-0.14362 3.858-1.7199 2.1793z" stroke="#000" stroke-width="1.1518"/>
  <path d="m413.92 791.9c-1.4449-3.3744-11.427-14.974-13.67-15.885-3.6692-1.4906-3.8716-1.4596-5.9026 0.90162l-1.9734 2.2944-2.2359-5.2625c-2.1545-5.0709-3.933-7.4433-5.6023-7.4732-0.4356-8e-3 -1.564 0.808-2.5075 1.8128s-2.4295 1.9722-3.3022 2.1499c-1.4328 0.29169-1.7179 7e-3 -2.9396-2.9393-0.74408-1.7942-1.5121-3.7628-1.7067-4.3747-0.53804-1.6915-3.5564-1.4033-5.7334 0.54754-1.0188 0.9129-2.7392 1.8728-3.823 2.1332-2.3434 0.56282-8.9343-0.2773-9.2152-1.1746-0.32944-1.0526-5.6645-4.3681-7.7939-4.8436-1.1468-0.25611-3.142-0.10626-4.6763 0.35117-2.111 0.62949-2.9974 1.3477-4.1982 3.4018-0.8372 1.4321-1.6027 2.7043-1.7011 2.827s-1.1346-0.55317-2.3026-1.5018c-2.9767-2.4179-5.5239-1.8433-9.0112 2.0326l-2.6124 2.9035-1.8205-1.9386c-1.6014-1.7055-1.8204-2.3724-1.8204-5.5444 0-2.5898 0.33719-4.11 1.1967-5.3955 0.65816-0.98432 1.8642-3.3168 2.6802-5.1833 1.3245-3.0298 1.4841-4.2283 1.4893-11.18l6e-3 -7.787 7.3264-3.7933c10.285-5.3251 16.835-6.4888 22.518-4.0005 2.5449 1.1143 8.7955 6.4486 11.893 10.15 1.9381 2.3157 3.2659 3.4049 3.8566 3.1635 1.5622-0.63841 2.7529-4.043 3.146-8.9958 0.20896-2.6325 0.48057-4.7864 0.60359-4.7864 0.85455 0 5.004 3.5518 5.2967 4.5337 0.21695 0.72792-0.25653 2.3912-1.1834 4.1573-0.84979 1.6192-1.474 3.0013-1.3871 3.0713 2.5313 2.0422 5.2673 1.1836 6.7006-2.1026 1.4218-3.2599 4.0154-5.3424 6.342-5.0923l1.859 0.19986-1.3541 1.8253c-1.7635 2.3771-1.3507 3.0126 4.3384 6.68 2.5063 1.6156 4.7713 3.1658 5.0334 3.4449s0.6502 2.526 0.86258 4.9932c0.42824 4.9756 1.0579 5.8107 3.6545 4.8467 1.5272-0.56697 2.4318-0.26854 7.4229 2.4486 3.1261 1.7018 6.401 3.5233 7.2776 4.0477 4.2792 2.5599 12.636 0.0353 12.636-3.817 0-1.9444-1.1272-3.6162-6.9062-10.243-4.6689-5.3538-5.133-7.0422-2.6771-9.7405 1.764-1.9382 2.3591-3.5324 1.3185-3.5324-0.27789 0-2.3006-1.9458-4.4948-4.3241-3.3978-3.6826-4.8059-4.6898-9.4926-6.7894-4.5585-2.0422-6.2367-3.2183-9.7776-6.8526-4.1454-4.2547-4.2871-4.5021-4.6888-8.1873-0.22779-2.09-0.28044-3.9424-0.117-4.1164s1.843 0.16215 3.7325 0.74708c2.6946 0.83421 3.8989 0.91862 5.5854 0.39148 5.0488-1.5782 12.538-2.535 17.186-2.1958l4.809 0.35103 0.3221 3.3234c0.61535 6.3491 4.1313 11.416 12.661 18.248 1.9697 1.5775 4.79 3.5103 6.2673 4.2951s3.1501 2.0411 3.7173 2.7916c1.3693 1.8118 1.4206 6.9269 0.0813 8.1106-0.5371 0.47468-1.6206 1.9496-2.4079 3.2777s-1.9701 2.9884-2.6286 3.6897c-1.8713 1.9928-2.5068 4.3547-1.7178 6.3835 0.54557 1.4026 1.5809 2.0896 5.2498 3.483 5.666 2.152 7.376 3.656 7.135 6.2755-0.16202 1.7607-0.50381 2.0392-3.9616 3.2276-3.3883 1.1646-4.3581 1.9294-9.2678 7.3099-8.8284 9.6748-12.953 12.684-17.389 12.684-1.0687 0-2.2722 0.42226-2.6745 0.93836-0.59718 0.76631-0.39161 1.3953 1.1207 3.4286 1.863 2.505 2.1577 3.5798 1.4897 5.4335-0.28721 0.797-1.3201 1.0054-4.9823 1.0054-4.025 0-4.6894-0.16208-5.1589-1.2585z" fill="#881719" stroke="#881719" stroke-width="1.1518"/>
  <path d="m218.2 1044.5c-1.3132-0.5468-5.0736-1.712-8.3564-2.5893-8.0722-2.1571-12.596-1.6159-19.54 2.3373-1.5601 0.8882-7.4947 0.6957-11.2-0.3633-4.2913-1.2266-21.691-1.2266-60.883 0-16.25 0.5086-41.51 0.9311-56.133 0.9391l-26.587 0.014-5.3462-1.6422c-5.8977-1.8117-15.195-6.1886-15.195-7.1534 0-0.3381 1.8251-4.0037 4.0559-8.1456l4.0559-7.5311 11.911-0.3262 11.911-0.3261 14.624-4.293c8.0431-2.3612 14.961-4.4227 15.372-4.5811 0.54306-0.2091 0.30479-1.2512-0.86845-3.7988-1.3756-2.987-1.917-3.5707-3.6289-3.9127-1.1066-0.2211-3.1675-0.2333-4.5796-0.027-3.7376 0.5456-4.79-0.8608-4.2281-5.6499l0.41965-3.5768 3.625 0.44798c7.0853 0.87576 9.4145 2.9718 10.546 9.4906 0.35861 2.0657 0.65202 3.8416 0.65202 3.9463s1.334 0.9104 2.9646 1.7902c2.332 1.2585 3.8604 1.5998 7.1627 1.5998 4.5098 0 4.981-0.4335 3.2809-3.0185-0.50447-0.767-2.0489-1.7193-3.4321-2.1163l-2.5149-0.7219 3.4402-3.2692c1.8921-1.7981 3.4366-3.6522 3.4321-4.1202-5e-3 -0.5434 0.62918-0.28002 1.7548 0.72869 1.7935 1.6071 2.3582 1.7248 13.012 2.7113 2.3814 0.2206 4.4675 0.6383 4.6359 0.9283 0.53967 0.93-2.2683 2.5012-5.2135 2.9172-6.6712 0.9425-1.5817 2.7078 9.9763 3.4603 13.595 0.8851 23.633 1.8509 32.53 3.1298 4.4319 0.637 10.341 1.3557 13.132 1.5972s6.8835 0.8358 9.0956 1.3207c3.089 0.6771 4.3699 0.7129 5.5212 0.1542 1.7698-0.8587 1.8027-1.0501 0.51694-3.005l-0.98215-1.4934 16.139 0.269 16.139 0.2689 2.5095 1.7686c1.3803 0.9728 3.3837 1.9197 4.452 2.1043 1.8058 0.3121 2.169 0.041 5.1646-3.8554 3.0771-4.0023 5.2254-5.2632 6.1762-3.6249 0.89475 1.5417 9.361 7.7076 10.03 7.3045 1.2647-0.7624 3.4308-2.9964 3.4308-3.5383 0-0.2827-1.3756-1.2564-3.057-2.1638s-2.8229-1.8665-2.5368-2.1316c5.8321-5.4032 9.3944-8.3174 10.167-8.3174 1.3249 0 0.83534 3.3744-1.8598 12.82-1.8311 6.4175-2.1164 8.2921-2.1164 13.909 0 5.462 0.19662 6.8307 1.2392 8.6274l1.2392 2.1353-2.6584-0.388c-2.652-0.3872-2.6642-0.3799-5.0974 3.0248-3.703 5.1817-5.8344 6.4447-11.321 6.7086-3.1776 0.1528-5.3263-0.086-6.9787-0.7734z" stroke="#000" stroke-width="1.1518"/>
  <path d="m35.567 750.41c-0.16707-0.78663-0.38747-4.8627-0.48982-9.058l-0.18607-7.6277-5.7231-13.349c-6.9408-16.189-8.2498-20.8-8.2213-28.962 0.01776-5.071 1.1132-13.489 1.8517-14.229 1.1069-1.1097 5.0886-1.3429 10.373-0.60741 6.487 0.90277 9.4233 1.8527 18.494 5.9831 5.6294 2.5634 6.3682 2.7359 12.989 3.0332 6.0784 0.27296 6.8281 0.42143 5.5879 1.1066-3.665 2.0249-9.1069 7.4496-12.74 12.7-4.3424 6.2751-8.7154 16.228-13.603 30.959-1.542 4.648-3.3131 9.3428-3.9356 10.433-0.70485 1.2342-1.1319 3.1594-1.1319 5.1026 0 4.4726-2.5312 7.9731-3.2654 4.5159z" stroke="#000" stroke-width="1.1518"/>
  <path d="m156.72 671.7c-6.7322-1.9622-14.355-3.669-20.414-4.571l-9.6703-1.4396 6.572-12.059c6.494-11.916 20.345-33.369 21.544-33.369 1.8646 0 7.813 4.8837 11.018 9.046 3.0494 3.9602 3.9139 5.7103 6.0508 12.248 2.15 6.578 4.986 20.013 6.4071 30.352l0.415 3.0193-5.589-0.048c-4.7582-0.0409-7.186-0.51353-16.333-3.1795z" stroke="#000" stroke-width="1.1518"/>
  <path d="m229.02 626.17c-0.23118-0.24622-2.1399-0.38006-4.2415-0.29742l-3.8211 0.15024 0.56069-2.082c0.78134-2.9012 0.7975-2.8621-1.5168-3.6755-2.7321-0.96023-3.6406-4.0792-2.7249-9.3547 0.34331-1.9777 0.62421-5.9248 0.62421-8.7712 0-4.6986-0.13749-5.313-1.4922-6.6684-1.0874-1.0879-1.4922-2.1526-1.4922-3.9247 0-2.7968 0.80866-3.0694 4.3846-1.4783 1.1786 0.52442 2.9521 0.95347 3.9413 0.95347 1.4808 0 1.8592-0.30879 2.142-1.748 0.94324-4.8001 1.6846-7.151 2.2552-7.151 0.34659 0 1.8959 1.1366 3.443 2.5258s3.7131 3.0872 4.8135 3.7734c2.4542 1.5304 3.5243 0.90548 5.1757-3.0225l1.1102-2.6407 0.69261 1.6188c0.74588 1.7433 0.95476 15.236 0.31305 20.222-0.31568 2.4528-0.59192 2.9484-1.6414 2.9451-0.7846-3e-3 -1.6606-0.74997-2.316-1.9763-0.90096-1.6856-1.19-1.8522-1.9886-1.1464-0.51393 0.45422-1.7222 2.4877-2.685 4.5189-1.1876 2.5053-2.107 3.693-2.859 3.693-0.9599 0-1.1472-0.66045-1.3972-4.9263-0.2749-4.692-3.0344-14.143-4.1295-14.143-0.90914 0-1.7525 7.1632-1.6557 14.062 0.0818 5.828-0.10759 7.6931-0.97576 9.6076-1.1454 2.5258-0.86554 3.7124 0.5752 2.4391 0.48748-0.43086 3.1858-0.86215 6.1325-0.98022 5.9373-0.23792 7.3511 0.44943 7.3511 3.5739 0 2.804-1.8746 4.351-5.2725 4.351-1.5867 0-3.0741-0.20145-3.3053-0.44767z" stroke="#000" stroke-width="1.1518"/>
 </g>
</svg>
