<?xml version="1.0" encoding="UTF-8" standalone="no"?>
<!-- Created with Inkscape (http://www.inkscape.org/) -->

<svg
   version="1.1"
   id="svg1"
   width="2299.6372"
   height="2299.6372"
   viewBox="0 0 2299.6372 2299.6372"
   sodipodi:docname="avatar-5261898.ai"
   xmlns:inkscape="http://www.inkscape.org/namespaces/inkscape"
   xmlns:sodipodi="http://sodipodi.sourceforge.net/DTD/sodipodi-0.dtd"
   xmlns="http://www.w3.org/2000/svg"
   xmlns:svg="http://www.w3.org/2000/svg">
  <defs
     id="defs1">
    <clipPath
       clipPathUnits="userSpaceOnUse"
       id="clipPath66">
      <path
         d="M 0,5137.058 H 4901.116 V 0 H 0 Z"
         transform="translate(-1401.3993,-2857.4173)"
         id="path66" />
    </clipPath>
    <clipPath
       clipPathUnits="userSpaceOnUse"
       id="clipPath68">
      <path
         d="m 1401.399,4582.145 c -474.299,0 -862.362,-388.064 -862.362,-862.364 v 0 -10e-4 c 0,-474.3 388.063,-862.363 862.362,-862.363 v 0 0 c 474.298,0 862.362,388.063 862.362,862.363 v 0 10e-4 c 0,474.3 -388.064,862.364 -862.362,862.364 z"
         transform="translate(0,-2.5e-5)"
         id="path68" />
    </clipPath>
    <clipPath
       clipPathUnits="userSpaceOnUse"
       id="clipPath70">
      <path
         d="m 1401.399,4582.145 c -474.299,0 -862.362,-388.064 -862.362,-862.364 v 0 -10e-4 c 0,-474.3 388.063,-862.363 862.362,-862.363 v 0 0 c 474.298,0 862.362,388.063 862.362,862.363 v 0 10e-4 c 0,474.3 -388.064,862.364 -862.362,862.364 z"
         transform="translate(-1555.3552,-2742.5882)"
         id="path70" />
    </clipPath>
    <clipPath
       clipPathUnits="userSpaceOnUse"
       id="clipPath72">
      <path
         d="m 1401.399,4582.145 c -474.299,0 -862.362,-388.064 -862.362,-862.364 v 0 -10e-4 c 0,-474.3 388.063,-862.363 862.362,-862.363 v 0 0 c 474.298,0 862.362,388.063 862.362,862.363 v 0 10e-4 c 0,474.3 -388.064,862.364 -862.362,862.364 z"
         transform="translate(0,-2.5e-5)"
         id="path72" />
    </clipPath>
    <clipPath
       clipPathUnits="userSpaceOnUse"
       id="clipPath74">
      <path
         d="M 0,5137.058 H 4901.116 V 0 H 0 Z"
         transform="translate(-985.12082,-3851.5668)"
         id="path74" />
    </clipPath>
    <clipPath
       clipPathUnits="userSpaceOnUse"
       id="clipPath76">
      <path
         d="M 0,5137.058 H 4901.116 V 0 H 0 Z"
         transform="translate(-1817.6794,-3851.5668)"
         id="path76" />
    </clipPath>
    <clipPath
       clipPathUnits="userSpaceOnUse"
       id="clipPath78">
      <path
         d="M 0,5137.058 H 4901.116 V 0 H 0 Z"
         transform="translate(-1879.9192,-3386.7435)"
         id="path78" />
    </clipPath>
    <clipPath
       clipPathUnits="userSpaceOnUse"
       id="clipPath80">
      <path
         d="M 0,5137.058 H 4901.116 V 0 H 0 Z"
         transform="translate(-1103.1312,-4142.6715)"
         id="path80" />
    </clipPath>
    <clipPath
       clipPathUnits="userSpaceOnUse"
       id="clipPath82">
      <path
         d="M 0,5137.058 H 4901.116 V 0 H 0 Z"
         transform="translate(-1705.638,-4142.6715)"
         id="path82" />
    </clipPath>
    <clipPath
       clipPathUnits="userSpaceOnUse"
       id="clipPath84">
      <path
         d="M 0,5137.058 H 4901.116 V 0 H 0 Z"
         transform="translate(-1277.7166,-3745.7035)"
         id="path84" />
    </clipPath>
    <clipPath
       clipPathUnits="userSpaceOnUse"
       id="clipPath86">
      <path
         d="M 0,5137.058 H 4901.116 V 0 H 0 Z"
         transform="translate(-1210.5198,-3784.6898)"
         id="path86" />
    </clipPath>
    <clipPath
       clipPathUnits="userSpaceOnUse"
       id="clipPath88">
      <path
         d="M 0,5137.058 H 4901.116 V 0 H 0 Z"
         transform="translate(-1199.4837,-3768.264)"
         id="path88" />
    </clipPath>
    <clipPath
       clipPathUnits="userSpaceOnUse"
       id="clipPath90">
      <path
         d="M 0,5137.058 H 4901.116 V 0 H 0 Z"
         transform="translate(-1508.6682,-3745.7035)"
         id="path90" />
    </clipPath>
    <clipPath
       clipPathUnits="userSpaceOnUse"
       id="clipPath92">
      <path
         d="M 0,5137.058 H 4901.116 V 0 H 0 Z"
         transform="translate(-1575.865,-3784.6898)"
         id="path92" />
    </clipPath>
    <clipPath
       clipPathUnits="userSpaceOnUse"
       id="clipPath94">
      <path
         d="M 0,5137.058 H 4901.116 V 0 H 0 Z"
         transform="translate(-1586.9011,-3768.264)"
         id="path94" />
    </clipPath>
    <clipPath
       clipPathUnits="userSpaceOnUse"
       id="clipPath96">
      <path
         d="M 0,5137.058 H 4901.116 V 0 H 0 Z"
         transform="translate(-1297.9461,-3846.306)"
         id="path96" />
    </clipPath>
    <clipPath
       clipPathUnits="userSpaceOnUse"
       id="clipPath98">
      <path
         d="M 0,5137.058 H 4901.116 V 0 H 0 Z"
         transform="translate(-1484.4475,-3921.3793)"
         id="path98" />
    </clipPath>
    <clipPath
       clipPathUnits="userSpaceOnUse"
       id="clipPath100">
      <path
         d="M 0,5137.058 H 4901.116 V 0 H 0 Z"
         transform="translate(-1433.5237,-3587.2333)"
         id="path100" />
    </clipPath>
    <clipPath
       clipPathUnits="userSpaceOnUse"
       id="clipPath102">
      <path
         d="M 0,5137.058 H 4901.116 V 0 H 0 Z"
         transform="translate(-1394.3352,-3386.2987)"
         id="path102" />
    </clipPath>
    <clipPath
       clipPathUnits="userSpaceOnUse"
       id="clipPath104">
      <path
         d="M 0,5137.058 H 4901.116 V 0 H 0 Z"
         transform="translate(-902.0959,-4202.3111)"
         id="path104" />
    </clipPath>
    <clipPath
       clipPathUnits="userSpaceOnUse"
       id="clipPath106">
      <path
         d="M 0,5137.058 H 4901.116 V 0 H 0 Z"
         transform="translate(-1185.8328,-4248.4269)"
         id="path106" />
    </clipPath>
    <clipPath
       clipPathUnits="userSpaceOnUse"
       id="clipPath108">
      <path
         d="M 0,5137.058 H 4901.116 V 0 H 0 Z"
         transform="translate(-1584.2967,-4202.3111)"
         id="path108" />
    </clipPath>
  </defs>
  <sodipodi:namedview
     id="namedview1"
     pagecolor="#ffffff"
     bordercolor="#000000"
     borderopacity="0.25"
     inkscape:showpageshadow="2"
     inkscape:pageopacity="0.0"
     inkscape:pagecheckerboard="0"
     inkscape:deskcolor="#d1d1d1" />
  <g
     id="layer-MC0"
     inkscape:groupmode="layer"
     inkscape:label="Layer 3"
     transform="translate(-718.71496,-739.88641)">
    <path
       id="path65"
       d="m 0,0 h 0.002 c 474.299,0 862.363,388.063 862.363,862.363 v 0.002 c 0,474.299 -388.064,862.363 -862.363,862.363 H 0 c -474.299,0 -862.363,-388.064 -862.363,-862.363 v -0.002 C -862.363,388.063 -474.299,0 0,0"
       style="fill:#ff8989;fill-opacity:1;fill-rule:nonzero;stroke:none"
       transform="matrix(1.3333333,0,0,-1.3333333,1868.5323,3039.5237)"
       clip-path="url(#clipPath66)" />
    <path
       id="path67"
       d="m 1137.756,2873.871 h 768.786 v 1257.614 h -768.786 z"
       style="fill:#802e13;fill-opacity:1;fill-rule:nonzero;stroke:none"
       transform="matrix(1.3333333,0,0,-1.3333333,0,6849.4133)"
       clip-path="url(#clipPath68)" />
    <path
       id="path69"
       d="M 0,0 -248.143,-4.106 V 610.181 L 0,614.288 Z"
       style="fill:#f09d7e;fill-opacity:1;fill-rule:nonzero;stroke:none"
       transform="matrix(1.3333333,0,0,-1.3333333,2073.8069,3192.6292)"
       clip-path="url(#clipPath70)" />
    <path
       id="path71"
       d="M 731.214,3041.519 H 2024.759 V 2495.355 H 731.214 Z"
       style="fill:#95a7f0;fill-opacity:1;fill-rule:nonzero;stroke:none"
       transform="matrix(1.3333333,0,0,-1.3333333,0,6849.4133)"
       clip-path="url(#clipPath72)" />
    <path
       id="path73"
       d="m 0,0 c 73.396,0 132.895,-59.499 132.895,-132.894 0,-73.396 -59.499,-132.894 -132.895,-132.894 -73.396,0 -132.894,59.498 -132.894,132.894 C -132.894,-59.499 -73.396,0 0,0"
       style="fill:#e39a7f;fill-opacity:1;fill-rule:nonzero;stroke:none"
       transform="matrix(1.3333333,0,0,-1.3333333,1313.4944,1713.9911)"
       clip-path="url(#clipPath74)" />
    <path
       id="path75"
       d="m 0,0 c 73.396,0 132.894,-59.499 132.894,-132.894 0,-73.396 -59.498,-132.894 -132.894,-132.894 -73.396,0 -132.895,59.498 -132.895,132.894 C -132.895,-59.499 -73.396,0 0,0"
       style="fill:#e39a7f;fill-opacity:1;fill-rule:nonzero;stroke:none"
       transform="matrix(1.3333333,0,0,-1.3333333,2423.5725,1713.9911)"
       clip-path="url(#clipPath76)" />
    <path
       id="path77"
       d="M 0,0 C -23.9,-268.195 -370.816,-241.585 -395.332,-241.708 H -557.21 c -35.727,-1.479 -369.584,-10.349 -395.332,241.708 -14.044,137.978 41.517,224.461 41.517,224.461 v 298.131 c 0,9.61 0.369,19.095 0.985,28.582 0.616,10.718 1.725,21.189 3.08,31.661 1.602,11.58 3.696,22.914 6.16,34.124 2.094,9.363 4.435,18.603 7.145,27.72 2.587,9.239 5.667,18.479 8.993,27.472 2.957,8.377 6.283,16.754 9.979,24.885 3.696,8.747 7.761,17.248 12.196,25.625 3.819,7.638 8.008,15.153 12.32,22.545 5.297,8.87 10.964,17.493 16.754,25.994 4.805,6.775 9.732,13.551 14.907,20.081 7.391,9.485 15.276,18.725 23.407,27.595 3.572,3.819 7.145,7.515 10.718,11.211 2.217,2.217 4.312,4.313 6.529,6.407 6.406,6.282 13.059,12.197 19.834,18.11 6.283,5.296 12.689,10.471 19.219,15.521 72.562,55.192 162.863,88.209 260.803,88.948 h 3.45 c 239.49,-1.848 433.029,-196.496 433.029,-436.479 V 224.461 c 0,0 53.836,-86.359 41.517,-224.461"
       style="fill:#ffb59c;fill-opacity:1;fill-rule:nonzero;stroke:none"
       transform="matrix(1.3333333,0,0,-1.3333333,2506.5589,2333.7555)"
       clip-path="url(#clipPath78)" />
    <path
       id="path79"
       d="m 0,0 c 63.619,49.405 283.629,43.068 363.791,46.401 25.084,1.047 59.792,1.179 71.053,28.826 6.617,16.229 2.911,37.066 2.658,54.198 -0.252,17.084 -0.504,34.216 -0.625,51.335 -42.372,14.124 -87.596,22.016 -134.636,22.389 h -3.453 C 200.858,202.403 110.555,169.391 37.986,114.194 31.465,109.153 25.053,103.968 18.772,98.674 12,92.768 5.346,86.848 -1.066,80.568 -3.28,78.475 -5.373,76.381 -7.599,74.156 -11.172,70.462 -14.733,66.769 -18.306,62.943 -26.439,54.077 -34.331,44.837 -41.718,35.356 -46.891,28.824 -51.824,22.051 -56.624,15.277 -62.411,6.771 -68.077,-1.854 -73.383,-10.721 c -4.307,-7.387 -8.493,-14.906 -12.319,-22.546 -4.427,-8.373 -8.494,-16.879 -12.188,-25.625 -3.705,-8.133 -7.026,-16.507 -9.985,-24.88 -3.32,-8.999 -6.4,-18.238 -8.987,-27.478 -2.719,-9.119 -5.053,-18.359 -7.146,-27.719 -2.467,-11.213 -4.56,-22.546 -6.16,-34.119 -1.359,-10.479 -2.466,-20.946 -3.08,-31.665 -0.626,-9.492 -0.986,-18.973 -0.986,-28.585 v -18.407 C -128.062,-232.292 -107.875,-83.772 0,0"
       style="fill:#802e13;fill-opacity:1;fill-rule:nonzero;stroke:none"
       transform="matrix(1.3333333,0,0,-1.3333333,1470.8415,1325.8515)"
       clip-path="url(#clipPath80)" />
    <path
       id="path81"
       d="m 0,0 c -63.619,49.405 -283.629,43.068 -363.791,46.401 -25.084,1.047 -59.792,1.179 -71.053,28.826 -6.617,16.229 -2.911,37.066 -2.659,54.198 0.253,17.084 0.505,34.216 0.626,51.335 42.372,14.124 87.596,22.016 134.636,22.389 h 3.453 c 97.93,-0.746 188.233,-33.758 260.802,-88.955 6.521,-5.041 12.933,-10.226 19.213,-15.52 C -12,92.768 -5.347,86.848 1.066,80.568 3.28,78.475 5.373,76.381 7.599,74.156 11.172,70.462 14.733,66.769 18.306,62.943 26.439,54.077 34.331,44.837 41.718,35.356 46.891,28.824 51.824,22.051 56.624,15.277 62.411,6.771 68.077,-1.854 73.383,-10.721 c 4.307,-7.387 8.493,-14.906 12.319,-22.546 4.427,-8.373 8.494,-16.879 12.187,-25.625 3.706,-8.133 7.027,-16.507 9.986,-24.88 3.32,-8.999 6.4,-18.238 8.987,-27.478 2.719,-9.119 5.053,-18.359 7.146,-27.719 2.467,-11.213 4.56,-22.546 6.16,-34.119 1.359,-10.479 2.466,-20.946 3.08,-31.665 0.626,-9.492 0.986,-18.973 0.986,-28.585 v -18.407 C 128.062,-232.292 107.875,-83.772 0,0"
       style="fill:#802e13;fill-opacity:1;fill-rule:nonzero;stroke:none"
       transform="matrix(1.3333333,0,0,-1.3333333,2274.1839,1325.8515)"
       clip-path="url(#clipPath82)" />
    <path
       id="path83"
       d="m 0,0 c 0,-28.721 -23.336,-52.194 -52.194,-52.194 -7.733,0 -15.051,1.656 -21.679,4.832 -12.842,5.938 -22.783,16.984 -27.34,30.516 -1.933,5.385 -2.9,11.047 -2.9,16.984 0,28.859 23.336,52.195 52.056,52.195 6.905,0 13.671,-1.381 19.608,-3.867 C -16.984,42.252 -5.109,28.721 -1.243,12.151 -0.415,8.009 0,4.143 0,0"
       style="fill:#000000;fill-opacity:1;fill-rule:nonzero;stroke:none"
       transform="matrix(1.3333333,0,0,-1.3333333,1703.6221,1855.1421)"
       clip-path="url(#clipPath84)" />
    <path
       id="path85"
       d="m 0,0 c 0,0 -38.954,-9.216 -46.651,23.123 0,0 -9.242,-32.403 19.279,-41.322 C 8.496,-29.415 0,0 0,0"
       style="fill:#000000;fill-opacity:1;fill-rule:nonzero;stroke:none"
       transform="matrix(1.3333333,0,0,-1.3333333,1614.0264,1803.1604)"
       clip-path="url(#clipPath86)" />
    <path
       id="path87"
       d="m 0,0 c 0,0 -38.954,-9.216 -46.651,23.123 0,0 -9.242,-32.403 19.278,-41.322 C 8.496,-29.415 0,0 0,0"
       style="fill:#000000;fill-opacity:1;fill-rule:nonzero;stroke:none"
       transform="matrix(1.3333333,0,0,-1.3333333,1599.3115,1825.0615)"
       clip-path="url(#clipPath88)" />
    <path
       id="path89"
       d="m 0,0 c 0,-28.721 23.335,-52.194 52.194,-52.194 7.733,0 15.051,1.656 21.679,4.832 12.841,5.938 22.783,16.984 27.34,30.516 1.933,5.385 2.9,11.047 2.9,16.984 0,28.859 -23.336,52.195 -52.057,52.195 -6.904,0 -13.67,-1.381 -19.607,-3.867 C 16.984,42.252 5.109,28.721 1.243,12.151 0.414,8.009 0,4.143 0,0"
       style="fill:#000000;fill-opacity:1;fill-rule:nonzero;stroke:none"
       transform="matrix(1.3333333,0,0,-1.3333333,2011.5576,1855.1421)"
       clip-path="url(#clipPath90)" />
    <path
       id="path91"
       d="m 0,0 c 0,0 38.954,-9.216 46.651,23.123 0,0 9.242,-32.403 -19.279,-41.322 C -8.496,-29.415 0,0 0,0"
       style="fill:#000000;fill-opacity:1;fill-rule:nonzero;stroke:none"
       transform="matrix(1.3333333,0,0,-1.3333333,2101.1533,1803.1604)"
       clip-path="url(#clipPath92)" />
    <path
       id="path93"
       d="m 0,0 c 0,0 38.954,-9.216 46.651,23.123 0,0 9.242,-32.403 -19.279,-41.322 C -8.496,-29.415 0,0 0,0"
       style="fill:#000000;fill-opacity:1;fill-rule:nonzero;stroke:none"
       transform="matrix(1.3333333,0,0,-1.3333333,2115.8681,1825.0615)"
       clip-path="url(#clipPath94)" />
    <path
       id="path95"
       d="m 0,0 -184.289,41.723 c -0.617,0.14 -1.004,0.754 -0.865,1.371 l 5.959,26.303 c 0.14,0.617 0.754,1.004 1.371,0.865 L 6.465,28.539 C 7.083,28.399 7.47,27.785 7.33,27.167 L 1.371,0.865 C 1.231,0.248 0.617,-0.14 0,0"
       style="fill:#332a1a;fill-opacity:1;fill-rule:nonzero;stroke:none"
       transform="matrix(1.3333333,0,0,-1.3333333,1730.5947,1721.0055)"
       clip-path="url(#clipPath96)" />
    <path
       id="path97"
       d="m 0,0 179.918,-57.679 c 0.603,-0.193 1.248,0.139 1.441,0.742 l 8.218,25.666 c 0.194,0.603 -0.139,1.248 -0.741,1.44 L 8.917,27.848 C 8.315,28.041 7.669,27.709 7.477,27.106 L -0.742,1.44 C -0.935,0.838 -0.603,0.193 0,0"
       style="fill:#332a1a;fill-opacity:1;fill-rule:nonzero;stroke:none"
       transform="matrix(1.3333333,0,0,-1.3333333,1979.2633,1620.9077)"
       clip-path="url(#clipPath98)" />
    <path
       id="path99"
       d="m 0,0 h -87.315 c -1.477,0 -2.675,1.198 -2.675,2.675 V 140.56 c 0,1.477 1.198,2.674 2.675,2.674 H 0 c 1.477,0 2.674,-1.197 2.674,-2.674 V 2.675 C 2.674,1.198 1.477,0 0,0"
       style="fill:#ffc3ad;fill-opacity:1;fill-rule:nonzero;stroke:none"
       transform="matrix(1.3333333,0,0,-1.3333333,1911.3649,2066.4357)"
       clip-path="url(#clipPath100)" />
    <path
       id="path101"
       d="M 0,0 H 189.802"
       style="fill:#fcfcfc;fill-opacity:1;fill-rule:nonzero;stroke:#e87464;stroke-width:40.682;stroke-linecap:round;stroke-linejoin:round;stroke-miterlimit:10;stroke-dasharray:none;stroke-opacity:1"
       transform="matrix(1.3333333,0,0,-1.3333333,1859.1136,2334.3485)"
       clip-path="url(#clipPath102)" />
    <path
       id="path103"
       d="m 0,0 c 0,98.271 79.665,177.937 177.937,177.937 98.272,0 177.937,-79.666 177.937,-177.937 0,-98.272 -79.665,-177.937 -177.937,-177.937 C 79.665,-177.937 0,-98.272 0,0"
       style="fill:#802e13;fill-opacity:1;fill-rule:nonzero;stroke:none"
       transform="matrix(1.3333333,0,0,-1.3333333,1202.7945,1246.332)"
       clip-path="url(#clipPath104)" />
    <path
       id="path105"
       d="M 0,0 C 0,137.979 111.854,249.832 249.833,249.832 387.811,249.832 499.665,137.979 499.665,0 499.665,-137.979 387.811,-249.833 249.833,-249.833 111.854,-249.833 0,-137.979 0,0"
       style="fill:#802e13;fill-opacity:1;fill-rule:nonzero;stroke:none"
       transform="matrix(1.3333333,0,0,-1.3333333,1581.1104,1184.8443)"
       clip-path="url(#clipPath106)" />
    <path
       id="path107"
       d="m 0,0 c 0,98.271 79.666,177.937 177.937,177.937 98.272,0 177.937,-79.666 177.937,-177.937 0,-98.272 -79.665,-177.937 -177.937,-177.937 C 79.666,-177.937 0,-98.272 0,0"
       style="fill:#802e13;fill-opacity:1;fill-rule:nonzero;stroke:none"
       transform="matrix(1.3333333,0,0,-1.3333333,2112.3955,1246.332)"
       clip-path="url(#clipPath108)" />
  </g>
</svg>
