<?xml version="1.0" encoding="UTF-8" standalone="no"?>
<!-- Created with Inkscape (http://www.inkscape.org/) -->

<svg
   version="1.1"
   id="svg1"
   width="2299.6375"
   height="2299.6372"
   viewBox="0 0 2299.6375 2299.6372"
   sodipodi:docname="avatar-5261898.ai"
   xmlns:inkscape="http://www.inkscape.org/namespaces/inkscape"
   xmlns:sodipodi="http://sodipodi.sourceforge.net/DTD/sodipodi-0.dtd"
   xmlns="http://www.w3.org/2000/svg"
   xmlns:svg="http://www.w3.org/2000/svg">
  <defs
     id="defs1">
    <clipPath
       clipPathUnits="userSpaceOnUse"
       id="clipPath2">
      <path
         d="M 0,5137.058 H 4901.116 V 0 H 0 Z"
         transform="translate(-3518.7362,-2857.4173)"
         id="path2" />
    </clipPath>
    <clipPath
       clipPathUnits="userSpaceOnUse"
       id="clipPath4">
      <path
         d="m 3518.736,4582.145 c -474.299,0 -862.364,-388.064 -862.364,-862.364 v 0 -10e-4 c 0,-474.3 388.065,-862.363 862.364,-862.363 v 0 0 c 474.298,0 862.362,388.063 862.362,862.363 v 0 10e-4 c 0,474.3 -388.064,862.364 -862.362,862.364 z"
         transform="translate(0,-2.5e-5)"
         id="path4" />
    </clipPath>
    <clipPath
       clipPathUnits="userSpaceOnUse"
       id="clipPath6">
      <path
         d="m 3518.736,4582.145 c -474.299,0 -862.364,-388.064 -862.364,-862.364 v 0 -10e-4 c 0,-474.3 388.065,-862.363 862.364,-862.363 v 0 0 c 474.298,0 862.362,388.063 862.362,862.363 v 0 10e-4 c 0,474.3 -388.064,862.364 -862.362,862.364 z"
         transform="translate(0,-2.5e-5)"
         id="path6" />
    </clipPath>
    <clipPath
       clipPathUnits="userSpaceOnUse"
       id="clipPath8">
      <path
         d="M 0,5137.058 H 4901.116 V 0 H 0 Z"
         transform="translate(-2983.119,-3864.8172)"
         id="path8" />
    </clipPath>
    <clipPath
       clipPathUnits="userSpaceOnUse"
       id="clipPath10">
      <path
         d="M 0,5137.058 H 4901.116 V 0 H 0 Z"
         transform="translate(-4054.3553,-3864.8172)"
         id="path10" />
    </clipPath>
    <clipPath
       clipPathUnits="userSpaceOnUse"
       id="clipPath12">
      <path
         d="M 0,5137.058 H 4901.116 V 0 H 0 Z"
         transform="translate(-2953.8103,-3679.2132)"
         id="path12" />
    </clipPath>
    <clipPath
       clipPathUnits="userSpaceOnUse"
       id="clipPath14">
      <path
         d="M 0,5137.058 H 4901.116 V 0 H 0 Z"
         transform="translate(-3374.4354,-3753.6639)"
         id="path14" />
    </clipPath>
    <clipPath
       clipPathUnits="userSpaceOnUse"
       id="clipPath16">
      <path
         d="M 0,5137.058 H 4901.116 V 0 H 0 Z"
         transform="translate(-3739.5624,-3779.6209)"
         id="path16" />
    </clipPath>
    <clipPath
       clipPathUnits="userSpaceOnUse"
       id="clipPath18">
      <path
         d="M 0,5137.058 H 4901.116 V 0 H 0 Z"
         transform="translate(-3782.9022,-3819.3192)"
         id="path18" />
    </clipPath>
    <clipPath
       clipPathUnits="userSpaceOnUse"
       id="clipPath20">
      <path
         d="M 0,5137.058 H 4901.116 V 0 H 0 Z"
         transform="translate(-3378.3153,-3903.5956)"
         id="path20" />
    </clipPath>
    <clipPath
       clipPathUnits="userSpaceOnUse"
       id="clipPath22">
      <path
         d="M 0,5137.058 H 4901.116 V 0 H 0 Z"
         transform="translate(-3554.742,-3568.5443)"
         id="path22" />
    </clipPath>
    <clipPath
       clipPathUnits="userSpaceOnUse"
       id="clipPath24">
      <path
         d="M 0,5137.058 H 4901.116 V 0 H 0 Z"
         transform="translate(-4084.9383,-3684.8822)"
         id="path24" />
    </clipPath>
    <clipPath
       clipPathUnits="userSpaceOnUse"
       id="clipPath26">
      <path
         d="M 0,5137.058 H 4901.116 V 0 H 0 Z"
         transform="translate(-3763.4901,-3432.1336)"
         id="path26" />
    </clipPath>
  </defs>
  <sodipodi:namedview
     id="namedview1"
     pagecolor="#ffffff"
     bordercolor="#000000"
     borderopacity="0.25"
     inkscape:showpageshadow="2"
     inkscape:pageopacity="0.0"
     inkscape:pagecheckerboard="0"
     inkscape:deskcolor="#d1d1d1" />
  <g
     id="layer-MC0"
     inkscape:groupmode="layer"
     inkscape:label="Layer 3"
     transform="translate(-3541.8308,-739.88641)">
    <path
       id="path1"
       d="m 0,0 h 0.002 c 474.299,0 862.363,388.063 862.363,862.363 v 0.002 c 0,474.299 -388.064,862.363 -862.363,862.363 H 0 c -474.3,0 -862.363,-388.064 -862.363,-862.363 v -0.002 C -862.363,388.063 -474.3,0 0,0"
       style="fill:#36a9de;fill-opacity:1;fill-rule:nonzero;stroke:none"
       transform="matrix(1.3333333,0,0,-1.3333333,4691.6481,3039.5237)"
       clip-path="url(#clipPath2)" />
    <path
       id="path3"
       d="m 3663.278,2740.534 h -282.812 v 614.288 h 282.812 z"
       style="fill:#f09d7e;fill-opacity:1;fill-rule:nonzero;stroke:none"
       transform="matrix(1.3333333,0,0,-1.3333333,0,6849.4133)"
       clip-path="url(#clipPath4)" />
    <path
       id="path5"
       d="M 2889.205,3003.766 H 4182.75 V 2457.602 H 2889.205 Z"
       style="fill:#f07e7e;fill-opacity:1;fill-rule:nonzero;stroke:none"
       transform="matrix(1.3333333,0,0,-1.3333333,0,6849.4133)"
       clip-path="url(#clipPath6)" />
    <path
       id="path7"
       d="m 0,0 c 82.264,0 148.951,-66.688 148.951,-148.952 0,-82.264 -66.687,-148.951 -148.951,-148.951 -82.264,0 -148.952,66.687 -148.952,148.951 C -148.952,-66.688 -82.264,0 0,0"
       style="fill:#e39a7f;fill-opacity:1;fill-rule:nonzero;stroke:none"
       transform="matrix(1.3333333,0,0,-1.3333333,3977.4919,1696.3239)"
       clip-path="url(#clipPath8)" />
    <path
       id="path9"
       d="m 0,0 c 82.264,0 148.951,-66.688 148.951,-148.952 0,-82.264 -66.687,-148.951 -148.951,-148.951 -82.264,0 -148.952,66.687 -148.952,148.951 C -148.952,-66.688 -82.264,0 0,0"
       style="fill:#e39a7f;fill-opacity:1;fill-rule:nonzero;stroke:none"
       transform="matrix(1.3333333,0,0,-1.3333333,5405.8069,1696.3239)"
       clip-path="url(#clipPath10)" />
    <path
       id="path11"
       d="m 0,0 c 0,313.255 253.943,567.198 567.198,567.198 313.254,0 567.198,-253.943 567.198,-567.198 0,-313.254 -253.944,-567.197 -567.198,-567.197 C 253.943,-567.197 0,-313.254 0,0"
       style="fill:#ffb59c;fill-opacity:1;fill-rule:nonzero;stroke:none"
       transform="matrix(1.3333333,0,0,-1.3333333,3938.4137,1943.7959)"
       clip-path="url(#clipPath12)" />
    <path
       id="path13"
       d="m 0,0 c 0,-28.721 -23.335,-52.194 -52.194,-52.194 -7.733,0 -15.051,1.656 -21.679,4.832 -12.841,5.938 -22.783,16.984 -27.34,30.516 -1.933,5.385 -2.899,11.047 -2.899,16.984 0,28.859 23.335,52.195 52.056,52.195 6.904,0 13.67,-1.381 19.608,-3.867 C -16.983,42.252 -5.108,28.721 -1.242,12.151 -0.414,8.009 0,4.142 0,0"
       style="fill:#000000;fill-opacity:1;fill-rule:nonzero;stroke:none"
       transform="matrix(1.3333333,0,0,-1.3333333,4499.2471,1844.5283)"
       clip-path="url(#clipPath14)" />
    <path
       id="path15"
       d="m 0,0 h -89.24 c -4.275,-7.524 -6.904,-16.114 -6.904,-25.405 0,-28.438 23.059,-51.645 51.498,-51.645 28.586,0 51.644,23.207 51.644,51.645 0,4.14 -0.553,8.01 -1.375,11.732 C 4.464,-8.765 2.428,-4.261 0,0"
       style="fill:#000000;fill-opacity:1;fill-rule:nonzero;stroke:none"
       transform="matrix(1.3333333,0,0,-1.3333333,4986.0831,1809.9189)"
       clip-path="url(#clipPath16)" />
    <path
       id="path17"
       d="m 0,0 h -131.177 c -16.681,0 -30.205,13.523 -30.205,30.205 0,16.682 13.524,30.205 30.205,30.205 H 0 C 16.682,60.41 30.205,46.887 30.205,30.205 30.205,13.523 16.682,0 0,0"
       style="fill:#7a4100;fill-opacity:1;fill-rule:nonzero;stroke:none"
       transform="matrix(1.3333333,0,0,-1.3333333,5043.8695,1756.9879)"
       clip-path="url(#clipPath18)" />
    <path
       id="path19"
       d="m 0,0 -127.936,-28.978 c -16.269,-3.685 -32.446,6.517 -36.13,22.786 -3.686,16.27 6.516,32.446 22.786,36.132 L -13.345,58.918 C 2.925,62.603 19.102,52.401 22.786,36.132 26.472,19.862 16.27,3.686 0,0"
       style="fill:#7a4100;fill-opacity:1;fill-rule:nonzero;stroke:none"
       transform="matrix(1.3333333,0,0,-1.3333333,4504.4203,1644.6193)"
       clip-path="url(#clipPath20)" />
    <path
       id="path21"
       d="m 0,0 h -97.866 c -1.655,0 -2.997,1.342 -2.997,2.998 v 154.545 c 0,1.656 1.342,2.998 2.998,2.998 H 0 c 1.655,0 2.997,-1.342 2.997,-2.998 V 2.998 C 2.997,1.342 1.655,0 0,0"
       style="fill:#ffc3ad;fill-opacity:1;fill-rule:nonzero;stroke:none"
       transform="matrix(1.3333333,0,0,-1.3333333,4739.6559,2091.3544)"
       clip-path="url(#clipPath22)" />
    <path
       id="path23"
       d="m 0,0 c 0.159,4.738 0.318,9.629 0.318,14.52 0,206.936 -148.231,435.727 -331.247,435.727 -90.631,0 -172.644,-41.112 -232.639,-107.9 -59.835,66.788 -142.009,107.9 -232.48,107.9 -177.591,0 -326.141,-224.818 -334.598,-423.195 -1.436,15.894 0.797,51.199 0.797,67.399 0,310.099 254.819,548.214 568.196,548.214 313.377,0 567.397,-251.412 567.397,-561.51 C 5.903,53.645 3.829,26.44 0,0"
       style="fill:#7a4100;fill-opacity:1;fill-rule:nonzero;stroke:none"
       transform="matrix(1.3333333,0,0,-1.3333333,5446.5843,1936.2372)"
       clip-path="url(#clipPath24)" />
    <path
       id="path25"
       d="m 0,0 c -48.206,-94.996 -138.237,-173.359 -241.036,-173.359 -108.082,0 -201.633,70.299 -247.861,173.359 z"
       style="fill:#fcfcfc;fill-opacity:1;fill-rule:nonzero;stroke:#e87464;stroke-width:45.597;stroke-linecap:round;stroke-linejoin:round;stroke-miterlimit:10;stroke-dasharray:none;stroke-opacity:1"
       transform="matrix(1.3333333,0,0,-1.3333333,5017.9867,2273.2353)"
       clip-path="url(#clipPath26)" />
  </g>
</svg>
