<?xml version="1.0" encoding="UTF-8" standalone="no"?>
<!-- Created with Inkscape (http://www.inkscape.org/) -->

<svg
   version="1.1"
   id="svg1"
   width="2299.6372"
   height="2299.6372"
   viewBox="0 0 2299.6372 2299.6372"
   sodipodi:docname="avatar-5261898.ai"
   xmlns:inkscape="http://www.inkscape.org/namespaces/inkscape"
   xmlns:sodipodi="http://sodipodi.sourceforge.net/DTD/sodipodi-0.dtd"
   xmlns="http://www.w3.org/2000/svg"
   xmlns:svg="http://www.w3.org/2000/svg">
  <defs
     id="defs1">
    <clipPath
       clipPathUnits="userSpaceOnUse"
       id="clipPath28">
      <path
         d="M 0,5137.058 H 4901.116 V 0 H 0 Z"
         transform="translate(-1401.3993,-675.17412)"
         id="path28" />
    </clipPath>
    <clipPath
       clipPathUnits="userSpaceOnUse"
       id="clipPath30">
      <path
         d="m 1401.399,2399.902 c -474.299,0 -862.362,-388.064 -862.362,-862.364 v 0 -10e-4 c 0,-474.3 388.063,-862.362 862.362,-862.362 v 0 0 c 474.298,0 862.362,388.062 862.362,862.362 v 0 10e-4 c 0,474.3 -388.064,862.364 -862.362,862.364 z"
         transform="translate(-1832.7927,-546.87341)"
         id="path30" />
    </clipPath>
    <clipPath
       clipPathUnits="userSpaceOnUse"
       id="clipPath32">
      <path
         d="m 1401.399,2399.902 c -474.299,0 -862.362,-388.064 -862.362,-862.364 v 0 -10e-4 c 0,-474.3 388.063,-862.362 862.362,-862.362 v 0 0 c 474.298,0 862.362,388.062 862.362,862.362 v 0 10e-4 c 0,474.3 -388.064,862.364 -862.362,862.364 z"
         transform="translate(0,-2.5e-5)"
         id="path32" />
    </clipPath>
    <clipPath
       clipPathUnits="userSpaceOnUse"
       id="clipPath34">
      <path
         d="m 1401.399,2399.902 c -474.299,0 -862.362,-388.064 -862.362,-862.364 v 0 -10e-4 c 0,-474.3 388.063,-862.362 862.362,-862.362 v 0 0 c 474.298,0 862.362,388.062 862.362,862.362 v 0 10e-4 c 0,474.3 -388.064,862.364 -862.362,862.364 z"
         transform="translate(0,-2.5e-5)"
         id="path34" />
    </clipPath>
    <clipPath
       clipPathUnits="userSpaceOnUse"
       id="clipPath36">
      <path
         d="M 0,5137.058 H 4901.116 V 0 H 0 Z"
         transform="translate(-985.12082,-1644.6841)"
         id="path36" />
    </clipPath>
    <clipPath
       clipPathUnits="userSpaceOnUse"
       id="clipPath38">
      <path
         d="M 0,5137.058 H 4901.116 V 0 H 0 Z"
         transform="translate(-1805.3596,-1644.6841)"
         id="path38" />
    </clipPath>
    <clipPath
       clipPathUnits="userSpaceOnUse"
       id="clipPath40">
      <path
         d="M 0,5137.058 H 4901.116 V 0 H 0 Z"
         transform="translate(-1835.1693,-1639.2074)"
         id="path40" />
    </clipPath>
    <clipPath
       clipPathUnits="userSpaceOnUse"
       id="clipPath42">
      <path
         d="M 0,5137.058 H 4901.116 V 0 H 0 Z"
         transform="translate(-1852.887,-1744.4066)"
         id="path42" />
    </clipPath>
    <clipPath
       clipPathUnits="userSpaceOnUse"
       id="clipPath44">
      <path
         d="M 0,5137.058 H 4901.116 V 0 H 0 Z"
         transform="translate(-1277.47,-1543.0511)"
         id="path44" />
    </clipPath>
    <clipPath
       clipPathUnits="userSpaceOnUse"
       id="clipPath46">
      <path
         d="M 0,5137.058 H 4901.116 V 0 H 0 Z"
         transform="translate(-1210.2732,-1582.0375)"
         id="path46" />
    </clipPath>
    <clipPath
       clipPathUnits="userSpaceOnUse"
       id="clipPath48">
      <path
         d="M 0,5137.058 H 4901.116 V 0 H 0 Z"
         transform="translate(-1199.2371,-1565.6117)"
         id="path48" />
    </clipPath>
    <clipPath
       clipPathUnits="userSpaceOnUse"
       id="clipPath50">
      <path
         d="M 0,5137.058 H 4901.116 V 0 H 0 Z"
         transform="translate(-1508.4216,-1543.0511)"
         id="path50" />
    </clipPath>
    <clipPath
       clipPathUnits="userSpaceOnUse"
       id="clipPath52">
      <path
         d="M 0,5137.058 H 4901.116 V 0 H 0 Z"
         transform="translate(-1575.6184,-1582.0375)"
         id="path52" />
    </clipPath>
    <clipPath
       clipPathUnits="userSpaceOnUse"
       id="clipPath54">
      <path
         d="M 0,5137.058 H 4901.116 V 0 H 0 Z"
         transform="translate(-1586.655,-1565.6117)"
         id="path54" />
    </clipPath>
    <clipPath
       clipPathUnits="userSpaceOnUse"
       id="clipPath56">
      <path
         d="M 0,5137.058 H 4901.116 V 0 H 0 Z"
         transform="translate(-1291.8508,-1713.4945)"
         id="path56" />
    </clipPath>
    <clipPath
       clipPathUnits="userSpaceOnUse"
       id="clipPath58">
      <path
         d="M 0,5137.058 H 4901.116 V 0 H 0 Z"
         transform="translate(-1496.5203,-1718.7269)"
         id="path58" />
    </clipPath>
    <clipPath
       clipPathUnits="userSpaceOnUse"
       id="clipPath60">
      <path
         d="M 0,5137.058 H 4901.116 V 0 H 0 Z"
         transform="translate(-1433.5237,-1380.3511)"
         id="path60" />
    </clipPath>
    <clipPath
       clipPathUnits="userSpaceOnUse"
       id="clipPath62">
      <path
         d="M 0,5137.058 H 4901.116 V 0 H 0 Z"
         transform="translate(-1525.3645,-1247.347)"
         id="path62" />
    </clipPath>
    <clipPath
       clipPathUnits="userSpaceOnUse"
       id="clipPath64">
      <path
         d="M 0,5137.058 H 4901.116 V 0 H 0 Z"
         transform="translate(-1667.6301,-2089.8167)"
         id="path64" />
    </clipPath>
  </defs>
  <sodipodi:namedview
     id="namedview1"
     pagecolor="#ffffff"
     bordercolor="#000000"
     borderopacity="0.25"
     inkscape:showpageshadow="2"
     inkscape:pageopacity="0.0"
     inkscape:pagecheckerboard="0"
     inkscape:deskcolor="#d1d1d1" />
  <g
     id="layer-MC0"
     inkscape:groupmode="layer"
     inkscape:label="Layer 3"
     transform="translate(-718.71496,-3649.5439)">
    <path
       id="path27"
       d="m 0,0 h 0.002 c 474.299,0 862.363,388.064 862.363,862.362 v 0.002 c 0,474.3 -388.064,862.364 -862.363,862.364 H 0 c -474.299,0 -862.363,-388.064 -862.363,-862.364 v -0.002 C -862.363,388.064 -474.299,0 0,0"
       style="fill:#ffd359;fill-opacity:1;fill-rule:nonzero;stroke:none"
       transform="matrix(1.3333333,0,0,-1.3333333,1868.5323,5949.1812)"
       clip-path="url(#clipPath28)" />
    <path
       id="path29"
       d="m 0,0 h -874.174 c -11.197,0 -20.274,9.077 -20.274,20.274 V 1287.362 H 20.274 V 20.274 C 20.274,9.077 11.197,0 0,0"
       style="fill:#2b2b2b;fill-opacity:1;fill-rule:nonzero;stroke:none"
       transform="matrix(1.3333333,0,0,-1.3333333,2443.7236,6120.2488)"
       clip-path="url(#clipPath30)" />
    <path
       id="path31"
       d="m 1552.935,558.291 h -314.816 v 614.288 h 314.816 z"
       style="fill:#f09d7e;fill-opacity:1;fill-rule:nonzero;stroke:none"
       transform="matrix(1.3333333,0,0,-1.3333333,0,6849.4133)"
       clip-path="url(#clipPath32)" />
    <path
       id="path33"
       d="M 730.967,859.276 H 2024.512 V 313.112 H 730.967 Z"
       style="fill:#95a7f0;fill-opacity:1;fill-rule:nonzero;stroke:none"
       transform="matrix(1.3333333,0,0,-1.3333333,0,6849.4133)"
       clip-path="url(#clipPath34)" />
    <path
       id="path35"
       d="m 0,0 c 73.396,0 132.895,-59.498 132.895,-132.894 0,-73.395 -59.499,-132.894 -132.895,-132.894 -73.396,0 -132.894,59.499 -132.894,132.894 C -132.894,-59.498 -73.396,0 0,0"
       style="fill:#e39a7f;fill-opacity:1;fill-rule:nonzero;stroke:none"
       transform="matrix(1.3333333,0,0,-1.3333333,1313.4944,4656.5013)"
       clip-path="url(#clipPath36)" />
    <path
       id="path37"
       d="m 0,0 c 73.396,0 132.894,-59.498 132.894,-132.894 0,-73.395 -59.498,-132.894 -132.894,-132.894 -73.396,0 -132.894,59.499 -132.894,132.894 C -132.894,-59.498 -73.396,0 0,0"
       style="fill:#e39a7f;fill-opacity:1;fill-rule:nonzero;stroke:none"
       transform="matrix(1.3333333,0,0,-1.3333333,2407.1461,4656.5013)"
       clip-path="url(#clipPath38)" />
    <path
       id="path39"
       d="m 0,0 v -269.427 c -2.957,-245.65 -436.479,-436.479 -436.479,-436.479 0,0 -436.479,195.386 -436.479,436.479 V 0 c 0,169.886 97.077,316.98 238.628,389.049 59.38,30.306 126.644,47.43 197.851,47.43 69.481,0 135.268,-16.261 193.662,-45.335 42.749,-21.067 81.555,-49.156 114.941,-82.541 C -48.909,229.635 0,120.484 0,0"
       style="fill:#fcb49a;fill-opacity:1;fill-rule:nonzero;stroke:none"
       transform="matrix(1.3333333,0,0,-1.3333333,2446.8923,4663.8035)"
       clip-path="url(#clipPath40)" />
    <path
       id="path41"
       d="m 0,0 v 63.13 c 0,126.259 -51.252,240.64 -134.01,323.398 -34.979,34.979 -75.646,64.409 -120.439,86.491 -61.197,30.463 -130.134,47.508 -202.948,47.508 -74.615,0 -145.105,-17.946 -207.333,-49.7 C -813.06,395.3 -914.794,241.162 -914.794,63.13 V 0 c 0,0 51.583,197.111 457.397,197.111 C -38.832,197.111 0,0 0,0"
       style="fill:#2b2b2b;fill-opacity:1;fill-rule:nonzero;stroke:none"
       transform="matrix(1.3333333,0,0,-1.3333333,2470.516,4523.5379)"
       clip-path="url(#clipPath42)" />
    <path
       id="path43"
       d="m 0,0 c 0,-28.721 -23.335,-52.194 -52.194,-52.194 -7.733,0 -15.051,1.657 -21.679,4.833 -12.841,5.937 -22.783,16.984 -27.34,30.515 -1.933,5.386 -2.899,11.047 -2.899,16.985 0,28.858 23.335,52.194 52.056,52.194 6.904,0 13.67,-1.381 19.607,-3.866 C -16.984,42.253 -5.109,28.721 -1.243,12.151 -0.414,8.009 0,4.143 0,0"
       style="fill:#000000;fill-opacity:1;fill-rule:nonzero;stroke:none"
       transform="matrix(1.3333333,0,0,-1.3333333,1703.2933,4792.0119)"
       clip-path="url(#clipPath44)" />
    <path
       id="path45"
       d="m 0,0 c 0,0 -38.954,-9.215 -46.651,23.123 0,0 -9.242,-32.402 19.279,-41.321 C 8.496,-29.414 0,0 0,0"
       style="fill:#000000;fill-opacity:1;fill-rule:nonzero;stroke:none"
       transform="matrix(1.3333333,0,0,-1.3333333,1613.6976,4740.03)"
       clip-path="url(#clipPath46)" />
    <path
       id="path47"
       d="m 0,0 c 0,0 -38.954,-9.216 -46.651,23.123 0,0 -9.242,-32.402 19.279,-41.321 C 8.496,-29.415 0,0 0,0"
       style="fill:#000000;fill-opacity:1;fill-rule:nonzero;stroke:none"
       transform="matrix(1.3333333,0,0,-1.3333333,1598.9828,4761.9311)"
       clip-path="url(#clipPath48)" />
    <path
       id="path49"
       d="m 0,0 c 0,-28.721 23.336,-52.194 52.195,-52.194 7.732,0 15.05,1.657 21.678,4.833 12.842,5.937 22.783,16.984 27.34,30.515 1.933,5.386 2.9,11.047 2.9,16.985 0,28.858 -23.336,52.194 -52.056,52.194 -6.905,0 -13.67,-1.381 -19.608,-3.866 C 16.984,42.253 5.109,28.721 1.243,12.151 0.415,8.009 0,4.143 0,0"
       style="fill:#000000;fill-opacity:1;fill-rule:nonzero;stroke:none"
       transform="matrix(1.3333333,0,0,-1.3333333,2011.2288,4792.0119)"
       clip-path="url(#clipPath50)" />
    <path
       id="path51"
       d="m 0,0 c 0,0 38.954,-9.215 46.651,23.123 0,0 9.242,-32.402 -19.278,-41.321 C -8.496,-29.414 0,0 0,0"
       style="fill:#000000;fill-opacity:1;fill-rule:nonzero;stroke:none"
       transform="matrix(1.3333333,0,0,-1.3333333,2100.8245,4740.03)"
       clip-path="url(#clipPath52)" />
    <path
       id="path53"
       d="m 0,0 c 0,0 38.954,-9.216 46.651,23.123 0,0 9.242,-32.402 -19.279,-41.321 C -8.496,-29.415 0,0 0,0"
       style="fill:#000000;fill-opacity:1;fill-rule:nonzero;stroke:none"
       transform="matrix(1.3333333,0,0,-1.3333333,2115.54,4761.9311)"
       clip-path="url(#clipPath54)" />
    <path
       id="path55"
       d="m 0,0 -182.768,-47.757 c -0.613,-0.16 -1.239,0.207 -1.399,0.819 l -6.826,26.101 c -0.16,0.612 0.207,1.239 0.82,1.4 L -7.405,28.319 c 0.613,0.16 1.238,-0.207 1.399,-0.819 L 0.819,1.399 C 0.979,0.786 0.612,0.16 0,0"
       style="fill:#9c3b13;fill-opacity:1;fill-rule:nonzero;stroke:none"
       transform="matrix(1.3333333,0,0,-1.3333333,1722.4677,4564.754)"
       clip-path="url(#clipPath56)" />
    <path
       id="path57"
       d="m 0,0 179.918,-57.678 c 0.603,-0.193 1.249,0.139 1.441,0.741 l 8.219,25.666 c 0.193,0.603 -0.14,1.248 -0.742,1.441 L 8.918,27.849 C 8.315,28.042 7.67,27.71 7.477,27.106 L -0.741,1.441 C -0.934,0.839 -0.603,0.193 0,0"
       style="fill:#9c3b13;fill-opacity:1;fill-rule:nonzero;stroke:none"
       transform="matrix(1.3333333,0,0,-1.3333333,1995.3604,4557.7775)"
       clip-path="url(#clipPath58)" />
    <path
       id="path59"
       d="m 0,0 h -87.315 c -1.477,0 -2.675,1.197 -2.675,2.675 V 140.56 c 0,1.476 1.198,2.674 2.675,2.674 H 0 c 1.477,0 2.674,-1.198 2.674,-2.674 V 2.675 C 2.674,1.197 1.477,0 0,0"
       style="fill:#ffc3ad;fill-opacity:1;fill-rule:nonzero;stroke:none"
       transform="matrix(1.3333333,0,0,-1.3333333,1911.3649,5008.9453)"
       clip-path="url(#clipPath60)" />
    <path
       id="path61"
       d="m 0,0 c -38.196,-30.737 -83.338,-50.129 -131.639,-50.129 -54.913,0 -105.622,20.34 -146.724,54.833"
       style="fill:none;stroke:#e87464;stroke-width:40.682;stroke-linecap:round;stroke-linejoin:round;stroke-miterlimit:10;stroke-dasharray:none;stroke-opacity:1"
       transform="matrix(1.3333333,0,0,-1.3333333,2033.8193,5186.284)"
       clip-path="url(#clipPath62)" />
    <path
       id="path63"
       d="M 0,0 H -540.956 C -613.108,0 -671.6,-58.491 -671.6,-130.643 v -0.001 c 0,-72.153 58.492,-130.644 130.644,-130.644 H 0 c 72.152,0 130.644,58.491 130.644,130.644 v 0.001 C 130.644,-58.491 72.152,0 0,0"
       style="fill:#575757;fill-opacity:1;fill-rule:nonzero;stroke:none"
       transform="matrix(1.3333333,0,0,-1.3333333,2223.5068,4062.9911)"
       clip-path="url(#clipPath64)" />
  </g>
</svg>
