<?xml version="1.0" encoding="UTF-8" standalone="no"?>
<!-- Created with Inkscape (http://www.inkscape.org/) -->

<svg
   version="1.1"
   id="svg1"
   width="2299.6375"
   height="2299.6372"
   viewBox="0 0 2299.6375 2299.6372"
   sodipodi:docname="avatar-5261898.ai"
   xmlns:inkscape="http://www.inkscape.org/namespaces/inkscape"
   xmlns:sodipodi="http://sodipodi.sourceforge.net/DTD/sodipodi-0.dtd"
   xmlns="http://www.w3.org/2000/svg"
   xmlns:svg="http://www.w3.org/2000/svg">
  <defs
     id="defs1">
    <clipPath
       clipPathUnits="userSpaceOnUse"
       id="clipPath110">
      <path
         d="M 0,5137.058 H 4901.116 V 0 H 0 Z"
         transform="translate(-3518.7362,-675.17412)"
         id="path110" />
    </clipPath>
    <clipPath
       clipPathUnits="userSpaceOnUse"
       id="clipPath112">
      <path
         d="m 3518.736,2399.902 c -474.299,0 -862.364,-388.064 -862.364,-862.364 v 0 -10e-4 c 0,-474.3 388.065,-862.362 862.364,-862.362 v 0 0 c 474.298,0 862.362,388.062 862.362,862.362 v 0 10e-4 c 0,474.3 -388.064,862.364 -862.362,862.364 z"
         transform="translate(0,-2.5e-5)"
         id="path112" />
    </clipPath>
    <clipPath
       clipPathUnits="userSpaceOnUse"
       id="clipPath114">
      <path
         d="m 3518.736,2399.902 c -474.299,0 -862.364,-388.064 -862.364,-862.364 v 0 -10e-4 c 0,-474.3 388.065,-862.362 862.364,-862.362 v 0 0 c 474.298,0 862.362,388.062 862.362,862.362 v 0 10e-4 c 0,474.3 -388.064,862.364 -862.362,862.364 z"
         transform="translate(0,-2.5e-5)"
         id="path114" />
    </clipPath>
    <clipPath
       clipPathUnits="userSpaceOnUse"
       id="clipPath116">
      <path
         d="M 0,5137.058 H 4901.116 V 0 H 0 Z"
         transform="translate(-2983.119,-1682.5736)"
         id="path116" />
    </clipPath>
    <clipPath
       clipPathUnits="userSpaceOnUse"
       id="clipPath118">
      <path
         d="M 0,5137.058 H 4901.116 V 0 H 0 Z"
         transform="translate(-4054.3553,-1682.5736)"
         id="path118" />
    </clipPath>
    <clipPath
       clipPathUnits="userSpaceOnUse"
       id="clipPath120">
      <path
         d="M 0,5137.058 H 4901.116 V 0 H 0 Z"
         transform="translate(-2953.8103,-1496.9701)"
         id="path120" />
    </clipPath>
    <clipPath
       clipPathUnits="userSpaceOnUse"
       id="clipPath122">
      <path
         d="M 0,5137.058 H 4901.116 V 0 H 0 Z"
         transform="translate(-3374.4354,-1571.4203)"
         id="path122" />
    </clipPath>
    <clipPath
       clipPathUnits="userSpaceOnUse"
       id="clipPath124">
      <path
         d="M 0,5137.058 H 4901.116 V 0 H 0 Z"
         transform="translate(-3744.0204,-1571.4203)"
         id="path124" />
    </clipPath>
    <clipPath
       clipPathUnits="userSpaceOnUse"
       id="clipPath126">
      <path
         d="M 0,5137.058 H 4901.116 V 0 H 0 Z"
         transform="translate(-3771.2987,-1705.5746)"
         id="path126" />
    </clipPath>
    <clipPath
       clipPathUnits="userSpaceOnUse"
       id="clipPath128">
      <path
         d="M 0,5137.058 H 4901.116 V 0 H 0 Z"
         transform="translate(-3365.9959,-1733.6713)"
         id="path128" />
    </clipPath>
    <clipPath
       clipPathUnits="userSpaceOnUse"
       id="clipPath130">
      <path
         d="M 0,5137.058 H 4901.116 V 0 H 0 Z"
         transform="translate(-3554.742,-1386.3011)"
         id="path130" />
    </clipPath>
    <clipPath
       clipPathUnits="userSpaceOnUse"
       id="clipPath132">
      <path
         d="M 0,5137.058 H 4901.116 V 0 H 0 Z"
         transform="translate(-4084.9383,-1502.639)"
         id="path132" />
    </clipPath>
    <clipPath
       clipPathUnits="userSpaceOnUse"
       id="clipPath134">
      <path
         d="M 0,5137.058 H 4901.116 V 0 H 0 Z"
         transform="translate(-3989.2733,-1862.3851)"
         id="path134" />
    </clipPath>
    <clipPath
       clipPathUnits="userSpaceOnUse"
       id="clipPath136">
      <path
         d="M 0,5137.058 H 4901.116 V 0 H 0 Z"
         transform="translate(-3788.1288,-1286.848)"
         id="path136" />
    </clipPath>
  </defs>
  <sodipodi:namedview
     id="namedview1"
     pagecolor="#ffffff"
     bordercolor="#000000"
     borderopacity="0.25"
     inkscape:showpageshadow="2"
     inkscape:pageopacity="0.0"
     inkscape:pagecheckerboard="0"
     inkscape:deskcolor="#d1d1d1" />
  <g
     id="layer-MC0"
     inkscape:groupmode="layer"
     inkscape:label="Layer 3"
     transform="translate(-3541.8308,-3649.5439)">
    <path
       id="path109"
       d="m 0,0 h 0.002 c 474.299,0 862.363,388.064 862.363,862.362 v 0.002 c 0,474.3 -388.064,862.364 -862.363,862.364 H 0 c -474.3,0 -862.363,-388.064 -862.363,-862.364 v -0.002 C -862.363,388.064 -474.3,0 0,0"
       style="fill:#79c75a;fill-opacity:1;fill-rule:nonzero;stroke:none"
       transform="matrix(1.3333333,0,0,-1.3333333,4691.6481,5949.1812)"
       clip-path="url(#clipPath110)" />
    <path
       id="path111"
       d="m 3663.278,558.291 h -282.812 v 614.288 h 282.812 z"
       style="fill:#f09d7e;fill-opacity:1;fill-rule:nonzero;stroke:none"
       transform="matrix(1.3333333,0,0,-1.3333333,0,6849.4133)"
       clip-path="url(#clipPath112)" />
    <path
       id="path113"
       d="M 2889.205,821.522 H 4182.75 V 275.359 H 2889.205 Z"
       style="fill:#fcdb62;fill-opacity:1;fill-rule:nonzero;stroke:none"
       transform="matrix(1.3333333,0,0,-1.3333333,0,6849.4133)"
       clip-path="url(#clipPath114)" />
    <path
       id="path115"
       d="m 0,0 c 82.264,0 148.951,-66.688 148.951,-148.952 0,-82.264 -66.687,-148.951 -148.951,-148.951 -82.264,0 -148.952,66.687 -148.952,148.951 C -148.952,-66.688 -82.264,0 0,0"
       style="fill:#e39a7f;fill-opacity:1;fill-rule:nonzero;stroke:none"
       transform="matrix(1.3333333,0,0,-1.3333333,3977.4919,4605.9819)"
       clip-path="url(#clipPath116)" />
    <path
       id="path117"
       d="m 0,0 c 82.264,0 148.951,-66.688 148.951,-148.952 0,-82.264 -66.687,-148.951 -148.951,-148.951 -82.264,0 -148.952,66.687 -148.952,148.951 C -148.952,-66.688 -82.264,0 0,0"
       style="fill:#e39a7f;fill-opacity:1;fill-rule:nonzero;stroke:none"
       transform="matrix(1.3333333,0,0,-1.3333333,5405.8069,4605.9819)"
       clip-path="url(#clipPath118)" />
    <path
       id="path119"
       d="m 0,0 c 0,313.254 253.943,567.197 567.198,567.197 313.254,0 567.198,-253.943 567.198,-567.197 0,-313.255 -253.944,-567.198 -567.198,-567.198 C 253.943,-567.198 0,-313.255 0,0"
       style="fill:#ffb59c;fill-opacity:1;fill-rule:nonzero;stroke:none"
       transform="matrix(1.3333333,0,0,-1.3333333,3938.4137,4853.4532)"
       clip-path="url(#clipPath120)" />
    <path
       id="path121"
       d="m 0,0 c 0,-28.721 -23.335,-52.194 -52.194,-52.194 -7.733,0 -15.051,1.657 -21.679,4.833 -12.841,5.937 -22.783,16.983 -27.34,30.515 -1.933,5.385 -2.899,11.046 -2.899,16.984 0,28.859 23.335,52.194 52.056,52.194 6.904,0 13.67,-1.381 19.608,-3.866 C -16.983,42.253 -5.108,28.721 -1.242,12.151 -0.414,8.009 0,4.143 0,0"
       style="fill:#000000;fill-opacity:1;fill-rule:nonzero;stroke:none"
       transform="matrix(1.3333333,0,0,-1.3333333,4499.2471,4754.1863)"
       clip-path="url(#clipPath122)" />
    <path
       id="path123"
       d="m 0,0 c 0,-28.721 -23.336,-52.194 -52.194,-52.194 -7.734,0 -15.051,1.657 -21.679,4.833 -12.842,5.937 -22.783,16.983 -27.34,30.515 -1.933,5.385 -2.9,11.046 -2.9,16.984 0,28.859 23.336,52.194 52.056,52.194 6.905,0 13.67,-1.381 19.608,-3.866 C -16.984,42.253 -5.109,28.721 -1.243,12.151 -0.415,8.009 0,4.143 0,0"
       style="fill:#000000;fill-opacity:1;fill-rule:nonzero;stroke:none"
       transform="matrix(1.3333333,0,0,-1.3333333,4992.0271,4754.1863)"
       clip-path="url(#clipPath124)" />
    <path
       id="path125"
       d="m 0,0 -125.523,38.086 c -15.963,4.844 -24.977,21.709 -20.131,37.671 4.844,15.962 21.713,24.975 37.675,20.132 L 17.545,57.803 C 33.508,52.96 42.521,36.094 37.676,20.132 32.831,4.17 15.963,-4.843 0,0"
       style="fill:#332a1a;fill-opacity:1;fill-rule:nonzero;stroke:none"
       transform="matrix(1.3333333,0,0,-1.3333333,5028.3981,4575.3139)"
       clip-path="url(#clipPath126)" />
    <path
       id="path127"
       d="m 0,0 -127.936,-28.978 c -16.269,-3.685 -32.446,6.517 -36.131,22.787 -3.685,16.269 6.516,32.446 22.787,36.13 L -13.345,58.918 C 2.925,62.604 19.102,52.401 22.786,36.132 26.472,19.862 16.27,3.686 0,0"
       style="fill:#332a1a;fill-opacity:1;fill-rule:nonzero;stroke:none"
       transform="matrix(1.3333333,0,0,-1.3333333,4487.9944,4537.8516)"
       clip-path="url(#clipPath128)" />
    <path
       id="path129"
       d="m 0,0 h -97.866 c -1.655,0 -2.997,1.342 -2.997,2.997 v 154.546 c 0,1.655 1.342,2.998 2.998,2.998 H 0 c 1.655,0 2.997,-1.343 2.997,-2.998 V 2.997 C 2.997,1.342 1.655,0 0,0"
       style="fill:#ffc3ad;fill-opacity:1;fill-rule:nonzero;stroke:none"
       transform="matrix(1.3333333,0,0,-1.3333333,4739.6559,5001.0119)"
       clip-path="url(#clipPath130)" />
    <path
       id="path131"
       d="m 0,0 c 0.159,4.737 0.318,9.628 0.318,14.519 0,206.936 -148.231,435.728 -331.247,435.728 -90.631,0 -172.644,-41.112 -232.639,-107.9 -59.835,66.788 -142.009,107.9 -232.48,107.9 -177.591,0 -326.141,-224.818 -334.598,-423.196 -1.436,15.895 0.797,51.199 0.797,67.4 0,310.099 254.819,548.213 568.196,548.213 313.377,0 567.397,-251.411 567.397,-561.51 C 5.903,53.645 3.829,26.439 0,0"
       style="fill:#332a1a;fill-opacity:1;fill-rule:nonzero;stroke:none"
       transform="matrix(1.3333333,0,0,-1.3333333,5446.5843,4845.8947)"
       clip-path="url(#clipPath132)" />
    <path
       id="path133"
       d="m 0,0 c -79.8,-34.129 -225.993,-75.698 -332.54,-80.396 -221.4,-9.8 -412.381,59.199 -482.733,163.017 -24.039,120.497 51.961,171.204 115.233,195.025 129.458,48.738 333.599,27.22 447.715,-31.368 C -144.136,190.604 -45.758,103.089 0,0"
       style="fill:#332a1a;fill-opacity:1;fill-rule:nonzero;stroke:none"
       transform="matrix(1.3333333,0,0,-1.3333333,5319.0309,4366.2332)"
       clip-path="url(#clipPath134)" />
    <path
       id="path135"
       d="M 0,0 C -48.206,-94.995 -138.237,-87.123 -241.036,-87.123"
       style="fill:none;stroke:#e87464;stroke-width:45.597;stroke-linecap:round;stroke-linejoin:round;stroke-miterlimit:10;stroke-dasharray:none;stroke-opacity:1"
       transform="matrix(1.3333333,0,0,-1.3333333,5050.8383,5133.616)"
       clip-path="url(#clipPath136)" />
  </g>
</svg>
