<?xml version="1.0" encoding="UTF-8" standalone="no"?>
<!-- Created with Inkscape (http://www.inkscape.org/) -->

<svg
   width="34.39584mm"
   height="55.5625mm"
   viewBox="0 0 34.395839 55.5625"
   version="1.1"
   id="svg1"
   sodipodi:docname="cardBack.svg"
   xmlns:inkscape="http://www.inkscape.org/namespaces/inkscape"
   xmlns:sodipodi="http://sodipodi.sourceforge.net/DTD/sodipodi-0.dtd"
   xmlns="http://www.w3.org/2000/svg"
   xmlns:svg="http://www.w3.org/2000/svg">
  <sodipodi:namedview
     id="namedview1"
     pagecolor="#ffffff"
     bordercolor="#000000"
     borderopacity="0.25"
     inkscape:showpageshadow="2"
     inkscape:pageopacity="0.0"
     inkscape:pagecheckerboard="0"
     inkscape:deskcolor="#d1d1d1"
     inkscape:document-units="mm"
     inkscape:zoom="0.35723204"
     inkscape:cx="1983.3047"
     inkscape:cy="209.94757"
     inkscape:window-width="1920"
     inkscape:window-height="991"
     inkscape:window-x="2391"
     inkscape:window-y="-9"
     inkscape:window-maximized="1"
     inkscape:current-layer="layer1" />
  <defs
     id="defs1" />
  <g
     inkscape:label="Warstwa 1"
     inkscape:groupmode="layer"
     id="layer1"
     transform="translate(-355.3973,-26.556124)">
    <path
       id="path1-5"
       style="fill:#d45500;stroke-width:0.0418094"
       d="m 358.68134,26.556124 -0.3588,0.122295 c -1.50575,0.513032 -2.56882,1.786272 -2.86959,3.437034 -0.0564,0.309367 -0.0614,2.69775 -0.0517,24.370617 l 0.0114,24.027642 0.11115,0.394615 c 0.46102,1.636631 1.59998,2.80003 3.08528,3.15152 0.23658,0.05597 2.07238,0.06335 14.08608,0.05678 l 13.81402,-0.0075 0.35881,-0.122294 c 1.50575,-0.513029 2.56874,-1.786269 2.86951,-3.437033 0.0564,-0.309369 0.0614,-2.69775 0.0517,-24.370617 L 389.7778,30.151543 389.666,29.75693 C 389.22683,28.206 388.28012,27.167367 386.85877,26.677 l -0.35016,-0.120829 h -13.91368 z m 1.11629,1.139998 h 12.7974 12.7974 l 0.39867,0.120579 c 1.55297,0.469581 2.72034,1.858849 2.99348,3.562495 0.0845,0.526952 0.0845,45.379868 0,45.906824 -0.22121,1.379709 -1.05545,2.605849 -2.20384,3.239042 -0.31755,0.175087 -0.75755,0.324768 -1.17172,0.39864 -0.3314,0.05912 -1.83873,0.0663 -12.85385,0.06175 -6.86315,-0.0029 -12.58462,-0.02218 -12.71433,-0.043 -1.7359,-0.278449 -3.13209,-1.764437 -3.43543,-3.656436 -0.0845,-0.526956 -0.0845,-45.379873 0,-45.906825 0.27617,-1.722573 1.42571,-3.085216 3.00873,-3.566519 z m 12.7974,0.847976 c -6.08326,0 -12.16657,0.02284 -12.42279,0.06859 -1.52829,0.272855 -2.74052,1.512656 -3.0908,3.161113 -0.0723,0.340175 -0.0746,1.022128 -0.0746,22.580722 0,20.943752 0.003,22.247003 0.0691,22.525312 0.39494,1.688977 1.55504,2.890714 3.06004,3.169763 0.23674,0.04391 2.83856,0.05644 12.41914,0.05987 13.24004,0.0046 12.44143,0.01989 13.15309,-0.249888 1.17942,-0.447108 2.07213,-1.552789 2.40581,-2.979736 0.0652,-0.278309 0.0691,-1.582686 0.0691,-22.547235 0,-20.96455 -0.003,-22.269009 -0.0691,-22.547324 -0.39954,-1.708608 -1.56086,-2.898452 -3.09633,-3.172588 -0.25623,-0.04575 -6.33945,-0.06859 -12.42271,-0.06859 z m -9.08974,0.927788 c 0.29802,0 0.34271,0.02207 0.25026,0.123743 -0.0385,0.04225 0.0692,0.183519 0.50862,0.66668 l 0.55743,0.613075 0.55558,-0.612219 c 0.54906,-0.605009 0.55469,-0.61318 0.48184,-0.701707 -0.0736,-0.0895 -0.0734,-0.08957 0.25135,-0.08957 0.32035,0 0.36962,0.02125 0.27938,0.12049 -0.0344,0.03787 0.0853,0.202743 0.48377,0.666423 0.29125,0.338872 0.54076,0.616158 0.55457,0.616158 0.013,0 0.27606,-0.277216 0.58275,-0.61607 0.50431,-0.557221 0.55092,-0.621634 0.48782,-0.673534 -0.0383,-0.03156 -0.0697,-0.06995 -0.0697,-0.08537 0,-0.01537 0.14348,-0.02809 0.31893,-0.02809 0.17542,0 0.31894,0.01322 0.31894,0.02947 0,0.01626 -0.0263,0.06139 -0.0585,0.100546 -0.0527,0.06403 -0.003,0.132499 0.49835,0.682525 l 0.55689,0.611277 0.55712,-0.611535 0.55713,-0.611616 -0.0856,-0.100277 -0.0858,-0.100366 h 0.34588 c 0.34305,0 0.40093,0.02661 0.28616,0.131373 -0.0507,0.04632 0.0213,0.148351 0.48557,0.687492 l 0.54513,0.6332 0.57216,-0.627378 c 0.55871,-0.612669 0.5702,-0.629073 0.49118,-0.700164 -0.0445,-0.04003 -0.0809,-0.08444 -0.0809,-0.09865 0,-0.0143 0.16458,-0.02586 0.36574,-0.02586 h 0.36575 l -0.0951,0.11125 -0.0951,0.11125 0.55682,0.612389 0.55689,0.612474 0.55596,-0.612648 0.55597,-0.612644 -0.0949,-0.111071 -0.0949,-0.110982 h 0.39267 0.39261 l -0.0918,0.107569 -0.0918,0.107568 0.52973,0.615899 c 0.29136,0.338734 0.54064,0.6159 0.55394,0.6159 0.013,0 0.27512,-0.277314 0.5818,-0.616242 l 0.5576,-0.616241 -0.0897,-0.08135 c -0.0494,-0.04475 -0.0897,-0.093 -0.0897,-0.107212 0,-0.0143 0.17381,-0.02586 0.38621,-0.02586 h 0.38614 l -0.10627,0.122027 -0.10644,0.122027 0.55737,0.611788 0.55736,0.611791 0.55729,-0.611791 0.55737,-0.611788 -0.10628,-0.122027 -0.10643,-0.122027 h 0.41518 0.41518 l -0.10627,0.116809 -0.10628,0.116897 0.54328,0.630628 0.54326,0.630632 0.57193,-0.62695 0.57184,-0.626859 -0.10578,-0.100885 c -0.0582,-0.05549 -0.0973,-0.109999 -0.0873,-0.121097 0.0198,-0.0218 0.6385,0.06496 0.66435,0.09316 0.008,0.0095 -0.008,0.0484 -0.0369,0.08666 -0.0457,0.0605 0.0198,0.149227 0.50185,0.680382 l 0.55432,0.610764 0.24901,-0.271384 0.24902,-0.271468 0.10156,0.104995 0.10156,0.105084 -0.24597,0.272925 -0.24607,0.27301 0.53408,0.617187 c 0.29373,0.339432 0.54417,0.617173 0.5565,0.617182 0.013,9e-6 0.0741,-0.05919 0.13699,-0.131534 0.0631,-0.07234 0.12723,-0.131534 0.14251,-0.131534 0.0146,0 0.0401,0.07197 0.0553,0.159967 0.0219,0.128782 0.0114,0.177643 -0.0551,0.250571 l -0.0824,0.09061 0.13878,0.156375 c 0.10383,0.116862 0.14527,0.20862 0.16459,0.363273 0.0167,0.133929 0.0114,0.206898 -0.0164,0.206898 -0.0232,0 -0.13796,-0.118399 -0.25509,-0.263076 l -0.21303,-0.262991 -0.56766,0.62532 -0.56755,0.62532 0.5579,0.612389 0.55784,0.612304 0.25944,-0.282773 0.25945,-0.282772 v 0.22 c 0,0.198967 -0.0146,0.236402 -0.15974,0.391445 l -0.15957,0.171441 0.15957,0.178979 c 0.14267,0.15995 0.15974,0.201836 0.15974,0.395216 v 0.216233 l -0.25945,-0.282774 -0.25944,-0.282772 -0.55737,0.61179 -0.55737,0.61179 0.54772,0.6159 0.54771,0.615815 0.2691,-0.284743 0.2691,-0.284744 v 0.216405 c 0,0.19523 -0.0164,0.234846 -0.1678,0.404464 l -0.16771,0.187972 0.16771,0.187973 c 0.14349,0.160808 0.1678,0.214717 0.1678,0.372692 0,0.101582 -0.007,0.18472 -0.0163,0.18472 -0.008,0 -0.12497,-0.123313 -0.2579,-0.274038 l -0.24185,-0.274038 -0.56897,0.624636 -0.56897,0.624548 0.55698,0.613845 0.55706,0.613759 0.26987,-0.294504 0.26988,-0.294591 v 0.216403 c 0,0.19523 -0.0164,0.234846 -0.1678,0.404464 l -0.16771,0.187973 0.16771,0.187972 c 0.15145,0.169619 0.1678,0.209233 0.1678,0.404463 v 0.216402 l -0.26988,-0.294588 -0.26987,-0.294505 -0.55683,0.613586 -0.5569,0.613589 0.5569,0.613588 0.55683,0.613588 0.26987,-0.294503 0.26988,-0.294592 v 0.223512 c 0,0.207484 -0.013,0.235925 -0.1734,0.399152 l -0.1734,0.17582 0.17161,0.191483 c 0.15275,0.17044 0.17181,0.214517 0.1734,0.399839 0.001,0.114556 -0.005,0.208271 -0.0146,0.208271 -0.008,0 -0.1313,-0.130945 -0.27263,-0.290997 l -0.25687,-0.290992 -0.566,0.608876 -0.56601,0.608879 0.5576,0.635768 0.55751,0.635768 0.26537,-0.295963 c 0.14593,-0.162774 0.27238,-0.295961 0.28103,-0.295961 0.008,0 0.0163,0.08314 0.0163,0.184806 0,0.161397 -0.0239,0.211446 -0.18788,0.394613 l -0.1879,0.209812 0.1879,0.209811 c 0.17343,0.193663 0.18778,0.2265 0.18718,0.427499 l -6e-4,0.217689 -0.28553,-0.320797 -0.28554,-0.320795 -0.56079,0.616758 -0.56078,0.616754 0.56911,0.624808 0.56905,0.624805 0.26226,-0.295961 c 0.14429,-0.162773 0.26926,-0.295961 0.2779,-0.295961 0.008,0 0.0163,0.08314 0.0163,0.184804 0,0.161398 -0.0239,0.211449 -0.1879,0.394615 l -0.18789,0.20981 0.18789,0.209811 c 0.173,0.19317 0.1879,0.226933 0.1879,0.427072 v 0.217346 l -0.2885,-0.317283 -0.2885,-0.317202 -0.34378,0.376289 c -0.27213,0.297907 -0.34907,0.361136 -0.3693,0.303156 -0.0618,-0.176982 -0.0193,-0.272623 0.25322,-0.569999 l 0.27874,-0.304182 -0.55129,-0.615388 c -0.47041,-0.525159 -0.56477,-0.653952 -0.64402,-0.878461 -0.051,-0.144688 -0.1105,-0.288185 -0.13195,-0.318913 -0.0821,-0.11738 0.013,-0.101635 0.1079,0.01791 l 0.0998,0.125637 0.5699,-0.624808 0.56981,-0.624807 -0.56764,-0.624293 -0.56763,-0.624378 -0.4176,0.457728 c -0.22966,0.251724 -0.42469,0.448786 -0.4334,0.437947 -0.008,-0.0109 -0.038,-0.06666 -0.0652,-0.124011 -0.0466,-0.09835 -0.0271,-0.128817 0.343,-0.537369 l 0.39235,-0.433151 -0.56717,-0.623866 -0.56726,-0.623778 -0.2775,0.302897 -0.27753,0.302811 -0.0793,-0.106192 -0.0793,-0.106282 0.26309,-0.293136 0.26312,-0.293135 -0.24256,-0.298785 c -0.13341,-0.164328 -0.37815,-0.445867 -0.54381,-0.625663 l -0.30118,-0.326963 -0.12951,0.129658 c -0.0713,0.07127 -0.1813,0.186012 -0.24457,0.255026 l -0.11505,0.125458 -0.0954,-0.104727 -0.0952,-0.104727 0.23975,-0.260936 0.23975,-0.260935 -0.56127,-0.618299 -0.56125,-0.618382 -0.26287,0.299471 c -0.14462,0.164739 -0.27347,0.298897 -0.28632,0.298102 -0.013,-8.29e-4 -0.0668,-0.04127 -0.11993,-0.08991 l -0.0967,-0.08846 0.28466,-0.315655 0.28468,-0.315657 -0.54685,-0.628234 -0.54684,-0.628231 -0.39799,0.441887 c -0.21885,0.243033 -0.41234,0.441887 -0.42997,0.441887 -0.0177,0 -0.0775,-0.03279 -0.13308,-0.07288 l -0.10108,-0.07288 0.431,-0.475455 0.43099,-0.475455 -0.55776,-0.612902 -0.55767,-0.612819 -0.56041,0.612476 -0.56039,0.61256 0.15113,0.162202 c 0.083,0.0892 0.14494,0.16885 0.13747,0.177017 -0.008,0.0082 -0.15535,-0.05193 -0.32859,-0.1335 -0.26831,-0.126298 -0.35951,-0.199619 -0.61373,-0.493441 -0.16422,-0.189788 -0.41897,-0.483594 -0.56618,-0.652892 l -0.2677,-0.30778 -0.31427,0.343061 c -0.30392,0.331738 -0.31911,0.342063 -0.45995,0.313004 -0.0801,-0.01644 -0.14559,-0.04311 -0.14559,-0.05901 0,-0.01591 0.16152,-0.205715 0.35897,-0.421846 l 0.35896,-0.392989 -0.55947,-0.616415 -0.55948,-0.616329 -0.55595,0.615643 -0.55597,0.615644 0.28803,0.320197 0.28803,0.320282 -0.21928,-0.0292 c -0.18728,-0.02491 -0.2447,-0.05651 -0.39376,-0.216747 l -0.17449,-0.187631 -0.11863,0.148673 c -0.10107,0.126637 -0.14462,0.148673 -0.29394,0.148673 -0.0964,0 -0.17527,-0.01412 -0.17527,-0.03151 0,-0.01734 0.0881,-0.130783 0.19575,-0.252115 l 0.19584,-0.2206 -0.54468,-0.624464 -0.54459,-0.624465 -0.57279,0.617956 -0.57269,0.617955 0.20392,0.22711 c 0.11212,0.124921 0.20402,0.237233 0.20402,0.249632 0,0.01233 -0.0657,0.02745 -0.14609,0.0334 -0.12187,0.0089 -0.1716,-0.01662 -0.29917,-0.153552 l -0.15308,-0.164328 -0.17792,0.192083 c -0.14787,0.159699 -0.2121,0.196892 -0.38076,0.220686 l -0.20283,0.02859 0.2906,-0.321737 0.29059,-0.32174 -0.56244,-0.618469 -0.56242,-0.618556 -0.56523,0.605024 -0.56521,0.605025 0.3707,0.40986 c 0.29898,0.33053 0.35924,0.417968 0.31101,0.451734 -0.14625,0.102368 -0.25526,0.0455 -0.56741,-0.295789 l -0.31006,-0.338951 -0.55581,0.610078 c -0.30569,0.335546 -0.54864,0.622739 -0.53992,0.638248 0.0162,0.02851 -0.66679,0.352038 -0.69115,0.327476 -0.006,-0.0073 0.0549,-0.0819 0.13813,-0.165705 l 0.15112,-0.152354 -0.55378,-0.643219 -0.55379,-0.643133 -0.55104,0.604768 c -0.30306,0.332662 -0.55098,0.625199 -0.55098,0.650069 0,0.02488 0.18755,0.250807 0.41682,0.502089 l 0.4168,0.456873 -0.12171,0.08144 -0.12171,0.08144 -0.40115,-0.465608 -0.40126,-0.465693 -0.55168,0.605625 c -0.30341,0.333069 -0.55168,0.626133 -0.55168,0.651268 0,0.02513 0.11668,0.172799 0.25915,0.32816 0.14251,0.155357 0.25914,0.297344 0.25914,0.315571 0,0.01823 -0.0426,0.06387 -0.0947,0.101403 -0.0923,0.06654 -0.10123,0.06062 -0.36676,-0.241753 l -0.27213,-0.310005 -0.5678,0.623264 -0.56772,0.62335 0.23571,0.266161 0.23562,0.266246 -0.0926,0.102171 -0.0926,0.102172 -0.23289,-0.268473 -0.23283,-0.268473 -0.55043,0.604169 c -0.30273,0.332308 -0.55044,0.614573 -0.55044,0.627288 0,0.01269 0.10936,0.156519 0.24318,0.319512 0.24279,0.295845 0.24306,0.296494 0.17528,0.410287 l -0.0679,0.113984 -0.28569,-0.312059 -0.2856,-0.31206 -0.55418,0.610591 -0.55409,0.610676 0.28172,0.342804 c 0.15486,0.188552 0.32737,0.389585 0.38317,0.446768 0.0975,0.09996 0.099,0.108426 0.0361,0.21923 -0.0359,0.06339 -0.0679,0.120329 -0.0712,0.126476 -0.003,0.0061 -0.19241,-0.196554 -0.4207,-0.450447 l -0.41504,-0.461669 -0.55502,0.611959 -0.55495,0.611961 0.3623,0.430411 c 0.19926,0.236715 0.44434,0.518152 0.5446,0.625406 l 0.18229,0.194994 0.12528,-0.129229 c 0.0689,-0.07108 0.11846,-0.109249 0.11002,-0.08478 -0.21621,0.63217 -0.22807,0.651257 -0.79665,1.275389 l -0.55371,0.607765 0.2818,0.312061 c 0.27076,0.299782 0.28078,0.318267 0.25454,0.472115 -0.0146,0.08807 -0.0401,0.160147 -0.0557,0.160147 -0.0163,0 -0.17402,-0.164079 -0.35203,-0.364641 l -0.32368,-0.364727 -0.30135,0.331412 -0.30134,0.331502 v -0.217517 c 0,-0.203369 0.013,-0.232555 0.2079,-0.449081 l 0.20798,-0.231563 -0.20798,-0.231562 c -0.18455,-0.20551 -0.20791,-0.252385 -0.20791,-0.416537 0,-0.101724 0.007,-0.184975 0.0146,-0.184975 0.008,0 0.14251,0.143043 0.29791,0.317884 l 0.28258,0.317884 0.56881,-0.624636 0.56889,-0.624548 -0.55714,-0.613845 -0.55705,-0.613931 -0.30967,0.338608 -0.30967,0.338607 V 47.69041 c 0,-0.202554 0.013,-0.232063 0.2079,-0.448392 l 0.20798,-0.231565 -0.20798,-0.231561 c -0.19427,-0.216329 -0.2079,-0.245838 -0.2079,-0.448392 v -0.216833 l 0.30967,0.338607 0.30967,0.338608 0.5569,-0.613672 0.5569,-0.613675 -0.5569,-0.613673 -0.5569,-0.613674 -0.30967,0.338606 -0.30967,0.33861 v -0.216833 c 0,-0.202132 0.0146,-0.232242 0.20478,-0.444884 l 0.20486,-0.228137 -0.20486,-0.258964 c -0.17616,-0.222755 -0.20478,-0.284621 -0.20478,-0.441971 0,-0.100616 0.007,-0.18292 0.0146,-0.18292 0.008,0 0.14722,0.148512 0.30897,0.330044 l 0.29394,0.330045 0.55496,-0.612133 0.55503,-0.612134 -0.36232,-0.430409 c -0.19926,-0.236717 -0.44466,-0.518532 -0.54538,-0.626262 l -0.18313,-0.195938 -0.31854,0.34837 -0.31857,0.348285 V 41.89982 c 0,-0.208214 0.0114,-0.232083 0.21936,-0.457896 l 0.21936,-0.238329 -0.21936,-0.243809 c -0.2071,-0.230181 -0.21929,-0.255979 -0.21872,-0.461753 l 6e-4,-0.217946 0.31551,0.352738 0.31552,0.352739 0.56234,-0.61419 0.56227,-0.6141 -0.55907,-0.614871 -0.55909,-0.614959 -0.31933,0.34914 -0.31932,0.349143 v -0.211011 c 0,-0.200345 0.0114,-0.222818 0.22924,-0.446253 l 0.22923,-0.23533 -0.22923,-0.255455 c -0.21691,-0.24173 -0.22924,-0.267235 -0.22924,-0.472546 v -0.216917 l 0.32961,0.360532 0.32953,0.360615 0.55681,-0.613588 0.55682,-0.613501 -0.38208,-0.427671 c -0.21018,-0.235187 -0.45048,-0.511441 -0.534,-0.613931 -0.0835,-0.102493 -0.1729,-0.186346 -0.19858,-0.186346 -0.0257,0 -0.17713,0.147976 -0.33661,0.328847 -0.15941,0.180865 -0.297,0.328846 -0.30569,0.328846 -0.008,0 -0.0162,-0.08448 -0.0162,-0.187717 0,-0.17128 0.021,-0.21051 0.23928,-0.448137 l 0.23928,-0.260422 -0.23928,-0.265561 c -0.21658,-0.24034 -0.23928,-0.283108 -0.23928,-0.450705 0,-0.10185 0.0167,-0.185147 0.0372,-0.185147 0.0205,0 0.15925,0.147976 0.30811,0.328845 0.14901,0.180863 0.28941,0.328844 0.3121,0.328844 0.0228,0 0.2877,-0.271584 0.58889,-0.603479 l 0.54763,-0.6034 -0.56989,-0.625663 -0.5699,-0.625663 -0.31271,0.353425 c -0.17199,0.194375 -0.32139,0.343887 -0.33195,0.33227 -0.0114,-0.01162 -0.008,-0.107229 0.007,-0.212465 0.0211,-0.155393 0.0669,-0.235756 0.24388,-0.427842 l 0.21779,-0.236528 -0.14137,-0.159199 c -0.13244,-0.149191 -0.13829,-0.167295 -0.0915,-0.286713 0.0275,-0.07009 0.0556,-0.136055 0.0626,-0.146617 0.006,-0.01054 0.0933,0.06784 0.19186,0.174193 l 0.17908,0.19337 0.55737,-0.611792 0.55737,-0.611789 -0.26669,-0.295618 c -0.14674,-0.16256 -0.2587,-0.301239 -0.24895,-0.308209 0.01,-0.007 0.0588,-0.05067 0.10887,-0.09711 l 0.091,-0.08444 0.25813,0.281317 0.25805,0.281231 0.55424,-0.608449 c 0.30488,-0.334653 0.54596,-0.632473 0.53572,-0.661802 -0.013,-0.03651 0.0588,-0.06292 0.22698,-0.08384 0.25722,-0.03201 0.32225,-0.01358 0.24622,0.07015 -0.0341,0.03748 0.091,0.208571 0.49818,0.681497 l 0.54365,0.6314 0.57154,-0.627375 c 0.47586,-0.522329 0.56148,-0.635486 0.51119,-0.676017 -0.10742,-0.08653 -0.0658,-0.104816 0.23857,-0.104816 z m -2.61099,0.373463 -0.55542,0.609733 -0.55542,0.60965 0.54334,0.630117 0.54343,0.630115 0.57014,-0.626006 0.5702,-0.625919 -0.55813,-0.613845 z m 2.61169,0.02073 -0.55815,0.613843 -0.55813,0.613845 0.55743,0.614274 0.55745,0.614186 0.55813,-0.613843 0.55815,-0.613847 -0.55743,-0.614186 z m 2.63124,0 -0.55495,0.610333 -0.55488,0.610248 0.53199,0.617612 c 0.29261,0.339684 0.54242,0.617614 0.55511,0.617614 0.013,0 0.27377,-0.276231 0.58018,-0.613845 l 0.55704,-0.613847 -0.55729,-0.614016 z m 2.61286,0.01868 -0.55915,0.61607 -0.55907,0.616071 0.54778,0.602458 c 0.30131,0.331378 0.55715,0.602539 0.56849,0.602539 0.0114,0 0.26674,-0.271296 0.56749,-0.602882 l 0.54686,-0.602885 -0.5562,-0.615645 z m 2.6293,0.0045 -0.55542,0.609649 -0.55542,0.609735 0.54334,0.630115 0.54345,0.630117 0.57012,-0.626005 0.57022,-0.625921 -0.55815,-0.613845 z m 2.61169,0.02073 -0.55813,0.613844 -0.55815,0.613845 0.55745,0.614272 0.55743,0.61419 0.55815,-0.613847 0.55814,-0.613843 -0.55744,-0.61419 z m 2.63124,0 -0.55486,0.610246 -0.5548,0.610164 0.53323,0.617698 c 0.29325,0.339735 0.54296,0.6177 0.55495,0.6177 0.0114,0 0.27254,-0.276231 0.57893,-0.613847 l 0.55706,-0.613843 -0.55729,-0.614017 z m 2.61286,0.01875 -0.55915,0.615986 -0.55907,0.616071 0.54779,0.602456 c 0.3013,0.33138 0.55712,0.602541 0.5685,0.602541 0.0114,0 0.26672,-0.271298 0.56747,-0.602884 l 0.54686,-0.602883 -0.5562,-0.615644 z m 2.62931,0.0043 -0.55527,0.609563 -0.55533,0.609561 0.54381,0.629604 0.54381,0.629601 0.56967,-0.625321 0.56959,-0.625318 -0.55815,-0.613847 z m 2.61169,0.02073 -0.55814,0.613843 -0.55815,0.613847 0.55745,0.614274 0.55745,0.614184 0.55813,-0.613843 0.55814,-0.613845 -0.55744,-0.614188 z m -24.89587,1.337734 -0.56086,0.604339 -0.5608,0.604337 0.54919,0.634485 0.54918,0.634569 0.56881,-0.624465 0.56882,-0.624464 -0.55722,-0.614442 z m 2.61007,0.0215 -0.55815,0.613845 -0.55815,0.613843 0.55745,0.614274 0.55743,0.614188 0.55815,-0.613845 0.55815,-0.613847 -0.55745,-0.614184 z m 2.63052,0.0018 -0.55813,0.608535 -0.55814,0.608534 0.5382,0.617528 c 0.29601,0.339648 0.54743,0.617956 0.55869,0.618469 0.0114,4.97e-4 0.2712,-0.275352 0.57769,-0.613073 l 0.55729,-0.614103 -0.55784,-0.612901 z m 2.61358,0.01698 -0.55915,0.615986 -0.55909,0.61607 0.54779,0.602454 c 0.30131,0.331382 0.55714,0.602543 0.5685,0.602543 0.0114,0 0.26672,-0.271299 0.56749,-0.602885 l 0.54684,-0.602882 -0.5562,-0.615643 z m 2.62898,0.0039 -0.55496,0.613675 -0.55486,0.613672 0.5449,0.624037 0.54499,0.624121 0.56825,-0.623694 0.56827,-0.623692 -0.55829,-0.614015 z m 2.61201,0.02116 -0.55815,0.613846 -0.55813,0.613842 0.55743,0.614274 0.55745,0.614188 0.55813,-0.613845 0.55815,-0.613847 -0.55744,-0.614184 z m 2.63124,0 -0.55503,0.61042 -0.55503,0.610418 0.5347,0.616243 c 0.29412,0.338922 0.54401,0.616763 0.55527,0.617443 0.0114,6.63e-4 0.27113,-0.274948 0.57754,-0.612562 l 0.55704,-0.613845 -0.55729,-0.614015 z m 2.61286,0.01875 -0.55915,0.615988 -0.55908,0.616068 0.54778,0.602457 c 0.30131,0.331381 0.55714,0.60254 0.5685,0.60254 0.0114,0 0.26674,-0.271297 0.56749,-0.602883 l 0.54685,-0.602884 -0.55619,-0.615642 z m 2.62929,0.0043 -0.55519,0.609477 -0.55525,0.609477 0.54506,0.628234 0.54514,0.628144 0.56827,-0.623778 0.56827,-0.623864 -0.55815,-0.613843 z m 2.61451,0.01769 -0.55955,0.615385 -0.55954,0.615386 0.5572,0.614102 0.55729,0.614017 0.54888,-0.602458 c 0.30186,-0.331348 0.54424,-0.616606 0.53867,-0.633968 -0.005,-0.01733 -0.25142,-0.299537 -0.54647,-0.627032 z m 2.62843,0.003 -0.55503,0.610417 -0.55503,0.610419 0.53472,0.616244 c 0.2941,0.338922 0.54399,0.616761 0.55525,0.61744 0.0114,6.63e-4 0.27115,-0.274944 0.57754,-0.61256 l 0.55705,-0.613845 -0.55728,-0.614015 z m -22.28651,1.362137 -0.55837,0.607251 -0.55838,0.607252 0.53844,0.616243 c 0.29613,0.338974 0.54766,0.617648 0.55892,0.619239 0.0114,0.0017 0.2712,-0.273382 0.57768,-0.611104 l 0.55729,-0.614102 -0.55782,-0.612389 z m -2.61442,0.0039 c -0.0395,-0.0109 -1.11318,1.138574 -1.11318,1.191722 0,0.02772 0.2465,0.322089 0.5478,0.654095 l 0.54786,0.603567 0.55759,-0.613244 0.5576,-0.613247 -0.53735,-0.608278 c -0.29553,-0.33457 -0.54768,-0.611143 -0.56032,-0.614615 z m 5.23655,0.0061 -0.56476,0.616757 -0.56468,0.616758 0.5488,0.604768 c 0.30184,0.332606 0.55826,0.604766 0.56981,0.604766 0.0114,0 0.26639,-0.271298 0.56632,-0.602883 l 0.5453,-0.602884 -0.55035,-0.618642 z m 2.62072,0.01037 -0.55541,0.609734 -0.5555,0.609735 0.54531,0.626092 0.54536,0.626175 0.56827,-0.622066 0.56827,-0.62198 -0.55815,-0.613845 z m 5.24154,0.02073 -0.55511,0.611704 -0.5551,0.611618 0.53549,0.612731 c 0.29453,0.337002 0.54477,0.614314 0.55603,0.616244 0.0114,0.002 0.27121,-0.272784 0.5777,-0.610503 l 0.55728,-0.614104 -0.55814,-0.613845 z m -2.61107,0.01126 c -0.0114,-0.0061 -0.27107,0.265188 -0.57754,0.602884 l -0.5572,0.614015 0.55728,0.614016 0.55729,0.614015 0.55681,-0.612386 0.55691,-0.612477 -0.53658,-0.604424 c -0.29511,-0.332471 -0.54578,-0.609533 -0.55697,-0.615643 z m 5.24301,0.0032 -0.56811,0.617185 -0.5681,0.617271 0.54763,0.603397 c 0.3012,0.331897 0.55659,0.603481 0.56755,0.603481 0.0114,0 0.26618,-0.270244 0.5671,-0.60057 l 0.54717,-0.600657 -0.54661,-0.620097 z m 2.61163,0.0086 -0.55597,0.610247 -0.55595,0.610335 0.54583,0.623435 0.54584,0.623437 0.56826,-0.619925 0.56827,-0.619839 -0.55815,-0.613847 z m 5.24154,0.02071 -0.55511,0.611706 -0.55511,0.611618 0.53548,0.612732 c 0.29453,0.337001 0.54479,0.614313 0.55605,0.616243 0.0114,0.002 0.27119,-0.272784 0.57768,-0.610505 l 0.55728,-0.614102 -0.55814,-0.613845 z m -2.61108,0.01126 c -0.0114,-0.0061 -0.27108,0.26519 -0.57753,0.602883 l -0.55721,0.614016 0.55729,0.614017 0.55729,0.614015 0.55681,-0.612387 0.5569,-0.612476 -0.53657,-0.604425 c -0.29513,-0.332471 -0.54578,-0.609533 -0.55698,-0.615643 z m -19.69366,1.327286 -0.55675,0.611189 -0.55682,0.611106 0.54669,0.622664 c 0.30066,0.34244 0.55584,0.624656 0.5671,0.62712 0.0114,0.0025 0.27121,-0.27184 0.5777,-0.609563 l 0.55729,-0.614102 -0.56766,-0.624207 z m -2.60625,0.02681 c -0.019,-0.0089 -0.28366,0.257114 -0.58811,0.591322 l -0.55355,0.607679 0.56778,0.62549 0.5678,0.62558 0.55683,-0.612391 0.5569,-0.612474 -0.53659,-0.604427 c -0.29511,-0.332468 -0.5521,-0.611816 -0.57106,-0.620779 z m 5.2518,0.0021 -0.57542,0.607506 -0.57543,0.607593 0.55761,0.616246 c 0.30668,0.338927 0.56707,0.616241 0.57862,0.616241 0.0114,0 0.26611,-0.271298 0.56569,-0.602884 l 0.54467,-0.602883 -0.54786,-0.620954 z m 2.61428,0.01054 -0.55416,0.613759 -0.55427,0.613845 0.54538,0.620867 0.54545,0.620954 0.56811,-0.618556 0.56811,-0.618468 -0.55932,-0.616245 z m 5.24559,0.02509 -0.55698,0.61256 -0.55706,0.612646 0.53673,0.609991 c 0.29519,0.335499 0.54596,0.612376 0.55722,0.6153 0.0114,0.0029 0.27113,-0.270921 0.57753,-0.608533 l 0.55705,-0.613847 -0.55729,-0.614017 z m 2.63054,0.0052 -0.56811,0.621809 -0.56811,0.621894 0.54762,0.603398 c 0.30121,0.331897 0.5566,0.603484 0.56757,0.603484 0.0114,0 0.26557,-0.269664 0.56577,-0.599202 l 0.54584,-0.599116 -0.54529,-0.626176 z m -5.24045,0.0061 c -0.013,-0.0061 -0.27363,0.26519 -0.5801,0.602881 l -0.5572,0.614016 0.55728,0.614017 0.55729,0.614104 0.55588,-0.611449 0.55588,-0.611362 -0.53308,-0.605539 c -0.29321,-0.33304 -0.54339,-0.610558 -0.55595,-0.616668 z m 7.85206,0.01197 -0.55673,0.611189 -0.55683,0.611189 0.5467,0.620013 0.54661,0.620096 0.56827,-0.617357 0.56827,-0.617442 -0.55814,-0.613845 z m 5.24294,0.02073 -0.55696,0.612558 -0.55706,0.612647 0.53673,0.609992 c 0.29517,0.335497 0.54594,0.612376 0.5572,0.6153 0.0114,0.0029 0.27114,-0.270921 0.57753,-0.608535 l 0.55706,-0.613845 -0.55728,-0.614019 z m 2.63054,0.0052 -0.56811,0.621807 -0.56811,0.621896 0.54764,0.603398 c 0.3012,0.331897 0.55658,0.603483 0.56755,0.603483 0.0114,0 0.26557,-0.269665 0.56579,-0.599201 l 0.54582,-0.599118 -0.54529,-0.626176 z m -5.23865,0.0061 c -0.013,-0.0061 -0.27543,0.265188 -0.5819,0.60288 l -0.5572,0.614017 0.55728,0.614017 0.55729,0.614102 0.55549,-0.61102 0.55557,-0.611019 -0.53096,-0.605966 c -0.29203,-0.333253 -0.54201,-0.610901 -0.55557,-0.617011 z m -19.69803,1.327284 -0.55782,0.612388 -0.55784,0.612303 0.54771,0.619582 c 0.30124,0.340758 0.55693,0.622427 0.56819,0.625922 0.0114,0.0036 0.27119,-0.269958 0.57768,-0.607679 l 0.55729,-0.614102 -0.56764,-0.624207 z m 2.62867,0.002 -0.56663,0.623179 -0.56663,0.623179 0.55721,0.614101 c 0.30649,0.337723 0.56676,0.614016 0.57831,0.614016 0.0114,0 0.26598,-0.271298 0.5654,-0.602884 l 0.54435,-0.602883 -0.55596,-0.634397 z m 2.61356,0.0215 -0.55798,0.612217 -0.55807,0.612219 0.55753,0.614272 c 0.3066,0.33785 0.56691,0.614274 0.57846,0.614274 0.0114,0 0.26746,-0.271595 0.56866,-0.603483 l 0.54764,-0.603398 -0.56813,-0.623091 z m 2.65297,0.02834 -0.54903,0.584729 c -0.302,0.3216 -0.55582,0.603022 -0.56398,0.625406 -0.008,0.02237 0.23387,0.31471 0.53774,0.649554 l 0.55246,0.608793 0.54888,-0.602455 c 0.30186,-0.331349 0.54424,-0.614648 0.53868,-0.629601 -0.005,-0.01501 -0.24734,-0.299303 -0.53736,-0.631829 z m 2.61147,0.01412 -0.55969,0.60237 -0.55979,0.602369 0.53884,0.618469 c 0.29633,0.34015 0.54804,0.621311 0.5593,0.624805 0.0114,0.0036 0.27115,-0.269893 0.57753,-0.607506 l 0.55706,-0.613845 -0.55658,-0.613332 z m 2.62929,8.4e-5 -0.56811,0.623694 -0.56811,0.623694 0.54764,0.603395 c 0.3012,0.331899 0.55658,0.603483 0.56755,0.603483 0.0114,0 0.26546,-0.269545 0.56554,-0.598943 l 0.54562,-0.598858 -0.54506,-0.628232 z m 2.61163,0.02159 -0.55784,0.612388 -0.55782,0.612305 0.5477,0.61607 0.54771,0.616157 0.56825,-0.614615 0.56827,-0.614615 -0.55814,-0.613845 z m 5.24293,0.02073 -0.55759,0.613244 -0.55768,0.613332 0.53735,0.608278 c 0.29553,0.334569 0.54658,0.611141 0.55784,0.614616 0.0114,0.0034 0.27113,-0.269892 0.57751,-0.607508 l 0.55706,-0.613843 -0.55728,-0.614103 z m 2.63186,0 -0.56872,0.624464 -0.56881,0.624466 0.54762,0.603395 c 0.3012,0.331897 0.5566,0.603484 0.56757,0.603484 0.0114,0 0.26545,-0.269551 0.56554,-0.598946 l 0.5456,-0.598858 -0.54435,-0.629002 z m -5.24441,9.93e-4 c -0.0114,-3.3e-4 -0.27114,0.275632 -0.57753,0.613247 l -0.55713,0.613845 0.55729,0.614014 0.55728,0.614017 0.55487,-0.610248 0.55488,-0.610245 -0.53463,-0.617016 c -0.29403,-0.339365 -0.54377,-0.617297 -0.55503,-0.617614 z m -17.06078,1.336708 -0.56874,0.624548 -0.56865,0.624636 0.55721,0.614019 c 0.30648,0.337723 0.56675,0.6141 0.57831,0.6141 0.0114,0 0.26594,-0.271296 0.56538,-0.602882 l 0.54443,-0.602885 -0.55394,-0.635768 z m -2.6328,8.28e-4 -0.55784,0.612302 -0.55782,0.612392 0.54769,0.619584 c 0.30126,0.340754 0.55669,0.621648 0.56766,0.624205 0.0114,0.0025 0.27109,-0.270392 0.57807,-0.606478 l 0.55814,-0.611022 -0.56796,-0.62549 z m 5.24114,0.02107 -0.55705,0.613931 -0.55713,0.613845 0.55713,0.613847 c 0.30638,0.337614 0.56653,0.613845 0.57808,0.613845 0.0114,0 0.26745,-0.271586 0.56864,-0.603483 l 0.54764,-0.603398 -0.56866,-0.624292 z m 2.63178,0.04454 c -0.0513,-8.27e-4 -1.0958,1.147872 -1.0958,1.20517 0,0.02348 0.24649,0.314295 0.54779,0.646302 l 0.54786,0.603652 0.55487,-0.610247 0.55488,-0.610249 -0.53463,-0.617014 c -0.29403,-0.339365 -0.55274,-0.617298 -0.57497,-0.617614 z m 15.75289,0.03905 -0.57045,0.626346 -0.57053,0.626264 0.54763,0.603485 c 0.30121,0.331895 0.55659,0.60348 0.56756,0.60348 0.0114,0 0.26572,-0.26973 0.56601,-0.599371 l 0.54599,-0.599373 -0.54311,-0.630458 z m -2.63531,0.0038 -0.55813,0.613845 -0.55814,0.613847 0.55744,0.614274 0.55744,0.614184 0.55814,-0.613841 0.55815,-0.613847 -0.55745,-0.614188 z m -2.60997,4.99e-4 c -0.013,0 -0.27371,0.276229 -0.5801,0.613843 l -0.55714,0.613847 0.55729,0.614016 0.55728,0.614015 0.55489,-0.610246 0.55486,-0.610251 -0.53199,-0.617612 c -0.29259,-0.339684 -0.54241,-0.617612 -0.55509,-0.617612 z m 7.85215,0.0227 -0.55784,0.612302 -0.55782,0.612389 0.54769,0.616075 0.54772,0.616156 0.56825,-0.614615 0.56827,-0.614617 -0.55814,-0.613845 z m -24.91278,1.314613 -0.57006,0.624636 -0.57006,0.624546 0.55503,0.61162 0.55494,0.611533 0.46129,-0.475629 c 0.25369,-0.261623 0.50912,-0.531879 0.56763,-0.600486 l 0.10644,-0.124689 -0.55262,-0.635765 z m 2.60561,0.02184 -0.55704,0.613933 -0.55714,0.613843 0.55472,0.611191 c 0.42994,0.473747 0.56881,0.602634 0.61741,0.57291 0.0344,-0.02109 0.29142,-0.29145 0.57098,-0.600829 l 0.50831,-0.562548 -0.56858,-0.624207 z m 18.38553,0.08264 -0.57092,0.626777 -0.5709,0.62686 0.54762,0.603398 c 0.3012,0.331899 0.5566,0.603483 0.56757,0.603483 0.0114,0 0.26578,-0.269819 0.56624,-0.599628 l 0.5463,-0.599716 -0.54296,-0.630544 z m 2.6057,0.02826 -0.55815,0.612645 -0.55821,0.612646 0.5477,0.603483 c 0.3012,0.331905 0.5571,0.603484 0.56866,0.603484 0.0114,0 0.26745,-0.271579 0.56866,-0.603484 l 0.54761,-0.603483 -0.55813,-0.612646 z m -11.86052,1.187868 c 0.84245,0 1.23852,0.01862 1.61462,0.07613 3.03946,0.464777 5.59528,1.842545 7.69649,4.148846 0.67747,0.743597 1.13235,1.354526 1.66633,2.237866 1.15401,1.909028 1.79233,3.797787 2.12597,6.291224 0.0722,0.538553 0.0722,2.925285 0,3.463837 -0.39152,2.925985 -1.29106,5.25464 -2.86226,7.409984 -0.45119,0.618915 -1.38713,1.648176 -1.94875,2.142976 -2.10001,1.850141 -4.58554,2.939905 -7.26139,3.183722 -0.72493,0.06605 -1.72985,0.04795 -2.48616,-0.04488 -2.48469,-0.30492 -4.86025,-1.395382 -6.83725,-3.138506 -0.56307,-0.496456 -1.49894,-1.525896 -1.94836,-2.143233 -1.54953,-2.128499 -2.45322,-4.434858 -2.84341,-7.256521 -0.1001,-0.724348 -0.1001,-3.046412 0,-3.770762 0.39019,-2.821664 1.29388,-5.128024 2.84341,-7.256523 0.44942,-0.617336 1.38529,-1.646863 1.94836,-2.143319 1.66835,-1.470982 3.62956,-2.485388 5.6811,-2.938457 0.99609,-0.219975 1.41879,-0.262392 2.6113,-0.262392 z m -13.05078,0.126316 -0.57068,0.624636 -0.57059,0.62455 0.5572,0.614101 0.55729,0.614016 0.55728,-0.602884 c 0.30651,-0.33159 0.56104,-0.603042 0.56563,-0.603224 0.005,-1.66e-4 -0.24017,-0.286282 -0.5439,-0.635768 z m 2.60625,0.0215 -0.55815,0.613845 -0.55813,0.613845 0.55743,0.614272 0.55745,0.614274 0.55815,-0.613847 0.55813,-0.613843 -0.55743,-0.614273 z m 23.62682,0.110034 -0.56943,0.623094 -0.56952,0.623093 0.55527,0.616326 0.55518,0.616245 0.54934,-0.603054 c 0.30214,-0.331663 0.54911,-0.613111 0.54911,-0.625492 -1.5e-4,-0.01233 -0.24103,-0.298752 -0.53517,-0.636367 z m -2.6374,0.0012 -0.55813,0.612646 -0.55823,0.612732 0.54771,0.603395 c 0.30121,0.331904 0.55709,0.603485 0.56865,0.603485 0.0114,0 0.26745,-0.271581 0.56866,-0.603485 l 0.54763,-0.603395 -0.55814,-0.612732 z m -22.30503,1.335679 -0.55815,0.613843 -0.55815,0.613845 0.55745,0.614274 0.55743,0.614274 0.55815,-0.613845 0.55815,-0.613847 -0.55745,-0.614274 z m 23.62688,0.110035 -0.56825,0.621722 -0.56819,0.621637 0.55338,0.618301 0.55332,0.618382 0.54996,-0.603653 c 0.30247,-0.332015 0.54997,-0.614754 0.54997,-0.628317 0,-0.01358 -0.24079,-0.299937 -0.53508,-0.636368 z m -24.94251,1.336876 -0.55815,0.613846 -0.55813,0.613842 0.55743,0.614274 0.55745,0.614274 0.55815,-0.613845 0.55813,-0.613845 -0.55744,-0.614272 z m 26.23875,0.138307 -0.57286,0.597661 -0.57294,0.597571 0.56912,0.62712 0.56921,0.627034 0.55813,-0.613847 0.55815,-0.613759 -0.55441,-0.61093 z m -28.17301,8.918559 0.29885,0.326446 0.29885,0.326534 0.2441,-0.261791 0.24404,-0.261878 -0.0271,0.241153 c -0.0205,0.18317 -0.0553,0.273446 -0.14478,0.375432 l -0.11781,0.134286 0.10123,0.104656 c 0.0829,0.08564 0.0993,0.138951 0.0902,0.293221 -0.006,0.10369 -0.0193,0.18855 -0.0294,0.188569 -0.01,1.8e-5 -0.0956,-0.08314 -0.18969,-0.184804 l -0.17124,-0.184887 -0.26979,0.294502 c -0.14836,0.161952 -0.28279,0.294421 -0.29869,0.294421 -0.0163,0 -0.0289,-0.08459 -0.0289,-0.187974 0,-0.167582 0.0216,-0.211506 0.19942,-0.404118 l 0.19948,-0.216063 -0.19948,-0.222057 c -0.18525,-0.20628 -0.19942,-0.237594 -0.19942,-0.438888 z m 29.99601,0.195078 c 0.013,0 0.024,0.08459 0.024,0.187974 0,0.167581 -0.0216,0.211508 -0.19948,0.40412 l -0.1995,0.216062 0.1995,0.222057 c 0.17592,0.19592 0.19948,0.24397 0.19948,0.407117 0,0.101724 -0.0162,0.184975 -0.0358,0.184975 -0.0197,0 -0.14804,-0.139254 -0.28522,-0.309491 l -0.24956,-0.309576 -0.19311,0.209208 c -0.18694,0.202503 -0.19311,0.205584 -0.19311,0.09395 0,-0.06344 -0.01,-0.143776 -0.0221,-0.178554 -0.0114,-0.03478 0.0262,-0.126405 0.0853,-0.203558 l 0.10741,-0.140274 -0.12057,-0.139844 c -0.0842,-0.0976 -0.1287,-0.20292 -0.14755,-0.3482 -0.0146,-0.114538 -0.0163,-0.208269 -0.003,-0.208269 0.013,0 0.11602,0.109106 0.22784,0.242524 0.11179,0.13341 0.21751,0.237003 0.23467,0.230192 0.0172,-0.0068 0.14706,-0.135645 0.28873,-0.28637 0.1417,-0.150728 0.2684,-0.274039 0.28164,-0.274039 z m -29.95919,2.762303 c 0.0203,0 0.14901,0.138862 0.28616,0.30855 l 0.24934,0.30855 0.19225,-0.208269 c 0.18617,-0.201686 0.19225,-0.204631 0.19225,-0.09291 0,0.06344 0.01,0.143794 0.0221,0.178554 0.0114,0.03478 -0.0262,0.126405 -0.0853,0.20356 l -0.10725,0.140273 0.12057,0.139845 c 0.0842,0.0976 0.1287,0.20292 0.14755,0.348199 0.0146,0.114557 0.0184,0.208269 0.008,0.208269 -0.01,0 -0.11846,-0.113448 -0.23991,-0.252115 l -0.2209,-0.252115 -0.27184,0.295961 c -0.1495,0.162774 -0.28481,0.295961 -0.30072,0.295961 -0.0163,0 -0.0289,-0.08459 -0.0289,-0.187972 0,-0.167581 0.0216,-0.211509 0.1994,-0.404121 l 0.1995,-0.216063 -0.1995,-0.222054 c -0.17592,-0.195921 -0.1994,-0.243971 -0.1994,-0.407116 0,-0.101725 0.0166,-0.184977 0.0369,-0.184977 z m 29.95436,0.131535 c 0.0162,10e-7 0.0289,0.08459 0.0289,0.187972 0,0.167581 -0.0216,0.211509 -0.19948,0.404121 l -0.1995,0.216061 0.2019,0.224797 c 0.1917,0.21345 0.20132,0.235214 0.18952,0.429811 l -0.013,0.205015 -0.28864,-0.317798 -0.28858,-0.317798 -0.2445,0.262134 -0.24457,0.262219 0.0237,-0.237898 c 0.0185,-0.184875 0.0507,-0.26853 0.14495,-0.375432 l 0.12122,-0.137539 -0.10123,-0.104656 c -0.0829,-0.08564 -0.0993,-0.138951 -0.0902,-0.293217 0.006,-0.103691 0.0193,-0.188554 0.0294,-0.188573 0.01,-2e-5 0.0956,0.08314 0.18969,0.184803 l 0.17122,0.18489 0.26981,-0.294504 c 0.14836,-0.161952 0.28288,-0.294421 0.29877,-0.294421 z m -28.74736,2.693535 c 0.0566,-0.02094 0.0704,0.03715 0.071,0.16331 4.6e-4,0.08721 -0.0697,0.191116 -0.2793,0.413711 l -0.27993,0.297246 0.55238,0.61667 c 0.47156,0.526436 0.56601,0.655173 0.64527,0.879748 0.051,0.144688 0.1105,0.288184 0.13195,0.31891 0.0821,0.11738 -0.013,0.101635 -0.1079,-0.01789 l -0.0998,-0.125637 -0.56991,0.624806 -0.56982,0.624807 0.56764,0.624293 0.56765,0.624376 0.41759,-0.457728 c 0.22966,-0.251722 0.42469,-0.448784 0.4334,-0.437947 0.008,0.0109 0.038,0.06666 0.0653,0.124011 0.0466,0.09835 0.0271,0.128818 -0.343,0.537371 l -0.39237,0.43315 0.56719,0.623863 0.56724,0.623782 0.27752,-0.302899 0.27751,-0.302813 0.0793,0.106193 0.0793,0.106282 -0.26312,0.293135 -0.2631,0.293136 0.24263,0.298786 c 0.13341,0.164311 0.38407,0.45248 0.55697,0.640306 l 0.31434,0.341521 0.23266,-0.268302 0.23267,-0.268301 0.0939,0.103369 0.0939,0.103369 -0.23975,0.260934 -0.23975,0.260851 0.55986,0.616928 0.55985,0.616843 0.28172,-0.300843 c 0.27812,-0.296901 0.28288,-0.299743 0.36744,-0.221714 0.0471,0.04348 0.0936,0.0848 0.10335,0.09181 0.01,0.007 -0.1105,0.155143 -0.26724,0.329274 l -0.28499,0.316599 0.54632,0.630202 0.5463,0.630116 0.39618,-0.44377 c 0.21789,-0.244108 0.41138,-0.443856 0.42997,-0.443856 0.0185,0 0.0793,0.03279 0.13487,0.07288 l 0.10108,0.07288 -0.431,0.475457 -0.43097,0.475455 0.55774,0.612903 0.55767,0.612816 0.56041,-0.612473 0.5604,-0.61256 -0.15112,-0.162201 c -0.083,-0.0892 -0.14495,-0.16885 -0.13747,-0.177018 0.008,-0.0082 0.15518,0.05194 0.32821,0.1335 0.32968,0.155375 0.31957,0.145546 1.20201,1.169113 l 0.24567,0.285 0.31443,-0.343061 c 0.30402,-0.331724 0.31926,-0.342059 0.46009,-0.313 0.0801,0.01644 0.1456,0.04309 0.1456,0.05899 0,0.01591 -0.16152,0.205716 -0.35896,0.421846 l -0.35895,0.392988 0.55946,0.616414 0.55946,0.616328 0.55596,-0.615643 0.55597,-0.615645 -0.28803,-0.320195 -0.28803,-0.32028 0.21928,0.02945 c 0.18747,0.02518 0.24543,0.05726 0.39953,0.22103 l 0.18026,0.191568 0.11878,-0.151997 c 0.10043,-0.12855 0.14479,-0.152033 0.28819,-0.152855 0.0933,-4.97e-4 0.16944,0.01323 0.16944,0.03058 0,0.01734 -0.0881,0.130783 -0.19576,0.252117 l -0.19583,0.220598 0.54466,0.624809 0.5446,0.624892 0.5773,-0.613332 0.57722,-0.613247 -0.20845,-0.232161 c -0.11472,-0.127692 -0.20853,-0.242289 -0.20853,-0.254685 0,-0.01233 0.0657,-0.02745 0.14608,-0.0334 0.12188,-0.0091 0.1716,0.01662 0.29916,0.153552 l 0.15308,0.164257 0.17791,-0.191999 c 0.14788,-0.1597 0.21213,-0.19689 0.38077,-0.220686 l 0.20284,-0.02859 -0.29059,0.321739 -0.29059,0.321737 0.56601,0.622408 0.56591,0.622494 0.56024,-0.610504 0.56026,-0.610591 -0.36932,-0.408316 c -0.29784,-0.329278 -0.35774,-0.416338 -0.30951,-0.450108 0.14625,-0.102403 0.25528,-0.04555 0.56825,0.29656 l 0.31084,0.339807 0.58704,-0.65572 c 0.53995,-0.603118 0.61101,-0.666986 0.88604,-0.795909 0.16445,-0.0771 0.30492,-0.133911 0.31216,-0.126316 0.007,0.0075 -0.0546,0.08217 -0.13748,0.165705 l -0.15063,0.151836 0.55416,0.642706 0.55425,0.642704 0.55012,-0.603825 c 0.30255,-0.332107 0.55005,-0.624174 0.55005,-0.649042 0,-0.02488 -0.18827,-0.251576 -0.41838,-0.503802 l -0.41845,-0.458586 0.12935,-0.07417 0.12935,-0.07417 0.39501,0.460213 0.39502,0.460299 0.55183,-0.605796 c 0.30352,-0.333173 0.55184,-0.626307 0.55184,-0.65144 0,-0.02515 -0.11668,-0.172799 -0.25914,-0.32816 -0.14251,-0.155357 -0.25913,-0.295539 -0.25913,-0.311546 0,-0.01609 0.0435,-0.06053 0.0969,-0.09892 0.0952,-0.06857 0.10139,-0.06452 0.36674,0.237728 l 0.26995,0.307522 0.5678,-0.623265 0.56772,-0.623352 -0.23569,-0.266159 -0.23563,-0.266244 0.0926,-0.102171 0.0926,-0.102172 0.23291,0.268471 0.23281,0.268471 0.55045,-0.604167 c 0.30273,-0.332307 0.55042,-0.614578 0.55042,-0.627288 0,-0.01269 -0.10936,-0.156519 -0.24317,-0.319512 -0.24279,-0.295845 -0.24307,-0.296496 -0.17527,-0.410287 l 0.0679,-0.113985 0.28562,0.312062 0.28569,0.312061 0.55408,-0.610506 0.55402,-0.610505 -0.24223,-0.299131 c -0.13325,-0.16449 -0.3055,-0.365766 -0.3828,-0.447364 -0.13731,-0.144884 -0.1391,-0.151049 -0.0754,-0.263077 0.0358,-0.0631 0.0678,-0.119828 0.0709,-0.125976 0.003,-0.0061 0.19233,0.196554 0.42063,0.450449 l 0.4151,0.461666 0.55502,-0.611958 0.55495,-0.611961 -0.36231,-0.430412 c -0.19925,-0.236717 -0.44433,-0.518152 -0.54459,-0.625406 l -0.18227,-0.194996 -0.12529,0.129229 c -0.0689,0.07108 -0.11846,0.109248 -0.11001,0.08478 0.21619,-0.632167 0.22807,-0.651254 0.79664,-1.275387 l 0.5537,-0.607765 -0.28179,-0.31206 c -0.27075,-0.299782 -0.28078,-0.31827 -0.25455,-0.472117 0.0146,-0.08807 0.0401,-0.160146 0.0557,-0.160146 0.0162,0 0.17403,0.164078 0.35203,0.364641 l 0.3237,0.364729 0.30133,-0.331417 0.30134,-0.331498 v 0.217517 c 0,0.203366 -0.013,0.232553 -0.2079,0.449079 l -0.20798,0.231563 0.20798,0.231561 c 0.18455,0.205512 0.2079,0.252387 0.2079,0.416538 0,0.101725 -0.007,0.184976 -0.0146,0.184976 -0.008,0 -0.14251,-0.143044 -0.29792,-0.317884 l -0.28257,-0.317884 -0.56882,0.624634 -0.56889,0.62455 0.55714,0.613845 0.55704,0.613929 0.30967,-0.338606 0.30968,-0.33861 v 0.216833 c 0,0.202556 -0.013,0.232065 -0.2079,0.448396 l -0.20798,0.231561 0.20798,0.231563 c 0.19426,0.216331 0.2079,0.245841 0.2079,0.448394 v 0.216832 l -0.30968,-0.338606 -0.30967,-0.33861 -0.55689,0.613675 -0.5569,0.613672 0.5569,0.613674 0.55689,0.613673 0.30967,-0.338608 0.30968,-0.338608 v 0.216834 c 0,0.202309 -0.013,0.232166 -0.2061,0.446339 l -0.20611,0.229591 0.17472,0.210241 c 0.096,0.115664 0.18883,0.216929 0.20611,0.224966 0.0306,0.01412 0.0463,0.445738 0.0164,0.445738 -0.008,0 -0.14722,-0.148512 -0.30897,-0.330043 l -0.29395,-0.330042 -0.55496,0.612129 -0.55502,0.612133 0.36232,0.430412 c 0.19925,0.236712 0.44467,0.518529 0.54536,0.62626 l 0.18315,0.195938 0.31854,-0.348371 0.31854,-0.348285 v 0.219658 c 0,0.208218 -0.0114,0.232173 -0.21934,0.457988 l -0.21935,0.238324 0.21935,0.24381 c 0.20711,0.230181 0.21933,0.255979 0.21873,0.461753 l -6e-4,0.217947 -0.31551,-0.352739 -0.31552,-0.352737 -0.56234,0.614186 -0.56227,0.614103 0.55907,0.614872 0.55909,0.614959 0.31932,-0.349144 0.31933,-0.349139 6e-4,0.218202 c 6e-4,0.21024 -0.008,0.226591 -0.22908,0.447195 l -0.2297,0.228907 0.22907,0.254598 c 0.21684,0.240992 0.22917,0.266314 0.22917,0.471689 v 0.216918 l -0.32961,-0.360531 -0.32961,-0.360617 -0.55433,0.610848 -0.55441,0.610848 0.53106,0.605708 c 0.29203,0.333147 0.55158,0.611352 0.57682,0.618213 0.0252,0.0068 0.17697,-0.136199 0.33717,-0.317884 0.16022,-0.181694 0.29832,-0.330389 0.30702,-0.330389 0.008,0 0.0163,0.08448 0.0163,0.187717 0,0.171281 -0.021,0.210512 -0.23938,0.448139 l -0.23928,0.260422 0.23928,0.265559 c 0.2166,0.240336 0.23938,0.283108 0.23938,0.450707 0,0.101832 -0.0163,0.185147 -0.0358,0.185147 -0.0197,0 -0.16614,-0.159181 -0.32563,-0.353766 l -0.29006,-0.353852 -0.57137,0.627289 -0.57139,0.62729 0.5681,0.62652 0.56819,0.626519 0.31489,-0.352737 c 0.17319,-0.194006 0.32331,-0.343401 0.33366,-0.332015 0.01,0.01144 0.007,0.1068 -0.007,0.212037 -0.0211,0.155392 -0.0669,0.235751 -0.24388,0.427842 l -0.21771,0.236529 0.14137,0.159199 c 0.13244,0.149191 0.13829,0.167295 0.0915,0.286713 -0.0275,0.07009 -0.0557,0.136055 -0.0627,0.146617 -0.007,0.01054 -0.0933,-0.06784 -0.19179,-0.174193 l -0.17917,-0.193368 -0.55735,0.611788 -0.55729,0.61179 0.26669,0.29562 c 0.14674,0.162559 0.25862,0.301229 0.24885,0.308206 -0.01,0.007 -0.0587,0.05067 -0.10871,0.09711 l -0.0912,0.08444 -0.25806,-0.281317 -0.25805,-0.28123 -0.55433,0.60845 c -0.30486,0.334652 -0.54594,0.63247 -0.5357,0.661799 0.013,0.03651 -0.0588,0.06291 -0.22698,0.08384 -0.26178,0.03258 -0.3139,0.01716 -0.24599,-0.07279 0.0323,-0.04279 -0.0884,-0.206904 -0.50262,-0.683809 l -0.54507,-0.627461 -0.57589,0.636967 c -0.45246,0.50049 -0.56136,0.643087 -0.50831,0.665483 0.1482,0.06255 0.0523,0.106782 -0.23141,0.106782 -0.29802,0 -0.34271,-0.02207 -0.25026,-0.123742 0.0383,-0.04225 -0.0694,-0.183522 -0.5087,-0.66668 l -0.55737,-0.613077 -0.55556,0.612219 c -0.54906,0.605013 -0.55468,0.613184 -0.48184,0.701708 0.0736,0.08957 0.0734,0.08957 -0.25143,0.08957 -0.32256,0 -0.36983,-0.02102 -0.27688,-0.123224 0.0377,-0.04155 -0.003,-0.112519 -0.19116,-0.326617 -0.13179,-0.150461 -0.37734,-0.431456 -0.54585,-0.624379 l -0.30632,-0.350769 -0.56889,0.626862 c -0.51468,0.567154 -0.56224,0.632418 -0.49911,0.684495 0.0383,0.03165 0.0697,0.07013 0.0697,0.08555 0,0.01537 -0.14348,0.02809 -0.31893,0.02809 -0.17542,0 -0.31894,-0.01322 -0.31894,-0.02947 0,-0.01626 0.0263,-0.06139 0.0585,-0.100545 0.0526,-0.06403 0.003,-0.1325 -0.49834,-0.682525 l -0.5569,-0.611275 -0.5572,0.611532 -0.55713,0.611616 0.0858,0.100277 0.0856,0.100367 h -0.3458 c -0.1902,0 -0.34579,-0.01322 -0.34579,-0.02947 0,-0.01626 0.0254,-0.06059 0.0566,-0.09865 0.05,-0.0613 -0.007,-0.14106 -0.48837,-0.696826 l -0.54491,-0.627631 -0.57371,0.634397 c -0.55126,0.609529 -0.57038,0.636646 -0.48837,0.692971 0.047,0.03224 0.0853,0.07358 0.0853,0.09189 0,0.01832 -0.16466,0.03331 -0.36581,0.03331 h -0.36575 l 0.0951,-0.11125 0.0951,-0.11125 -0.5569,-0.612389 -0.55681,-0.612474 -0.55603,0.612646 -0.55597,0.612644 0.0949,0.111071 0.0949,0.110982 h -0.39259 -0.39268 l 0.0921,-0.107818 0.0921,-0.107909 -0.52911,-0.615557 c -0.29099,-0.338581 -0.54037,-0.615643 -0.55417,-0.615643 -0.013,0 -0.27598,0.277313 -0.58266,0.616244 l -0.5576,0.61624 0.0897,0.08135 c 0.0494,0.04475 0.0897,0.093 0.0897,0.107211 0,0.0143 -0.17381,0.02586 -0.38621,0.02586 h -0.38622 l 0.10643,-0.122027 0.10628,-0.122026 -0.55737,-0.61179 -0.55729,-0.611792 -0.55736,0.611792 -0.55737,0.61179 0.10644,0.122026 0.10627,0.122027 h -0.41356 -0.41362 l 0.10433,-0.120579 0.10432,-0.120579 -0.54529,-0.627631 -0.5453,-0.627633 -0.57184,0.632258 -0.57178,0.63217 0.10335,0.08941 c 0.0569,0.04918 0.10334,0.101421 0.10334,0.11604 h -8e-5 c 0,0.03108 -0.0637,0.02781 -0.34846,-0.01789 -0.3059,-0.04911 -0.34969,-0.07295 -0.28692,-0.156126 0.044,-0.0584 -0.0268,-0.154195 -0.50303,-0.67884 l -0.55431,-0.610762 -0.24902,0.271382 -0.24902,0.271468 -0.10156,-0.104995 -0.10156,-0.105084 0.24599,-0.27301 0.24605,-0.272925 -0.53276,-0.617185 c -0.29298,-0.339437 -0.54341,-0.617184 -0.55651,-0.617184 -0.013,0 -0.0754,0.05919 -0.13828,0.131535 -0.063,0.07234 -0.12724,0.131534 -0.14251,0.131534 -0.0146,0 -0.0401,-0.07197 -0.0553,-0.159968 -0.0219,-0.128782 -0.0114,-0.177643 0.0551,-0.250573 l 0.0824,-0.09061 -0.13877,-0.156376 c -0.10384,-0.116862 -0.14527,-0.208621 -0.16461,-0.36327 -0.0167,-0.133929 -0.0114,-0.206901 0.0164,-0.206901 0.0232,0 0.13796,0.118328 0.25509,0.262992 l 0.21305,0.263076 0.56756,-0.625319 0.56763,-0.625322 -0.5579,-0.612388 -0.55782,-0.612303 -0.25946,0.282772 -0.25945,0.282774 v -0.220002 c 0,-0.198969 0.0146,-0.236401 0.15974,-0.391445 l 0.15973,-0.171441 -0.15957,-0.178982 c -0.14267,-0.15995 -0.15973,-0.201832 -0.15973,-0.395215 v -0.216233 l 0.25944,0.282774 0.25946,0.282771 0.55735,-0.611789 0.55737,-0.611787 -0.5477,-0.615902 -0.54771,-0.615816 -0.26912,0.284745 -0.26909,0.284741 v -0.216404 c 0,-0.195226 0.0164,-0.234849 0.16779,-0.404462 l 0.16773,-0.187973 -0.16773,-0.187974 c -0.14348,-0.160808 -0.16779,-0.214714 -0.16779,-0.372692 0,-0.101564 0.006,-0.184717 0.0162,-0.184717 0.008,0 0.1248,0.123314 0.25788,0.274037 l 0.24186,0.274038 0.56895,-0.624634 0.56897,-0.62455 -0.55704,-0.613845 -0.55697,-0.61376 -0.2699,0.294505 -0.26987,0.294592 v -0.216406 c 0,-0.195228 0.0164,-0.234846 0.16779,-0.404461 l 0.16773,-0.187974 -0.16773,-0.187971 c -0.15128,-0.169618 -0.16779,-0.209234 -0.16779,-0.404464 V 66.50227 l 0.26987,0.294592 0.2699,0.294504 0.55681,-0.613589 0.55681,-0.613588 -0.55681,-0.613589 -0.55681,-0.613584 -0.2699,0.294504 -0.26987,0.294589 v -0.223512 c 0,-0.208203 0.0114,-0.235613 0.17714,-0.40292 l 0.17707,-0.179582 -0.17707,-0.20039 c -0.15584,-0.176391 -0.17714,-0.223903 -0.17714,-0.39607 0,-0.107586 0.006,-0.195594 0.0162,-0.195594 0.008,0 0.13373,0.133178 0.2779,0.295961 l 0.26226,0.295961 0.5596,-0.614446 0.55963,-0.614359 -0.55651,-0.635252 -0.5565,-0.635169 -0.26536,0.295961 c -0.14592,0.162773 -0.27239,0.295961 -0.28102,0.295961 -0.008,0 -0.0162,-0.08314 -0.0162,-0.184804 0,-0.161398 0.0239,-0.211447 0.18789,-0.394615 l 0.18788,-0.20981 -0.18788,-0.20981 c -0.17283,-0.19298 -0.18789,-0.227105 -0.18789,-0.426387 v -0.216576 l 0.28981,0.316514 0.28973,0.3166 0.55706,-0.613846 0.55706,-0.613844 -0.56889,-0.62455 -0.56888,-0.624635 -0.26226,0.295962 c -0.1443,0.162774 -0.26927,0.295961 -0.2779,0.295961 -0.008,0 -0.0163,-0.08314 -0.0163,-0.184805 0,-0.161398 0.0239,-0.211447 0.18789,-0.394614 l 0.18788,-0.209811 -0.18788,-0.20981 c -0.17283,-0.19298 -0.18789,-0.227105 -0.18789,-0.426383 V 57.77682 l 0.28997,0.316681 0.28996,0.316771 0.33616,-0.371663 c 0.17183,-0.189969 0.2712,-0.289917 0.32781,-0.310861 z m 0.6107,5.461574 -0.55813,0.613845 -0.55815,0.613847 0.55487,0.611359 0.5548,0.611448 0.5734,-0.597145 0.57332,-0.597146 -0.57005,-0.62806 z m 26.23268,0.131534 -0.55815,0.613847 -0.55813,0.613845 0.55743,0.614187 0.55745,0.614272 0.55815,-0.613843 0.55813,-0.613845 -0.55743,-0.614274 z m -24.91892,1.315813 -0.55642,0.613157 -0.55653,0.613246 0.17786,0.20887 c 0.0978,0.114896 0.33921,0.391514 0.53648,0.614701 0.19729,0.223186 0.37181,0.400763 0.38787,0.394613 0.0162,-0.0061 0.27137,-0.275407 0.56741,-0.598343 l 0.53819,-0.587129 -0.0756,-0.114413 c -0.0416,-0.06291 -0.28801,-0.346182 -0.54749,-0.629518 z m 23.60331,0.131105 -0.55815,0.613844 -0.55815,0.613846 0.55745,0.614187 0.55743,0.614274 0.55815,-0.613845 0.55815,-0.613845 -0.55745,-0.614274 z m -24.91675,1.315724 -0.5488,0.602457 c -0.30185,0.331348 -0.54432,0.615687 -0.53876,0.631827 0.005,0.01608 0.24045,0.297487 0.52202,0.625235 0.28156,0.327743 0.52401,0.595861 0.53875,0.595861 0.0146,0 0.27753,-0.276231 0.58392,-0.613845 l 0.55706,-0.613845 -0.55706,-0.613844 z m 2.61028,0.02312 -0.55813,0.612732 -0.55822,0.612644 0.54771,0.603483 c 0.30121,0.331902 0.55711,0.603397 0.56864,0.603397 0.0114,0 0.26746,-0.271495 0.56866,-0.603397 l 0.54764,-0.603483 -0.55815,-0.612644 z m 20.99084,0.108069 -0.55815,0.613845 -0.55813,0.613845 0.55743,0.614187 0.55745,0.614274 0.55815,-0.613845 0.55813,-0.613845 -0.55743,-0.614273 z m 2.63054,0.0018 -0.55815,0.609992 -0.55813,0.60999 0.53213,0.617014 c 0.29269,0.339335 0.54409,0.616928 0.55869,0.616928 0.0146,0 0.27727,-0.276292 0.58375,-0.614017 l 0.55729,-0.614016 -0.55782,-0.612987 z m -22.30544,1.336619 -0.55589,0.610249 -0.55595,0.61025 0.54295,0.630544 0.54296,0.630628 0.57114,-0.627033 0.57108,-0.626946 -0.55814,-0.613847 z m -2.63155,4.97e-4 -0.55815,0.612731 -0.55821,0.612648 0.5477,0.603483 c 0.30121,0.331903 0.55711,0.603396 0.56866,0.603396 0.0114,0 0.26746,-0.271493 0.56866,-0.603396 l 0.54762,-0.603483 -0.55813,-0.612648 z m 20.97324,0.09018 -0.56033,0.610677 -0.5604,0.610676 0.56849,0.626262 0.56842,0.626262 0.55831,-0.614014 0.55829,-0.614017 -0.5664,-0.622924 z m 2.6549,0.02457 -0.56647,0.598516 -0.5664,0.598515 0.53985,0.626007 c 0.29691,0.34431 0.55056,0.626005 0.56359,0.626005 0.013,0 0.27441,-0.276231 0.5808,-0.613844 l 0.55706,-0.613845 -0.55425,-0.610678 z m -24.94149,1.327202 -0.55917,0.616072 -0.55908,0.616068 0.5478,0.602457 c 0.3013,0.331381 0.55714,0.60254 0.5685,0.60254 0.0114,0 0.26672,-0.271295 0.56747,-0.602883 l 0.54685,-0.602884 -0.55619,-0.615641 z m 2.62929,0.0045 -0.55527,0.609565 -0.55534,0.609559 0.54382,0.629604 0.54381,0.629602 0.56967,-0.625322 0.56959,-0.62532 -0.55815,-0.613843 z m 2.61169,0.02073 -0.55814,0.613845 -0.55815,0.613845 0.55745,0.614272 0.55744,0.614188 0.55814,-0.613845 0.55814,-0.613845 -0.55745,-0.614188 z m 2.62985,0 -0.55394,0.610419 -0.55394,0.610333 0.53431,0.617528 c 0.29389,0.33962 0.54362,0.61752 0.55486,0.617527 0.0114,9e-6 0.27121,-0.276294 0.5777,-0.614017 l 0.55728,-0.6141 -0.55814,-0.613845 z m 10.4847,0.04427 -0.55378,0.610162 -0.55371,0.610162 0.53431,0.617528 c 0.29389,0.339619 0.55208,0.617519 0.57373,0.617528 0.0525,2.2e-5 1.09689,-1.148115 1.09689,-1.205768 0,-0.02477 -0.24693,-0.316083 -0.54872,-0.647329 z m 2.61271,0.0227 -0.55831,0.612902 -0.55837,0.612903 0.5678,0.625577 0.5678,0.625492 0.55829,-0.614016 0.55829,-0.614017 -0.56771,-0.624378 z m 2.63123,0 -0.55517,0.609477 -0.55527,0.609478 0.5442,0.628832 c 0.29929,0.345799 0.55381,0.628744 0.56554,0.628744 0.0114,0 0.27213,-0.276308 0.57862,-0.614016 l 0.55729,-0.614103 -0.56764,-0.624207 z m 2.62767,0.03331 -0.56647,0.605279 -0.56648,0.605281 0.55759,0.616329 c 0.30668,0.338981 0.56707,0.616327 0.57862,0.616327 0.0114,0 0.26705,-0.271314 0.5678,-0.602882 l 0.54685,-0.602885 -0.55899,-0.618725 z m -24.91348,1.325913 -0.55525,0.609563 -0.55534,0.609563 0.54513,0.627288 0.54521,0.627206 0.56827,-0.62301 0.56827,-0.62292 -0.55814,-0.613847 z m 2.6145,0.01769 -0.55954,0.615387 -0.55954,0.615386 0.5572,0.6141 0.55729,0.614017 0.54888,-0.602456 c 0.30186,-0.331348 0.54422,-0.616604 0.53866,-0.633968 -0.005,-0.01734 -0.25141,-0.299537 -0.54646,-0.627034 z m 2.62844,0.003 -0.55503,0.610421 -0.55503,0.610505 0.53472,0.616156 c 0.2941,0.338922 0.54399,0.616779 0.55525,0.617442 0.0114,6.63e-4 0.27114,-0.274946 0.57753,-0.61256 l 0.55706,-0.613843 -0.5573,-0.614017 z m 2.61286,0.01875 -0.55916,0.615986 -0.55907,0.616072 0.5478,0.602454 c 0.3013,0.33138 0.55714,0.602541 0.56849,0.602541 0.0114,0 0.26673,-0.271298 0.56748,-0.602884 l 0.54685,-0.602881 -0.5562,-0.615645 z m 2.62931,0.0043 -0.55527,0.609564 -0.55534,0.609563 0.54513,0.62729 0.54523,0.627204 0.56825,-0.62301 0.56827,-0.622921 -0.55814,-0.613844 z m 2.61403,0.01816 -0.55932,0.61513 -0.55931,0.61513 0.55722,0.6141 0.55728,0.614017 0.55729,-0.602884 c 0.3065,-0.33159 0.56136,-0.603419 0.56638,-0.60408 0.005,-6.63e-4 -0.24477,-0.282565 -0.55517,-0.626348 z m 2.62711,0.003 -0.55418,0.610677 -0.55424,0.610676 0.53477,0.615044 c 0.29416,0.338288 0.54579,0.616018 0.55916,0.617012 0.0442,0.0036 1.11192,-1.14747 1.11192,-1.198658 0,-0.02758 -0.24693,-0.321201 -0.54872,-0.652465 z m 5.24395,0.0227 -0.55542,0.609736 -0.5555,0.609735 0.54529,0.627116 c 0.29993,0.34492 0.55461,0.627746 0.56585,0.628575 0.0114,8.29e-4 0.27121,-0.274921 0.5777,-0.612646 l 0.55728,-0.6141 -0.56763,-0.624207 z m 2.61652,0.01537 -0.56056,0.616501 -0.56055,0.616499 0.55721,0.614015 c 0.30648,0.337725 0.56676,0.614102 0.57831,0.614102 0.0114,0 0.2668,-0.271311 0.56725,-0.602884 l 0.54623,-0.602881 -0.56391,-0.627719 z m -5.22277,0.01162 c -0.019,-0.0091 -0.28366,0.256944 -0.58811,0.591152 l -0.55355,0.607681 0.5678,0.625574 0.56778,0.625494 0.55745,-0.613077 0.55745,-0.613071 -0.53721,-0.603571 c -0.29543,-0.331997 -0.55263,-0.611102 -0.57161,-0.620182 z m -19.67956,1.332254 -0.55566,0.60999 -0.55573,0.609991 0.5456,0.624807 0.54554,0.624891 0.56825,-0.621036 0.56827,-0.620954 -0.55814,-0.613845 z m 5.24293,0.02073 -0.55558,0.611018 -0.55556,0.611019 0.53525,0.614189 c 0.2944,0.337794 0.54455,0.615349 0.55581,0.61684 0.0114,0.0015 0.27112,-0.273488 0.57751,-0.611104 l 0.55706,-0.613845 -0.55728,-0.614016 z m 2.63055,0.0095 -0.56811,0.619666 -0.56811,0.619755 0.54762,0.603397 c 0.3012,0.331897 0.55658,0.603482 0.56757,0.603482 0.0114,0 0.26583,-0.269883 0.56632,-0.599714 l 0.5463,-0.599716 -0.54583,-0.623435 z m -5.24302,0.0017 c -0.0114,-0.0061 -0.27108,0.26519 -0.57753,0.602882 l -0.55721,0.614017 0.55729,0.614017 0.55728,0.6141 0.55682,-0.612474 0.55689,-0.612474 -0.53656,-0.604425 c -0.29512,-0.332473 -0.5458,-0.609528 -0.55698,-0.615643 z m 7.85463,0.01197 -0.55565,0.60999 -0.55572,0.609906 0.5456,0.624893 0.54552,0.62489 0.56827,-0.621037 0.56827,-0.620954 -0.55815,-0.613843 z m 2.61956,0.01215 -0.56212,0.618213 -0.56203,0.618125 0.55721,0.614105 0.55728,0.614014 0.54889,-0.602455 c 0.30185,-0.331349 0.54423,-0.615763 0.53866,-0.632087 -0.005,-0.01626 -0.25031,-0.299712 -0.54396,-0.629772 z m 2.62197,0.0086 -0.5551,0.611704 -0.55511,0.611618 0.53549,0.61273 c 0.29453,0.337003 0.54478,0.61432 0.55604,0.616243 0.0114,0.002 0.27119,-0.27278 0.57768,-0.610503 l 0.55728,-0.614104 -0.55813,-0.613845 z m 2.63195,0.0095 -0.56811,0.619669 -0.56819,0.619753 0.55932,0.616158 0.5593,0.61624 0.55385,-0.613415 0.55388,-0.613416 -0.54507,-0.622495 z m 2.61162,0.01358 -0.55597,0.610249 -0.55596,0.610335 0.54584,0.625149 c 0.3002,0.343826 0.55061,0.626316 0.55642,0.627974 0.007,0.0015 0.26596,-0.272465 0.57809,-0.608962 l 0.56749,-0.611876 -0.56796,-0.626434 z m 2.6233,0.008 -0.56398,0.62027 -0.56392,0.62018 0.55722,0.614017 c 0.30649,0.337727 0.56675,0.6141 0.5783,0.6141 0.0114,0 0.26619,-0.271309 0.56593,-0.60288 l 0.54498,-0.602885 -0.55923,-0.6314 z m 2.61783,0.01305 -0.55533,0.612046 -0.55542,0.611963 0.53595,0.611361 c 0.29479,0.336234 0.55423,0.613325 0.57645,0.615728 0.0223,0.0025 0.28684,-0.267218 0.58804,-0.599115 l 0.54764,-0.603397 -0.56866,-0.624293 z m -22.28402,1.358885 -0.55813,0.613847 -0.55806,0.613757 0.48206,0.537373 c 0.26515,0.295539 0.50717,0.571104 0.53782,0.612389 0.0307,0.04128 0.065,0.07574 0.0762,0.07672 0.0114,9.94e-4 0.27115,-0.274519 0.57753,-0.612133 l 0.55706,-0.613847 -0.55728,-0.6141 z m 2.63055,0.0034 -0.56811,0.622752 -0.56811,0.62275 0.54763,0.603483 c 0.30121,0.331895 0.55659,0.603482 0.56756,0.603482 0.0114,0 0.2655,-0.269583 0.56562,-0.59903 l 0.54568,-0.598944 -0.54513,-0.627288 z m -5.23865,0.0079 c -0.013,-0.0061 -0.27543,0.265192 -0.5819,0.602883 l -0.55721,0.614014 0.55729,0.614017 0.55728,0.614017 0.5555,-0.611018 0.55558,-0.610934 -0.53098,-0.605965 c -0.29202,-0.333256 -0.54201,-0.610898 -0.55556,-0.617014 z m 7.85027,0.01215 -0.55674,0.611191 -0.55682,0.611189 0.54669,0.620011 0.54663,0.620096 0.56825,-0.617357 0.56827,-0.61744 -0.55815,-0.613845 z m 5.24294,0.02073 -0.55759,0.613332 -0.55768,0.613244 0.53735,0.608278 v -1.66e-4 c 0.29553,0.334567 0.54657,0.611154 0.55782,0.614617 0.0114,0.0034 0.27114,-0.269894 0.57753,-0.607509 l 0.55706,-0.613845 -0.55729,-0.613844 z m 2.63054,0.0052 -0.56811,0.621811 -0.56812,0.621892 0.54763,0.603398 c 0.30121,0.331898 0.55661,0.603484 0.56758,0.603484 0.0114,0 0.26557,-0.26958 0.56576,-0.599115 l 0.54585,-0.599203 -0.54529,-0.62609 z m -5.23702,0.0061 c -0.0146,-0.0061 -0.27707,0.26519 -0.58353,0.602882 l -0.5572,0.614015 0.55728,0.614017 0.55729,0.614104 0.55525,-0.610764 0.55526,-0.610677 -0.52901,-0.606222 c -0.29097,-0.333415 -0.54088,-0.611241 -0.55534,-0.617355 z m 7.84863,0.01197 -0.55728,0.611704 -0.55729,0.611702 0.54717,0.618211 0.54716,0.617959 0.55675,-0.594322 c 0.30621,-0.326983 0.56552,-0.60019 0.57628,-0.607167 0.0114,-0.007 -0.23522,-0.292948 -0.54663,-0.635423 z m 2.62704,0.0039 -0.56585,0.622324 -0.56577,0.622237 0.55573,0.612388 0.55572,0.612389 0.42063,-0.446425 c 0.23138,-0.245524 0.48547,-0.516031 0.56469,-0.60117 l 0.14414,-0.154839 -0.55457,-0.633454 z m 2.61411,0.01734 -0.5565,0.613246 -0.55659,0.613243 0.53712,0.608108 c 0.29542,0.334458 0.54926,0.61098 0.56406,0.614444 0.0427,0.01001 1.10936,-1.137759 1.10936,-1.193865 0,-0.02783 -0.24694,-0.321628 -0.54873,-0.652892 z m -22.28402,1.358799 -0.55815,0.613843 -0.55814,0.613847 0.55745,0.614272 0.55744,0.614016 0.55813,-0.613845 0.55815,-0.613845 -0.55745,-0.614188 z m 2.63054,0.0015 -0.5681,0.623694 -0.56811,0.623694 0.54761,0.603396 c 0.30121,0.331897 0.55659,0.603483 0.56758,0.603483 0.0114,0 0.26545,-0.269544 0.56554,-0.598944 l 0.5456,-0.598856 -0.54507,-0.628235 z m -5.23702,0.0095 c -0.0146,-0.0061 -0.27705,0.265192 -0.58353,0.602883 l -0.5572,0.614016 0.55729,0.614015 0.55728,0.614016 0.55526,-0.610674 0.55527,-0.610762 -0.52903,-0.606139 c -0.29097,-0.333411 -0.54087,-0.611241 -0.55534,-0.617355 z m 7.84864,0.0118 -0.55783,0.612303 -0.55783,0.61239 0.54771,0.61607 0.5477,0.616158 0.56827,-0.614616 0.56827,-0.614701 -0.55815,-0.613759 z m 5.24293,0.02089 -0.55813,0.613843 -0.55815,0.613847 0.55744,0.614272 0.55744,0.614188 0.55815,-0.613845 0.55815,-0.613845 -0.55745,-0.614186 z m 2.63188,0 -0.56875,0.624462 -0.5688,0.624466 0.54763,0.603396 c 0.30121,0.331897 0.55659,0.603483 0.56756,0.603483 0.0114,0 0.26545,-0.269545 0.56554,-0.598944 l 0.54561,-0.598858 -0.54436,-0.629003 z m -5.24443,9.94e-4 c -0.0114,-3.31e-4 -0.27113,0.275632 -0.57752,0.613246 l -0.55714,0.613845 0.55729,0.613843 0.55728,0.61419 0.55488,-0.610251 0.55487,-0.610246 -0.53464,-0.617015 c -0.29402,-0.339367 -0.54376,-0.617116 -0.55502,-0.617612 z m 7.85472,0.02209 -0.55784,0.61239 -0.55783,0.612303 0.54771,0.61607 0.54771,0.616157 0.56826,-0.614615 0.56827,-0.614613 -0.55815,-0.613847 z m 2.62866,0.002 -0.56663,0.623265 -0.56663,0.623179 0.55722,0.614101 0.55729,0.614016 0.55728,-0.602883 c 0.30651,-0.331587 0.56028,-0.602882 0.56398,-0.602882 0.003,0 -0.24283,-0.285494 -0.54787,-0.634397 z m 2.61428,0.01859 -0.55815,0.613843 -0.55815,0.613847 0.55745,0.61427 0.55743,0.61436 0.55815,-0.613845 0.55815,-0.613843 -0.55745,-0.614188 z m 2.63186,1.64e-4 -0.56881,0.624466 -0.56881,0.624463 0.55674,0.614358 0.55681,0.614443 0.56509,-0.599885 0.56515,-0.599884 -0.5531,-0.638936 z m -22.28333,1.356574 -0.57005,0.625748 -0.56998,0.625836 0.54763,0.603398 c 0.30121,0.331895 0.55659,0.603481 0.56756,0.603481 0.0114,0 0.26558,-0.269597 0.56578,-0.599115 l 0.54577,-0.599115 -0.54336,-0.630117 z m -2.63436,0.0027 -0.55813,0.613843 -0.55815,0.613847 0.55745,0.614272 0.55743,0.614188 0.55815,-0.613845 0.55815,-0.613845 -0.55745,-0.61419 z m 5.24217,0.02329 -0.55784,0.61239 -0.55782,0.612388 0.5477,0.616072 0.54772,0.616072 0.56825,-0.614615 0.56827,-0.614617 -0.55815,-0.613845 z m 7.87823,0.01716 -0.57045,0.626262 -0.57051,0.626348 0.54761,0.603483 c 0.30121,0.331897 0.55661,0.603399 0.56757,0.603399 0.0114,0 0.2657,-0.269645 0.56602,-0.599288 l 0.54599,-0.599371 -0.54312,-0.63046 z m -5.24653,0.0038 c -0.0114,0 -0.27246,0.276231 -0.57885,0.613843 l -0.55712,0.613845 0.55728,0.614276 0.55729,0.613843 0.55478,-0.610247 0.5548,-0.610164 -0.53315,-0.617699 c -0.29325,-0.339731 -0.54302,-0.617697 -0.55503,-0.617697 z m 2.61124,0 -0.55815,0.613843 -0.55815,0.613845 0.55745,0.614276 0.55745,0.613843 0.55813,-0.613843 0.55815,-0.613847 -0.55745,-0.614274 z m 5.24215,0.0227 -0.55782,0.612389 -0.55784,0.612304 0.54772,0.616158 0.5477,0.61607 0.56827,-0.614614 0.56825,-0.614617 -0.55813,-0.613845 z m 7.87909,0.01626 -0.57092,0.626775 -0.5709,0.626777 0.54763,0.603481 c 0.3012,0.331897 0.55659,0.603399 0.56755,0.603399 0.0114,0 0.26578,-0.269818 0.56624,-0.59963 l 0.54632,-0.59963 -0.54297,-0.63063 z m -2.63615,0.0046 -0.55813,0.613845 -0.55815,0.613843 0.55743,0.61419 0.55745,0.614102 0.55815,-0.613845 0.55813,-0.613847 -0.55743,-0.614274 z m -2.60888,1.66e-4 c -0.013,0 -0.2748,0.276231 -0.58121,0.613845 l -0.55712,0.613845 0.55728,0.614016 0.55729,0.614103 0.55503,-0.610507 0.5551,-0.610419 -0.53112,-0.617441 c -0.29211,-0.339581 -0.54198,-0.617442 -0.55525,-0.617442 z"
       inkscape:export-filename="cardBack.svg"
       inkscape:export-xdpi="96"
       inkscape:export-ydpi="96" />
  </g>
</svg>
