<?xml version="1.0" encoding="UTF-8" standalone="no"?>
<svg
   viewBox="0 0 4096 4096"
   version="1.1"
   id="svg72"
   sodipodi:docname="logo.svg"
   inkscape:export-filename="..\React\tarotcardapi-main\frontend\public\img\logo.svg"
   inkscape:export-xdpi="96"
   inkscape:export-ydpi="96"
   inkscape:version="1.3.2 (091e20e, 2023-11-25, custom)"
   xmlns:inkscape="http://www.inkscape.org/namespaces/inkscape"
   xmlns:sodipodi="http://sodipodi.sourceforge.net/DTD/sodipodi-0.dtd"
   xmlns="http://www.w3.org/2000/svg"
   xmlns:svg="http://www.w3.org/2000/svg">
  <sodipodi:namedview
     id="namedview72"
     pagecolor="#ffffff"
     bordercolor="#000000"
     borderopacity="0.25"
     inkscape:showpageshadow="2"
     inkscape:pageopacity="0.0"
     inkscape:pagecheckerboard="0"
     inkscape:deskcolor="#d1d1d1"
     inkscape:zoom="0.13845206"
     inkscape:cx="1823.736"
     inkscape:cy="1726.2293"
     inkscape:window-width="1920"
     inkscape:window-height="991"
     inkscape:window-x="2391"
     inkscape:window-y="-9"
     inkscape:window-maximized="1"
     inkscape:current-layer="svg72" />
  <path
     d="m499.1 54.203c23.814-1.7538 52.468 2.8275 72.134 17.31l0.763 0.5674c3.363 2.4522 6.137 5.294 9.045 8.2556 0.716 0.7285 2.566 3.1291 3.399 3.4808 1.436 0.6059 3.511 0.8074 5.056 1.2137 2.881 0.7577 5.729 1.6746 8.518 2.7193 16.686 6.2495 31.34 16.888 43.918 29.382 42.079 41.799 64.491 103.62 70.897 161.75 0.997 9.045 1.691 18.098 1.662 27.201l-0.029 9.706c-3e-3 0.986-0.23 2.607 0.114 3.526 0.747 1.989 3.665 4.724 5.045 6.408l27.374 31.863c7.249 8.791 13.978 17.723 19.251 27.863 9.867 18.975 12.274 40.863 6.767 61.549-1.464 5.501-3.347 11.161-5.721 16.35-0.726 1.587-3.012 4.054-3.155 5.618-0.059 0.639 1.223 3.186 1.494 3.908l3.615 11.317c3.027 11.109 4.785 22.564 4.805 34.091 0.048 28.271-12.205 54.153-31.321 74.581-7.255 7.754-15.54 14.674-23.056 22.218l6.822 2.874c11.627 5.112 22.03 11.942 31.954 19.822 15.571 12.365 30.282 27.869 37.707 46.615l1.686 4.902c2.841 10.094 4.179 20.536 5.174 30.954 0.681 7.121 1.918 57.766-0.392 61.024-1.221 1.722-2.668 2.101-4.629 2.273-0.789-0.398-1.544-0.751-2.139-1.425-3.594-4.071-2.684-10.586-2.523-15.533 0.09-2.738 0.111-7.088-1.838-9.176-1.514 0.087-1.697 0.359-2.748 1.492-5.743 6.194-8.333 17.223-8.271 25.345 0.027 3.543 0.654 7.252 0.527 10.75-0.062 1.708-1.127 2.383-2.258 3.467-0.761 0.091-1.562 0.369-2.282 0.026-5.448-2.592-1.391-13.147-3.687-17.79-0.325-0.659-0.633-0.547-1.281-0.722-3.33 2.153-5.451 7.351-7.174 10.863-4.684 9.55-7.342 19.426-8.56 29.983-1.581 13.695-0.837 27.95-0.722 41.717 0.064 7.623 1.911 34.227-1.638 39.51-1.13 1.683-3.034 3.436-5.144 3.696-1.531 0.189-3.005-0.156-4.256-1.056-2.623-1.888-3.799-4.962-4.099-8.094-0.521-5.427 0.821-11.305 1.496-16.682 1.515-12.082 2.615-24.78 0.559-36.864-0.736-4.32-2.529-9.76-6.363-12.296-2.455-1.624-5.37-2.344-8.279-1.621-11.309 2.806-29.253 31.54-31.822 42.52-1.119 4.781-1.015 9.351-0.989 14.233 0.016 3.018 0.639 7.468-1.045 10.11-1.114 1.747-1.834 1.98-3.714 2.396-1.844-0.536-2.846-1.069-3.74-2.916-0.844-1.745-0.817-4.673-0.86-6.607-0.122-5.568 0.708-13.043-2.58-17.823-1.276-1.854-3.336-3.151-5.57-3.478-4.117-0.604-7.981 0.476-11.25 3.048-6.166 4.85-11.71 13.066-12.384 20.967-0.377 4.412 0.2 9.073 0.28 13.507l-0.324 20.169c-0.072 4 0.239 8.583-0.399 12.487-0.253 1.546-0.948 2.812-2.244 3.723-1.363 0.957-2.898 0.576-4.429 0.353-0.933-0.72-1.81-1.431-2.241-2.565-0.885-2.327-0.643-5.321-0.644-7.785-4e-3 -9.457 2.123-18.833 1.293-28.256-0.282-3.199-0.62-6.322-2.105-9.22-2.393-4.667-6.593-7.83-11.593-9.263-6.351-1.819-13.658-1.805-19.46 1.66-4.793 2.863-8.686 7.495-12.566 11.453l-20.554 20.925c-10.78 10.299-24.103 19.602-33.312 31.292-4.722 5.995-7.725 12.322-9.752 19.683-0.902 3.273-1.18 6.61-1.198 10-0.026 4.59 1.703 11.922-1.393 15.589-0.959 1.134-2.136 2.028-3.66 2.115-1.614 0.093-2.768-0.262-3.976-1.376-1.17-1.08-1.798-2.496-2.457-3.914-1.318-8.747-0.892-16.325-5.345-24.461-6.123-11.187-16.558-20.546-26.414-28.433-7.052-5.644-14.62-11.384-23.483-13.774-4.696-1.267-10.034-0.56-14.14 2.06-3.637 2.32-5.818 6.183-6.748 10.317l-0.189 0.877c-2.099 9.119-0.727 19.993-0.554 29.376 0.083 4.517 0.404 10.089-1.379 14.313-1.168 2.767-3.568 4.723-6.37 5.702-2.272 0.794-4.289 1.083-6.51-0.125-1.858-1.011-3.377-3.211-4.018-5.184l-0.178-0.582c-1.421-4.472-0.812-9.942-0.738-14.598 0.185-11.606 1.011-25.349-3.06-36.402-2.543-6.905-6.589-12.855-10.701-18.898-8.33-12.242-18.605-23.773-28.711-34.563-7.995-8.538-16.084-16.957-25.438-24.029-5.429-4.104-11.732-8.065-18.503-9.303-5.713-1.044-12.059-0.708-16.91 2.809-3.034 2.2-5.607 6.164-6.52 9.799-1.695 6.755-0.161 15.585 0.348 22.534l1.063 19.072c0.213 3.973 0.769 8.32 0.047 12.25-0.584 3.179-1.536 6.36-4.431 8.144-1.477 0.91-3.561 1.129-5.211 0.584-2.321-0.765-3.701-2.874-4.151-5.182-1.08-5.552-0.147-12.481-0.14-18.182l-0.239-32.123c-0.3-15.833-0.158-32.19-7.956-46.432-2.594-4.738-7.977-13.11-13.706-14.203-1.83-0.349-3.739 0.222-5.097 1.471-1.471 1.354-2.566 3.726-2.969 5.663-2.068 9.931 0.496 21.111-0.442 31.231-0.264 2.853-0.87 5.662-3.287 7.509-1.769 1.353-3.246 1.211-5.302 0.944l-0.9-0.542c-2.534-1.649-3.721-4.401-4.125-7.311-0.898-6.456 0.367-14.12 0.371-20.758 0.016-22.762-4.984-45.955-17.526-65.302-1.457-2.248-3.727-5.828-6.601-6.243-1.075-0.155-1.654 0.022-2.483 0.785-1.247 1.148-1.766 3.224-1.981 4.825-1.044 7.792 0.76 15.631 0.087 23.393-0.171 1.97-0.993 3.995-2.727 5.113-1.31 0.844-2.977 0.877-4.397 0.337-1.706-0.65-2.862-2.381-3.467-4.024-0.818-2.219-0.413-4.892-0.327-7.226l0.019-10.927c-0.351-18.425-2.263-37.404 0.335-55.715 1.342-9.461 4.022-18.543 7.693-27.351 10.97-26.327 33.807-47.338 58.886-60.172 4.268-2.183 8.756-3.841 13.186-5.656-20.822-19.625-42.982-42.931-49.543-71.684-2.731-11.97-2.484-23.369-0.276-35.418 1.112-6.072 2.769-12.082 4.846-17.894l3.131-7.774c0.25-0.565 1.354-2.46 1.347-2.993-0.015-1.161-4.995-9.519-5.876-11.583-3.455-8.1-5.996-17.439-6.752-26.225-0.766-8.916-0.553-17.727 1.348-26.5 5.497-25.377 23.047-47.198 40.05-66.018l8.211-8.879c1.583-1.718 3.638-3.744 4.409-5.978 0.838-2.433 0.714-5.392 0.79-7.952l0.39-13.081 1.438-24.3c4.845-57.72 23.252-117.41 60.973-162.28 33.304-39.616 81.477-66.467 133.32-70.811z"
     fill="#051221"
     id="path2"
     style="fill:#05001e;fill-opacity:1"
     transform="scale(4)" />
  <path
     transform="scale(4)"
     d="m390.56 368.42c0.896 1.605 1.982 3.713 1.763 5.594-0.302 2.599-1.739 5.719-3.914 7.257-1.852 1.308-4.42 1.955-6.66 1.508-5.723-1.143-7.433-8.394-9.685-12.775-1.269-2.47-3.112-4.833-4.684-7.132l4.446-8.158c4.072 5.407 7.163 7.015 13.554 9.084 2.162 1.084 3.209 2.278 4.735 4.111l0.445 0.511z"
     fill="#ED9567"
     id="path3" />
  <path
     transform="scale(4)"
     d="m647.49 360.34c4.721-4.896 6.956-10.38 7.311-17.132 1.977 4.36 4.426 8.883 5.908 13.416 0.307 0.941 1.041 2.705 1.047 3.662 8e-3 1.004-0.934 3.183-1.326 4.208-2.236 5.852-6.621 13.664-12.478 16.323-3.07 1.395-7.235 2.086-10.466 0.838-1.575-0.609-2.906-1.499-3.632-3.074-1.334-2.897-0.463-6.186 0.206-9.13 3.4-6.95 7.011-6.642 13.43-9.111z"
     fill="#ED9567"
     id="path5" />
  <path
     transform="scale(4)"
     d="m645.97 369.42c0.287-0.952 0.562-1.224 1.21-1.948 0.951 1.033 1.877 1.864 2.204 3.28-0.66 1.867-1.332 2.641-3.125 3.515l-2.107 0.943-0.248-0.306c1.81-2.028 2.085-2.836 2.066-5.484z"
     fill="#E8FBFE"
     id="path6" />
  <path
     transform="scale(4)"
     d="m647.49 360.34 0.427 1.474-0.494 0.144c-1.166 0.351-2.036 0.541-2.866 1.497l-0.135 0.612c1.166 1.086 2.084 1.927 2.766 3.408-0.648 0.724-0.923 0.996-1.21 1.948 0.019 2.648-0.256 3.456-2.066 5.484l0.248 0.306c-1.958 0.973-2.763 0.757-4.906 0.629-0.502-0.368-1.67-1.003-2-1.468-0.974-1.373 0.307-3.969-0.5-5.599l-0.75 0.783-1.944-0.107c3.4-6.95 7.011-6.642 13.43-9.111z"
     fill="#EFAC86"
     id="path7" />
  <path
     transform="scale(4)"
     d="m644.42 364.06c1.166 1.086 2.084 1.927 2.766 3.408-0.648 0.724-0.923 0.996-1.21 1.948-0.191-0.374-0.405-0.854-0.713-1.145-1.192-1.124-2.164-0.971-3.645-1.014l-0.092-1.009c1.08-1.325 1.196-1.725 2.894-2.188z"
     fill="#F9C59B"
     id="path8" />
  <path
     transform="scale(4)"
     d="m569.37 170.29c18.824 5.071 33.773 19.281 43.38 35.891 5.411 9.354 9.518 20.012 12.339 30.429 2.872 10.607 3.857 21.386 5.457 32.21l3.838 29.253c0.65 5.99 1.461 12.063 1.14 18.098-2.818-8.156-3.999-17.47-5.911-25.911-0.542-2.391-2.465-5.487-2.484-7.721l0.622 0.031c0.506 1.161 0.141 0.719 1 1.403l-0.188-1.975 0.596 0.24c-0.19-3.558-2.024-6.701-3.591-9.819-0.355-4.563-3.522-10.801-5.585-14.92l-15.766-28.07-21.666-37.481c-4.305-7.181-7.922-15.176-13.181-21.658z"
     fill="#CD775C"
     id="path9" />
  <path
     transform="scale(4)"
     d="m441.44 505.23c7.727 9.955 15.517 19.688 22.547 30.174 19.075 28.457 35.465 58.279 62.609 80.226 8.755 7.079 18.197 13.011 28.074 18.374 3.446 1.871 8.318 3.324 11.339 5.603-16.664 6.76-34.451 9.754-52.37 10.279-39.384 1.153-80.65-17.677-108.85-44.342l2.135-6.961c8.515-4.253 16.489-9.429 22.825-16.616 17.016-19.301 13.362-52.977 11.687-76.737z"
     fill="#F7E4C4"
     id="path10" />
  <path
     transform="scale(4)"
     d="m441.44 505.23-3.672-26.886c14.016 18.672 27.9 37.533 43.604 54.837 3.913 4.312 8.012 9.354 12.727 12.794 3.175 2.316 7.519 4.337 11.416 4.917 3.566 0.531 7.592 0.136 11.07-0.707l0.904-0.213c23.472-5.682 48.468-34.034 60.491-54.04 2.142-3.564 4.066-7.629 6.798-10.776-3.168 14.332-4.848 28.83-4.828 43.517 0.023 17.013 2.114 33.409 11.383 48.054 4.989 7.882 11.521 14.597 19.567 19.365 3.396 2.012 6.849 3.635 9.986 6.069-12.992 14.113-28.535 25.867-46.043 33.873-2.65 1.211-6.026 3.04-8.834 3.573-3.021-2.279-7.893-3.732-11.339-5.603-9.877-5.363-19.319-11.295-28.074-18.374-27.144-21.947-43.534-51.769-62.609-80.226-7.03-10.486-14.82-20.219-22.547-30.174z"
     fill="#CD775C"
     id="path13" />
  <path
     transform="scale(4)"
     d="m630.83 155.41c-3.403-5.097-8.316-9.762-12.852-13.852-8.499-7.665-17.275-14.454-27.736-19.22 12.188 0.39 20.904 2.738 31.097 9.379-8.87-9.122-18.927-17.201-30.264-23.082l-2.543-11.662c7.165 3.249 14.263 6.349 20.893 10.631 33.817 21.843 57.428 59.796 71.458 96.803 8.686 22.912 15.164 47.423 17.393 71.892 0.915 10.046 0.591 20.301 1.688 30.275-11.337-14.435-21.652-28.887-30.24-45.197l-6.121-13.172c-1.058-2.578-2.005-5.984-3.563-8.281 6.305 28.632 18.882 57.278 36.793 80.505 5.351 6.94 11.424 13.134 17.58 19.345l18.533 17.968c2.922 2.875 6.186 5.741 8.664 9.01-1.301-0.201-2.329-1.503-3.328-2.366l-8.785-7.378c-11.279-8.858-23.817-15.749-34.602-25.321-4.589-4.072-8.549-8.746-12.167-13.683-4.266-5.82-8.007-11.74-10.977-18.33-1.679-3.726-2.864-8.906-5.241-12.161 3.163 11.87 6.74 22.974 13.637 33.283 10.646 15.912 25.186 25.984 40.308 37.155 35.628 26.319 47.435 49.496 38.091 93.25-9.798-23.282-23.896-41.744-42.941-58.278-15.78-13.699-32.368-26.545-43.735-44.455-13.733-21.639-20.448-46.575-26.146-71.285-2.947-12.779-4.232-25.934-7.574-38.572-6.225-23.536-18.635-45.691-37.971-60.851-5.425-4.254-11.262-8.133-17.703-10.672l-8.655-2.61c7.343-1.514 13.769-2.153 21.119-7e-3 4.095 1.195 8.017 3.188 11.888 4.964-5.244-4.736-11.931-8.97-18.322-11.986-2.247-1.061-5.26-1.673-7.241-3.036 10.497 0.029 18.238 2.879 27.397 7.782l1.338-0.691 0.497 0.748 0.503-0.748 0.747-0.247 0.376-1.515c-7.544-7.463-15.632-14.199-25.724-17.733 4.312 0.222 8.371 0.514 12.598 1.468 11.425 2.577 19.995 8.158 29.053 15.273l1.438 2e-3c0.742-0.478 1.385-0.87 2.009-1.5l-1.278-1.386 0.611-0.456z"
     fill="#B6EBE2"
     id="path14"
     style="fill:#cccccc" />
  <path
     transform="scale(4)"
     d="m612.13 159.74c6.504 6.732 14.102 14.028 19.069 22.01h-0.621c-6.395-7.599-13.557-14.171-21.909-19.557l1.338-0.691 0.497 0.748 0.503-0.748 0.747-0.247 0.376-1.515z"
     fill="#000104"
     id="path15" />
  <path
     transform="scale(4)"
     d="m630.83 155.41c2.26 2.052 4.138 5.035 5.974 7.486 5.403 7.212 10.666 14.869 14.861 22.856h-0.561c-6.819-10.033-13.895-18.94-23.054-27.002l1.438 2e-3c0.742-0.478 1.385-0.87 2.009-1.5l-1.278-1.386 0.611-0.456z"
     fill="#000104"
     id="path16" />
  <path
     transform="scale(4)"
     d="m352.7 474.26c-3.149-11.052-3.119-21.409-2.354-32.774 0.988-14.689 3.567-29.114 8.144-43.111-0.245 5.77-1.264 11.513-1.689 17.286-0.754 10.212-0.034 21.125 1.929 31.165 2.681 13.711 7.496 27.288 15.096 39.055 6.826 10.569 15.786 19.515 23.234 29.623 8.551 11.603 14.518 24.663 15.353 39.219 0.621 10.815-1.487 21.593-3.616 32.149-0.35-5.339-0.513-10.514-1.56-15.78-3.041-15.291-11.001-29.213-22.736-39.463-1.226-1.071-4.076-3.91-5.628-4.342-6.411-4.776-10.425-8.932-14.356-15.822 1.96 7.039 5.618 12.113 10.034 17.842 9.768 12.819 18.386 26.601 21.359 42.715 1.567 8.493 1.332 17.948 0.186 26.467-2.542 18.895-10.686 36.019-20.063 52.393-3.562 6.22-7.552 12.244-10.79 18.641-14.836 29.306-13.996 66.163-2.529 96.414 3.585 9.457 8.333 17.999 13.651 26.561-5.17-4.868-9.678-11.418-13.532-17.35-12.369-19.038-19.91-38.431-20.586-61.292-0.264-8.942 0.552-18.21 2.625-26.917 1.802-7.562 4.677-14.874 7.177-22.226 7.318-21.518 12.453-41.585 6.152-64.186-1.273-4.565-3.43-11.78-6.261-15.532l-0.209-0.159c-2.364-5.345-5.927-12.91-9.694-17.294l5.381 18.538c1.672 7.444 2.929 15.125 3.136 22.77 0.865 31.995-10.635 62.422-32.701 85.745 1.222-2.922 3.138-5.535 4.682-8.297 12.505-22.368 19.446-47.1 1.78-68.838-7.054-8.68-16.09-16.093-24.097-23.917-15.059-14.715-27.433-30.902-33.168-51.485-5.184-18.605-1.886-35.726 4.374-53.533 2.1-5.976 4.267-12.096 7.4-17.62-2.121 7.794-4.264 15.712-4.74 23.805-1.297 22.058 1.626 41.8 11.175 61.851 3.021 6.343 6.661 13.041 11.346 18.298-2.992-7.265-6.163-14.185-8.35-21.767-3.895-13.501-5.073-28.575-4.954-42.576 4.419 15.807 10.675 28.345 21.769 40.505 0.554-0.377 1.159 3e-3 1.685-0.262 0.527-0.266 0.835-0.835 1.252-1.253 0.619 0.749 0.219 0.474 1.248 0.753v-0.755c-0.612-1.022-1.164-1.721-1.056-2.956l0.087-0.629c0.107-0.816-0.837-2.521-1.145-3.32l-2.983-8.602c-2.459-8.323-3.611-17.094-4.014-25.743-1.107-23.752 4.489-47.144 13.849-68.829 1.719-3.983 3.53-9.21 6.465-12.43l-4.73 18.381c-4.27 27.975 7.523 58.486 24.077 80.668l0.35 0.463 0.372-0.458c1.165-1.019 2.238-0.843 3.683-0.919-12.196-29.315-15.723-62.746-8.617-93.848 1.697 14.657 4.665 31.636 12.795 44.266l0.257 0.387 1.86-1.176 0.837 0.323c0.809-0.106 0.796-0.276 1.358-0.822z"
     fill="#B6EBE2"
     id="path17"
     style="fill:#cccccc" />
  <path
     transform="scale(4)"
     d="m308.28 545.92c3.397 6.225 6.746 11.957 10.791 17.791l-14.007-12.689c0.554-0.377 1.159 3e-3 1.685-0.262 0.527-0.266 0.835-0.835 1.252-1.253 0.619 0.749 0.219 0.474 1.248 0.753v-0.755c-0.612-1.022-1.164-1.721-1.056-2.956l0.087-0.629z"
     fill="#000104"
     id="path18" />
  <path
     transform="scale(4)"
     d="m352.7 474.26c2.767 7.556 6.116 15.11 11.579 21.142-1.938-1.115-3.553-3.162-5.024-4.835-3.971-4.517-7.788-9.3-10.61-14.632l1.86-1.176 0.837 0.323c0.809-0.106 0.796-0.276 1.358-0.822z"
     fill="#000104"
     id="path19" />
  <path
     transform="scale(4)"
     d="m340.15 526.5 0.372-0.458c1.165-1.019 2.238-0.843 3.683-0.919 2.029 4.653 4.307 9.091 6.796 13.511 1.389 2.466 4.092 5.828 4.772 8.488-5.355-6.592-11.255-13.333-15.623-20.622z"
     fill="#000104"
     id="path20" />
  <path
     transform="scale(4)"
     d="m673.73 479.2c1.497-1.821 2.729-4.586 3.784-6.704 6.123-12.294 7.53-25.058 8.806-38.528 3.486 8.775 5.611 18.492 6.331 27.901 1.894 24.72-3.757 49.568-20.097 68.671 6.413-4.64 11.628-9.643 16.653-15.783 17.038-20.819 26.172-53.776 23.521-80.413 3.433 8.592 6.096 18.053 7.507 27.186 3.834 24.804-0.482 49.972-14.106 71.198-1.772 2.762-4.095 4.879-6.011 7.508 12.473-8.313 21.285-18.955 27.681-32.458 11.72-24.744 8.77-55.17-0.157-80.17 8.091 10.315 14.988 21.575 19.887 33.753 12.681 31.526 19.015 68.611 1.933 99.77-5.076 9.259-12.563 17.89-20.117 25.218-13.508 13.105-28.435 24.559-35.911 42.502-6.995 16.787-5.005 32.107 1.765 48.654l6.902 15.156c-2.559-2.966-4.647-6.437-6.772-9.725-6.768-10.47-12.059-21.59-16.054-33.404-6.359-18.803-9.335-40.196-4.579-59.719 1.768-7.257 4.59-13.663 7.892-20.319-5.012 6.111-9.086 12.141-12.506 19.277-9.324 19.458-10.262 42.168-4.496 62.762 2.078 7.42 5.106 14.562 7.649 21.829 9.672 27.642 9.745 59.615-3.159 86.214-6.363 13.116-14.688 24.209-23.994 35.326-1.523 1.82-4.528 6.08-6.724 6.849 7.269-9.357 13.76-19.095 18.622-29.944 14.505-32.36 13.845-69.586-0.018-102.06-4.333-10.149-10.326-19.573-15.319-29.404-9.758-19.212-17.939-44.688-14.884-66.529 3.464-24.759 18.6-43.931 34.792-62.067-3.732 1.636-7.15 4.636-10.29 7.173-5.189 4.194-10.234 8.543-15.015 13.202-10.452 10.184-17.221 22.39-19.526 36.859-1.036 6.504-1.001 12.994-1.06 19.557-1.795-4.907-3.375-9.789-4.194-14.963-3.647-23.05 2.592-46.489 16.597-65.104 5.246-6.972 11.597-13.045 16.687-20.148 16.81-23.463 20.79-52.148 16.625-80.247-1.061-7.156-3.107-14.06-4.283-21.159 3.286 5.515 5.431 11.912 7.391 18 7.44 23.12 10.014 48.309 4.819 72.206 1.126 1.018 1.876 1.776 3.428 2.073z"
     fill="#B6EBE2"
     id="path21"
     style="fill:#cccccc" />
  <path
     transform="scale(4)"
     d="m670.31 477.13c1.126 1.018 1.876 1.776 3.428 2.073l-7.896 11.806c1.631-4.272 3.246-8.466 4.259-12.939l0.209-0.94z"
     fill="#000104"
     id="path22" />
  <path
     transform="scale(4)"
     d="m551.45 166.4c-2.594-6.484-5.303-12.898-9.188-18.732-9.429-14.162-24.175-23.819-40.76-27.28-13.789-2.877-30.812-0.981-43.925 3.869-13.734 5.08-24.607 13.292-34.821 23.62-54.343 54.945-28.864 138.93-64.708 202.4-8.789 15.564-20.268 29.034-33.296 41.17-15.03 14-31.546 27.155-43.384 44.15-5.561 7.984-8.873 16.142-12.858 24.892l-2.412-5.865c-2.324-7.007-2.688-14.057-2.641-21.373 0.225-34.922 25.301-65.338 47.069-90.488 6.712-7.755 14.062-15.369 20.062-23.692 6.308-8.75 11.492-18.911 15.547-28.904 6.411-15.798 9.686-32.099 13.197-48.691 5.508-26.032 10.834-51.987 22.712-75.98l-0.292-0.474c-15.994 25.698-23.058 54.251-32.57 82.595-5.716 17.032-12.172 34.902-20.804 50.709-3.25 5.952-7.229 11.65-10.869 17.375 1.225-25.548 3.166-50.87 8.816-75.887 13.133-58.15 42.909-112.48 94.522-144.63 33.533-20.89 75.608-33.467 114.83-24.288 12.555 2.9383 26.645 8.1224 33.664 19.744 3.599 5.9582 5.579 12.31 6.395 19.184 0.186 1.571 0.616 3.569 0.099 5.067l-0.259 0.523c-1.032 0.524-1.991 0.301-3.132 0.263 1.137 4.496 1.707 8.525 1.577 13.165-5.302-14.247-13.555-22.649-27.323-28.979-3.958-1.8199-8.983-3.6482-13.32-4.1001 3.972 1.8746 8.1 3.835 11.693 6.374 8.497 6.007 15.857 16.082 19.371 25.848 1.021 2.838 1.707 5.508 2.122 8.509l0.139 0.968 0.388 9.273c-4.061-9.843-8.471-19.822-15.836-27.775l-0.325 0.534c4.959 6.682 11.423 15.982 13.305 24.174 0.952 4.147 0.765 8.382 0.592 12.595-1.788-4.087-3.355-8.295-5.629-12.146-9.108-15.427-24.994-26.026-41.407-32.481-19.736-7.764-40.879-7.199-60.233 1.334-7.359 3.244-14.741 7.246-21.051 12.274l0.498 0.254c19.076-11.837 40.884-17.802 63.169-12.673 21.331 4.911 42.282 19.649 53.945 38.337 3.145 5.039 5.478 10.742 6.739 16.549l-1.818-0.069c-2.534 0.064-5.516 0.39-7.587-1.246z"
     fill="#B6EBE2"
     id="path23"
     style="fill:#cccccc" />
  <path
     transform="scale(4)"
     d="m572.44 115.68-0.192-0.672c-3.92-13.257-15.884-22.362-27.434-28.802 11.111 2.8545 22.364 12.849 28.059 22.626 1.151 1.975 2.441 4.298 2.699 6.585-1.032 0.524-1.991 0.301-3.132 0.263z"
     fill="#000104"
     id="path24" />
  <path
     transform="scale(4)"
     d="m334.04 323.75 0.302 0.542c-6.101 12.933-14.562 25.352-23.756 36.265l-29.133 31.693-0.261-0.582 52.848-67.918z"
     fill="#000104"
     id="path25" />
  <path
     transform="scale(4)"
     d="m392.47 276.59 0.062-1.644c0.566-8.404 2.278-16.981 4.097-25.206 2.61-11.798 5.64-24.01 12.489-34.142 3.926-5.807 9.292-10.751 14.576-15.3 35.324-30.412 82.659-37.209 127.76-33.9 2.071 1.636 5.053 1.31 7.587 1.246l1.818 0.069c0.809 0.89 0.324 0.655 1.323 0.817 2.481 0.401 4.793 1.018 7.193 1.757 5.259 6.482 8.876 14.477 13.181 21.658l21.666 37.481 15.766 28.07c2.063 4.119 5.23 10.357 5.585 14.92 1.567 3.118 3.401 6.261 3.591 9.819l-0.596-0.24 0.188 1.975c-0.859-0.684-0.494-0.242-1-1.403l-0.622-0.031c0.019 2.234 1.942 5.33 2.484 7.721 1.912 8.441 3.093 17.755 5.911 25.911 0.072 2.14 0.251 4.327 1e-3 6.458 1.386 5.198 0.491 10.355-0.175 15.608-1.725 13.601-5.189 26.138-8.651 39.349l-13.736 48.596c-1.473 4.818-2.717 11.1-5.181 15.468-2.291 4.061-7.43 8.189-10.754 11.594l-33.358 32.339c-7.021 6.174-14.07 12.236-22.247 16.862-13.335 7.543-30.424 10.736-45.327 6.417-8.219-2.383-15.412-7.424-22.373-12.253-14.14-9.81-27.194-20.919-38.967-33.466-4.804-5.12-9.674-10.308-13.482-16.233-4.82-6.089-9.599-13.994-12.381-21.214-2.528-6.565-3.991-13.959-5.664-20.794l-6.943-33.489c-2.613-13.639-4.983-26.946-5.65-40.87-0.858-17.919 0.18-36.108 1.833-53.95z"
     fill="#F7E4C4"
     id="path26" />
  <path
     transform="scale(4)"
     d="m493.51 473.72c1.947-1.276 6.714-1.243 9.084-1.531 2.038 0.728 1.335 0.906 2.581 2.371-3.977 0.321-7.797 0.143-11.665-0.84z"
     fill="#000104"
     id="path27" />
  <path
     transform="scale(4)"
     d="m488.6 466.57c-0.693-0.528-1.265-0.22-2.103-0.131-3.184-1.157-6.016-4.317-8.432-6.658 3.508 1.002 10.375 1.912 12.945 4.379-0.897 0.776-1.67 1.474-2.41 2.41z"
     fill="#F9C59B"
     id="path28" />
  <path
     transform="scale(4)"
     d="m536.07 380.25c0.974 0.688 1.025 1.618 1.179 2.757 0.691 5.104-0.364 10.45-3.699 14.493-1.744 2.113-3.655 2.796-6.301 3.046-0.583-0.125-1.054-0.38-1.591-0.633l0.415-0.801c2.187-0.971 4.56-2.067 6.22-3.835 4.022-4.283 3.858-9.562 3.777-15.027z"
     fill="#000104"
     id="path29" />
  <path
     transform="scale(4)"
     d="m487.57 379.75c0.261 0.284-0.511 5.154-0.438 6.094 0.327 4.256 2.525 8.345 6.116 10.657 1.711 1.102 3.554 1.686 5.069 3.11l-0.569 0.969c-1.542 0.429-3.067 4e-3 -4.5-0.638-2.943-1.317-4.906-4.143-6-7.075-1.749-4.686-1.765-8.524 0.322-13.117z"
     fill="#000104"
     id="path30" />
  <path
     transform="scale(4)"
     d="m506.08 397.32c-2.267-0.155-4.352-0.914-6.576-1.291-2.064-0.349-5.016-0.082-6.657-1.46 0.147-0.92 0.504-0.942 1.252-1.495 1.907-1.413 3.502-2.013 5.905-1.618 3.337 0.549 6.353 3.179 8.676 5.465l-2.6 0.399z"
     fill="#000104"
     id="path31" />
  <path
     transform="scale(4)"
     d="m516.97 395.59 0.31-0.843c3.419-2.72 5.584-3.556 10.015-2.958 0.742 0.1 1.299 0.281 1.958 0.629 0.814 1.179 0.742 1.098 0.5 2.52-2.491 0.91-5.289 0.059-7.485 0.799-0.814 0.275-2.123 1.494-2.875 2.007-3.461 2.358-7.094 4.223-11.236 2.353-1.089-0.492-0.934-0.561-1.46-1.534 1.607 1.034 3.69 1.469 5.578 1.214 2.423-0.327 3.949-1.07 5.406-3.021l-0.711-1.166z"
     fill="#000104"
     id="path32" />
  <path
     transform="scale(4)"
     d="m512.97 305.25c0.48 0.022 0.838 0.218 1.277 0.399 1.206 4.81 0.994 10.119 0.786 15.039-0.364 8.591-1.557 17.559-0.194 26.122 0.622 3.909 1.976 7.521 3.451 11.167l-0.596 0.273-1.614-3.155c-1.45-2.966-2.098-6.332-2.794-9.545-2-9.229-2.434-18.297-1.976-27.695 0.203-4.174 0.304-8.622 1.66-12.605z"
     fill="#FEFEFD"
     id="path33" />
  <path
     transform="scale(4)"
     d="m470.39 307.57c3.69 4.619 7.449 9.471 9.921 14.879-5.006 2.952-9.996 4.497-15.538 6.11-10.729 3.122-20.589 5.099-31.609 2.221-3.479-0.908-6.792-2.294-10.061-3.77l0.433-1.112c2.282 1.256 4.776 2.56 7.258 3.387l0.703 0.219c0.788 0.263 1.456 0.503 2.281 0.641l1.719 0.359c1.524 0.478 2.185 0.534 3.734 0.328-1.446-0.998-3.981-1.326-5.671-2.016-2.301-0.938-4.272-2.006-6.338-3.383l-2.353-1.546 0.342-0.69 3.512 2.182c3.947 2.363 8.421 4.374 13.024 4.952 7.519 0.943 14.869-1.435 21.959-3.577l14.696-3.9-10.487-12.695 2.475-2.589z"
     fill="#000104"
     id="path34" />
  <path
     transform="scale(4)"
     d="m518.28 382.36c-2.417-1.991-4.594-3.95-6.673-6.299-3.508-0.449-6.824-0.664-10.36-0.582 1.932-5.182 4.085-12.311 9.541-14.875 2.209-1.039 4.41-0.294 6.543 0.59 4.18 1.731 8.46 5.522 10.204 9.773 1.379 3.361 2.008 8.733 0.456 12.092-0.679 1.47-2.302 1.743-3.626 2.53-2.291-0.775-4.043-1.973-6.085-3.229z"
     fill="#FEFEFD"
     id="path35" />
  <path
     transform="scale(4)"
     d="m527.05 462.86 0.522 0.35c1.5 0.741 3.745 0.545 5.398 0.617 5.234 0.229 10.438 0.418 15.672 0.092-3.127 5.327-6.251 9.486-12.559 11.148-4.798 1.25-11.601-0.403-16.603-0.675l-14.307 0.162c-1.246-1.465-0.543-1.643-2.581-2.371-2.37 0.288-7.137 0.255-9.084 1.531-2.315-0.679-3.514-1.968-5.118-3.686-0.466-1.64-0.337-1.827 0.211-3.466 0.74-0.936 1.513-1.634 2.41-2.41 3.099 0.771 6.251 0.902 9.426 1.119l1.349-1.445c9.306 1.889 16.237 1.801 25.264-0.966z"
     fill="#EFAC86"
     id="path36" />
  <path
     transform="scale(4)"
     d="m519.79 471.28 16.296 3.795c-4.798 1.25-11.601-0.403-16.603-0.675l0.307-3.12z"
     fill="#000104"
     id="path37" />
  <path
     transform="scale(4)"
     d="m502.59 472.19c5.851-0.963 11.266-1.358 17.195-0.911l-0.307 3.12-14.307 0.162c-1.246-1.465-0.543-1.643-2.581-2.371z"
     fill="#030A13"
     id="path38" />
  <path
     transform="scale(4)"
     d="m407.72 284.09c4.89-3.949 9.932-8.023 16.471-8.644 11.226-1.065 21.709 1.148 32.23 4.943l11.495 3.865c4.856 1.598 9.843 2.959 14.172 5.767 4.319 2.802 9.492 8.881 12.028 13.384l0.522 0.984c0.661 1.219 1.114 2.303 1.571 3.615l0.26 0.656 0.755 2.581c0.494 1.489 0.957 3.224 1.247 4.765l0.15 0.687c0.597 3.269 0.625 6.696 0.574 10.061l-0.946 0.995c-1.562-2.351 0.566-6.392-0.994-8.745l-6e-3 -2.755-0.747-0.185-3e-3 0.69-0.064 0.845c-0.106 1.52-0.061 1.541 0.441 2.905 0.228 0.618 0.148 1.2-0.127 1.755-2.296-0.916-4.268-2.167-6.43-3.35-4.324-2.366-8.237-6.149-11.125-10.131-1.754-2.419-6.026-5.645-6.927-8.364-2.816-6.09-9.212-9.205-14.868-12.146-9.817-3.236-23.153-6.954-33.4-3.927l-0.665 0.183c-3.85 1.095-7.027 3.566-10.693 5.06l0.132-2.33c-1.009-0.455-1.836-0.858-2.694-1.568l-0.698-0.589-1.138 0.288-0.117-6e-3 -0.406-1.289z"
     fill="#EFAC86"
     id="path39" />
  <path
     transform="scale(4)"
     d="m626.7 377.59c-4.421 2.143-8.272 7.025-11.93 10.322-9.054 8.162-18.792 14.782-30.136 19.346 1.867-7.274 3.943-14.312 8.735-20.308 0.774-0.969 1.829-1.64 2.528-2.637 1.002-1.429 2.418-2.608 3.355-4.055 1.148-1.772 2.791-2.857 4-4.5 4.944-6.719 11.835-12.056 16.604-19.052l2.401-3.453 2.164-3.514c2.596-5.029 6.053-10.597 7.794-15.925l3.311-11.181c1.386 5.198 0.491 10.355-0.175 15.608-1.725 13.601-5.189 26.138-8.651 39.349z"
     fill="#ED9567"
     id="path40" />
  <path
     transform="scale(4)"
     d="m628.56 282-1.312-3.031c-1.966-4.013-7.046-7.665-10.726-10.068-5.93-3.872-12.856-6.43-20.024-5.927-15.679 1.1-43.307 22.56-57.872 16.792-1.403-0.556-2.631-1.357-3.209-2.821-0.83-2.101 0.03-5.028 1.042-6.944 2.543-4.817 8.453-6.816 13.333-8.373l24.424-6.92c6.343-1.683 12.556-3.992 19.208-3.751 4.645 0.169 9.319 1.824 13.405 3.985 7.97 4.213 13.54 10.24 18.736 17.479 1.567 3.118 3.401 6.261 3.591 9.819l-0.596-0.24z"
     fill="#051221"
     id="path41" />
  <path
     transform="scale(4)"
     d="m552.6 298.95-0.032 0.287c-3.459 3.721-6.321 7.914-9.791 11.586-4.539 4.804-10.614 8.836-16.489 11.853l-0.548 0.276v6.048l-0.745 0.745-0.745-0.495c-0.014-3.144-0.494-7.168 0.108-10.204l0.392-1.796c0.132-0.694 0.257-1.307 0.482-1.982l2.766-7.266c0.692-1.667 1.313-3.192 2.357-4.693 3.068-4.413 6.869-9.623 11.151-12.883 4.647-3.538 11.527-4.868 16.993-6.711l22.496-7.278c3.048-0.821 5.665-0.926 8.795-0.912 4.187 0.55 7.822 1.565 11.764 3.08 4.543 2.067 12.044 6.222 14.802 10.453l-0.454 0.44c-1.914 2.044-3.007 5.131-5.583 6.525l-5.074-0.172-0.489-0.601 0.915-0.813-0.125-0.44c-0.094-0.48-0.09-1.044-0.306-1.497-0.681-1.426-1.497-1.308-2.825-1.637l-0.42-0.108c-0.643 0.51-0.953 0.733-1.75 1l-0.37-1.193c-1.097-0.775-2.13-1.896-3.125-2.812 0.869-0.411 0.539-0.345 1.414-0.448l0.576-0.052-0.748-0.748c-0.404-0.22-0.873-0.299-1.291-0.493l-0.451-0.215-1.388 0.706-0.438 0.963-0.926 0.074c-4e-3 0.726-0.051 0.316 0.242 1.213-1.567 1.528-2.624 3.092-4.827 3.497-0.818-0.66-1.434-1.473-2.109-2.274l1.208-1.973c-1.923-1.39-8.692-0.566-11.267-0.171-9.897 1.518-16.283 5.225-24.145 11.121z"
     fill="#EFAC86"
     id="path42" />
  <path
     transform="scale(4)"
     d="m592.35 284.57c4.804 0.682 8.693 1.889 13.007 4.178 1.523 0.808 3.018 2.133 4.693 2.5-0.765 1.634-2.777 2.447-4.377 3.187l-0.125-0.44c-0.094-0.48-0.09-1.044-0.306-1.497-0.681-1.426-1.497-1.308-2.825-1.637l-0.42-0.108c-0.643 0.51-0.953 0.733-1.75 1l-0.37-1.193c-1.097-0.775-2.13-1.896-3.125-2.812 0.869-0.411 0.539-0.345 1.414-0.448l0.576-0.052-0.748-0.748c-0.404-0.22-0.873-0.299-1.291-0.493l-0.451-0.215-1.388 0.706-0.609-0.117c-1.18-0.325-1.272-0.808-1.905-1.811z"
     fill="#030A13"
     id="path43" />
  <defs
     id="defs44">
    <linearGradient
       id="b"
       x1="578.42"
       x2="579.56"
       y1="285.23"
       y2="289.69"
       gradientUnits="userSpaceOnUse">
      <stop
         offset="0"
         id="stop43" />
      <stop
         stop-color="#03141F"
         offset="1"
         id="stop44" />
    </linearGradient>
  </defs>
  <path
     transform="scale(4)"
     d="m552.6 298.95c0.852-1.873 2.057-3.376 3.525-4.818 9.082-8.92 24.376-9.685 36.223-9.56 0.633 1.003 0.725 1.486 1.905 1.811l0.609 0.117-0.438 0.963-0.926 0.074c-4e-3 0.726-0.051 0.316 0.242 1.213-1.567 1.528-2.624 3.092-4.827 3.497-0.818-0.66-1.434-1.473-2.109-2.274l1.208-1.973c-1.923-1.39-8.692-0.566-11.267-0.171-9.897 1.518-16.283 5.225-24.145 11.121z"
     fill="url(#b)"
     id="path44" />
  <path
     transform="scale(4)"
     d="m406.64 259.79c7.605-5.848 15.178-10.855 25.284-9.58 6.955 0.877 13.913 3.611 20.643 5.542 9.39 2.695 20.466 4.701 29.115 9.383 1.753 0.949 3.188 2.263 4.371 3.862 1.712 2.314 2.173 5.063 1.765 7.858-1.097 1.912-2.344 2.962-4.525 3.48-4.739 1.125-10.788-0.419-15.294-1.962-7.61-2.604-15.119-5.823-22.517-8.989-3.678-1.573-7.312-3.519-11.101-4.794-9.579-3.223-17.951-2.184-26.907 2.249-4.578 2.492-9.363 5.17-13.337 8.576 0.215-4.481 9.064-12.378 12.503-15.625z"
     fill="#051221"
     id="path45" />
  <path
     transform="scale(4)"
     d="m594.87 286.5 1.388-0.706 0.451 0.215c0.418 0.194 0.887 0.273 1.291 0.493l0.748 0.748-0.576 0.052c-0.875 0.103-0.545 0.037-1.414 0.448 0.995 0.916 2.028 2.037 3.125 2.812l0.37 1.193c0.797-0.267 1.107-0.49 1.75-1l0.42 0.108c1.328 0.329 2.144 0.211 2.825 1.637 0.216 0.453 0.212 1.017 0.306 1.497l0.125 0.44-0.915 0.813 0.489 0.601 5.074 0.172c2.576-1.394 3.669-4.481 5.583-6.525l0.454-0.44c0.06 2.845-2.171 5.297-2.611 8.228l0.617 0.508c3.383-0.974 5.355-2.718 7.877-5.078-0.841 2.858-1.575 4.942-3.736 7.034 1.001 0.225 1.287-5e-3 2.242-0.304l0.345 0.554c-1.899 2.918-5.363 6.29-5.985 9.631-0.606 3.253-2.694 3.936-2.366 7.619l-0.994-1.119c-1.491 0.174-1.816 1.02-2.789 2.119l0.423 0.916 0.866 2.133-0.691 0.451c-0.746-0.48-1.182-0.823-1.809-1.479-0.95 0.716-1.327 1.128-1.787 2.229l1.467 2-0.18 0.707-1.5-1.414c-0.493 0.444-0.836 0.808-1.25 1.341l-0.75-1.089-0.726 0.455c0.356 1.613 2.129 2.1 1.726 3.544-0.905-0.549-1.685-1.163-2.5-1.837h-1.577c-0.207 0.954-0.103 1.193 0.167 2.1l-1.84-1.255-0.863 0.494c0.267 0.862 0.602 1.289 1.206 1.954l-0.593 0.407c-1.27-0.379-2.48-0.634-3.5-1.53l-0.802 0.623c-0.079 1.426-0.111 2.849-0.406 4.25-1.202-0.177-2.268-1.513-2.996-2.5l-0.543-0.859-1.565 0.056c-2.406 0.729-4.403 0.949-6.188 2.775-0.417-0.38-0.751-0.877-1.25-1.14-0.691-0.364-3.788 0.28-4.813 0.312-2.66 0.085-5.665-0.126-8.283-0.622-4.263-0.807-8.548-2.311-12.688-3.595-4.622-1.434-8.87-2.576-13.094-4.995 2.603-5.25 6.449-10.235 10.085-14.806 5.068-6.819 12.507-10.339 20.434-12.738 2.01-0.608 4.18-0.776 6.109-1.571-0.245-0.851-0.078-0.502-0.618-1.311l-0.411-0.595 0.779-0.582 3.016 1.592 0.484 0.298 4.309-2.996c0.675 0.801 1.291 1.614 2.109 2.274 2.203-0.405 3.26-1.969 4.827-3.497-0.293-0.897-0.246-0.487-0.242-1.213l0.926-0.074 0.438-0.963z"
     fill="#051221"
     id="path46" />
  <path
     transform="scale(4)"
     d="m577.22 307.25 1.775-0.254c1.582 0 2.102 0.235 3.21 1.322 0.261 1.936 0.078 1.9-0.965 3.432l-0.63 0.26c-1.566 0.43-1.982 0.02-3.365-0.688-0.718-1.22-1.122-1.845-1.14-3.306l1.115-0.766z"
     fill="#FEFEFD"
     id="path47" />
  <path
     transform="scale(4)"
     d="m583.58 312.44c0.581-1.45 0.952-3.09 2.168-4.081l1.398 0.396c0.491 1.623 0.387 3.247 0.377 4.923l-0.354-0.149c-0.499 2.946-1.495 5.572-3.296 7.97-0.078-2.511-0.068-4.923-1.515-7.001l1.222-2.058z"
     fill="#AA2B2F"
     id="path48"
     style="fill:#006280;fill-opacity:1" />
  <path
     transform="scale(4)"
     d="m594.87 286.5 1.388-0.706 0.451 0.215c0.418 0.194 0.887 0.273 1.291 0.493l0.748 0.748-0.576 0.052c-0.875 0.103-0.545 0.037-1.414 0.448 0.995 0.916 2.028 2.037 3.125 2.812-0.633 1.621-0.971 2.162-2.38 3.183l-0.42-0.108-0.577-0.139-0.611-0.158c-0.765-0.154-1.158-7e-3 -1.895 0.158-0.935 0.209-1.066 0.307-1.994 0l-0.503-0.757c-0.936-0.087-1.755-0.039-2.582-0.494 2.203-0.405 3.26-1.969 4.827-3.497-0.293-0.897-0.246-0.487-0.242-1.213l0.926-0.074 0.438-0.963z"
     fill="#000104"
     id="path49" />
  <path
     transform="scale(4)"
     d="m563.63 312.85c0.639-0.99 0.799-1.139 2.012-1.455 1.015-0.264 2.082-0.11 3.111-4e-3v0.66l-1.931 1.864c0.023 1.538 1.463 3.262 2.528 4.294 2.057 1.994 3.98 2.44 6.78 2.257 1.219-0.079 2.817-1.169 3.63-2.059 1.041-1.14 1.844-2.578 2.603-3.915 1.447 2.078 1.437 4.49 1.515 7.001-1.614 1.595-3.185 2.93-5.436 3.503-3.123 0.794-6.602 0.089-9.265-1.66-3.849-2.527-4.587-6.277-5.547-10.486z"
     fill="#CD775C"
     id="path50"
     style="fill:#008080" />
  <path
     transform="scale(4)"
     d="m588.85 313.92c0.275-3.644 0.025-6.499-1.38-9.917 3.535 0.688 12.724 1.672 14.937 4.549 0.681 0.885 0.732 1.527 0.513 2.603-1.107 5.451-7.597 11.398-12.19 14.113l-3.229 1.81v0.117c-4.1 1.532-8.056 2.748-12.503 2.736-4.937-0.012-9.812-1.679-14.504-3.03l-15.673-4.151c0.15-0.847 1.495-2.131 2.079-2.84 2.346-2.847 4.66-5.676 7.275-8.285l7.569-5.689c-0.532 2.885-0.898 5.341-0.651 8.288l0.013 0.182 0.595-0.85 0.297 0.19 1.627-0.899c0.96 4.209 1.698 7.959 5.547 10.486 2.663 1.749 6.142 2.454 9.265 1.66 2.251-0.573 3.822-1.908 5.436-3.503 1.801-2.398 2.797-5.024 3.296-7.97l0.354 0.149 0.739-0.905 0.588 1.156z"
     fill="#FEFEFD"
     id="path51" />
  <path
     transform="scale(4)"
     d="m587.52 313.67 0.739-0.905 0.588 1.156c-0.942 4.356-2.765 8.443-6.602 11.006-3.086 2.062-7.15 2.051-10.673 1.32-3.315-0.687-6.233-2.942-7.96-5.827-1.143-1.908-1.866-3.897-2.509-6.013l0.595-0.85 0.297 0.19 1.627-0.899c0.96 4.209 1.698 7.959 5.547 10.486 2.663 1.749 6.142 2.454 9.265 1.66 2.251-0.573 3.822-1.908 5.436-3.503 1.801-2.398 2.797-5.024 3.296-7.97l0.354 0.149z"
     fill="#000104"
     id="path52" />
  <path
     transform="scale(4)"
     d="m493.35 460.47c-3.268-1.922-6.648-4.287-9.347-6.957-3.964-3.922-6.447-8.422-11.772-10.748l-0.594-0.252c3.475-1.982 7.035-3.996 10.173-6.492 5.937-4.721 11.081-12.021 18.895-13.556 4.405-0.865 7.727 1.669 11.09 4.09l4.982-1.795 1.094-0.542c3.244-1.542 5.594-1.693 9.013-0.507 6.812 2.362 12.296 9.293 17.93 13.614 2.837 2.177 6.489 3.751 9.883 4.82l-9.493 8.122c-4.863 5.438-11.506 9.684-18.149 12.596-9.027 2.767-15.958 2.855-25.264 0.966-2.952-0.914-5.652-2.031-8.441-3.359z"
     fill="#051221"
     id="path53" />
  <path
     transform="scale(4)"
     d="m535.03 443.31 12.923 2.637c-2.284 1.683-4.902 3.382-6.909 5.377-4.102 2.699-8.928 5.551-13.68 6.909 0.465-1.347 0.805-2.474 1.972-3.382l1.432-1.122c3.042-2.55 3.873-6.721 4.262-10.419z"
     fill="#531826"
     id="path54"
     style="fill:#8e1826;fill-opacity:1" />
  <path
     transform="scale(4)"
     d="m529.25 429.16c4.525 3.17 8.645 6.896 13.297 9.872 2.566 1.642 5.394 2.833 8.101 4.22l-0.398 0.654c-7.112-2.271-14.564-6.712-21.938-7.708-2.673-0.361-7.196 1.075-9.038-0.775 2.55-2.738 6.496-4.995 9.976-6.263z"
     fill="#531826"
     id="path55"
     style="fill:#8e1826;fill-opacity:1" />
  <path
     transform="scale(4)"
     d="m516.77 424.76 1.094-0.542 1.787-0.042 0.589-0.039c2.419 0.142 6.91 3.629 9.006 5.019-3.48 1.268-7.426 3.525-9.976 6.263-3.902 2.02-5.136 2.143-9.305 0.983l0.621-2.073c4.041-1.687 8.381-5.472 10.146-9.543-3.195 1.686-6.727 5.487-10.486 5.156l-0.091-0.694 2.008-1.704c1.558-0.744 3.604-1.362 4.607-2.784z"
     fill="#AA2B2F"
     id="path56"
     style="fill:#c52b2f;fill-opacity:1" />
  <path
     transform="scale(4)"
     d="m508.91 436.12c-3.433-0.067-6.985-0.293-10.389 0.194l-0.771 0.121c-7.392 1.056-14.464 6.579-21.75 6.469l-0.064-0.437c2.055-0.985 4.345-1.482 6.33-2.616 5.716-3.265 10.822-8.755 15.777-13.076 0.39 1.369 0.728 2.711 1.394 3.979 3.197 1.696 6.571 3.2 9.473 5.366z"
     fill="#531826"
     id="path57"
     style="fill:#8e1826;fill-opacity:1" />
  <path
     transform="scale(4)"
     d="m500.82 424.92c2.603-0.812 4.601-1.308 7.11 0.199l3.018 2.123 1.223 0.301-2.008 1.704 0.091 0.694c3.759 0.331 7.291-3.47 10.486-5.156-1.765 4.071-6.105 7.856-10.146 9.543l-0.621 2.073-1.059-0.288c-2.902-2.166-6.276-3.67-9.473-5.366-0.666-1.268-1.004-2.61-1.394-3.979l2.773-1.848z"
     fill="#8B222B"
     id="path58"
     style="fill:#aa222b;fill-opacity:1" />
  <path
     transform="scale(4)"
     d="m500.82 424.92c2.603-0.812 4.601-1.308 7.11 0.199l3.018 2.123c-2.015 1.12-4.682 2.101-7.009 1.433-1.591-0.457-2.38-2.413-3.119-3.755z"
     fill="#AA2B2F"
     id="path59" />
  <defs
     id="defs60">
    <linearGradient
       id="a"
       x1="518.37"
       x2="488.6"
       y1="433"
       y2="456.24"
       gradientUnits="userSpaceOnUse">
      <stop
         stop-color="#9C1221"
         offset="0"
         id="stop59"
         style="stop-color:#cf1221;stop-opacity:1;" />
      <stop
         stop-color="#55192A"
         offset="1"
         id="stop60" />
    </linearGradient>
  </defs>
  <path
     transform="scale(4)"
     d="m496.63 441.87c4.481-1.095 8.975-0.916 13.55-0.912 5.146 4e-3 10.286-0.037 15.418 0.392l-0.456 2.631c-2.146 0.075-4.264 0.086-6.374 0.528l-8.426-0.093c-0.376-0.259-3.107-0.344-3.705-0.406-4.792-0.405-7.91-0.082-12.047 2.67-1.501 1.64-3.436 1.6-5.559 2.122l7.98 5.854c2.008 1.354 4.29 2.486 6.096 4.093l-0.093 0.761c0.498 0.542 1.434 0.832 2.087 1.133-4.082-0.408-8.09-1.516-11.725-3.421l-0.705-0.46-1.168-0.778c-4.215-2.619-7.363-6.088-10.797-9.627l15.924-4.487z"
     fill="url(#a)"
     id="path60" />
  <path
     transform="scale(4)"
     d="m525.6 441.35 9.432 1.96c-0.389 3.698-1.22 7.869-4.262 10.419l-1.432 1.122c-1.167 0.908-1.507 2.035-1.972 3.382-4.642 1.432-9.006 2.509-13.894 2.678-2.784 0.096-5.578-0.263-8.369-0.268-0.653-0.301-1.589-0.591-2.087-1.133l0.093-0.761c-1.806-1.607-4.088-2.739-6.096-4.093l-7.98-5.854c2.123-0.522 4.058-0.482 5.559-2.122 4.137-2.752 7.255-3.075 12.047-2.67 0.598 0.062 3.329 0.147 3.705 0.406l8.426 0.093c2.11-0.442 4.228-0.453 6.374-0.528l0.456-2.631z"
     fill="#8B222B"
     id="path61"
     style="fill:#aa222b;fill-opacity:1" />
  <path
     transform="scale(4)"
     d="m525.14 443.98c2.114 0.499 3.713 0.813 5.4 2.268-0.301 1.686-0.668 2.548-2.111 3.55-2.994 2.079-6.534 2.618-10.077 2.937l-1.214-0.839c-0.481-1.627-0.889-3.158-1.1-4.844l2.728-2.544c2.11-0.442 4.228-0.453 6.374-0.528z"
     fill="#ED9567"
     id="path62"
     style="fill:#ec5624;fill-opacity:1" />
  <path
     transform="scale(4)"
     d="m506.63 444.01c0.598 0.062 3.329 0.147 3.705 0.406l8.426 0.093-2.728 2.544c0.211 1.686 0.619 3.217 1.1 4.844l1.214 0.839c-1.748 0.815-7.11 0.191-9.137-0.087-2.743-0.376-5.221-1.118-6.861-3.516-0.793-1.159-1.263-1.831-0.949-3.208 1.729-1.122 3.225-1.489 5.23-1.915z"
     fill="#EC6424"
     id="path63"
     style="fill:#ec4224;fill-opacity:1" />
  <path
     transform="scale(4)"
     d="m412.64 289.58c3.666-1.494 6.843-3.965 10.693-5.06l0.665-0.183c10.247-3.027 23.583 0.691 33.4 3.927 5.656 2.941 12.052 6.056 14.868 12.146-9.674-8.477-20.522-12.613-33.329-13.449-0.491 1.213-0.79 2.473-1.987 3.155 0.719 1.313 0.868 2.337 2.396 2.752 2.563 0.696 5.356 0.644 7.96 1.25 8.79 2.045 16.879 7.034 23.085 13.448l-2.475 2.589 10.487 12.695-14.696 3.9c-7.09 2.142-14.44 4.52-21.959 3.577-4.603-0.578-9.077-2.589-13.024-4.952l-3.512-2.182-0.342 0.69 2.353 1.546c2.066 1.377 4.037 2.445 6.338 3.383 1.69 0.69 4.225 1.018 5.671 2.016-1.549 0.206-2.21 0.15-3.734-0.328l-1.719-0.359c-0.825-0.138-1.493-0.378-2.281-0.641l-0.703-0.219c-2.482-0.827-4.976-2.131-7.258-3.387l-0.433 1.112c-0.795 0.851-1.603 1.546-2.506 2.273-0.042-1.634 1.568-1.514 1.708-3.029-0.561-0.393-1.422-1.163-2.058-1.355-1.953-0.592-1.92 2.167-3.682 2.355 0.582-1.304 1.261-2.558 1.385-4l-2.166-1.5c-1.462-0.59-1.904-0.119-3.204 0.54-0.169-0.597-0.568-1.172-0.509-1.79 0.083-0.863 0.818-0.804 0.676-2.153-0.734 0.117-1.368 0.26-2.078 0.497l-0.672 0.236-0.413-0.58 0.816-3.5c-0.613-2.392-1.846-3.238-2.936-5.25-0.49-0.904-0.483-2.189-0.873-3.18-0.822-2.089-3.403-4.414-4.899-6.121l-3.13-2.949 0.185-0.573c0.394 0.149 3.078 1.191 3.25 1.096 0.845-0.463 0.491-1.109 1.75-1.546 0.863 0.91 1.637 1.812 2.75 2.424 1.445-1.567 2.096-3.481 2.001-5.605-0.046-1.032-0.119-1.732 0.309-2.701l0.359-0.749c-0.679-1.423-0.727-2.914-0.925-4.465l1.138-0.288 0.698 0.589c0.858 0.71 1.685 1.113 2.694 1.568l-0.132 2.33z"
     fill="#051221"
     id="path64" />
  <path
     transform="scale(4)"
     d="m428.92 288.5c-1.201 0.051-1.701 0.011-2.772 0.614-0.324 1.448-0.112 2.272 0.307 3.645l0.154 0.489c-1.45 0.381-2.616 0.731-4.135 0.5-0.702-1.269-0.85-2.592-1.085-4 1.283-1.526 6.261-2.259 8.195-2.728l-0.664 1.48z"
     fill="#F7E4C4"
     id="path65" />
  <path
     transform="scale(4)"
     d="m408.24 285.38 1.138-0.288 0.698 0.589c0.858 0.71 1.685 1.113 2.694 1.568l-0.132 2.33c0.776 2.322 2.109 1.778 3.519 3.276 0.561 0.596 1.092 2.118 1.492 2.894l-0.403 0.492-0.41-0.335c-1.007-0.81-1.896-1.438-3.055-2.011-1.194-0.591-1.484-1.111-2.234-2.152-0.612-0.848-1.505-1.358-2.382-1.898-0.679-1.423-0.727-2.914-0.925-4.465z"
     fill="#F9C59B"
     id="path66" />
  <path
     transform="scale(4)"
     d="m443.34 307.25c0.963-0.084 1.482 7e-3 2.408 0.212 1.469 1.281 1.548 1.521 2.089 3.288-0.434 1.56-0.481 1.546-1.801 2.5-1.238 0.344-1.833 0.15-3.038-0.244-1.188-1.169-1.289-1.386-1.698-3.006 0.494-1.794 0.48-1.726 2.04-2.75z"
     fill="#FEFEFD"
     id="path67" />
  <path
     transform="scale(4)"
     d="m429.59 287.02 9.351-0.061c-0.491 1.213-0.79 2.473-1.987 3.155l-2.815 2.634c-1.512 0.291-3.18 1.008-4.473 0.138l-0.74-4.386 0.664-1.48z"
     fill="#FEFEFD"
     id="path68" />
  <path
     transform="scale(4)"
     d="m432.29 314.22c0.168-2.348 0.345-4.04 1.287-6.222 0.484-1.122 0.947-2.268 1.186-3.466 0.194-0.971 0.673-1.717 1.538-2.224l0.446-0.214 0.688 0.404c-0.514 1.818-1.423 3.461-1.934 5.25-0.872 3.053 0.944 6.009 2.309 8.6 1.326 1.527 2.638 3.165 4.456 4.123 1.943 1.024 3.652 1.184 5.731 0.407 5.19-1.941 7.093-7.573 9.17-12.198 1.252 2.015 1.511 3.809 1.804 6.113-1.792 4.237-3.939 8.38-8.474 10.212-2.814 1.138-6.68 1.153-9.46-0.045-3.256-1.402-5.955-4.298-7.411-7.489l-1.336-3.251z"
     fill="#CD775C"
     id="path69"
     style="fill:#008000" />
  <path
     transform="scale(4)"
     d="m425.21 323.19c-0.071-0.425-2.987-3.151-3.456-3.724-1.507-1.841-2.498-3.941-3.519-6.07 0.23-0.934 0.129-0.752 0.491-1.513 2.717-5.72 7.981-8.138 13.611-10.211l-0.436 4.327-0.837 5.054 0.676 0.218c0.105 1.139 0.15 1.87 0.549 2.948l1.336 3.251c1.456 3.191 4.155 6.087 7.411 7.489 2.78 1.198 6.646 1.183 9.46 0.045 4.535-1.832 6.682-5.975 8.474-10.212l0.268-3.045 0.758-0.402 0.745 1.402 0.828-2.404 2e-3 -3.096 0.675-0.317c2.174 0.774 3.801 1.912 5.668 3.222l10.487 12.695-14.696 3.9c-7.09 2.142-14.44 4.52-21.959 3.577-4.603-0.578-9.077-2.589-13.024-4.952l-3.512-2.182z"
     fill="#FEFEFD"
     id="path70" />
  <path
     transform="scale(4)"
     d="m431.07 311.06 0.676 0.218c0.105 1.139 0.15 1.87 0.549 2.948l1.336 3.251c1.456 3.191 4.155 6.087 7.411 7.489 2.78 1.198 6.646 1.183 9.46 0.045 4.535-1.832 6.682-5.975 8.474-10.212l0.268-3.045 0.758-0.402 0.745 1.402 0.828-2.404-0.072 3.394c-0.303 3.718-3.635 8.223-6.509 10.454-3.46 2.687-7.926 3.343-12.173 2.763-3.66-0.501-7.098-3.275-9.187-6.23-1.827-2.585-3.163-6.517-2.564-9.671z"
     fill="#000104"
     id="path71" />
  <path
     transform="scale(4)"
     d="m392.47 276.59 0.062-1.644c0.566-8.404 2.278-16.981 4.097-25.206 2.61-11.798 5.64-24.01 12.489-34.142 3.926-5.807 9.292-10.751 14.576-15.3 35.324-30.412 82.659-37.209 127.76-33.9 2.071 1.636 5.053 1.31 7.587 1.246l-0.658 0.287c-1.667 0.673-3.838 0.598-5.627 0.82l-9.25 1.568c-9.503 1.842-18.983 4.329-28.157 7.421-18.402 6.205-35.997 16.423-51.249 28.323-11.191 8.732-21.395 18.592-31.74 28.285l-25.593 24.388-0.123 1.053c-3.439 3.247-12.288 11.144-12.503 15.625 3.974-3.406 8.759-6.084 13.337-8.576-0.21 5.941-0.361 11.309 0.249 17.244l0.406 1.289 0.117 6e-3c0.198 1.551 0.246 3.042 0.925 4.465l-0.359 0.749c-0.428 0.969-0.355 1.669-0.309 2.701 0.095 2.124-0.556 4.038-2.001 5.605-1.113-0.612-1.887-1.514-2.75-2.424-1.259 0.437-0.905 1.083-1.75 1.546-0.172 0.095-2.856-0.947-3.25-1.096l-0.185 0.573 3.13 2.949-1.109 10.801c-0.471 7.107-0.321 14.963 0.659 22l0.668 6.252 1.016 6c3.748 16.925 17.665 28.492 26.321 42.753 3.448 5.682 5.793 11.357 8.166 17.538-3.052-0.801-6.383-3.024-9.093-4.63-6.451-3.824-12.782-7.853-18.264-12.992l11.214 58.74c-4.82-6.089-9.599-13.994-12.381-21.214-2.528-6.565-3.991-13.959-5.664-20.794l-6.943-33.489c-2.613-13.639-4.983-26.946-5.65-40.87-0.858-17.919 0.18-36.108 1.833-53.95z"
     fill="#CD775C"
     id="path72" />
  <g
     transform="matrix(10.704331,0,0,10.704331,1000.307,2062.2129)"
     fill-rule="evenodd"
     stroke-linejoin="round"
     id="g2">
    <path
       d="m 97.898,133.83 c -3.9152,6e-5 -7.5902,-1.0327 -10.769,-2.8391 -0.81787,0.12523 -1.6403,0.21526 -2.4655,0.26717 -0.0291,0.002 -0.0568,0.0138 -0.0858,0.0155 v -5.2e-4 c -4.2808,0.25589 -8.6215,-0.47069 -12.67,-2.2009 l -2.0665,-0.88263 0.26975,-2.2345 c 0.45049,-3.7493 1.651,-7.3681 3.5352,-10.641 l 0.002,-0.004 c 7.3e-4,-10e-4 0.001,-0.003 0.002,-0.004 0.71592,-1.2378 1.5232,-2.412 2.4107,-3.5166 0.0716,-7.9262 4.371,-14.847 10.752,-18.616 1.8722,-4.8013 5.0564,-9.0592 9.2847,-12.23 l 1.7989,-1.3498 1.8004,1.3498 c 2.9943,2.2439 5.5002,5.0702 7.3866,8.3008 l 0.0295,0.02894 0.0315,0.05478 0.002,0.0021 c 0.71536,1.2392 1.3299,2.5261 1.8438,3.8473 6.3818,3.7726 10.68,10.698 10.746,18.629 3.2263,4.0201 5.3268,8.9044 5.9598,14.155 l 0.26923,2.2345 -2.0681,0.88263 c -3.4765,1.4858 -7.2177,2.2521 -10.998,2.2521 h -0.002 c -1.4296,-7.3e-4 -2.8496,-0.11249 -4.2494,-0.32815 -3.174,1.7993 -6.8418,2.8282 -10.749,2.8283 z m 0,-6.0002 c 0.45652,-1e-5 0.90827,-0.0201 1.355,-0.0579 -0.45855,-0.25624 -0.91076,-0.52517 -1.3555,-0.8077 -0.30468,0.19263 -0.61196,0.38175 -0.76771,0.47251 l -0.38777,0.20962 c -0.0741,0.0421 -0.14936,0.0816 -0.22376,0.12299 0.45477,0.0392 0.91476,0.0605 1.3798,0.0605 z m 17.424,-2.6763 c 1.2812,-0.18032 2.5485,-0.48758 3.8008,-0.86868 -0.29457,-1.2466 -0.6885,-2.459 -1.1762,-3.6256 -0.69651,1.6073 -1.5805,3.1147 -2.6246,4.4943 z m -34.953,-0.14056 c -1.03,-1.3839 -1.9,-2.8936 -2.5828,-4.502 -0.47996,1.1941 -0.84551,2.439 -1.1395,3.7078 1.2247,0.36796 2.4702,0.63287 3.7223,0.79427 z m 27.072,-0.37569 c 3.3272,-2.5132 5.6296,-6.3096 6.1738,-10.656 -1.1139,-1.1727 -2.3659,-2.2242 -3.7481,-3.1259 -1.2678,4.5425 -3.6638,8.6939 -6.9634,12.063 1.4462,0.73941 2.968,1.3154 4.5377,1.7188 z m -19.126,-0.0326 c 1.5751,-0.37797 3.1144,-0.93689 4.5889,-1.6841 -3.3012,-3.3686 -5.6992,-7.5198 -6.9686,-12.062 -1.3636,0.88284 -2.6237,1.9127 -3.7579,3.0706 0.52993,4.3497 2.8202,8.1524 6.1376,10.676 z m 9.5891,-5.1919 c 3.204,-2.9882 5.4423,-6.8661 6.428,-11.135 -4.1917,-1.2806 -8.6706,-1.2789 -12.862,0.004 0.98779,4.2681 3.2284,8.1444 6.4337,11.131 z m 14.354,-14.122 c -0.3876,-0.83016 -0.84501,-1.6211 -1.3648,-2.3652 0.008,0.52702 0.001,1.0547 -0.0212,1.5828 0.2992,0.15736 0.59647,0.31812 0.74343,0.40168 l 0.37588,0.21999 c 0.0898,0.0524 0.17751,0.10742 0.26665,0.16071 z m -28.711,-0.0124 c 0.45277,-0.27015 0.91315,-0.52824 1.3818,-0.77308 -0.0167,-0.39044 -0.0284,-0.78134 -0.0289,-1.172 v -0.003 c 6e-5,-0.13508 0.004,-0.26979 0.006,-0.40462 -0.51732,0.74054 -0.97263,1.5275 -1.3591,2.3533 z m 7.384,-3.0794 c 4.5696,-1.1754 9.3659,-1.1762 13.936,-0.004 -0.0838,-1.624 -0.34719,-3.2318 -0.78445,-4.7945 -1.8994,-0.80513 -3.9888,-1.251 -6.1831,-1.2511 -2.1743,-1e-5 -4.2455,0.43716 -6.1309,1.2283 -0.46122,1.5544 -0.74726,3.1687 -0.83767,4.8209 z m 9.649,-11.885 c -0.79463,-1.0133 -1.691,-1.9523 -2.6432,-2.8417 -0.92988,0.87548 -1.7809,1.8199 -2.5461,2.822 0.82352,-0.09433 1.6602,-0.1447 2.5089,-0.14469 0.90745,9e-6 1.802,0.05666 2.6804,0.16433 z"
       color="#000000"
       style="-inkscape-stroke:none"
       id="path1" />
    <path
       d="m 97.897,132.83 c -3.2975,5e-5 -6.4148,-0.76581 -9.1855,-2.1275 2.1436,-0.45699 4.242,-1.168 6.2503,-2.1286 0.95327,0.16782 1.9341,0.2558 2.9352,0.2558 8.2857,-2.1e-4 15.181,-5.9965 16.58,-13.883 1.1433,1.3607 2.1141,2.8605 2.9001,4.4622 -2.9882,7.8484 -10.579,13.421 -19.48,13.421 z m -14.655,-7.6301 c -0.50266,-1.9e-4 -1.0061,-0.0191 -1.509,-0.0532 -2.9224,-3.5871 -4.6751,-8.1657 -4.6752,-13.157 7e-5,-7.208 3.6537,-13.557 9.2108,-17.299 -0.67988,2.0919 -1.1163,4.2723 -1.2878,6.4993 -2.4482,2.9243 -3.9233,6.6907 -3.9233,10.799 -3e-5,5.1644 2.3303,9.7878 5.995,12.878 -1.2574,0.22254 -2.5322,0.33277 -3.8106,0.33228 z m 18.704,-2.8003 c -0.76985,-0.44286 -1.5156,-0.93298 -2.2319,-1.4702 l -0.0155,-0.0119 c -0.37033,-0.27786 -0.73055,-0.56686 -1.0806,-0.86558 3.9152,-3.6692 6.4626,-8.5918 7.1117,-13.972 0.32898,-2.7306 0.16311,-5.4791 -0.47025,-8.1194 1.7436,0.91584 3.2953,2.1468 4.579,3.6179 0.10764,1.6528 0.0644,3.3203 -0.1359,4.9821 -0.72886,6.0411 -3.4952,11.597 -7.7566,15.839 z m 16.743,-11.825 c -1.4663,-1.6255 -3.1295,-3.0852 -4.963,-4.3424 -2.3541,-6.4623 -8.5556,-11.082 -15.828,-11.082 -2.0102,-9e-6 -3.9383,0.35372 -5.7263,1.001 0.6074,-1.6692 1.4211,-3.2586 2.4154,-4.7387 1.0783,-0.17191 2.1839,-0.26201 3.3109,-0.262 11.039,1.15e-4 20.064,8.57 20.791,19.424 z m -32.777,-6.5593 c -0.008,-0.22682 -0.0132,-0.45402 -0.0134,-0.68109 v -0.006 c 0.005,-8.4913 4.0069,-16.492 10.8,-21.586 l 1.1973,-0.89865 1.2015,0.89865 c 2.9144,2.184 5.3569,4.9343 7.1815,8.0858 v 0.0021 c 0.48543,0.84092 0.9224,1.7047 1.3121,2.5864 -1.7473,-0.86743 -3.6268,-1.5075 -5.6002,-1.8821 -1.0715,-1.5408 -2.3525,-2.9104 -3.7336,-4.1594 l -0.33589,-0.30489 -0.33383,0.30282 c -4.5868,4.1419 -7.4302,9.8928 -7.6708,16.109 -1.0169,0.30264 -2.021,0.66331 -3.0065,1.0842 -0.33624,0.14336 -0.66899,0.29314 -0.99839,0.44906 z m 24.893,1.5855 c 0.20043,0.10648 0.39979,0.21558 0.59654,0.32895 l 0.006,0.003 c 7.3511,4.25 12.279,11.716 13.294,20.146 l 0.17958,1.4862 -1.379,0.59119 c -3.3486,1.4319 -6.9517,2.1721 -10.593,2.1764 l -0.002,-0.001 c -0.97096,-6e-5 -1.9375,-0.0535 -2.8959,-0.15692 1.6248,-1.0795 3.1189,-2.3871 4.43,-3.9089 1.8702,-0.15753 3.6967,-0.5821 5.469,-1.1537 l 0.43199,-0.13844 -0.0953,-0.44052 c -1.2936,-6.0433 -4.8523,-11.381 -10.115,-14.698 0.24636,-1.032 0.43604,-2.0818 0.56435,-3.1458 0.044,-0.36288 0.0806,-0.72594 0.11029,-1.0892 z m -13.82,20.759 c -0.19243,0.12034 -0.38659,0.23844 -0.58315,0.35215 l -0.006,0.003 c -7.3561,4.2413 -16.286,4.776 -24.094,1.4395 l -1.3769,-0.58759 0.17752,-1.4898 c 0.43422,-3.616 1.5948,-7.1064 3.4118,-10.262 l 0.002,-0.001 c 0.48554,-0.84086 1.0151,-1.6512 1.5839,-2.4295 0.12241,1.9469 0.50787,3.8946 1.1702,5.7909 -0.79864,1.6984 -1.3442,3.4925 -1.7354,5.3131 l -0.0961,0.44334 0.42917,0.13769 c 5.8804,1.9014 12.283,1.4884 17.786,-1.4114 0.77053,0.72933 1.5849,1.4186 2.4422,2.0617 0.29228,0.21951 0.58837,0.43279 0.8881,0.64009 z m -10.118,-16.07 c 0.76845,-0.44528 1.5658,-0.84603 2.3892,-1.1978 l 0.018,-0.007 c 0.4258,-0.18178 0.8562,-0.34924 1.2899,-0.50299 1.22,5.2252 4.2094,9.8926 8.5445,13.145 2.2003,1.6502 4.6635,2.8808 7.2667,3.6524 -1.665,1.0521 -3.5069,1.7804 -5.4227,2.1566 -1.4852,-0.73318 -2.9076,-1.6044 -4.2467,-2.6088 -4.8673,-3.6518 -8.2961,-8.8256 -9.839,-14.637 z m 18.03,-7.0068 c 10e-4,0.88813 -0.0502,1.779 -0.15728,2.668 l -0.003,0.0194 c -0.0555,0.45964 -0.12564,0.9161 -0.20934,1.3686 -5.1352,-1.556 -10.672,-1.3009 -15.656,0.82722 -2.5293,1.0804 -4.8266,2.5983 -6.7965,4.467 -0.0787,-1.9679 0.21157,-3.9272 0.84364,-5.7745 1.3776,-0.91962 2.8432,-1.7159 4.3826,-2.3734 5.5962,-2.3893 11.791,-2.7718 17.596,-1.2022 z"
       color="#000000"
       fill="#ffffff"
       id="path2-4" />
  </g>
</svg>
