<?xml version="1.0" encoding="UTF-8" standalone="no"?>
<svg
   viewBox="0 0 71.999997 115.22082"
   version="1.1"
   id="svg4443"
   width="72"
   height="115.22083"
   xmlns:xlink="http://www.w3.org/1999/xlink"
   xmlns="http://www.w3.org/2000/svg"
   xmlns:svg="http://www.w3.org/2000/svg">
  <defs
     id="defs58">
    <path
       id="d"
       d="m 2.159,-0.864 c 0,0 2.375,-1.9 2.375,-4.534 C 4.534,-6.94 3.165,-9.5 0,-9.5 c -3.165,0 -4.534,2.561 -4.534,4.102 0,2.634 2.375,4.534 2.375,4.534 -2.638,-2.055 -7.341,-0.652 -7.341,3.455 0,2.056 1.68,4.318 4.318,4.318 3.165,0 4.534,-3.455 4.534,-3.455 0,0 0.402,3.938 -1.943,6.046 H 2.591 C 0.246,7.393 0.648,3.454 0.648,3.454 c 0,0 1.369,3.455 4.534,3.455 2.639,0 4.318,-2.263 4.318,-4.318 0,-4.107 -4.703,-5.51 -7.341,-3.455 z" />
    <path
       id="i"
       d="m 1.137,-0.455 c 0,0 1.25,-1 1.25,-2.386 C 2.387,-3.653 1.665,-5 0,-5 c -1.665,0 -2.386,1.348 -2.386,2.159 0,1.386 1.25,2.386 1.25,2.386 C -2.525,-1.536 -5,-0.798 -5,1.363 c 0,1.082 0.884,2.273 2.273,2.273 1.666,0 2.386,-1.818 2.386,-1.818 0,0 0.211,2.072 -1.023,3.182 H 1.363 C 0.129,3.891 0.341,1.818 0.341,1.818 c 0,0 0.721,1.818 2.387,1.818 C 4.117,3.636 5,2.445 5,1.363 5,-0.798 2.524,-1.536 1.137,-0.455 Z" />
    <g
       id="v"
       fill="none">
      <path
         d="M 3,17.75 H 6.5"
         id="path1" />
      <path
         d="M 12,17.75 H 8.5"
         id="path2" />
      <path
         d="m 4.5,17.75 3,-13.25 3,13.25"
         id="path3" />
      <path
         d="m 5.25,14.5 h 4.5"
         id="path4" />
    </g>
    <g
       id="ai"
       fill="none">
      <path
         d="m 73.75,108.5 h -4.5"
         id="path30" />
      <path
         d="M 76,105.25 H 72.5"
         id="path31" />
      <path
         d="m 67,105.25 h 3.5"
         id="path32" />
      <path
         d="m 74.5,105.25 -3,13.25 -3,-13.25"
         id="path33" />
    </g>
  </defs>
  <use
     x="1"
     y="-0.5"
     stroke="#000000"
     xlink:href="#v"
     id="use59"
     transform="translate(-3.4999999,-3.8895871)" />
  <use
     x="-1"
     y="0.5"
     stroke="#000000"
     xlink:href="#ai"
     id="use60"
     transform="translate(-3.4999999,-3.8895871)" />
  <use
     transform="translate(5.0000001,20.610413)"
     xlink:href="#i"
     id="use61" />
  <use
     transform="rotate(180,33.5,47.305206)"
     xlink:href="#i"
     id="use62" />
  <use
     transform="translate(36,57.610413)"
     xlink:href="#d"
     id="use63" />
</svg>
