<?xml version="1.0" encoding="UTF-8" standalone="no"?>
<!-- Created with Inkscape (http://www.inkscape.org/) -->

<svg
   width="43.755299mm"
   height="32.328781mm"
   viewBox="0 0 43.755298 32.328781"
   version="1.1"
   id="svg1"
   inkscape:version="1.3.2 (091e20e, 2023-11-25, custom)"
   sodipodi:docname="logo-mirco.svg"
   xmlns:inkscape="http://www.inkscape.org/namespaces/inkscape"
   xmlns:sodipodi="http://sodipodi.sourceforge.net/DTD/sodipodi-0.dtd"
   xmlns="http://www.w3.org/2000/svg"
   xmlns:svg="http://www.w3.org/2000/svg">
  <sodipodi:namedview
     id="namedview1"
     pagecolor="#ffffff"
     bordercolor="#000000"
     borderopacity="0.25"
     inkscape:showpageshadow="2"
     inkscape:pageopacity="0.0"
     inkscape:pagecheckerboard="0"
     inkscape:deskcolor="#d1d1d1"
     inkscape:document-units="mm"
     inkscape:zoom="3.9156336"
     inkscape:cx="72.657462"
     inkscape:cy="-4.8523437"
     inkscape:window-width="1920"
     inkscape:window-height="991"
     inkscape:window-x="-9"
     inkscape:window-y="-9"
     inkscape:window-maximized="1"
     inkscape:current-layer="layer1" />
  <defs
     id="defs1" />
  <g
     inkscape:label="Warstwa 1"
     inkscape:groupmode="layer"
     id="layer1"
     transform="translate(-38.67708,-103.91989)">
    <path
       id="path1-4"
       style="fill:#000000;stroke-width:0.383646"
       inkscape:transform-center-y="7.7306081"
       d="m -242.91556,-105.99684 c 2.52091,0.0202 -77.45602,16.582919 -82.52735,15.870047 3.088,4.085876 27.48709,82.030693 26.24414,79.837411 -1.24307,-2.193503 53.09771,58.798591 55.00586,63.536307 1.98501,-4.707631 57.29761,-64.819397 56.01953,-62.6461352 -1.2779,2.1729705 24.36458,-75.3643078 27.51954,-79.4063548 -5.08195,0.631488 -84.78264,-17.211495 -82.26172,-17.191275 z m 82.26172,17.191275 c 0.20644,-0.02565 0.33369,-0.07159 0.2832,-0.16069 -0.0505,-0.0892 -0.15489,-0.0037 -0.2832,0.16069 z m -83.53907,142.05249 c -0.0804,0.19081 -0.10414,0.323111 -0.002,0.32393 0.10216,8.2e-4 0.0793,-0.131953 0.002,-0.32393 z m -81.25,-143.373718 c -0.12545,-0.165994 -0.22738,-0.254075 -0.2793,-0.165792 -0.0519,0.08828 0.0733,0.136832 0.2793,0.165792 z m 81.39258,6.238852 c 1.91757,0 2.87695,1.415648 2.87695,4.249357 0,0.494251 -0.10088,0.941131 -0.30273,1.336532 -0.17662,0.362451 -1.0094,1.943422 -2.49805,4.74418 -4.94532,9.324879 -9.68884,19.045724 -14.23047,29.161405 -3.58283,7.940975 -6.54802,14.298431 -8.89453,19.076196 -2.62405,5.304966 -4.1749,9.143708 -4.6543,11.516115 -0.30277,1.318004 -1.03467,2.390047 -2.19531,3.213799 -1.16063,0.823753 -2.54926,1.2345076 -4.16406,1.2345076 -0.68124,0 -2.20639,-4.2339846 -4.57813,-12.7021596 -1.05971,-3.690412 -4.6045,-15.501155 -10.63476,-35.435966 -3.20437,-10.576983 -4.80664,-15.965671 -4.80664,-16.163371 0.22708,-1.878156 0.71767,-3.492701 1.47461,-4.843655 0.75693,-1.350954 1.64114,-2.025204 2.65039,-2.025204 2.09419,0 3.53228,3.260114 4.31445,9.784234 0.73171,6.359369 5.53853,22.719229 14.41992,49.07931 0.95879,-2.141757 1.99334,-4.332378 3.10352,-6.572985 5.02102,-10.247482 8.61527,-18.105799 10.78516,-23.575515 8.75524,-21.384616 14.53331,-32.07678 17.33398,-32.07678 z m 32.96484,2.175691 c 6.96383,0 12.55201,2.567802 16.76563,7.708017 4.23885,5.107266 6.35937,11.847004 6.35937,20.21633 0,9.193078 -3.02848,17.578385 -9.08398,25.156908 -6.03027,7.545573 -14.63311,13.066009 -25.81055,16.55872 -4.41546,1.383904 -7.40636,2.7840406 -8.9707,4.2008949 -2.06896,1.8452056 -3.784,2.7674385 -5.14648,2.7674385 -0.95879,0 -1.81729,-0.6768004 -2.57422,-2.0277545 -0.73171,-1.318004 -1.09766,-2.3719844 -1.09766,-3.1627869 0,-0.329501 0.25319,-1.184585 0.75781,-2.568489 0.52986,-1.482754 0.89581,-2.983615 1.09766,-4.499319 0.22708,-1.515705 0.41502,-4.233317 0.56641,-8.154379 0.12615,-3.888112 0.58111,-10.165458 1.36328,-18.831335 0.8074,-8.698826 1.46412,-14.859937 1.96875,-18.484448 0.45416,-3.16321 0.67968,-5.33832 0.67968,-6.524523 0,-1.285054 -0.56772,-2.124626 -1.70312,-2.520027 -2.06896,-0.659002 -3.10352,-1.795644 -3.10352,-3.410199 0,-1.219153 0.40549,-2.407432 1.21289,-3.560686 0.83263,-1.186203 1.71489,-1.777792 2.64844,-1.777792 l 5.29883,0.196399 c 2.47266,0 5.72667,-0.214409 9.76367,-0.64276 4.01177,-0.428351 7.01455,-0.640209 9.00781,-0.640209 z m -1.36132,7.412144 c -3.28006,0 -7.23034,0.395242 -11.84766,1.186045 -1.03448,0.197701 -2.0552,0.347511 -3.06445,0.446361 -3.00252,23.559322 -4.50391,40.182677 -4.50391,49.870007 0,2.141756 0.16418,3.756301 0.49219,4.843655 0.20185,0.23065 0.59155,0.344335 1.17187,0.344335 1.6148,0 5.84203,-1.382074 12.67969,-4.149882 6.83767,-2.767809 12.38827,-7.035367 16.65234,-12.801635 4.26408,-5.766268 6.39649,-12.322621 6.39649,-19.670494 0,-6.095768 -1.65369,-10.957466 -4.95899,-14.581977 -3.28006,-3.657461 -7.61809,-5.486415 -13.01757,-5.486415 z"
       transform="matrix(0.26458333,0,0,0.20260226,124.86085,125.39509)" />
  </g>
</svg>
