<?xml version="1.0" encoding="UTF-8"?>
<svg viewBox="0 0 486.78357 535.73529" xmlns="http://www.w3.org/2000/svg" xmlns:xlink="http://www.w3.org/1999/xlink">
 <defs>
  <clipPath id="g">
   <path transform="matrix(1.0766 0 0 1.0639 -355.88 452.85)" d="m-110.41-359.75a82.102 82.102 0 1 1 -164.2 0 82.102 82.102 0 1 1 164.2 0z"/>
  </clipPath>
  <clipPath id="a">
   <path d="m-110.41-359.75a82.102 82.102 0 1 1 -164.2 0 82.102 82.102 0 1 1 164.2 0z"/>
  </clipPath>
  <filter id="f" x="-.21103" y="-.21244" width="1.422" height="1.4249">
   <feGaussianBlur stdDeviation="14.81578"/>
  </filter>
  <linearGradient id="c">
   <stop stop-color="#fff" offset="0"/>
   <stop stop-color="#fff" stop-opacity="0" offset="1"/>
  </linearGradient>
  <linearGradient id="e" x1="-258.5" x2="-245.79" y1="-495.64" y2="-316.34" gradientUnits="userSpaceOnUse" xlink:href="#c"/>
  <linearGradient id="d" x1="-685.6" x2="-586.04" y1="244.69" y2="87.092" gradientTransform="matrix(.871 0 0 .97197 232.03 -457.52)" gradientUnits="userSpaceOnUse" xlink:href="#c"/>
  <radialGradient id="b" cx="-185.49" cy="-334.83" r="82.102" gradientTransform="matrix(.12493 -.83765 .90637 .13518 139.8 -440.61)" gradientUnits="userSpaceOnUse">
   <stop stop-color="#d40000" offset="0"/>
   <stop stop-color="#d40000" stop-opacity="0" offset="1"/>
  </radialGradient>
 </defs>
 <g transform="matrix(2.8628 0 0 2.8628 972.22 1341.9)">
  <path transform="matrix(.61115 0 0 .25035 -139.25 -221.96)" d="m-106.81-357.52c0 46.219-37.72 83.687-84.25 83.687s-84.25-37.468-84.25-83.687 37.72-83.687 84.25-83.687 84.25 37.468 84.25 83.687z" filter="url(#f)"/>
  <path transform="translate(-61.34 -23.592)" d="m-106.81-357.52c0 46.219-37.72 83.687-84.25 83.687s-84.25-37.468-84.25-83.687 37.72-83.687 84.25-83.687 84.25 37.468 84.25 83.687z" clip-path="url(#a)" fill="#500"/>
  <path transform="translate(-59.453 -21.705)" d="m-106.81-357.52c0 46.219-37.72 83.687-84.25 83.687s-84.25-37.468-84.25-83.687 37.72-83.687 84.25-83.687 84.25 37.468 84.25 83.687z" clip-path="url(#a)" fill="url(#b)"/>
  <path transform="translate(-59.453 -21.705)" d="m-106.81-357.52c0 46.219-37.72 83.687-84.25 83.687s-84.25-37.468-84.25-83.687 37.72-83.687 84.25-83.687 84.25 37.468 84.25 83.687z" clip-path="url(#a)" fill="url(#b)"/>
  <path transform="matrix(.95038 0 0 .95081 281.33 -449.07)" d="m-560.91-16.344c-48.255-1.0264-92.042 43.762-88.812 92.156 1.1954 44.242 39.476 84.38 84.125 85.531 40.001 2.5512 80.516-23.981 91.125-63.094 10.79-35.256-2.3933-76.957-33.219-97.594-15.367-11.016-34.184-17.481-53.219-17zm-0.75 9.1875c44.215-1.6209 84.847 38.693 82.594 83.031-0.68792 41.671-37.316 79.328-79.444 79.017-37.391 1.229-74.536-25.94-81.705-63.219-7.6053-33.226 7.6836-70.66 37.796-87.199 12.323-7.3356 26.383-11.39 40.758-11.631z" clip-path="url(#g)" fill="#2b0000"/>
  <path d="m-253.91-452.22c-26.959 0.38545-52.515 18.105-62.969 42.844 23.833 36.575 84.891 37.479 110.66 2.4062 9.0262-6.6941 9.4696-22.866-1.1515-28.136-12.69-11.105-29.516-17.644-46.536-17.114z" fill="url(#e)"/>
  <path d="m-319.5-370.04c-6.8513-3.7801-9.5048-0.31156-11.731-0.12451 7.6871 37.415 38.835 65.396 76.104 65.396 19.666 0 37.622-7.7934 51.335-20.654-17.143 9.2948-30.323 13.297-39.672 12.17-16.344-1.9699-32.705-1.5895-48.512-19.72-14.77-16.94-17.744-31.671-27.524-37.067z" fill="url(#d)"/>
 </g>
</svg>
